G04 Layer_Color=2752767*
%FSLAX25Y25*%
%MOIN*%
G70*
G01*
G75*
%ADD10C,0.00787*%
%ADD21C,0.01575*%
%ADD22C,0.00591*%
%ADD23C,0.00984*%
%ADD56C,0.01000*%
%ADD57C,0.00600*%
%ADD58C,0.00200*%
%ADD59C,0.00267*%
G36*
X1034465Y-150646D02*
Y-150933D01*
Y-151219D01*
Y-151505D01*
Y-151791D01*
Y-152078D01*
Y-152364D01*
Y-152650D01*
Y-152937D01*
Y-153223D01*
Y-153509D01*
Y-153796D01*
Y-154082D01*
Y-154368D01*
Y-154655D01*
Y-154941D01*
Y-155227D01*
Y-155514D01*
Y-155800D01*
Y-156086D01*
Y-156372D01*
X1034179D01*
Y-156659D01*
Y-156945D01*
Y-157231D01*
Y-157518D01*
Y-157804D01*
X1033893D01*
Y-158090D01*
Y-158377D01*
Y-158663D01*
Y-158949D01*
X1033607D01*
Y-159236D01*
Y-159522D01*
Y-159808D01*
Y-160094D01*
X1033320D01*
Y-160381D01*
Y-160667D01*
Y-160953D01*
X1033034D01*
Y-161240D01*
Y-161526D01*
Y-161812D01*
X1032747D01*
Y-162099D01*
Y-162385D01*
Y-162671D01*
X1032461D01*
Y-162958D01*
Y-163244D01*
Y-163530D01*
X1032175D01*
Y-163816D01*
Y-164103D01*
X1031889D01*
Y-164389D01*
Y-164675D01*
X1031602D01*
Y-164962D01*
Y-165248D01*
Y-165534D01*
X1031316D01*
Y-165821D01*
Y-166107D01*
X1031030D01*
Y-166393D01*
Y-166680D01*
Y-166966D01*
X1030743D01*
Y-167252D01*
Y-167539D01*
X1030457D01*
Y-167825D01*
Y-168111D01*
Y-168398D01*
X1030171D01*
Y-168684D01*
Y-168970D01*
X1029884D01*
Y-169256D01*
Y-169543D01*
Y-169829D01*
X1029598D01*
Y-170115D01*
Y-170402D01*
X1029312D01*
Y-170688D01*
Y-170974D01*
Y-171261D01*
X1029025D01*
Y-171547D01*
Y-171833D01*
X1028739D01*
Y-172120D01*
Y-172406D01*
Y-172692D01*
X1028453D01*
Y-172978D01*
Y-173265D01*
X1028166D01*
Y-173551D01*
Y-173837D01*
Y-174124D01*
X1027880D01*
Y-174410D01*
Y-174696D01*
X1027594D01*
Y-174983D01*
Y-175269D01*
Y-175555D01*
X1027308D01*
Y-175842D01*
Y-176128D01*
X1027021D01*
Y-176414D01*
Y-176701D01*
Y-176987D01*
X1026735D01*
Y-177273D01*
Y-177560D01*
X1026449D01*
Y-177846D01*
Y-178132D01*
Y-178419D01*
X1026162D01*
Y-178705D01*
Y-178991D01*
X1025876D01*
Y-179277D01*
Y-179564D01*
Y-179850D01*
X1025590D01*
Y-180136D01*
Y-180423D01*
X1025303D01*
Y-180709D01*
Y-180995D01*
Y-181282D01*
X1025017D01*
Y-181568D01*
Y-181854D01*
X1024731D01*
Y-182141D01*
Y-182427D01*
Y-182713D01*
X1024444D01*
Y-183000D01*
Y-183286D01*
X1024158D01*
Y-183572D01*
Y-183858D01*
Y-184145D01*
X1023872D01*
Y-184431D01*
Y-184717D01*
X1023586D01*
Y-185004D01*
Y-185290D01*
Y-185576D01*
X1023299D01*
Y-185863D01*
Y-186149D01*
X1023013D01*
Y-186435D01*
Y-186722D01*
Y-187008D01*
X1022727D01*
Y-187294D01*
Y-187581D01*
X1022440D01*
Y-187867D01*
Y-188153D01*
X1022154D01*
Y-188439D01*
Y-188726D01*
X1021868D01*
Y-189012D01*
Y-189298D01*
Y-189585D01*
X1021581D01*
Y-189871D01*
X1021295D01*
Y-190157D01*
Y-190444D01*
Y-190730D01*
X1021009D01*
Y-191016D01*
X1020722D01*
Y-191303D01*
Y-191589D01*
X1020436D01*
Y-191875D01*
Y-192162D01*
X1020150D01*
Y-192448D01*
Y-192734D01*
X1019864D01*
Y-193020D01*
Y-193307D01*
X1019577D01*
Y-193593D01*
X1019291D01*
Y-193879D01*
Y-194166D01*
X1019005D01*
Y-194452D01*
Y-194738D01*
X1018718D01*
Y-195025D01*
X1018432D01*
Y-195311D01*
X1018146D01*
Y-195597D01*
Y-195884D01*
X1017859D01*
Y-196170D01*
X1017573D01*
Y-196456D01*
Y-196742D01*
X1017287D01*
Y-197029D01*
X1017000D01*
Y-197315D01*
X1016714D01*
Y-197601D01*
Y-197888D01*
X1016428D01*
Y-198174D01*
X1016141D01*
Y-198460D01*
X1015855D01*
Y-198747D01*
X1015569D01*
Y-199033D01*
X1015283D01*
Y-199319D01*
Y-199606D01*
X1014996D01*
Y-199892D01*
X1014710D01*
Y-200178D01*
X1014423D01*
Y-200465D01*
X1014137D01*
Y-200751D01*
X1013851D01*
Y-201037D01*
X1013565D01*
Y-201324D01*
X1013278D01*
Y-201610D01*
X1012706D01*
Y-201896D01*
X1012419D01*
Y-202183D01*
X1012133D01*
Y-202469D01*
X1011847D01*
Y-202755D01*
X1011560D01*
Y-203041D01*
X1010988D01*
Y-203328D01*
X1010701D01*
Y-203614D01*
X1010129D01*
Y-203900D01*
X1009842D01*
Y-204187D01*
X1009270D01*
Y-204473D01*
X1008984D01*
Y-204759D01*
X1008411D01*
Y-205046D01*
X1007838D01*
Y-205332D01*
X1007266D01*
Y-205618D01*
X1006693D01*
Y-205905D01*
X1006120D01*
Y-206191D01*
X1005262D01*
Y-206477D01*
X1004689D01*
Y-206764D01*
X1003830D01*
Y-207050D01*
X1002685D01*
Y-207336D01*
X1001539D01*
Y-207622D01*
X999822D01*
Y-207909D01*
X997817D01*
Y-208195D01*
X997531D01*
Y-207909D01*
Y-207622D01*
Y-207336D01*
Y-207050D01*
Y-206764D01*
Y-206477D01*
Y-206191D01*
Y-205905D01*
Y-205618D01*
Y-205332D01*
Y-205046D01*
Y-204759D01*
Y-204473D01*
Y-204187D01*
Y-203900D01*
Y-203614D01*
Y-203328D01*
Y-203041D01*
Y-202755D01*
Y-202469D01*
Y-202183D01*
Y-201896D01*
Y-201610D01*
Y-201324D01*
Y-201037D01*
Y-200751D01*
Y-200465D01*
Y-200178D01*
Y-199892D01*
Y-199606D01*
Y-199319D01*
Y-199033D01*
Y-198747D01*
X998104D01*
Y-198460D01*
X998676D01*
Y-198174D01*
X999249D01*
Y-197888D01*
X999822D01*
Y-197601D01*
X1000394D01*
Y-197315D01*
X1000967D01*
Y-197029D01*
X1001253D01*
Y-196742D01*
X1001826D01*
Y-196456D01*
X1002112D01*
Y-196170D01*
X1002685D01*
Y-195884D01*
X1002971D01*
Y-195597D01*
X1003257D01*
Y-195311D01*
X1003830D01*
Y-195025D01*
X1004116D01*
Y-194738D01*
X1004403D01*
Y-194452D01*
X1004689D01*
Y-194166D01*
X1004975D01*
Y-193879D01*
X1005262D01*
Y-193593D01*
X1005548D01*
Y-193307D01*
X1005834D01*
Y-193020D01*
X1006120D01*
Y-192734D01*
X1006407D01*
Y-192448D01*
X1006693D01*
Y-192162D01*
X1006979D01*
Y-191875D01*
Y-191589D01*
X1007266D01*
Y-191303D01*
X1007552D01*
Y-191016D01*
X1007838D01*
Y-190730D01*
Y-190444D01*
X1008125D01*
Y-190157D01*
X1008411D01*
Y-189871D01*
Y-189585D01*
X1008697D01*
Y-189298D01*
Y-189012D01*
X1008984D01*
Y-188726D01*
X1009270D01*
Y-188439D01*
Y-188153D01*
X1009556D01*
Y-187867D01*
Y-187581D01*
X1009842D01*
Y-187294D01*
Y-187008D01*
X1008125D01*
Y-186722D01*
X1006120D01*
Y-186435D01*
X1004975D01*
Y-186149D01*
X1004403D01*
Y-185863D01*
X1003544D01*
Y-185576D01*
X1002971D01*
Y-185290D01*
X1002685D01*
Y-185004D01*
X1002112D01*
Y-184717D01*
X1001826D01*
Y-184431D01*
X1001539D01*
Y-184145D01*
X1001253D01*
Y-183858D01*
X1000967D01*
Y-183572D01*
X1000681D01*
Y-183286D01*
Y-183000D01*
X1000394D01*
Y-182713D01*
X1000108D01*
Y-182427D01*
Y-182141D01*
X999822D01*
Y-181854D01*
Y-181568D01*
X999535D01*
Y-181282D01*
Y-180995D01*
X999249D01*
Y-180709D01*
Y-180423D01*
Y-180136D01*
X998963D01*
Y-179850D01*
Y-179564D01*
Y-179277D01*
Y-178991D01*
X998676D01*
Y-178705D01*
Y-178419D01*
Y-178132D01*
Y-177846D01*
Y-177560D01*
Y-177273D01*
Y-176987D01*
X998390D01*
Y-176701D01*
Y-176414D01*
Y-176128D01*
Y-175842D01*
Y-175555D01*
Y-175269D01*
Y-174983D01*
Y-174696D01*
Y-174410D01*
Y-174124D01*
Y-173837D01*
Y-173551D01*
Y-173265D01*
Y-172978D01*
Y-172692D01*
X998104D01*
Y-172406D01*
Y-172120D01*
Y-171833D01*
Y-171547D01*
Y-171261D01*
Y-170974D01*
Y-170688D01*
Y-170402D01*
Y-170115D01*
Y-169829D01*
Y-169543D01*
Y-169256D01*
Y-168970D01*
Y-168684D01*
Y-168398D01*
X997817D01*
Y-168111D01*
Y-167825D01*
Y-167539D01*
Y-167252D01*
Y-166966D01*
Y-166680D01*
Y-166393D01*
Y-166107D01*
Y-165821D01*
Y-165534D01*
Y-165248D01*
Y-164962D01*
Y-164675D01*
Y-164389D01*
Y-164103D01*
Y-163816D01*
X997531D01*
Y-163530D01*
Y-163244D01*
Y-162958D01*
Y-162671D01*
Y-162385D01*
Y-162099D01*
Y-161812D01*
Y-161526D01*
Y-161240D01*
Y-160953D01*
Y-160667D01*
Y-160381D01*
Y-160094D01*
Y-159808D01*
Y-159522D01*
Y-159236D01*
X997245D01*
Y-158949D01*
Y-158663D01*
Y-158377D01*
Y-158090D01*
Y-157804D01*
Y-157518D01*
Y-157231D01*
Y-156945D01*
Y-156659D01*
Y-156372D01*
Y-156086D01*
Y-155800D01*
Y-155514D01*
Y-155227D01*
X996958D01*
Y-154941D01*
Y-154655D01*
Y-154368D01*
Y-154082D01*
Y-153796D01*
Y-153509D01*
Y-153223D01*
Y-152937D01*
Y-152650D01*
Y-152364D01*
Y-152078D01*
Y-151791D01*
Y-151505D01*
Y-151219D01*
Y-150933D01*
Y-150646D01*
X996672D01*
Y-150360D01*
X1010415D01*
Y-150646D01*
Y-150933D01*
Y-151219D01*
Y-151505D01*
Y-151791D01*
Y-152078D01*
Y-152364D01*
Y-152650D01*
Y-152937D01*
Y-153223D01*
Y-153509D01*
Y-153796D01*
Y-154082D01*
Y-154368D01*
X1010701D01*
Y-154655D01*
Y-154941D01*
Y-155227D01*
Y-155514D01*
Y-155800D01*
Y-156086D01*
Y-156372D01*
Y-156659D01*
Y-156945D01*
Y-157231D01*
Y-157518D01*
Y-157804D01*
Y-158090D01*
Y-158377D01*
Y-158663D01*
Y-158949D01*
Y-159236D01*
Y-159522D01*
Y-159808D01*
Y-160094D01*
Y-160381D01*
Y-160667D01*
Y-160953D01*
Y-161240D01*
Y-161526D01*
Y-161812D01*
Y-162099D01*
Y-162385D01*
Y-162671D01*
Y-162958D01*
Y-163244D01*
Y-163530D01*
Y-163816D01*
Y-164103D01*
Y-164389D01*
Y-164675D01*
Y-164962D01*
Y-165248D01*
Y-165534D01*
Y-165821D01*
Y-166107D01*
X1010988D01*
Y-166393D01*
X1010701D01*
Y-166680D01*
Y-166966D01*
X1010988D01*
Y-167252D01*
Y-167539D01*
Y-167825D01*
Y-168111D01*
Y-168398D01*
Y-168684D01*
Y-168970D01*
Y-169256D01*
Y-169543D01*
Y-169829D01*
Y-170115D01*
Y-170402D01*
Y-170688D01*
Y-170974D01*
Y-171261D01*
Y-171547D01*
Y-171833D01*
Y-172120D01*
Y-172406D01*
Y-172692D01*
Y-172978D01*
Y-173265D01*
Y-173551D01*
Y-173837D01*
Y-174124D01*
Y-174410D01*
X1011274D01*
Y-174696D01*
Y-174983D01*
Y-175269D01*
X1011560D01*
Y-175555D01*
X1011847D01*
Y-175842D01*
X1012133D01*
Y-176128D01*
X1012992D01*
Y-176414D01*
X1013851D01*
Y-176128D01*
X1014137D01*
Y-175842D01*
Y-175555D01*
Y-175269D01*
X1014423D01*
Y-174983D01*
Y-174696D01*
X1014710D01*
Y-174410D01*
Y-174124D01*
Y-173837D01*
X1014996D01*
Y-173551D01*
Y-173265D01*
Y-172978D01*
X1015283D01*
Y-172692D01*
Y-172406D01*
Y-172120D01*
X1015569D01*
Y-171833D01*
Y-171547D01*
Y-171261D01*
X1015855D01*
Y-170974D01*
Y-170688D01*
X1016141D01*
Y-170402D01*
Y-170115D01*
Y-169829D01*
X1016428D01*
Y-169543D01*
Y-169256D01*
Y-168970D01*
X1016714D01*
Y-168684D01*
Y-168398D01*
Y-168111D01*
X1017000D01*
Y-167825D01*
Y-167539D01*
X1017287D01*
Y-167252D01*
Y-166966D01*
Y-166680D01*
X1017573D01*
Y-166393D01*
Y-166107D01*
Y-165821D01*
X1017859D01*
Y-165534D01*
Y-165248D01*
Y-164962D01*
X1018146D01*
Y-164675D01*
Y-164389D01*
X1018432D01*
Y-164103D01*
Y-163816D01*
Y-163530D01*
X1018718D01*
Y-163244D01*
Y-162958D01*
Y-162671D01*
X1019005D01*
Y-162385D01*
Y-162099D01*
Y-161812D01*
X1019291D01*
Y-161526D01*
Y-161240D01*
X1019577D01*
Y-160953D01*
Y-160667D01*
Y-160381D01*
X1019864D01*
Y-160094D01*
Y-159808D01*
Y-159522D01*
X1020150D01*
Y-159236D01*
Y-158949D01*
Y-158663D01*
X1020436D01*
Y-158377D01*
Y-158090D01*
Y-157804D01*
Y-157518D01*
X1020722D01*
Y-157231D01*
Y-156945D01*
Y-156659D01*
Y-156372D01*
X1021009D01*
Y-156086D01*
Y-155800D01*
Y-155514D01*
Y-155227D01*
Y-154941D01*
X1021295D01*
Y-154655D01*
Y-154368D01*
Y-154082D01*
Y-153796D01*
Y-153509D01*
Y-153223D01*
X1021581D01*
Y-152937D01*
Y-152650D01*
Y-152364D01*
Y-152078D01*
Y-151791D01*
Y-151505D01*
Y-151219D01*
Y-150933D01*
Y-150646D01*
Y-150360D01*
X1034465D01*
Y-150646D01*
D02*
G37*
G36*
X976630Y-133181D02*
Y-133467D01*
X976344D01*
Y-133754D01*
Y-134040D01*
Y-134326D01*
Y-134613D01*
Y-134899D01*
Y-135185D01*
X976058D01*
Y-135472D01*
Y-135758D01*
Y-136044D01*
Y-136330D01*
Y-136617D01*
Y-136903D01*
X975771D01*
Y-137189D01*
Y-137476D01*
Y-137762D01*
Y-138048D01*
Y-138335D01*
Y-138621D01*
Y-138907D01*
X975485D01*
Y-139194D01*
Y-139480D01*
Y-139766D01*
Y-140053D01*
Y-140339D01*
Y-140625D01*
X975199D01*
Y-140911D01*
Y-141198D01*
Y-141484D01*
Y-141771D01*
Y-142057D01*
Y-142343D01*
X974912D01*
Y-142629D01*
Y-142916D01*
Y-143202D01*
Y-143488D01*
Y-143775D01*
Y-144061D01*
Y-144347D01*
X974626D01*
Y-144634D01*
Y-144920D01*
Y-145206D01*
Y-145492D01*
Y-145779D01*
Y-146065D01*
X974340D01*
Y-146352D01*
Y-146638D01*
Y-146924D01*
Y-147210D01*
Y-147497D01*
Y-147783D01*
X974053D01*
Y-148069D01*
Y-148356D01*
Y-148642D01*
Y-148928D01*
Y-149215D01*
Y-149501D01*
X973767D01*
Y-149787D01*
Y-150074D01*
Y-150360D01*
Y-150646D01*
Y-150933D01*
Y-151219D01*
Y-151505D01*
X973481D01*
Y-151791D01*
Y-152078D01*
Y-152364D01*
Y-152650D01*
Y-152937D01*
Y-153223D01*
X973195D01*
Y-153509D01*
Y-153796D01*
X973767D01*
Y-153509D01*
X974053D01*
Y-153223D01*
X974340D01*
Y-152937D01*
X974912D01*
Y-152650D01*
X975199D01*
Y-152364D01*
X975485D01*
Y-152078D01*
X976058D01*
Y-151791D01*
X976630D01*
Y-151505D01*
X976917D01*
Y-151219D01*
X977489D01*
Y-150933D01*
X978348D01*
Y-150646D01*
X978921D01*
Y-150360D01*
X979780D01*
Y-150074D01*
X981211D01*
Y-149787D01*
X987510D01*
Y-150074D01*
X988655D01*
Y-150360D01*
X989514D01*
Y-150646D01*
X990087D01*
Y-150933D01*
X990373D01*
Y-151219D01*
X990946D01*
Y-151505D01*
X991232D01*
Y-151791D01*
X991518D01*
Y-152078D01*
X991805D01*
Y-152364D01*
X992091D01*
Y-152650D01*
Y-152937D01*
X992377D01*
Y-153223D01*
Y-153509D01*
X992664D01*
Y-153796D01*
Y-154082D01*
Y-154368D01*
X992950D01*
Y-154655D01*
Y-154941D01*
Y-155227D01*
Y-155514D01*
X993236D01*
Y-155800D01*
Y-156086D01*
Y-156372D01*
Y-156659D01*
Y-156945D01*
Y-157231D01*
Y-157518D01*
Y-157804D01*
Y-158090D01*
Y-158377D01*
Y-158663D01*
Y-158949D01*
Y-159236D01*
Y-159522D01*
Y-159808D01*
Y-160094D01*
Y-160381D01*
Y-160667D01*
X992950D01*
Y-160953D01*
Y-161240D01*
Y-161526D01*
Y-161812D01*
Y-162099D01*
Y-162385D01*
Y-162671D01*
X992664D01*
Y-162958D01*
Y-163244D01*
Y-163530D01*
Y-163816D01*
Y-164103D01*
Y-164389D01*
Y-164675D01*
X992377D01*
Y-164962D01*
Y-165248D01*
Y-165534D01*
Y-165821D01*
Y-166107D01*
Y-166393D01*
X992091D01*
Y-166680D01*
Y-166966D01*
Y-167252D01*
Y-167539D01*
Y-167825D01*
Y-168111D01*
X991805D01*
Y-168398D01*
Y-168684D01*
Y-168970D01*
Y-169256D01*
Y-169543D01*
Y-169829D01*
X991518D01*
Y-170115D01*
Y-170402D01*
Y-170688D01*
Y-170974D01*
Y-171261D01*
Y-171547D01*
Y-171833D01*
X991232D01*
Y-172120D01*
Y-172406D01*
Y-172692D01*
Y-172978D01*
Y-173265D01*
Y-173551D01*
X990946D01*
Y-173837D01*
Y-174124D01*
Y-174410D01*
Y-174696D01*
Y-174983D01*
Y-175269D01*
X990660D01*
Y-175555D01*
Y-175842D01*
Y-176128D01*
Y-176414D01*
Y-176701D01*
Y-176987D01*
Y-177273D01*
X990373D01*
Y-177560D01*
Y-177846D01*
Y-178132D01*
Y-178419D01*
Y-178705D01*
Y-178991D01*
X990087D01*
Y-179277D01*
Y-179564D01*
Y-179850D01*
Y-180136D01*
Y-180423D01*
Y-180709D01*
X989801D01*
Y-180995D01*
Y-181282D01*
Y-181568D01*
Y-181854D01*
Y-182141D01*
Y-182427D01*
X989514D01*
Y-182713D01*
Y-183000D01*
Y-183286D01*
Y-183572D01*
Y-183858D01*
Y-184145D01*
Y-184431D01*
X989228D01*
Y-184717D01*
Y-185004D01*
Y-185290D01*
Y-185576D01*
Y-185863D01*
Y-186149D01*
X988942D01*
Y-186435D01*
Y-186722D01*
X975771D01*
Y-186435D01*
Y-186149D01*
X976058D01*
Y-185863D01*
Y-185576D01*
Y-185290D01*
Y-185004D01*
Y-184717D01*
Y-184431D01*
X976344D01*
Y-184145D01*
Y-183858D01*
Y-183572D01*
Y-183286D01*
Y-183000D01*
Y-182713D01*
Y-182427D01*
X976630D01*
Y-182141D01*
Y-181854D01*
Y-181568D01*
Y-181282D01*
Y-180995D01*
Y-180709D01*
X976917D01*
Y-180423D01*
Y-180136D01*
Y-179850D01*
Y-179564D01*
Y-179277D01*
Y-178991D01*
X977203D01*
Y-178705D01*
Y-178419D01*
Y-178132D01*
Y-177846D01*
Y-177560D01*
Y-177273D01*
Y-176987D01*
X977489D01*
Y-176701D01*
Y-176414D01*
Y-176128D01*
Y-175842D01*
Y-175555D01*
Y-175269D01*
X977775D01*
Y-174983D01*
Y-174696D01*
Y-174410D01*
Y-174124D01*
Y-173837D01*
Y-173551D01*
Y-173265D01*
X978062D01*
Y-172978D01*
Y-172692D01*
Y-172406D01*
Y-172120D01*
Y-171833D01*
Y-171547D01*
X978348D01*
Y-171261D01*
Y-170974D01*
Y-170688D01*
Y-170402D01*
Y-170115D01*
Y-169829D01*
X978634D01*
Y-169543D01*
Y-169256D01*
Y-168970D01*
Y-168684D01*
Y-168398D01*
Y-168111D01*
X978921D01*
Y-167825D01*
Y-167539D01*
Y-167252D01*
Y-166966D01*
Y-166680D01*
Y-166393D01*
Y-166107D01*
X979207D01*
Y-165821D01*
Y-165534D01*
Y-165248D01*
Y-164962D01*
Y-164675D01*
Y-164389D01*
X979493D01*
Y-164103D01*
Y-163816D01*
Y-163530D01*
Y-163244D01*
Y-162958D01*
Y-162671D01*
Y-162385D01*
X979780D01*
Y-162099D01*
Y-161812D01*
Y-161526D01*
Y-161240D01*
Y-160953D01*
Y-160667D01*
X979493D01*
Y-160381D01*
Y-160094D01*
X979207D01*
Y-159808D01*
X978921D01*
Y-159522D01*
X978348D01*
Y-159236D01*
X976630D01*
Y-159522D01*
X975199D01*
Y-159808D01*
X974340D01*
Y-160094D01*
X973767D01*
Y-160381D01*
X973481D01*
Y-160667D01*
X972908D01*
Y-160953D01*
X972622D01*
Y-161240D01*
X972336D01*
Y-161526D01*
Y-161812D01*
X972049D01*
Y-162099D01*
Y-162385D01*
Y-162671D01*
X971763D01*
Y-162958D01*
Y-163244D01*
Y-163530D01*
Y-163816D01*
Y-164103D01*
Y-164389D01*
X971477D01*
Y-164675D01*
Y-164962D01*
Y-165248D01*
Y-165534D01*
Y-165821D01*
Y-166107D01*
Y-166393D01*
X971190D01*
Y-166680D01*
Y-166966D01*
Y-167252D01*
Y-167539D01*
Y-167825D01*
Y-168111D01*
X970904D01*
Y-168398D01*
Y-168684D01*
Y-168970D01*
Y-169256D01*
Y-169543D01*
Y-169829D01*
X970618D01*
Y-170115D01*
Y-170402D01*
Y-170688D01*
Y-170974D01*
Y-171261D01*
Y-171547D01*
X970331D01*
Y-171833D01*
Y-172120D01*
Y-172406D01*
Y-172692D01*
Y-172978D01*
Y-173265D01*
Y-173551D01*
X970045D01*
Y-173837D01*
Y-174124D01*
Y-174410D01*
Y-174696D01*
Y-174983D01*
Y-175269D01*
X969759D01*
Y-175555D01*
Y-175842D01*
Y-176128D01*
Y-176414D01*
Y-176701D01*
Y-176987D01*
X969472D01*
Y-177273D01*
Y-177560D01*
Y-177846D01*
Y-178132D01*
Y-178419D01*
Y-178705D01*
Y-178991D01*
X969186D01*
Y-179277D01*
Y-179564D01*
Y-179850D01*
Y-180136D01*
Y-180423D01*
Y-180709D01*
X968900D01*
Y-180995D01*
Y-181282D01*
Y-181568D01*
Y-181854D01*
Y-182141D01*
Y-182427D01*
X968614D01*
Y-182713D01*
Y-183000D01*
Y-183286D01*
Y-183572D01*
Y-183858D01*
Y-184145D01*
X968327D01*
Y-184431D01*
Y-184717D01*
Y-185004D01*
Y-185290D01*
Y-185576D01*
Y-185863D01*
Y-186149D01*
X968041D01*
Y-186435D01*
Y-186722D01*
X954870D01*
Y-186435D01*
Y-186149D01*
X955157D01*
Y-185863D01*
Y-185576D01*
Y-185290D01*
Y-185004D01*
Y-184717D01*
Y-184431D01*
Y-184145D01*
X955443D01*
Y-183858D01*
Y-183572D01*
Y-183286D01*
Y-183000D01*
Y-182713D01*
Y-182427D01*
X955729D01*
Y-182141D01*
Y-181854D01*
Y-181568D01*
Y-181282D01*
Y-180995D01*
Y-180709D01*
X956016D01*
Y-180423D01*
Y-180136D01*
Y-179850D01*
Y-179564D01*
Y-179277D01*
Y-178991D01*
Y-178705D01*
X956302D01*
Y-178419D01*
Y-178132D01*
Y-177846D01*
Y-177560D01*
Y-177273D01*
Y-176987D01*
X956588D01*
Y-176701D01*
Y-176414D01*
Y-176128D01*
Y-175842D01*
Y-175555D01*
Y-175269D01*
X956875D01*
Y-174983D01*
Y-174696D01*
Y-174410D01*
Y-174124D01*
Y-173837D01*
Y-173551D01*
X957161D01*
Y-173265D01*
Y-172978D01*
Y-172692D01*
Y-172406D01*
Y-172120D01*
Y-171833D01*
Y-171547D01*
X957447D01*
Y-171261D01*
Y-170974D01*
Y-170688D01*
Y-170402D01*
Y-170115D01*
Y-169829D01*
X957734D01*
Y-169543D01*
Y-169256D01*
Y-168970D01*
Y-168684D01*
Y-168398D01*
Y-168111D01*
X958020D01*
Y-167825D01*
Y-167539D01*
Y-167252D01*
Y-166966D01*
Y-166680D01*
Y-166393D01*
Y-166107D01*
X958306D01*
Y-165821D01*
Y-165534D01*
Y-165248D01*
Y-164962D01*
Y-164675D01*
Y-164389D01*
X958593D01*
Y-164103D01*
Y-163816D01*
Y-163530D01*
Y-163244D01*
Y-162958D01*
Y-162671D01*
X958879D01*
Y-162385D01*
Y-162099D01*
Y-161812D01*
Y-161526D01*
Y-161240D01*
Y-160953D01*
X959165D01*
Y-160667D01*
Y-160381D01*
Y-160094D01*
Y-159808D01*
Y-159522D01*
Y-159236D01*
Y-158949D01*
X959451D01*
Y-158663D01*
Y-158377D01*
Y-158090D01*
Y-157804D01*
Y-157518D01*
Y-157231D01*
X959738D01*
Y-156945D01*
Y-156659D01*
Y-156372D01*
Y-156086D01*
Y-155800D01*
Y-155514D01*
X960024D01*
Y-155227D01*
Y-154941D01*
Y-154655D01*
Y-154368D01*
Y-154082D01*
Y-153796D01*
X960310D01*
Y-153509D01*
Y-153223D01*
Y-152937D01*
Y-152650D01*
Y-152364D01*
Y-152078D01*
Y-151791D01*
X960597D01*
Y-151505D01*
Y-151219D01*
Y-150933D01*
Y-150646D01*
Y-150360D01*
Y-150074D01*
X960883D01*
Y-149787D01*
Y-149501D01*
Y-149215D01*
Y-148928D01*
Y-148642D01*
Y-148356D01*
X961169D01*
Y-148069D01*
Y-147783D01*
Y-147497D01*
Y-147210D01*
Y-146924D01*
Y-146638D01*
Y-146352D01*
X961456D01*
Y-146065D01*
Y-145779D01*
Y-145492D01*
Y-145206D01*
Y-144920D01*
Y-144634D01*
X961742D01*
Y-144347D01*
Y-144061D01*
Y-143775D01*
Y-143488D01*
Y-143202D01*
Y-142916D01*
X962028D01*
Y-142629D01*
Y-142343D01*
Y-142057D01*
Y-141771D01*
Y-141484D01*
Y-141198D01*
X962315D01*
Y-140911D01*
Y-140625D01*
Y-140339D01*
Y-140053D01*
Y-139766D01*
Y-139480D01*
Y-139194D01*
X962601D01*
Y-138907D01*
Y-138621D01*
Y-138335D01*
Y-138048D01*
Y-137762D01*
Y-137476D01*
X962887D01*
Y-137189D01*
Y-136903D01*
Y-136617D01*
Y-136330D01*
Y-136044D01*
Y-135758D01*
X963173D01*
Y-135472D01*
Y-135185D01*
Y-134899D01*
Y-134613D01*
Y-134326D01*
Y-134040D01*
Y-133754D01*
X963460D01*
Y-133467D01*
Y-133181D01*
Y-132895D01*
X976630D01*
Y-133181D01*
D02*
G37*
G36*
X945422Y-136617D02*
X947140D01*
Y-136903D01*
X947999D01*
Y-137189D01*
X948858D01*
Y-137476D01*
X949717D01*
Y-137762D01*
X950289D01*
Y-138048D01*
X950576D01*
Y-138335D01*
X951148D01*
Y-138621D01*
X951435D01*
Y-138907D01*
X952007D01*
Y-139194D01*
X952294D01*
Y-139480D01*
X952580D01*
Y-139766D01*
X952866D01*
Y-140053D01*
X953153D01*
Y-140339D01*
X953439D01*
Y-140625D01*
X953725D01*
Y-140911D01*
Y-141198D01*
X954012D01*
Y-141484D01*
X954298D01*
Y-141771D01*
Y-142057D01*
X954584D01*
Y-142343D01*
X954870D01*
Y-142629D01*
Y-142916D01*
X955157D01*
Y-143202D01*
Y-143488D01*
Y-143775D01*
X955443D01*
Y-144061D01*
Y-144347D01*
Y-144634D01*
X955729D01*
Y-144920D01*
Y-145206D01*
Y-145492D01*
Y-145779D01*
X956016D01*
Y-146065D01*
Y-146352D01*
Y-146638D01*
Y-146924D01*
Y-147210D01*
X956302D01*
Y-147497D01*
Y-147783D01*
Y-148069D01*
Y-148356D01*
Y-148642D01*
Y-148928D01*
Y-149215D01*
Y-149501D01*
Y-149787D01*
Y-150074D01*
Y-150360D01*
Y-150646D01*
Y-150933D01*
Y-151219D01*
Y-151505D01*
Y-151791D01*
Y-152078D01*
Y-152364D01*
Y-152650D01*
Y-152937D01*
X956016D01*
Y-153223D01*
Y-153509D01*
Y-153796D01*
Y-154082D01*
Y-154368D01*
Y-154655D01*
Y-154941D01*
X955729D01*
Y-155227D01*
Y-155514D01*
Y-155800D01*
Y-156086D01*
Y-156372D01*
X955443D01*
Y-156659D01*
Y-156945D01*
Y-157231D01*
Y-157518D01*
Y-157804D01*
X955157D01*
Y-158090D01*
Y-158377D01*
Y-158663D01*
X954870D01*
Y-158949D01*
Y-159236D01*
Y-159522D01*
Y-159808D01*
X954584D01*
Y-160094D01*
Y-160381D01*
Y-160667D01*
X954298D01*
Y-160953D01*
Y-161240D01*
X954012D01*
Y-161526D01*
Y-161812D01*
Y-162099D01*
X953725D01*
Y-162385D01*
Y-162671D01*
X953439D01*
Y-162958D01*
Y-163244D01*
X953153D01*
Y-163530D01*
Y-163816D01*
X952866D01*
Y-164103D01*
X952580D01*
Y-164389D01*
Y-164675D01*
X952294D01*
Y-164962D01*
X952007D01*
Y-165248D01*
X951721D01*
Y-165534D01*
Y-165821D01*
X951435D01*
Y-166107D01*
X951148D01*
Y-166393D01*
X950862D01*
Y-166680D01*
X950576D01*
Y-166966D01*
X950289D01*
Y-167252D01*
X949717D01*
Y-167539D01*
X949430D01*
Y-167825D01*
X948858D01*
Y-168111D01*
X948572D01*
Y-168398D01*
X947999D01*
Y-168684D01*
X947140D01*
Y-168970D01*
X946281D01*
Y-169256D01*
X945422D01*
Y-169543D01*
X943704D01*
Y-169829D01*
X938551D01*
Y-169543D01*
X935974D01*
Y-169256D01*
X933970D01*
Y-168970D01*
X932538D01*
Y-168684D01*
X931106D01*
Y-168398D01*
X929675D01*
Y-168684D01*
Y-168970D01*
Y-169256D01*
Y-169543D01*
Y-169829D01*
Y-170115D01*
Y-170402D01*
X929389D01*
Y-170688D01*
Y-170974D01*
Y-171261D01*
Y-171547D01*
Y-171833D01*
Y-172120D01*
X929102D01*
Y-172406D01*
Y-172692D01*
Y-172978D01*
Y-173265D01*
Y-173551D01*
Y-173837D01*
X928816D01*
Y-174124D01*
Y-174410D01*
Y-174696D01*
Y-174983D01*
Y-175269D01*
Y-175555D01*
Y-175842D01*
X928530D01*
Y-176128D01*
Y-176414D01*
Y-176701D01*
Y-176987D01*
Y-177273D01*
Y-177560D01*
X928243D01*
Y-177846D01*
Y-178132D01*
Y-178419D01*
Y-178705D01*
Y-178991D01*
Y-179277D01*
X927957D01*
Y-179564D01*
Y-179850D01*
Y-180136D01*
Y-180423D01*
Y-180709D01*
Y-180995D01*
Y-181282D01*
X927671D01*
Y-181568D01*
Y-181854D01*
Y-182141D01*
Y-182427D01*
Y-182713D01*
Y-183000D01*
X927384D01*
Y-183286D01*
Y-183572D01*
Y-183858D01*
Y-184145D01*
Y-184431D01*
Y-184717D01*
X927098D01*
Y-185004D01*
Y-185290D01*
Y-185576D01*
Y-185863D01*
Y-186149D01*
Y-186435D01*
Y-186722D01*
X913641D01*
Y-186435D01*
X913928D01*
Y-186149D01*
Y-185863D01*
Y-185576D01*
Y-185290D01*
Y-185004D01*
X914214D01*
Y-184717D01*
Y-184431D01*
Y-184145D01*
Y-183858D01*
Y-183572D01*
Y-183286D01*
Y-183000D01*
X914500D01*
Y-182713D01*
Y-182427D01*
Y-182141D01*
Y-181854D01*
Y-181568D01*
Y-181282D01*
X914787D01*
Y-180995D01*
Y-180709D01*
Y-180423D01*
Y-180136D01*
Y-179850D01*
Y-179564D01*
X915073D01*
Y-179277D01*
Y-178991D01*
Y-178705D01*
Y-178419D01*
Y-178132D01*
Y-177846D01*
Y-177560D01*
X915359D01*
Y-177273D01*
Y-176987D01*
Y-176701D01*
Y-176414D01*
Y-176128D01*
Y-175842D01*
X915646D01*
Y-175555D01*
Y-175269D01*
Y-174983D01*
Y-174696D01*
Y-174410D01*
Y-174124D01*
X915932D01*
Y-173837D01*
Y-173551D01*
Y-173265D01*
Y-172978D01*
Y-172692D01*
Y-172406D01*
X916218D01*
Y-172120D01*
Y-171833D01*
Y-171547D01*
Y-171261D01*
Y-170974D01*
Y-170688D01*
Y-170402D01*
X916504D01*
Y-170115D01*
Y-169829D01*
Y-169543D01*
Y-169256D01*
Y-168970D01*
Y-168684D01*
X916791D01*
Y-168398D01*
Y-168111D01*
Y-167825D01*
Y-167539D01*
Y-167252D01*
Y-166966D01*
X917077D01*
Y-166680D01*
Y-166393D01*
Y-166107D01*
Y-165821D01*
Y-165534D01*
Y-165248D01*
X917363D01*
Y-164962D01*
Y-164675D01*
Y-164389D01*
Y-164103D01*
Y-163816D01*
Y-163530D01*
Y-163244D01*
X917650D01*
Y-162958D01*
Y-162671D01*
Y-162385D01*
Y-162099D01*
Y-161812D01*
Y-161526D01*
X917936D01*
Y-161240D01*
Y-160953D01*
Y-160667D01*
Y-160381D01*
Y-160094D01*
Y-159808D01*
X918222D01*
Y-159522D01*
Y-159236D01*
Y-158949D01*
Y-158663D01*
Y-158377D01*
Y-158090D01*
Y-157804D01*
X918509D01*
Y-157518D01*
Y-157231D01*
Y-156945D01*
Y-156659D01*
Y-156372D01*
Y-156086D01*
X918795D01*
Y-155800D01*
Y-155514D01*
Y-155227D01*
Y-154941D01*
Y-154655D01*
Y-154368D01*
X919081D01*
Y-154082D01*
Y-153796D01*
Y-153509D01*
Y-153223D01*
Y-152937D01*
Y-152650D01*
X919368D01*
Y-152364D01*
Y-152078D01*
Y-151791D01*
Y-151505D01*
Y-151219D01*
Y-150933D01*
Y-150646D01*
X919654D01*
Y-150360D01*
Y-150074D01*
Y-149787D01*
Y-149501D01*
Y-149215D01*
Y-148928D01*
X919940D01*
Y-148642D01*
Y-148356D01*
Y-148069D01*
Y-147783D01*
Y-147497D01*
Y-147210D01*
X920227D01*
Y-146924D01*
Y-146638D01*
Y-146352D01*
Y-146065D01*
Y-145779D01*
Y-145492D01*
Y-145206D01*
X920513D01*
Y-144920D01*
Y-144634D01*
Y-144347D01*
Y-144061D01*
Y-143775D01*
Y-143488D01*
X920799D01*
Y-143202D01*
Y-142916D01*
Y-142629D01*
Y-142343D01*
Y-142057D01*
Y-141771D01*
X921085D01*
Y-141484D01*
Y-141198D01*
Y-140911D01*
Y-140625D01*
Y-140339D01*
Y-140053D01*
Y-139766D01*
X921372D01*
Y-139480D01*
Y-139194D01*
Y-138907D01*
Y-138621D01*
Y-138335D01*
Y-138048D01*
X921658D01*
Y-137762D01*
Y-137476D01*
Y-137189D01*
Y-136903D01*
Y-136617D01*
Y-136330D01*
X945422D01*
Y-136617D01*
D02*
G37*
G36*
X1078558Y-150646D02*
X1078271D01*
Y-150933D01*
X1077985D01*
Y-151219D01*
Y-151505D01*
X1077699D01*
Y-151791D01*
X1077412D01*
Y-152078D01*
X1077126D01*
Y-152364D01*
Y-152650D01*
X1076840D01*
Y-152937D01*
X1076553D01*
Y-153223D01*
X1076267D01*
Y-153509D01*
X1075981D01*
Y-153796D01*
Y-154082D01*
X1075694D01*
Y-154368D01*
X1075408D01*
Y-154655D01*
X1075122D01*
Y-154941D01*
Y-155227D01*
X1074835D01*
Y-155514D01*
X1074549D01*
Y-155800D01*
X1074263D01*
Y-156086D01*
X1073977D01*
Y-156372D01*
Y-156659D01*
X1073690D01*
Y-156945D01*
X1073404D01*
Y-157231D01*
X1073118D01*
Y-157518D01*
Y-157804D01*
X1072831D01*
Y-158090D01*
X1072545D01*
Y-158377D01*
X1072259D01*
Y-158663D01*
Y-158949D01*
X1071972D01*
Y-159236D01*
X1071686D01*
Y-159522D01*
X1071400D01*
Y-159808D01*
X1071113D01*
Y-160094D01*
Y-160381D01*
X1070827D01*
Y-160667D01*
X1070541D01*
Y-160953D01*
X1070255D01*
Y-161240D01*
Y-161526D01*
X1069968D01*
Y-161812D01*
X1069682D01*
Y-162099D01*
X1069396D01*
Y-162385D01*
Y-162671D01*
X1069109D01*
Y-162958D01*
X1068823D01*
Y-163244D01*
X1068537D01*
Y-163530D01*
X1068250D01*
Y-163816D01*
Y-164103D01*
X1067964D01*
Y-164389D01*
X1067678D01*
Y-164675D01*
X1067391D01*
Y-164962D01*
Y-165248D01*
X1067105D01*
Y-165534D01*
X1066819D01*
Y-165821D01*
X1066533D01*
Y-166107D01*
Y-166393D01*
X1066246D01*
Y-166680D01*
X1065960D01*
Y-166966D01*
X1065674D01*
Y-167252D01*
X1065387D01*
Y-167539D01*
Y-167825D01*
X1065101D01*
Y-168111D01*
X1064815D01*
Y-168398D01*
X1064528D01*
Y-168684D01*
Y-168970D01*
X1064242D01*
Y-169256D01*
X1063956D01*
Y-169543D01*
X1063669D01*
Y-169829D01*
X1063383D01*
Y-170115D01*
Y-170402D01*
X1063669D01*
Y-170688D01*
Y-170974D01*
X1063956D01*
Y-171261D01*
Y-171547D01*
X1064242D01*
Y-171833D01*
X1064528D01*
Y-172120D01*
Y-172406D01*
X1064815D01*
Y-172692D01*
Y-172978D01*
X1065101D01*
Y-173265D01*
Y-173551D01*
X1065387D01*
Y-173837D01*
Y-174124D01*
X1065674D01*
Y-174410D01*
Y-174696D01*
X1065960D01*
Y-174983D01*
Y-175269D01*
X1066246D01*
Y-175555D01*
Y-175842D01*
X1066533D01*
Y-176128D01*
Y-176414D01*
X1066819D01*
Y-176701D01*
X1067105D01*
Y-176987D01*
Y-177273D01*
X1067391D01*
Y-177560D01*
Y-177846D01*
X1067678D01*
Y-178132D01*
Y-178419D01*
X1067964D01*
Y-178705D01*
Y-178991D01*
X1068250D01*
Y-179277D01*
Y-179564D01*
X1068537D01*
Y-179850D01*
Y-180136D01*
X1068823D01*
Y-180423D01*
Y-180709D01*
X1069109D01*
Y-180995D01*
X1069396D01*
Y-181282D01*
Y-181568D01*
X1069682D01*
Y-181854D01*
Y-182141D01*
X1069968D01*
Y-182427D01*
Y-182713D01*
X1070255D01*
Y-183000D01*
Y-183286D01*
X1070541D01*
Y-183572D01*
Y-183858D01*
X1070827D01*
Y-184145D01*
Y-184431D01*
X1071113D01*
Y-184717D01*
Y-185004D01*
X1071400D01*
Y-185290D01*
X1071686D01*
Y-185576D01*
Y-185863D01*
X1071972D01*
Y-186149D01*
Y-186435D01*
X1072259D01*
Y-186722D01*
X1057084D01*
Y-186435D01*
X1056798D01*
Y-186149D01*
Y-185863D01*
Y-185576D01*
X1056511D01*
Y-185290D01*
Y-185004D01*
Y-184717D01*
X1056225D01*
Y-184431D01*
Y-184145D01*
X1055939D01*
Y-183858D01*
Y-183572D01*
Y-183286D01*
X1055653D01*
Y-183000D01*
Y-182713D01*
Y-182427D01*
X1055366D01*
Y-182141D01*
Y-181854D01*
X1055080D01*
Y-181568D01*
Y-181282D01*
Y-180995D01*
X1054794D01*
Y-180709D01*
Y-180423D01*
Y-180136D01*
X1054507D01*
Y-179850D01*
Y-179564D01*
Y-179277D01*
X1054221D01*
Y-178991D01*
X1053648D01*
Y-179277D01*
Y-179564D01*
X1053362D01*
Y-179850D01*
X1053076D01*
Y-180136D01*
Y-180423D01*
X1052789D01*
Y-180709D01*
X1052503D01*
Y-180995D01*
Y-181282D01*
X1052217D01*
Y-181568D01*
X1051931D01*
Y-181854D01*
Y-182141D01*
X1051644D01*
Y-182427D01*
X1051358D01*
Y-182713D01*
X1051072D01*
Y-183000D01*
Y-183286D01*
X1050785D01*
Y-183572D01*
X1050499D01*
Y-183858D01*
Y-184145D01*
X1050213D01*
Y-184431D01*
X1049926D01*
Y-184717D01*
Y-185004D01*
X1049640D01*
Y-185290D01*
X1049354D01*
Y-185576D01*
Y-185863D01*
X1049067D01*
Y-186149D01*
X1048781D01*
Y-186435D01*
Y-186722D01*
X1032747D01*
Y-186435D01*
X1033034D01*
Y-186149D01*
X1033320D01*
Y-185863D01*
X1033607D01*
Y-185576D01*
X1033893D01*
Y-185290D01*
Y-185004D01*
X1034179D01*
Y-184717D01*
X1034465D01*
Y-184431D01*
X1034752D01*
Y-184145D01*
X1035038D01*
Y-183858D01*
Y-183572D01*
X1035324D01*
Y-183286D01*
X1035611D01*
Y-183000D01*
X1035897D01*
Y-182713D01*
Y-182427D01*
X1036183D01*
Y-182141D01*
X1036470D01*
Y-181854D01*
X1036756D01*
Y-181568D01*
X1037042D01*
Y-181282D01*
Y-180995D01*
X1037329D01*
Y-180709D01*
X1037615D01*
Y-180423D01*
X1037901D01*
Y-180136D01*
X1038188D01*
Y-179850D01*
Y-179564D01*
X1038474D01*
Y-179277D01*
X1038760D01*
Y-178991D01*
X1039046D01*
Y-178705D01*
Y-178419D01*
X1039333D01*
Y-178132D01*
X1039619D01*
Y-177846D01*
X1039905D01*
Y-177560D01*
X1040192D01*
Y-177273D01*
Y-176987D01*
X1040478D01*
Y-176701D01*
X1040764D01*
Y-176414D01*
X1041051D01*
Y-176128D01*
Y-175842D01*
X1041337D01*
Y-175555D01*
X1041623D01*
Y-175269D01*
X1041910D01*
Y-174983D01*
X1042196D01*
Y-174696D01*
Y-174410D01*
X1042482D01*
Y-174124D01*
X1042768D01*
Y-173837D01*
X1043055D01*
Y-173551D01*
Y-173265D01*
X1043341D01*
Y-172978D01*
X1043627D01*
Y-172692D01*
X1043914D01*
Y-172406D01*
X1044200D01*
Y-172120D01*
Y-171833D01*
X1044486D01*
Y-171547D01*
X1044773D01*
Y-171261D01*
X1045059D01*
Y-170974D01*
X1045345D01*
Y-170688D01*
Y-170402D01*
X1045632D01*
Y-170115D01*
X1045918D01*
Y-169829D01*
X1046204D01*
Y-169543D01*
Y-169256D01*
X1046491D01*
Y-168970D01*
X1046777D01*
Y-168684D01*
X1047063D01*
Y-168398D01*
X1047349D01*
Y-168111D01*
Y-167825D01*
X1047636D01*
Y-167539D01*
Y-167252D01*
Y-166966D01*
X1047349D01*
Y-166680D01*
X1047063D01*
Y-166393D01*
Y-166107D01*
X1046777D01*
Y-165821D01*
Y-165534D01*
X1046491D01*
Y-165248D01*
Y-164962D01*
X1046204D01*
Y-164675D01*
Y-164389D01*
X1045918D01*
Y-164103D01*
Y-163816D01*
X1045632D01*
Y-163530D01*
Y-163244D01*
X1045345D01*
Y-162958D01*
X1045059D01*
Y-162671D01*
Y-162385D01*
X1044773D01*
Y-162099D01*
Y-161812D01*
X1044486D01*
Y-161526D01*
Y-161240D01*
X1044200D01*
Y-160953D01*
Y-160667D01*
X1043914D01*
Y-160381D01*
Y-160094D01*
X1043627D01*
Y-159808D01*
Y-159522D01*
X1043341D01*
Y-159236D01*
X1043055D01*
Y-158949D01*
Y-158663D01*
X1042768D01*
Y-158377D01*
Y-158090D01*
X1042482D01*
Y-157804D01*
Y-157518D01*
X1042196D01*
Y-157231D01*
Y-156945D01*
X1041910D01*
Y-156659D01*
Y-156372D01*
X1041623D01*
Y-156086D01*
Y-155800D01*
X1041337D01*
Y-155514D01*
Y-155227D01*
X1041051D01*
Y-154941D01*
X1040764D01*
Y-154655D01*
Y-154368D01*
X1040478D01*
Y-154082D01*
Y-153796D01*
X1040192D01*
Y-153509D01*
Y-153223D01*
X1039905D01*
Y-152937D01*
Y-152650D01*
X1039619D01*
Y-152364D01*
Y-152078D01*
X1039333D01*
Y-151791D01*
Y-151505D01*
X1039046D01*
Y-151219D01*
X1038760D01*
Y-150933D01*
Y-150646D01*
X1038474D01*
Y-150360D01*
X1054221D01*
Y-150646D01*
X1054507D01*
Y-150933D01*
Y-151219D01*
Y-151505D01*
X1054794D01*
Y-151791D01*
Y-152078D01*
Y-152364D01*
X1055080D01*
Y-152650D01*
Y-152937D01*
Y-153223D01*
X1055366D01*
Y-153509D01*
Y-153796D01*
Y-154082D01*
X1055653D01*
Y-154368D01*
Y-154655D01*
Y-154941D01*
X1055939D01*
Y-155227D01*
Y-155514D01*
Y-155800D01*
X1056225D01*
Y-156086D01*
Y-156372D01*
Y-156659D01*
X1056511D01*
Y-156945D01*
Y-157231D01*
Y-157518D01*
X1056798D01*
Y-157804D01*
Y-158090D01*
Y-158377D01*
Y-158663D01*
X1057370D01*
Y-158377D01*
X1057657D01*
Y-158090D01*
X1057943D01*
Y-157804D01*
Y-157518D01*
X1058229D01*
Y-157231D01*
X1058516D01*
Y-156945D01*
Y-156659D01*
X1058802D01*
Y-156372D01*
X1059088D01*
Y-156086D01*
Y-155800D01*
X1059375D01*
Y-155514D01*
X1059661D01*
Y-155227D01*
Y-154941D01*
X1059947D01*
Y-154655D01*
X1060234D01*
Y-154368D01*
Y-154082D01*
X1060520D01*
Y-153796D01*
X1060806D01*
Y-153509D01*
Y-153223D01*
X1061092D01*
Y-152937D01*
X1061379D01*
Y-152650D01*
Y-152364D01*
X1061665D01*
Y-152078D01*
X1061951D01*
Y-151791D01*
Y-151505D01*
X1062238D01*
Y-151219D01*
X1062524D01*
Y-150933D01*
Y-150646D01*
X1062810D01*
Y-150360D01*
X1078558D01*
Y-150646D01*
D02*
G37*
%LPC*%
G36*
X941127Y-147497D02*
X933111D01*
Y-147783D01*
Y-148069D01*
Y-148356D01*
Y-148642D01*
Y-148928D01*
X932824D01*
Y-149215D01*
Y-149501D01*
Y-149787D01*
Y-150074D01*
Y-150360D01*
Y-150646D01*
X932538D01*
Y-150933D01*
Y-151219D01*
Y-151505D01*
Y-151791D01*
Y-152078D01*
Y-152364D01*
X932252D01*
Y-152650D01*
Y-152937D01*
Y-153223D01*
Y-153509D01*
Y-153796D01*
Y-154082D01*
X931965D01*
Y-154368D01*
Y-154655D01*
Y-154941D01*
Y-155227D01*
Y-155514D01*
Y-155800D01*
Y-156086D01*
X931679D01*
Y-156372D01*
Y-156659D01*
Y-156945D01*
Y-157231D01*
Y-157518D01*
Y-157804D01*
X931393D01*
Y-158090D01*
Y-158377D01*
Y-158663D01*
X938551D01*
Y-158377D01*
X939696D01*
Y-158090D01*
X940269D01*
Y-157804D01*
X940555D01*
Y-157518D01*
X940841D01*
Y-157231D01*
X941127D01*
Y-156945D01*
X941414D01*
Y-156659D01*
Y-156372D01*
X941700D01*
Y-156086D01*
Y-155800D01*
X941986D01*
Y-155514D01*
Y-155227D01*
X942273D01*
Y-154941D01*
Y-154655D01*
Y-154368D01*
Y-154082D01*
X942559D01*
Y-153796D01*
Y-153509D01*
Y-153223D01*
Y-152937D01*
Y-152650D01*
X942845D01*
Y-152364D01*
Y-152078D01*
Y-151791D01*
Y-151505D01*
Y-151219D01*
Y-150933D01*
Y-150646D01*
Y-150360D01*
Y-150074D01*
Y-149787D01*
Y-149501D01*
X942559D01*
Y-149215D01*
Y-148928D01*
X942273D01*
Y-148642D01*
Y-148356D01*
X941986D01*
Y-148069D01*
X941700D01*
Y-147783D01*
X941127D01*
Y-147497D01*
D02*
G37*
%LPD*%
D10*
X-283465Y-263779D02*
X1370079D01*
X-283465D02*
Y905512D01*
X1370079Y-263779D02*
Y905512D01*
X-283465D02*
X1370079D01*
X1094488Y-263779D02*
Y-106299D01*
X897638Y-263779D02*
Y-106299D01*
X1370079D01*
X897638Y-224410D02*
X1370079D01*
X1094488Y-185039D02*
X1370079D01*
X1094488Y-145669D02*
X1370079D01*
X1251968Y-224410D02*
Y-185039D01*
X1108266Y-250986D02*
X1107283Y-250002D01*
X1105315D01*
X1104331Y-250986D01*
Y-251970D01*
X1105315Y-252954D01*
X1107283D01*
X1108266Y-253938D01*
Y-254922D01*
X1107283Y-255906D01*
X1105315D01*
X1104331Y-254922D01*
X1113186Y-255906D02*
X1111218D01*
X1110234Y-254922D01*
Y-252954D01*
X1111218Y-251970D01*
X1113186D01*
X1114170Y-252954D01*
Y-253938D01*
X1110234D01*
X1116138Y-251970D02*
Y-255906D01*
Y-253938D01*
X1117122Y-252954D01*
X1118106Y-251970D01*
X1119090D01*
X1125977Y-257873D02*
Y-251970D01*
X1123025D01*
X1122042Y-252954D01*
Y-254922D01*
X1123025Y-255906D01*
X1125977D01*
X1130897D02*
X1128929D01*
X1127945Y-254922D01*
Y-252954D01*
X1128929Y-251970D01*
X1130897D01*
X1131881Y-252954D01*
Y-253938D01*
X1127945D01*
X1134833Y-250986D02*
Y-251970D01*
X1133849D01*
X1135817D01*
X1134833D01*
Y-254922D01*
X1135817Y-255906D01*
X1138768Y-256889D02*
X1142704D01*
X1148608Y-250002D02*
X1144672D01*
Y-252954D01*
X1146640D01*
X1144672D01*
Y-255906D01*
X1154511Y-250986D02*
X1153527Y-250002D01*
X1151560D01*
X1150576Y-250986D01*
Y-251970D01*
X1151560Y-252954D01*
X1153527D01*
X1154511Y-253938D01*
Y-254922D01*
X1153527Y-255906D01*
X1151560D01*
X1150576Y-254922D01*
X1156479Y-256889D02*
X1160415D01*
X1162383Y-250002D02*
Y-254922D01*
X1163367Y-255906D01*
X1165335D01*
X1166319Y-254922D01*
Y-250002D01*
X1168286Y-256889D02*
X1172222D01*
X1174190Y-250986D02*
X1175174Y-250002D01*
X1177142D01*
X1178126Y-250986D01*
Y-254922D01*
X1177142Y-255906D01*
X1175174D01*
X1174190Y-254922D01*
Y-250986D01*
X1180094Y-255906D02*
X1182061D01*
X1181077D01*
Y-250002D01*
X1180094Y-250986D01*
X1185013Y-255906D02*
Y-254922D01*
X1185997D01*
Y-255906D01*
X1185013D01*
X1189933D02*
Y-250002D01*
X1192885D01*
X1193869Y-250986D01*
Y-252954D01*
X1192885Y-253938D01*
X1189933D01*
X1199772Y-251970D02*
X1196820D01*
X1195837Y-252954D01*
Y-254922D01*
X1196820Y-255906D01*
X1199772D01*
X1201740Y-250002D02*
Y-255906D01*
X1204692D01*
X1205676Y-254922D01*
Y-253938D01*
Y-252954D01*
X1204692Y-251970D01*
X1201740D01*
X1207644Y-250002D02*
Y-255906D01*
X1210596D01*
X1211579Y-254922D01*
Y-250986D01*
X1210596Y-250002D01*
X1207644D01*
X1214531Y-255906D02*
X1216499D01*
X1217483Y-254922D01*
Y-252954D01*
X1216499Y-251970D01*
X1214531D01*
X1213547Y-252954D01*
Y-254922D01*
X1214531Y-255906D01*
X1223387Y-251970D02*
X1220435D01*
X1219451Y-252954D01*
Y-254922D01*
X1220435Y-255906D01*
X1223387D01*
D21*
X1114826Y-126645D02*
X1112202Y-124021D01*
X1106954D01*
X1104331Y-126645D01*
Y-129269D01*
X1106954Y-131892D01*
X1112202D01*
X1114826Y-134516D01*
Y-137140D01*
X1112202Y-139764D01*
X1106954D01*
X1104331Y-137140D01*
X1127945Y-139764D02*
X1122698D01*
X1120074Y-137140D01*
Y-131892D01*
X1122698Y-129269D01*
X1127945D01*
X1130569Y-131892D01*
Y-134516D01*
X1120074D01*
X1135817Y-129269D02*
Y-139764D01*
Y-134516D01*
X1138440Y-131892D01*
X1141064Y-129269D01*
X1143688D01*
X1162055Y-145011D02*
Y-129269D01*
X1154183D01*
X1151560Y-131892D01*
Y-137140D01*
X1154183Y-139764D01*
X1162055D01*
X1175174D02*
X1169926D01*
X1167303Y-137140D01*
Y-131892D01*
X1169926Y-129269D01*
X1175174D01*
X1177798Y-131892D01*
Y-134516D01*
X1167303D01*
X1185669Y-126645D02*
Y-129269D01*
X1183045D01*
X1188293D01*
X1185669D01*
Y-137140D01*
X1188293Y-139764D01*
X1196165Y-142388D02*
X1206660D01*
X1222403Y-124021D02*
X1211907D01*
Y-131892D01*
X1217155D01*
X1211907D01*
Y-139764D01*
X1238146Y-126645D02*
X1235522Y-124021D01*
X1230274D01*
X1227650Y-126645D01*
Y-129269D01*
X1230274Y-131892D01*
X1235522D01*
X1238146Y-134516D01*
Y-137140D01*
X1235522Y-139764D01*
X1230274D01*
X1227650Y-137140D01*
X1243393Y-142388D02*
X1253889D01*
X1259136Y-124021D02*
Y-137140D01*
X1261760Y-139764D01*
X1267008D01*
X1269632Y-137140D01*
Y-124021D01*
X1110236Y-218504D02*
X1114828D01*
X1112532D01*
Y-204729D01*
X1110236Y-207025D01*
X1130899Y-218504D02*
X1121715D01*
X1130899Y-209321D01*
Y-207025D01*
X1128603Y-204729D01*
X1124011D01*
X1121715Y-207025D01*
X1135491Y-218504D02*
X1144674Y-209321D01*
X1149266Y-207025D02*
X1151561Y-204729D01*
X1156153D01*
X1158449Y-207025D01*
Y-216208D01*
X1156153Y-218504D01*
X1151561D01*
X1149266Y-216208D01*
Y-207025D01*
X1172224Y-204729D02*
X1163041D01*
Y-211616D01*
X1167632Y-209321D01*
X1169928D01*
X1172224Y-211616D01*
Y-216208D01*
X1169928Y-218504D01*
X1165337D01*
X1163041Y-216208D01*
X1176816Y-218504D02*
X1185999Y-209321D01*
X1199774Y-218504D02*
X1190591D01*
X1199774Y-209321D01*
Y-207025D01*
X1197478Y-204729D01*
X1192887D01*
X1190591Y-207025D01*
X1204366D02*
X1206662Y-204729D01*
X1211254D01*
X1213549Y-207025D01*
Y-216208D01*
X1211254Y-218504D01*
X1206662D01*
X1204366Y-216208D01*
Y-207025D01*
X1218141Y-218504D02*
X1222733D01*
X1220437D01*
Y-204729D01*
X1218141Y-207025D01*
X1229620Y-204729D02*
X1238804D01*
Y-207025D01*
X1229620Y-216208D01*
Y-218504D01*
X1273622Y-205385D02*
X1276246Y-202761D01*
X1281493D01*
X1284117Y-205385D01*
Y-215880D01*
X1281493Y-218504D01*
X1276246D01*
X1273622Y-215880D01*
Y-205385D01*
X1289365Y-218504D02*
X1294613D01*
X1291989D01*
Y-202761D01*
X1289365Y-205385D01*
X919291Y-242131D02*
Y-257874D01*
X924539Y-252626D01*
X929787Y-257874D01*
Y-242131D01*
X935034Y-257874D02*
X940282D01*
X937658D01*
Y-247379D01*
X935034D01*
X948153Y-257874D02*
Y-247379D01*
X950777D01*
X953401Y-250003D01*
Y-257874D01*
Y-250003D01*
X956025Y-247379D01*
X958649Y-250003D01*
Y-257874D01*
X963896Y-242131D02*
Y-252626D01*
X969144Y-257874D01*
X974392Y-252626D01*
Y-242131D01*
X990135Y-244755D02*
X987511Y-242131D01*
X982263D01*
X979639Y-244755D01*
Y-255250D01*
X982263Y-257874D01*
X987511D01*
X990135Y-255250D01*
Y-250003D01*
X984887D01*
D22*
X-62008Y-73819D02*
G03*
X-73819Y-62008I-11811J0D01*
G01*
X62008Y73819D02*
G03*
X73819Y62008I11811J0D01*
G01*
X-82677Y86614D02*
G03*
X-86614Y82677I0J-3937D01*
G01*
X82677Y-86614D02*
G03*
X86614Y-82677I0J3937D01*
G01*
X-86614Y-62008D02*
X-73819D01*
X-62008Y-86614D02*
Y-73819D01*
X62008Y73819D02*
Y86614D01*
X73819Y62008D02*
X86614D01*
X-86614Y-62008D02*
Y82677D01*
X-82677Y86614D02*
X62008D01*
X-62008Y-86614D02*
X82677D01*
X86614Y-82677D02*
Y62008D01*
D23*
X1098425Y-228349D02*
Y-236221D01*
X1102361D01*
X1103673Y-234909D01*
Y-229661D01*
X1102361Y-228349D01*
X1098425D01*
X1107609Y-236221D02*
X1110232D01*
X1111544Y-234909D01*
Y-232285D01*
X1110232Y-230973D01*
X1107609D01*
X1106297Y-232285D01*
Y-234909D01*
X1107609Y-236221D01*
X1119416Y-230973D02*
X1115480D01*
X1114168Y-232285D01*
Y-234909D01*
X1115480Y-236221D01*
X1119416D01*
X1122040Y-230973D02*
Y-234909D01*
X1123351Y-236221D01*
X1127287D01*
Y-230973D01*
X1129911Y-236221D02*
Y-230973D01*
X1131223D01*
X1132535Y-232285D01*
Y-236221D01*
Y-232285D01*
X1133847Y-230973D01*
X1135159Y-232285D01*
Y-236221D01*
X1141718D02*
X1139095D01*
X1137783Y-234909D01*
Y-232285D01*
X1139095Y-230973D01*
X1141718D01*
X1143030Y-232285D01*
Y-233597D01*
X1137783D01*
X1145654Y-236221D02*
Y-230973D01*
X1149590D01*
X1150902Y-232285D01*
Y-236221D01*
X1154838Y-229661D02*
Y-230973D01*
X1153526D01*
X1156149D01*
X1154838D01*
Y-234909D01*
X1156149Y-236221D01*
X1098425Y-188979D02*
Y-196850D01*
X1102361D01*
X1103673Y-195538D01*
Y-190291D01*
X1102361Y-188979D01*
X1098425D01*
X1107609Y-191603D02*
X1110232D01*
X1111544Y-192915D01*
Y-196850D01*
X1107609D01*
X1106297Y-195538D01*
X1107609Y-194227D01*
X1111544D01*
X1115480Y-190291D02*
Y-191603D01*
X1114168D01*
X1116792D01*
X1115480D01*
Y-195538D01*
X1116792Y-196850D01*
X1124664D02*
X1122040D01*
X1120728Y-195538D01*
Y-192915D01*
X1122040Y-191603D01*
X1124664D01*
X1125975Y-192915D01*
Y-194227D01*
X1120728D01*
X1098425Y-149609D02*
Y-157480D01*
X1103673D01*
X1107609Y-152233D02*
X1110232D01*
X1111544Y-153545D01*
Y-157480D01*
X1107609D01*
X1106297Y-156168D01*
X1107609Y-154857D01*
X1111544D01*
X1114168Y-152233D02*
Y-156168D01*
X1115480Y-157480D01*
X1119416D01*
Y-158792D01*
X1118104Y-160104D01*
X1116792D01*
X1119416Y-157480D02*
Y-152233D01*
X1125975Y-157480D02*
X1123351D01*
X1122040Y-156168D01*
Y-153545D01*
X1123351Y-152233D01*
X1125975D01*
X1127287Y-153545D01*
Y-154857D01*
X1122040D01*
X1129911Y-152233D02*
Y-157480D01*
Y-154857D01*
X1131223Y-153545D01*
X1132535Y-152233D01*
X1133847D01*
X1145654Y-157480D02*
Y-149609D01*
X1150902Y-157480D01*
Y-149609D01*
X1154838Y-152233D02*
X1157461D01*
X1158773Y-153545D01*
Y-157480D01*
X1154838D01*
X1153526Y-156168D01*
X1154838Y-154857D01*
X1158773D01*
X1161397Y-157480D02*
Y-152233D01*
X1162709D01*
X1164021Y-153545D01*
Y-157480D01*
Y-153545D01*
X1165333Y-152233D01*
X1166645Y-153545D01*
Y-157480D01*
X1173204D02*
X1170580D01*
X1169269Y-156168D01*
Y-153545D01*
X1170580Y-152233D01*
X1173204D01*
X1174516Y-153545D01*
Y-154857D01*
X1169269D01*
X1098425Y-110239D02*
Y-118110D01*
X1102361D01*
X1103673Y-116798D01*
Y-111551D01*
X1102361Y-110239D01*
X1098425D01*
X1107609Y-118110D02*
X1110232D01*
X1111544Y-116798D01*
Y-114174D01*
X1110232Y-112863D01*
X1107609D01*
X1106297Y-114174D01*
Y-116798D01*
X1107609Y-118110D01*
X1119416Y-112863D02*
X1115480D01*
X1114168Y-114174D01*
Y-116798D01*
X1115480Y-118110D01*
X1119416D01*
X1122040Y-112863D02*
Y-116798D01*
X1123351Y-118110D01*
X1127287D01*
Y-112863D01*
X1129911Y-118110D02*
Y-112863D01*
X1131223D01*
X1132535Y-114174D01*
Y-118110D01*
Y-114174D01*
X1133847Y-112863D01*
X1135159Y-114174D01*
Y-118110D01*
X1141718D02*
X1139095D01*
X1137783Y-116798D01*
Y-114174D01*
X1139095Y-112863D01*
X1141718D01*
X1143030Y-114174D01*
Y-115486D01*
X1137783D01*
X1145654Y-118110D02*
Y-112863D01*
X1149590D01*
X1150902Y-114174D01*
Y-118110D01*
X1154838Y-111551D02*
Y-112863D01*
X1153526D01*
X1156149D01*
X1154838D01*
Y-116798D01*
X1156149Y-118110D01*
X901575Y-228349D02*
Y-236221D01*
X905511D01*
X906822Y-234909D01*
Y-229661D01*
X905511Y-228349D01*
X901575D01*
X913382Y-236221D02*
X910758D01*
X909446Y-234909D01*
Y-232285D01*
X910758Y-230973D01*
X913382D01*
X914694Y-232285D01*
Y-233597D01*
X909446D01*
X917318Y-236221D02*
X921253D01*
X922565Y-234909D01*
X921253Y-233597D01*
X918630D01*
X917318Y-232285D01*
X918630Y-230973D01*
X922565D01*
X927813Y-238844D02*
X929125D01*
X930437Y-237532D01*
Y-230973D01*
X926501D01*
X925189Y-232285D01*
Y-234909D01*
X926501Y-236221D01*
X930437D01*
X933061D02*
X935684D01*
X934373D01*
Y-230973D01*
X933061D01*
X939620Y-236221D02*
Y-230973D01*
X943556D01*
X944868Y-232285D01*
Y-236221D01*
X951427D02*
X948804D01*
X947492Y-234909D01*
Y-232285D01*
X948804Y-230973D01*
X951427D01*
X952739Y-232285D01*
Y-233597D01*
X947492D01*
X955363Y-230973D02*
Y-236221D01*
Y-233597D01*
X956675Y-232285D01*
X957987Y-230973D01*
X959299D01*
X1255906Y-196850D02*
Y-188979D01*
X1259841D01*
X1261153Y-190291D01*
Y-192915D01*
X1259841Y-194227D01*
X1255906D01*
X1258529D02*
X1261153Y-196850D01*
X1267713D02*
X1265089D01*
X1263777Y-195538D01*
Y-192915D01*
X1265089Y-191603D01*
X1267713D01*
X1269025Y-192915D01*
Y-194227D01*
X1263777D01*
X1271649Y-191603D02*
X1274272Y-196850D01*
X1276896Y-191603D01*
D56*
X-93126Y-86614D02*
X-63303D01*
X-93126Y-75787D02*
X38370D01*
X-92126D02*
Y-65787D01*
Y-96614D02*
Y-86614D01*
Y-75787D02*
X-90126Y-69787D01*
X-94126D02*
X-92126Y-75787D01*
X-94126Y-92614D02*
X-92126Y-86614D01*
X-90126Y-92614D01*
X49213Y-95882D02*
Y-86630D01*
X-86614Y-95882D02*
Y-63303D01*
X-4705Y-94882D02*
X49213D01*
X-86614D02*
X-35896D01*
X43213Y-92882D02*
X49213Y-94882D01*
X43213Y-96882D02*
X49213Y-94882D01*
X-86614D02*
X-80614Y-96882D01*
X-86614Y-94882D02*
X-80614Y-92882D01*
D57*
X-101323Y-89798D02*
Y-93797D01*
X-105322Y-89798D01*
X-106322D01*
X-107322Y-90798D01*
Y-92798D01*
X-106322Y-93797D01*
X-100324Y-86800D02*
X-101323Y-85800D01*
X-102323D01*
Y-86800D01*
X-101323D01*
Y-85800D01*
X-100324Y-86800D01*
X-99324Y-87799D01*
X-107322Y-81801D02*
Y-77802D01*
X-106322D01*
X-102323Y-81801D01*
X-101323D01*
X-107322Y-71804D02*
Y-75803D01*
X-104322D01*
X-105322Y-73804D01*
Y-72804D01*
X-104322Y-71804D01*
X-102323D01*
X-101323Y-72804D01*
Y-74803D01*
X-102323Y-75803D01*
X-34296Y-94482D02*
X-33297Y-93483D01*
X-31297D01*
X-30298Y-94482D01*
Y-95482D01*
X-31297Y-96482D01*
X-32297D01*
X-31297D01*
X-30298Y-97481D01*
Y-98481D01*
X-31297Y-99481D01*
X-33297D01*
X-34296Y-98481D01*
X-25299Y-99481D02*
Y-93483D01*
X-28298Y-96482D01*
X-24299D01*
X-21301Y-100480D02*
X-20301Y-99481D01*
Y-98481D01*
X-21301D01*
Y-99481D01*
X-20301D01*
X-21301Y-100480D01*
X-22300Y-101480D01*
X-12303Y-93483D02*
X-16302D01*
Y-96482D01*
X-14303Y-95482D01*
X-13303D01*
X-12303Y-96482D01*
Y-98481D01*
X-13303Y-99481D01*
X-15302D01*
X-16302Y-98481D01*
X-10304Y-94482D02*
X-9304Y-93483D01*
X-7305D01*
X-6305Y-94482D01*
Y-98481D01*
X-7305Y-99481D01*
X-9304D01*
X-10304Y-98481D01*
Y-94482D01*
D58*
X-50013Y74987D02*
Y76587D01*
X-48413D01*
Y74987D01*
X-50013D01*
X48413Y-76587D02*
Y-74987D01*
X50013D01*
Y-76587D01*
X48413D01*
X-62598Y2350D02*
X-63398Y3950D01*
X-61798D01*
X-62598Y2350D01*
Y-3950D02*
X-63398Y-2350D01*
X-61798D01*
X-62598Y-3950D01*
X-57874Y5499D02*
X-58674Y7099D01*
X-57074D01*
X-57874Y5499D01*
Y-800D02*
X-58674Y800D01*
X-57074D01*
X-57874Y-800D01*
Y-7099D02*
X-58674Y-5499D01*
X-57074D01*
X-57874Y-7099D01*
X-79724Y-15170D02*
X-79324Y-14770D01*
X-78924D01*
X-79324Y-14370D01*
X-78924Y-13970D01*
X-79324D01*
X-79724Y-13570D01*
X-80124Y-13970D01*
X-80524D01*
X-80124Y-14370D01*
X-80524Y-14770D01*
X-80124D01*
X-79724Y-15170D01*
Y13570D02*
X-79324Y13970D01*
X-78924D01*
X-79324Y14370D01*
X-78924Y14770D01*
X-79324D01*
X-79724Y15170D01*
X-80124Y14770D01*
X-80524D01*
X-80124Y14370D01*
X-80524Y13970D01*
X-80124D01*
X-79724Y13570D01*
X-61417D02*
X-61017Y13970D01*
X-60617D01*
X-61017Y14370D01*
X-60617Y14770D01*
X-61017D01*
X-61417Y15170D01*
X-61817Y14770D01*
X-62217D01*
X-61817Y14370D01*
X-62217Y13970D01*
X-61817D01*
X-61417Y13570D01*
Y-15170D02*
X-61017Y-14770D01*
X-60617D01*
X-61017Y-14370D01*
X-60617Y-13970D01*
X-61017D01*
X-61417Y-13570D01*
X-61817Y-13970D01*
X-62217D01*
X-61817Y-14370D01*
X-62217Y-14770D01*
X-61817D01*
X-61417Y-15170D01*
X76661Y24397D02*
X77061Y25197D01*
X76661Y25997D01*
X77461Y25597D01*
X78261Y25997D01*
X77861Y25197D01*
X78261Y24397D01*
X77461Y24797D01*
X76661Y24397D01*
X48124Y3537D02*
Y3137D01*
X48924D01*
Y3537D01*
X49324D01*
Y4337D01*
X48924D01*
Y4737D01*
X48124D01*
Y4337D01*
X47724D01*
Y3537D01*
X48124D01*
Y13379D02*
Y12979D01*
X48924D01*
Y13379D01*
X49324D01*
Y14179D01*
X48924D01*
Y14579D01*
X48124D01*
Y14179D01*
X47724D01*
Y13379D01*
X48124D01*
Y-4337D02*
Y-4737D01*
X48924D01*
Y-4337D01*
X49324D01*
Y-3537D01*
X48924D01*
Y-3137D01*
X48124D01*
Y-3537D01*
X47724D01*
Y-4337D01*
X48124D01*
Y-14180D02*
Y-14580D01*
X48924D01*
Y-14180D01*
X49324D01*
Y-13380D01*
X48924D01*
Y-12980D01*
X48124D01*
Y-13380D01*
X47724D01*
Y-14180D01*
X48124D01*
X76661Y-25997D02*
X77061Y-25197D01*
X76661Y-24397D01*
X77461Y-24797D01*
X78261Y-24397D01*
X77861Y-25197D01*
X78261Y-25997D01*
X77461Y-25597D01*
X76661Y-25997D01*
X77940Y-57887D02*
X78340D01*
X78740Y-57487D01*
X79140Y-57887D01*
X79540D01*
Y-57487D01*
X79140Y-57087D01*
X79540Y-56687D01*
Y-56287D01*
X79140D01*
X78740Y-56687D01*
X78340Y-56287D01*
X77940D01*
Y-56687D01*
X78340Y-57087D01*
X77940Y-57487D01*
Y-57887D01*
Y-42139D02*
X78340D01*
X78740Y-41739D01*
X79140Y-42139D01*
X79540D01*
Y-41739D01*
X79140Y-41339D01*
X79540Y-40939D01*
Y-40539D01*
X79140D01*
X78740Y-40939D01*
X78340Y-40539D01*
X77940D01*
Y-40939D01*
X78340Y-41339D01*
X77940Y-41739D01*
Y-42139D01*
X54318Y-57087D02*
X55118Y-56287D01*
X55918Y-57087D01*
X55118Y-57887D01*
X54318Y-57087D01*
Y-41339D02*
X55118Y-40539D01*
X55918Y-41339D01*
X55118Y-42139D01*
X54318Y-41339D01*
Y-49213D02*
X55118Y-48413D01*
X55918Y-49213D01*
X55118Y-50013D01*
X54318Y-49213D01*
X23413Y23511D02*
Y25111D01*
X25013D01*
Y23511D01*
X23413D01*
X23813Y23911D02*
Y24711D01*
X24613D01*
Y23911D01*
X23813D01*
X36995Y18885D02*
Y20485D01*
X38595D01*
Y18885D01*
X36995D01*
X37395Y19285D02*
Y20085D01*
X38195D01*
Y19285D01*
X37395D01*
X34436Y41326D02*
Y42926D01*
X36036D01*
Y41326D01*
X34436D01*
X34836Y41726D02*
Y42526D01*
X35636D01*
Y41726D01*
X34836D01*
X34633Y23609D02*
Y25210D01*
X36233D01*
Y23609D01*
X34633D01*
X35033Y24010D02*
Y24810D01*
X35833D01*
Y24010D01*
X35033D01*
X-36036Y24003D02*
Y25603D01*
X-34436D01*
Y24003D01*
X-36036D01*
X-35636Y24403D02*
Y25203D01*
X-34836D01*
Y24403D01*
X-35636D01*
X-36036Y41326D02*
Y42926D01*
X-34436D01*
Y41326D01*
X-36036D01*
X-35636Y41726D02*
Y42526D01*
X-34836D01*
Y41726D01*
X-35636D01*
X-38595Y18885D02*
Y20485D01*
X-36995D01*
Y18885D01*
X-38595D01*
X-38195Y19285D02*
Y20085D01*
X-37395D01*
Y19285D01*
X-38195D01*
X-25013Y23511D02*
Y25111D01*
X-23413D01*
Y23511D01*
X-25013D01*
X-24613Y23911D02*
Y24711D01*
X-23813D01*
Y23911D01*
X-24613D01*
X-67925Y38571D02*
Y40171D01*
X-66325D01*
Y38571D01*
X-67925D01*
X-67525Y38971D02*
Y39771D01*
X-66725D01*
Y38971D01*
X-67525D01*
X70656Y34239D02*
Y35839D01*
X72256D01*
Y34239D01*
X70656D01*
X71056Y34639D02*
Y35439D01*
X71856D01*
Y34639D01*
X71056D01*
X23413Y-6489D02*
Y-4889D01*
X25013D01*
Y-6489D01*
X23413D01*
X23813Y-6089D02*
Y-5289D01*
X24613D01*
Y-6089D01*
X23813D01*
X-25013Y-6489D02*
Y-4889D01*
X-23413D01*
Y-6489D01*
X-25013D01*
X-24613Y-6089D02*
Y-5289D01*
X-23813D01*
Y-6089D01*
X-24613D01*
X14200Y-58595D02*
Y-56995D01*
X15800D01*
Y-58595D01*
X14200D01*
X14600Y-58195D02*
Y-57395D01*
X15400D01*
Y-58195D01*
X14600D01*
X14200Y-69619D02*
Y-68019D01*
X15800D01*
Y-69619D01*
X14200D01*
X14600Y-69219D02*
Y-68419D01*
X15400D01*
Y-69219D01*
X14600D01*
X-15800Y-69619D02*
Y-68019D01*
X-14200D01*
Y-69619D01*
X-15800D01*
X-15400Y-69219D02*
Y-68419D01*
X-14600D01*
Y-69219D01*
X-15400D01*
X-15800Y-58595D02*
Y-56995D01*
X-14200D01*
Y-58595D01*
X-15800D01*
X-15400Y-58195D02*
Y-57395D01*
X-14600D01*
Y-58195D01*
X-15400D01*
X29121Y-16745D02*
Y-15145D01*
X30721D01*
Y-16745D01*
X29121D01*
X29521Y-16345D02*
Y-15545D01*
X30321D01*
Y-16345D01*
X29521D01*
X40145Y-16745D02*
Y-15145D01*
X41745D01*
Y-16745D01*
X40145D01*
X40545Y-16345D02*
Y-15545D01*
X41345D01*
Y-16345D01*
X40545D01*
D59*
X-62980Y51181D02*
G03*
X-62980Y51181I-800J0D01*
G01*
X-52980D02*
G03*
X-52980Y51181I-800J0D01*
G01*
X-42980D02*
G03*
X-42980Y51181I-800J0D01*
G01*
X36705D02*
G03*
X36705Y51181I-800J0D01*
G01*
X46705D02*
G03*
X46705Y51181I-800J0D01*
G01*
X56706D02*
G03*
X56706Y51181I-800J0D01*
G01*
M02*
