G04 Layer_Color=32896*
%FSLAX25Y25*%
%MOIN*%
G70*
G01*
G75*
%ADD18C,0.00787*%
%ADD20C,0.01575*%
%ADD21C,0.00591*%
%ADD22C,0.00984*%
G36*
X-22325Y-6154D02*
X-21991Y-6188D01*
X-21769Y-6198D01*
X-21733Y-6194D01*
X-21697Y-6190D01*
X-21824Y-6352D01*
X-21924Y-6437D01*
X-21988Y-6518D01*
X-22024Y-6522D01*
X-22003Y-6703D01*
X-21994Y-6776D01*
X-21990Y-6812D01*
X-22235Y-6915D01*
X-22443Y-7013D01*
X-22584Y-7066D01*
X-22620Y-7070D01*
X-22790Y-6870D01*
X-22831Y-6839D01*
X-22835Y-6803D01*
X-22840Y-6766D01*
X-22893Y-6626D01*
X-22955Y-6413D01*
X-22959Y-6377D01*
X-22964Y-6341D01*
X-22828Y-6251D01*
X-22764Y-6170D01*
X-22732Y-6129D01*
X-22325Y-6154D01*
D02*
G37*
G36*
X32194Y-5794D02*
X32307Y-5818D01*
X32343Y-5813D01*
X32528Y-5828D01*
X32682Y-5883D01*
X32794Y-5906D01*
X32831Y-5902D01*
X33084Y-5872D01*
X33301Y-5846D01*
X33446Y-5829D01*
X33482Y-5824D01*
X33491Y-5897D01*
X33572Y-5960D01*
X33657Y-6061D01*
X33742Y-6160D01*
X33783Y-6192D01*
X33949Y-6356D01*
X34075Y-6488D01*
X34120Y-6556D01*
X34124Y-6592D01*
X34137Y-6701D01*
X34118Y-6850D01*
X34095Y-6963D01*
X34099Y-6999D01*
X34117Y-7144D01*
X34138Y-7325D01*
X34187Y-7429D01*
X34196Y-7501D01*
X34330Y-7706D01*
X34375Y-7774D01*
X34379Y-7810D01*
X34418Y-8136D01*
X34412Y-8393D01*
X34438Y-8610D01*
X34423Y-8796D01*
X34440Y-8941D01*
X34417Y-9053D01*
X34422Y-9090D01*
X34426Y-9126D01*
X34479Y-9266D01*
X34578Y-9475D01*
X34640Y-9688D01*
X34680Y-9720D01*
X34684Y-9756D01*
X34832Y-10069D01*
X34898Y-10318D01*
X34952Y-10458D01*
X34956Y-10494D01*
X34969Y-10603D01*
X34950Y-10752D01*
X34927Y-10865D01*
X34895Y-10905D01*
X34880Y-11091D01*
X34897Y-11235D01*
X34906Y-11308D01*
X34910Y-11344D01*
X34955Y-11412D01*
X35040Y-11512D01*
X35089Y-11616D01*
X35130Y-11648D01*
X35256Y-11780D01*
X35305Y-11884D01*
X35345Y-11916D01*
X35350Y-11952D01*
X35322Y-12029D01*
X35299Y-12142D01*
X35271Y-12219D01*
X35239Y-12259D01*
X35180Y-12376D01*
X35148Y-12417D01*
X35120Y-12494D01*
X35159Y-12819D01*
X35194Y-13109D01*
X35260Y-13358D01*
X35286Y-13575D01*
X35307Y-13756D01*
X35357Y-13860D01*
X35365Y-13933D01*
X35370Y-13969D01*
X35268Y-14348D01*
X35153Y-14619D01*
X35066Y-14813D01*
X35034Y-14853D01*
X35024Y-15075D01*
X35005Y-15224D01*
X35014Y-15296D01*
X35018Y-15332D01*
X34848Y-15756D01*
X34697Y-16031D01*
X34574Y-16229D01*
X34506Y-16274D01*
X34632Y-16406D01*
X34821Y-16457D01*
X35007Y-16472D01*
X35120Y-16495D01*
X35160Y-16527D01*
X35350Y-16578D01*
X35471Y-16673D01*
X35520Y-16778D01*
X35561Y-16809D01*
X35565Y-16846D01*
X35542Y-16958D01*
X35568Y-17176D01*
X35557Y-17397D01*
X35583Y-17614D01*
X35573Y-17836D01*
X35586Y-17944D01*
X35594Y-18017D01*
X35625Y-18270D01*
X35687Y-18483D01*
X35749Y-18696D01*
X35753Y-18732D01*
X35757Y-18768D01*
X35811Y-18909D01*
X35864Y-19049D01*
X35918Y-19190D01*
X35926Y-19262D01*
X35930Y-19298D01*
X35948Y-19443D01*
X35929Y-19592D01*
X35910Y-19741D01*
X35914Y-19777D01*
X35868Y-20003D01*
X35844Y-20116D01*
X35853Y-20188D01*
X35900Y-20586D01*
X35935Y-20876D01*
X35952Y-21021D01*
X35961Y-21093D01*
X35861Y-21179D01*
X35761Y-21264D01*
X35729Y-21304D01*
X35693Y-21309D01*
X35678Y-21494D01*
X35659Y-21643D01*
X35636Y-21756D01*
X35640Y-21792D01*
X35819Y-22064D01*
X35990Y-22264D01*
X36075Y-22364D01*
X36116Y-22396D01*
X36129Y-22505D01*
X36114Y-22690D01*
X36095Y-22839D01*
X36063Y-22880D01*
X36068Y-22916D01*
X35887Y-22937D01*
X35931Y-23006D01*
X35985Y-23146D01*
X36038Y-23286D01*
X36079Y-23318D01*
X36083Y-23355D01*
X36222Y-23595D01*
X36280Y-23772D01*
X36292Y-23880D01*
X36297Y-23916D01*
X36201Y-24038D01*
X36101Y-24123D01*
X36074Y-24200D01*
X36037Y-24204D01*
X35936Y-24583D01*
X35862Y-24886D01*
X35819Y-25148D01*
X35805Y-25333D01*
X35822Y-25478D01*
X35835Y-25587D01*
X35839Y-25623D01*
X35844Y-25659D01*
X36005Y-25786D01*
X36127Y-25882D01*
X36208Y-25946D01*
X36244Y-25942D01*
X36253Y-26014D01*
X36221Y-26054D01*
X36180Y-26023D01*
X36144Y-26027D01*
X36143Y-26321D01*
X36132Y-26542D01*
X36145Y-26651D01*
X36149Y-26687D01*
X36162Y-26796D01*
X36167Y-26832D01*
X36171Y-26868D01*
X36188Y-27013D01*
X36197Y-27085D01*
X36214Y-27230D01*
X36218Y-27266D01*
X36000Y-27586D01*
X35804Y-27793D01*
X35672Y-27918D01*
X35640Y-27959D01*
X35589Y-28149D01*
X35566Y-28261D01*
X35575Y-28334D01*
X35579Y-28370D01*
X35451Y-28532D01*
X35279Y-28626D01*
X35102Y-28684D01*
X35066Y-28688D01*
X35030Y-28692D01*
X34740Y-28727D01*
X34555Y-28712D01*
X34438Y-28653D01*
X34397Y-28621D01*
X34308Y-28485D01*
X34254Y-28344D01*
X34246Y-28272D01*
X34242Y-28236D01*
X34016Y-28189D01*
X33975Y-28157D01*
X33939Y-28161D01*
X33787Y-27812D01*
X33721Y-27563D01*
X33667Y-27423D01*
X33663Y-27387D01*
X33525Y-27146D01*
X33426Y-26938D01*
X33243Y-26629D01*
X33112Y-26461D01*
X33068Y-26393D01*
X32939Y-25931D01*
X32828Y-25614D01*
X32770Y-25437D01*
X32762Y-25365D01*
X32581Y-25387D01*
X32508Y-25395D01*
X32472Y-25400D01*
X32346Y-25268D01*
X31931Y-25170D01*
X31592Y-25100D01*
X31330Y-25058D01*
X31109Y-25048D01*
X30924Y-25033D01*
X30815Y-25046D01*
X30779Y-25051D01*
X30743Y-25055D01*
X30675Y-25100D01*
X30534Y-25153D01*
X30398Y-25243D01*
X30366Y-25283D01*
X30330Y-25288D01*
X30049Y-25394D01*
X29836Y-25456D01*
X29691Y-25474D01*
X29655Y-25478D01*
X29525Y-25310D01*
X29299Y-25263D01*
X29078Y-25253D01*
X28675Y-25264D01*
X28530Y-25281D01*
X28386Y-25299D01*
X28318Y-25343D01*
X28282Y-25348D01*
X27977Y-25567D01*
X27777Y-25738D01*
X27609Y-25868D01*
X27577Y-25909D01*
X27396Y-25930D01*
X27360Y-25935D01*
X27324Y-25939D01*
X26841Y-25886D01*
X26466Y-25821D01*
X26317Y-25802D01*
X26208Y-25815D01*
X26168Y-25783D01*
X26131Y-25787D01*
X25769Y-25830D01*
X25448Y-25905D01*
X25158Y-25940D01*
X24946Y-26002D01*
X24728Y-26028D01*
X24588Y-26081D01*
X24516Y-26090D01*
X24479Y-26094D01*
X24322Y-26003D01*
X24200Y-25907D01*
X24123Y-25879D01*
X24083Y-25848D01*
X24047Y-25852D01*
X23974Y-25861D01*
X23757Y-25886D01*
X23576Y-25908D01*
X23540Y-25912D01*
X23504Y-25917D01*
X23250Y-25947D01*
X23101Y-25928D01*
X23061Y-25896D01*
X23020Y-25864D01*
X22839Y-25885D01*
X22699Y-25939D01*
X22558Y-25992D01*
X22454Y-26041D01*
X22422Y-26082D01*
X22250Y-26176D01*
X22146Y-26225D01*
X22078Y-26270D01*
X22041Y-26274D01*
X21933Y-26287D01*
X21226Y-26518D01*
X20547Y-26672D01*
X19900Y-26786D01*
X19316Y-26819D01*
X18837Y-26803D01*
X18503Y-26769D01*
X18354Y-26750D01*
X18245Y-26763D01*
X18205Y-26731D01*
X18169Y-26735D01*
X17939Y-26653D01*
X17826Y-26629D01*
X17785Y-26597D01*
X17717Y-26642D01*
X17613Y-26691D01*
X17368Y-26794D01*
X17155Y-26856D01*
X17087Y-26901D01*
X17051Y-26905D01*
X16661Y-27025D01*
X16372Y-27059D01*
X16227Y-27077D01*
X16155Y-27085D01*
X15997Y-26994D01*
X15839Y-26902D01*
X15763Y-26875D01*
X15722Y-26843D01*
X15469Y-26873D01*
X15324Y-26890D01*
X15215Y-26903D01*
X15179Y-26908D01*
X14864Y-26725D01*
X14610Y-26755D01*
X14466Y-26772D01*
X14357Y-26785D01*
X14321Y-26790D01*
X14114Y-26594D01*
X13984Y-26426D01*
X13898Y-26326D01*
X13858Y-26294D01*
X13498Y-26043D01*
X13255Y-25852D01*
X13097Y-25761D01*
X13057Y-25729D01*
X13048Y-25656D01*
X12782Y-25578D01*
X12560Y-25567D01*
X12411Y-25549D01*
X12375Y-25553D01*
X12121Y-24959D01*
X11982Y-24719D01*
X11847Y-24514D01*
X11717Y-24346D01*
X11592Y-24215D01*
X11547Y-24147D01*
X11506Y-24115D01*
X11304Y-23955D01*
X11137Y-23791D01*
X11020Y-23732D01*
X10980Y-23700D01*
X10864Y-23347D01*
X10757Y-23066D01*
X10704Y-22925D01*
X10695Y-22853D01*
X10382Y-22376D01*
X10194Y-22032D01*
X10104Y-21895D01*
X10055Y-21791D01*
X10014Y-21759D01*
X10010Y-21723D01*
X9927Y-21329D01*
X9888Y-21004D01*
X9853Y-20714D01*
X9823Y-20461D01*
X9838Y-20275D01*
X9821Y-20131D01*
X9812Y-20058D01*
X9808Y-20022D01*
X9803Y-19986D01*
X9754Y-19882D01*
X9692Y-19669D01*
X9626Y-19420D01*
X9581Y-19352D01*
X9577Y-19315D01*
X9502Y-18994D01*
X9472Y-18741D01*
X9454Y-18596D01*
X9450Y-18560D01*
X9565Y-18289D01*
X9647Y-18059D01*
X9702Y-17906D01*
X9734Y-17865D01*
X9732Y-17535D01*
X9770Y-17237D01*
X9740Y-16983D01*
X9754Y-16798D01*
X9769Y-16613D01*
X9756Y-16504D01*
X9752Y-16468D01*
X9747Y-16432D01*
X9947Y-16261D01*
X9979Y-16221D01*
X10015Y-16217D01*
X10089Y-15914D01*
X10100Y-15692D01*
X10123Y-15580D01*
X10119Y-15543D01*
X10401Y-15143D01*
X10625Y-14859D01*
X10784Y-14657D01*
X10852Y-14612D01*
X10805Y-14214D01*
X10775Y-13960D01*
X10753Y-13779D01*
X10749Y-13743D01*
X11949Y-13343D01*
X12134Y-12734D01*
X12396Y-12776D01*
X12581Y-12791D01*
X12730Y-12810D01*
X12879Y-12829D01*
X12988Y-12816D01*
X13024Y-12812D01*
X13002Y-12631D01*
X13247Y-12528D01*
X13419Y-12434D01*
X13487Y-12389D01*
X13524Y-12385D01*
X13858Y-12419D01*
X14084Y-12465D01*
X14269Y-12480D01*
X14305Y-12476D01*
X14537Y-12264D01*
X14701Y-12098D01*
X14796Y-11976D01*
X14828Y-11936D01*
X15005Y-11878D01*
X15186Y-11857D01*
X15335Y-11876D01*
X15407Y-11867D01*
X15701Y-11869D01*
X15955Y-11839D01*
X16095Y-11785D01*
X16131Y-11781D01*
X16291Y-11578D01*
X16354Y-11497D01*
X16644Y-11463D01*
X16902Y-11469D01*
X17164Y-11511D01*
X17204Y-11543D01*
X17240Y-11539D01*
X17615Y-11604D01*
X17913Y-11642D01*
X18063Y-11661D01*
X18135Y-11653D01*
X18275Y-11599D01*
X18416Y-11546D01*
X18520Y-11496D01*
X18556Y-11492D01*
X18535Y-11311D01*
X18730Y-11104D01*
X18899Y-10974D01*
X19035Y-10885D01*
X19067Y-10844D01*
X19058Y-10772D01*
X19130Y-10763D01*
X19203Y-10755D01*
X19279Y-10782D01*
X19316Y-10778D01*
X19429Y-10801D01*
X19663Y-10920D01*
X19703Y-10952D01*
X19740Y-10948D01*
X19916Y-10890D01*
X19984Y-10845D01*
X20310Y-10806D01*
X20604Y-10808D01*
X20857Y-10778D01*
X21038Y-10756D01*
X21151Y-10780D01*
X21260Y-10767D01*
X21332Y-10758D01*
X21541Y-10660D01*
X21686Y-10643D01*
X21758Y-10634D01*
X21794Y-10630D01*
X22065Y-10744D01*
X22258Y-10831D01*
X22376Y-10891D01*
X22416Y-10923D01*
X22589Y-10829D01*
X22693Y-10780D01*
X22725Y-10739D01*
X22761Y-10735D01*
X23219Y-10570D01*
X23680Y-10442D01*
X23861Y-10420D01*
X24002Y-10367D01*
X24111Y-10354D01*
X24147Y-10350D01*
X24121Y-10132D01*
X24104Y-9988D01*
X24095Y-9915D01*
X24091Y-9879D01*
X24297Y-10075D01*
X24460Y-10202D01*
X24541Y-10266D01*
X24581Y-10298D01*
X25101Y-10346D01*
X25507Y-10371D01*
X25914Y-10396D01*
X26208Y-10398D01*
X26466Y-10404D01*
X26651Y-10418D01*
X26760Y-10406D01*
X26796Y-10401D01*
X26819Y-10288D01*
X26851Y-10248D01*
X27028Y-10190D01*
X27245Y-10164D01*
X27430Y-10179D01*
X27466Y-10175D01*
X27502Y-10170D01*
X27715Y-10108D01*
X27819Y-10059D01*
X27892Y-10051D01*
X27924Y-10010D01*
X27920Y-9979D01*
X27883Y-9978D01*
X27920Y-9974D01*
X27920Y-9979D01*
X28363Y-9995D01*
X28692Y-9992D01*
X28950Y-9998D01*
X29099Y-10017D01*
X29172Y-10008D01*
X29212Y-10040D01*
X29312Y-9955D01*
X29472Y-9752D01*
X29563Y-9595D01*
X29595Y-9554D01*
X29627Y-9514D01*
X29695Y-9469D01*
X29735Y-9501D01*
X29776Y-9533D01*
X29780Y-9569D01*
X29865Y-9669D01*
X29978Y-9692D01*
X30055Y-9720D01*
X30091Y-9715D01*
X30308Y-9689D01*
X30485Y-9632D01*
X30689Y-9497D01*
X30821Y-9371D01*
X30853Y-9331D01*
X30827Y-9114D01*
X30810Y-8969D01*
X30797Y-8860D01*
X30793Y-8824D01*
X30871Y-8558D01*
X30954Y-8328D01*
X31009Y-8174D01*
X31032Y-8061D01*
X31060Y-7985D01*
X31056Y-7949D01*
X31179Y-7750D01*
X31311Y-7625D01*
X31374Y-7544D01*
X31406Y-7503D01*
X31427Y-7060D01*
X31388Y-6734D01*
X31367Y-6553D01*
X31358Y-6481D01*
X31554Y-6274D01*
X31713Y-6072D01*
X31813Y-5986D01*
X31845Y-5946D01*
X31832Y-5837D01*
X32009Y-5779D01*
X32194Y-5794D01*
D02*
G37*
G36*
X27319Y13264D02*
X27400Y13200D01*
X27481Y13136D01*
X27521Y13104D01*
X27715Y13017D01*
X27900Y13003D01*
X28013Y12979D01*
X28050Y12984D01*
X28290Y13123D01*
X28462Y13216D01*
X28571Y13229D01*
X28607Y13234D01*
X28882Y13083D01*
X29044Y12955D01*
X29166Y12860D01*
X29206Y12828D01*
X29347Y12881D01*
X29451Y12930D01*
X29519Y12975D01*
X29555Y12979D01*
X29691Y13069D01*
X29796Y13118D01*
X29868Y13127D01*
X29904Y13131D01*
X30134Y13048D01*
X30147Y12940D01*
X30228Y12876D01*
X30314Y12776D01*
X30548Y12657D01*
X30778Y12574D01*
X30819Y12543D01*
X30855Y12547D01*
X31044Y12496D01*
X31198Y12441D01*
X31392Y12354D01*
X31468Y12326D01*
X31509Y12294D01*
X31603Y12122D01*
X31705Y11877D01*
X31812Y11596D01*
X31883Y11311D01*
X31958Y10990D01*
X31984Y10773D01*
X32041Y10596D01*
X32050Y10524D01*
X32146Y10021D01*
X32234Y9591D01*
X32278Y9229D01*
X32312Y8940D01*
X32338Y8722D01*
X32323Y8537D01*
X32332Y8465D01*
X32336Y8428D01*
X32213Y8230D01*
X32207Y7973D01*
X32241Y7683D01*
X32303Y7470D01*
X32308Y7434D01*
X32312Y7398D01*
X32410Y7189D01*
X32540Y7021D01*
X32589Y6917D01*
X32630Y6885D01*
X32637Y6519D01*
X32631Y6261D01*
X32616Y6076D01*
X32620Y6040D01*
X32726Y5465D01*
X32788Y5252D01*
X32850Y5039D01*
X32903Y4899D01*
X32952Y4794D01*
X32997Y4726D01*
X33001Y4690D01*
X33172Y4490D01*
X33257Y4390D01*
X33302Y4322D01*
X33409Y4041D01*
X33484Y3720D01*
X33566Y3032D01*
X33605Y2706D01*
X33635Y2453D01*
X33652Y2308D01*
X33661Y2236D01*
X33667Y1870D01*
X33674Y1503D01*
X33637Y1205D01*
X33590Y979D01*
X33580Y758D01*
X33525Y605D01*
X33497Y528D01*
X33501Y492D01*
X33306Y285D01*
X33178Y123D01*
X33114Y42D01*
X33082Y1D01*
X33040Y-261D01*
X33026Y-446D01*
X33038Y-555D01*
X33043Y-591D01*
X32875Y-721D01*
X32843Y-761D01*
X32807Y-766D01*
X32824Y-910D01*
X32841Y-1055D01*
X32845Y-1091D01*
X32850Y-1128D01*
X32446Y-2057D01*
X32378Y-2101D01*
X32274Y-2151D01*
X32029Y-2253D01*
X31816Y-2315D01*
X31744Y-2324D01*
X31708Y-2328D01*
X31567Y-2382D01*
X31431Y-2471D01*
X31236Y-2678D01*
X31112Y-2876D01*
X31080Y-2917D01*
X31085Y-2953D01*
X31089Y-2989D01*
X31093Y-3025D01*
X31111Y-3170D01*
X31132Y-3351D01*
X31137Y-3387D01*
X31141Y-3423D01*
X30964Y-3481D01*
X30824Y-3535D01*
X30719Y-3584D01*
X30683Y-3588D01*
X30534Y-3569D01*
X30381Y-3514D01*
X30264Y-3455D01*
X30187Y-3427D01*
X30061Y-3295D01*
X29984Y-3268D01*
X29908Y-3240D01*
X29835Y-3249D01*
X29803Y-3289D01*
X29635Y-3419D01*
X29495Y-3473D01*
X29391Y-3522D01*
X29354Y-3526D01*
X29263Y-3684D01*
X29208Y-3837D01*
X29180Y-3914D01*
X29148Y-3954D01*
X28967Y-3976D01*
X28823Y-3993D01*
X28714Y-4006D01*
X28678Y-4010D01*
X28555Y-4208D01*
X28523Y-4249D01*
X28527Y-4285D01*
X28350Y-4343D01*
X28206Y-4360D01*
X28093Y-4337D01*
X28056Y-4341D01*
X27970Y-4535D01*
X27938Y-4576D01*
X27942Y-4612D01*
X27616Y-4651D01*
X27699Y-4420D01*
X27758Y-4303D01*
X27786Y-4227D01*
X27782Y-4190D01*
X27420Y-4233D01*
X27202Y-4259D01*
X27058Y-4277D01*
X27022Y-4281D01*
X26745Y-4424D01*
X26500Y-4527D01*
X26360Y-4580D01*
X26255Y-4629D01*
X26187Y-4674D01*
X26151Y-4678D01*
X26115Y-4682D01*
X25912Y-4523D01*
X25750Y-4395D01*
X25665Y-4296D01*
X25625Y-4264D01*
X25286Y-4194D01*
X25065Y-4183D01*
X24915Y-4165D01*
X24879Y-4169D01*
X24609Y-4054D01*
X24451Y-3963D01*
X24406Y-3895D01*
X24366Y-3863D01*
X24340Y-3646D01*
X24331Y-3573D01*
X24327Y-3537D01*
X23890Y-3259D01*
X23611Y-3072D01*
X23412Y-2949D01*
X23336Y-2921D01*
X23314Y-2740D01*
X23306Y-2668D01*
X23103Y-2508D01*
X22941Y-2381D01*
X22828Y-2357D01*
X22788Y-2326D01*
X22694Y-2153D01*
X22640Y-2013D01*
X22632Y-1940D01*
X22627Y-1904D01*
X22177Y-1517D01*
X21813Y-1230D01*
X21570Y-1039D01*
X21525Y-971D01*
X21489Y-975D01*
X21369Y-586D01*
X21298Y-300D01*
X21281Y-156D01*
X21273Y-83D01*
X20881Y127D01*
X20842Y453D01*
X20816Y670D01*
X20799Y815D01*
X20794Y851D01*
X20638Y1236D01*
X20527Y1553D01*
X20433Y1726D01*
X20389Y1794D01*
X20354Y2083D01*
X20324Y2337D01*
X20307Y2481D01*
X20302Y2518D01*
X20100Y2677D01*
X20057Y3039D01*
X20027Y3292D01*
X20005Y3473D01*
X20001Y3509D01*
X19790Y3741D01*
X19742Y4140D01*
X19712Y4393D01*
X19691Y4574D01*
X19686Y4610D01*
X19411Y4761D01*
X19330Y4825D01*
X19294Y4820D01*
X19290Y4857D01*
X19285Y4893D01*
X19264Y5074D01*
X19247Y5218D01*
X19242Y5255D01*
X19238Y5291D01*
X19008Y5373D01*
X18895Y5397D01*
X18855Y5429D01*
X18829Y5646D01*
X18807Y5827D01*
X18794Y5935D01*
X18790Y5972D01*
X18596Y6059D01*
X18447Y6078D01*
X18334Y6101D01*
X18298Y6097D01*
X18176Y6192D01*
X18010Y6356D01*
X17714Y6688D01*
X17583Y6856D01*
X17494Y6992D01*
X17445Y7096D01*
X17404Y7128D01*
X17368Y7124D01*
X17296Y7115D01*
X17187Y7102D01*
X17151Y7098D01*
X17110Y7130D01*
X17070Y7162D01*
X16993Y7189D01*
X16957Y7185D01*
X16961Y7149D01*
X16929Y7108D01*
X16897Y7068D01*
X16825Y7059D01*
X16785Y7091D01*
X16780Y7127D01*
X16776Y7163D01*
X16595Y7142D01*
X16635Y7110D01*
X16604Y7069D01*
X16535Y7025D01*
X16499Y7020D01*
X16369Y7188D01*
X16071Y7226D01*
X15777Y7228D01*
X15519Y7234D01*
X15338Y7213D01*
X15189Y7231D01*
X15081Y7219D01*
X15008Y7210D01*
X14972Y7206D01*
X14959Y7314D01*
X14706Y7284D01*
X14606Y7199D01*
X14542Y7118D01*
X14510Y7077D01*
X14515Y7041D01*
X14085Y6953D01*
X13763Y6878D01*
X13582Y6857D01*
X13510Y6848D01*
X13504Y6590D01*
X13489Y6405D01*
X13498Y6333D01*
X13502Y6296D01*
X13402Y6211D01*
X13374Y6134D01*
X13343Y6094D01*
X12836Y6034D01*
X12433Y6022D01*
X12289Y6005D01*
X12176Y6028D01*
X12140Y6024D01*
X12103Y6020D01*
X11885Y5700D01*
X11825Y5583D01*
X11806Y5434D01*
X11819Y5325D01*
X11823Y5289D01*
X11836Y5181D01*
X11890Y5040D01*
X12041Y4691D01*
X12135Y4519D01*
X12189Y4378D01*
X12238Y4274D01*
X12242Y4238D01*
X12078Y4071D01*
X11983Y3950D01*
X11919Y3869D01*
X11887Y3828D01*
X11734Y3884D01*
X11657Y3911D01*
X11621Y3907D01*
X11642Y3726D01*
X11483Y3523D01*
X11468Y3338D01*
X11494Y3121D01*
X11569Y2799D01*
X11667Y2591D01*
X11708Y2559D01*
X11712Y2523D01*
X11910Y2400D01*
X12072Y2272D01*
X12149Y2244D01*
X12190Y2213D01*
X12194Y2176D01*
X12202Y2104D01*
X12184Y1955D01*
X12205Y1774D01*
X12186Y1625D01*
X12203Y1480D01*
X12180Y1367D01*
X12184Y1331D01*
X12532Y1189D01*
X12839Y1078D01*
X13028Y1028D01*
X13105Y1000D01*
X13150Y932D01*
X13203Y792D01*
X13306Y547D01*
X13408Y302D01*
X13417Y230D01*
X13421Y193D01*
X13483Y-20D01*
X13573Y-156D01*
X13626Y-296D01*
X13707Y-360D01*
X13792Y-460D01*
X13833Y-492D01*
X13982Y-511D01*
X14127Y-493D01*
X14195Y-449D01*
X14231Y-444D01*
X14547Y-627D01*
X14785Y-782D01*
X14947Y-910D01*
X15024Y-937D01*
X15164Y-884D01*
X15269Y-835D01*
X15405Y-745D01*
X15437Y-705D01*
X15626Y-755D01*
X15775Y-774D01*
X15888Y-798D01*
X15929Y-829D01*
X16014Y-929D01*
X16091Y-957D01*
X16131Y-989D01*
X16144Y-1098D01*
X16121Y-1210D01*
X16098Y-1323D01*
X16102Y-1359D01*
X16111Y-1432D01*
X16160Y-1536D01*
X16298Y-1777D01*
X16397Y-1985D01*
X16442Y-2053D01*
X16446Y-2089D01*
X16695Y-2023D01*
X16908Y-1961D01*
X17048Y-1908D01*
X17085Y-1903D01*
X17172Y-1709D01*
X17353Y-1688D01*
X17533Y-1666D01*
X17606Y-1658D01*
X17642Y-1653D01*
X17753Y-1970D01*
X17860Y-2251D01*
X17913Y-2392D01*
X17922Y-2464D01*
X18112Y-2515D01*
X18462Y-2987D01*
X18730Y-3396D01*
X18918Y-3741D01*
X19025Y-4022D01*
X19092Y-4271D01*
X19109Y-4415D01*
X19122Y-4524D01*
X19126Y-4560D01*
X18935Y-4803D01*
X18867Y-4848D01*
X18835Y-4888D01*
X18792Y-5150D01*
X18746Y-5376D01*
X18695Y-5566D01*
X18636Y-5683D01*
X18621Y-5868D01*
X18593Y-5945D01*
X18502Y-6103D01*
X18406Y-6224D01*
X18275Y-6350D01*
X18138Y-6440D01*
X18102Y-6444D01*
X17600Y-6540D01*
X17125Y-6560D01*
X16908Y-6586D01*
X16759Y-6567D01*
X16646Y-6544D01*
X16610Y-6548D01*
X16407Y-6389D01*
X16158Y-6455D01*
X16013Y-6472D01*
X15909Y-6521D01*
X15873Y-6526D01*
X15783Y-6390D01*
X15743Y-6358D01*
X15385Y-6437D01*
X15096Y-6471D01*
X14883Y-6534D01*
X14774Y-6547D01*
X14670Y-6596D01*
X14634Y-6600D01*
X14178Y-6471D01*
X13997Y-6492D01*
X13852Y-6509D01*
X13743Y-6522D01*
X13707Y-6527D01*
X13567Y-6580D01*
X13503Y-6661D01*
X13471Y-6702D01*
X13475Y-6738D01*
X13250Y-6691D01*
X13060Y-6640D01*
X12911Y-6622D01*
X12875Y-6626D01*
X12639Y-6801D01*
X12439Y-6971D01*
X12298Y-7025D01*
X12266Y-7065D01*
X12239Y-7142D01*
X12202Y-7146D01*
X12166Y-7151D01*
X12126Y-7119D01*
X12049Y-7091D01*
X12013Y-7096D01*
X11674Y-7026D01*
X11340Y-6992D01*
X11010Y-6995D01*
X10684Y-7033D01*
X10431Y-7064D01*
X10214Y-7089D01*
X10073Y-7143D01*
X10037Y-7147D01*
X9894Y-6870D01*
X9719Y-6634D01*
X9629Y-6498D01*
X9540Y-6362D01*
X9454Y-6262D01*
X9414Y-6230D01*
X9373Y-6198D01*
X9143Y-6116D01*
X8994Y-6097D01*
X8917Y-6069D01*
X8881Y-6073D01*
X8855Y-5856D01*
X8851Y-5820D01*
X8847Y-5784D01*
X8725Y-5688D01*
X8640Y-5588D01*
X8563Y-5561D01*
X8559Y-5525D01*
X8501Y-5348D01*
X8471Y-5094D01*
X8481Y-4873D01*
X8477Y-4837D01*
X8473Y-4801D01*
X8456Y-4656D01*
X8443Y-4547D01*
X8434Y-4475D01*
X8430Y-4439D01*
X8621Y-4196D01*
X8780Y-3993D01*
X9076Y-3701D01*
X9276Y-3530D01*
X9308Y-3490D01*
X9344Y-3486D01*
X9237Y-3205D01*
X9175Y-2992D01*
X9162Y-2883D01*
X9158Y-2847D01*
X8932Y-2800D01*
X8896Y-2805D01*
X8860Y-2809D01*
X8740Y-2420D01*
X8661Y-2062D01*
X8586Y-1740D01*
X8556Y-1487D01*
X8498Y-1310D01*
X8480Y-1166D01*
X8472Y-1093D01*
X8468Y-1057D01*
X8257Y-825D01*
X8090Y-661D01*
X8009Y-598D01*
X7969Y-566D01*
X7858Y-249D01*
X7791Y0D01*
X7774Y145D01*
X7770Y181D01*
X7535Y300D01*
X7495Y332D01*
X7458Y328D01*
X7428Y581D01*
X7411Y726D01*
X7398Y835D01*
X7394Y871D01*
X7225Y1365D01*
X7105Y1754D01*
X7052Y1894D01*
X7039Y2003D01*
X6998Y2035D01*
X6994Y2071D01*
X6938Y2542D01*
X6922Y2980D01*
X6884Y3306D01*
X6885Y3600D01*
X6859Y3817D01*
X6878Y3966D01*
X6870Y4039D01*
X6866Y4075D01*
X6791Y4396D01*
X6760Y4650D01*
X6703Y4826D01*
X6690Y4935D01*
X6649Y4967D01*
X6645Y5003D01*
X6736Y5161D01*
X6796Y5278D01*
X6859Y5359D01*
X6855Y5395D01*
X6834Y5576D01*
X6821Y5685D01*
X6816Y5721D01*
X6812Y5757D01*
X6944Y5883D01*
X7080Y5972D01*
X7148Y6017D01*
X7184Y6022D01*
X7286Y6401D01*
X7356Y6739D01*
X7430Y7042D01*
X7477Y7268D01*
X7491Y7453D01*
X7510Y7602D01*
X7502Y7675D01*
X7497Y7711D01*
X7680Y8026D01*
X7912Y8237D01*
X8120Y8335D01*
X8152Y8376D01*
X8188Y8380D01*
X8333Y8398D01*
X8405Y8406D01*
X8442Y8410D01*
X8420Y8591D01*
X8412Y8664D01*
X8571Y8866D01*
X8658Y9060D01*
X8722Y9141D01*
X8754Y9182D01*
X8728Y9399D01*
X8711Y9544D01*
X8702Y9616D01*
X8698Y9652D01*
X8817Y9887D01*
X8980Y10053D01*
X9116Y10143D01*
X9185Y10187D01*
X9357Y10281D01*
X9489Y10407D01*
X9693Y10542D01*
X9761Y10586D01*
X9793Y10627D01*
X9912Y10861D01*
X9963Y11051D01*
X10018Y11204D01*
X10014Y11241D01*
X10050Y11245D01*
X10122Y11253D01*
X10231Y11266D01*
X10267Y11271D01*
X10350Y11501D01*
X10401Y11690D01*
X10428Y11767D01*
X10424Y11803D01*
X10569Y11820D01*
X10543Y12038D01*
X10828Y12108D01*
X11041Y12170D01*
X11186Y12188D01*
X11222Y12192D01*
X11288Y11943D01*
X11318Y11689D01*
X11336Y11545D01*
X11344Y11472D01*
X11380Y11477D01*
X11421Y11445D01*
X11602Y11466D01*
X11787Y11452D01*
X11823Y11456D01*
X11859Y11460D01*
X11870Y11682D01*
X11889Y11831D01*
X11876Y11939D01*
X11872Y11975D01*
X12053Y11997D01*
X12161Y12010D01*
X12234Y12019D01*
X12270Y12023D01*
X12477Y11827D01*
X12602Y11695D01*
X12652Y11591D01*
X12692Y11559D01*
X12809Y11500D01*
X12886Y11472D01*
X12958Y11481D01*
X13158Y11652D01*
X13286Y11813D01*
X13422Y11903D01*
X13490Y11948D01*
X13554Y12029D01*
X13699Y12046D01*
X13843Y12064D01*
X13956Y12040D01*
X13992Y12044D01*
X14101Y12057D01*
X14169Y12102D01*
X14237Y12147D01*
X14411Y12535D01*
X14485Y12837D01*
X14540Y12991D01*
X14568Y13067D01*
X14640Y13076D01*
X14749Y13089D01*
X14858Y13102D01*
X14930Y13111D01*
X15118Y12766D01*
X15293Y12530D01*
X15391Y12321D01*
X15445Y12181D01*
X15489Y12113D01*
X15530Y12081D01*
X15534Y12044D01*
X15905Y12015D01*
X16162Y12009D01*
X16307Y12026D01*
X16379Y12035D01*
X16456Y12007D01*
X16533Y11980D01*
X16610Y11952D01*
X16650Y11920D01*
X16840Y11869D01*
X17025Y11855D01*
X17134Y11868D01*
X17170Y11872D01*
X17374Y12007D01*
X17510Y12096D01*
X17610Y12182D01*
X17646Y12186D01*
X17683Y12190D01*
X17791Y12203D01*
X17900Y12216D01*
X17936Y12220D01*
X18137Y11767D01*
X18288Y11418D01*
X18342Y11277D01*
X18391Y11173D01*
X18431Y11141D01*
X18436Y11105D01*
X18870Y11157D01*
X19196Y11196D01*
X19377Y11217D01*
X19449Y11226D01*
X19588Y10985D01*
X19722Y10781D01*
X19776Y10641D01*
X19816Y10609D01*
X20051Y10490D01*
X20091Y10458D01*
X20127Y10462D01*
X20230Y10217D01*
X20324Y10045D01*
X20333Y9973D01*
X20337Y9937D01*
X20567Y9854D01*
X20665Y9645D01*
X20719Y9505D01*
X20727Y9432D01*
X20731Y9396D01*
X21024Y9101D01*
X21271Y8873D01*
X21433Y8746D01*
X21474Y8714D01*
X21540Y8465D01*
X21602Y8252D01*
X21615Y8143D01*
X21619Y8107D01*
X21854Y7988D01*
X21898Y7920D01*
X21935Y7924D01*
X22037Y7680D01*
X22099Y7467D01*
X22112Y7358D01*
X22116Y7322D01*
X22206Y7186D01*
X22332Y7054D01*
X22377Y6986D01*
X22417Y6954D01*
X22447Y6701D01*
X22473Y6483D01*
X22486Y6375D01*
X22490Y6339D01*
X22657Y6175D01*
X22778Y6079D01*
X22859Y6016D01*
X22900Y5984D01*
X23047Y5671D01*
X23118Y5386D01*
X23171Y5245D01*
X23180Y5173D01*
X23404Y4832D01*
X23619Y4564D01*
X23713Y4392D01*
X23758Y4324D01*
X23735Y4211D01*
X23716Y4062D01*
X23693Y3949D01*
X23661Y3909D01*
X23610Y3719D01*
X23582Y3642D01*
X23555Y3565D01*
X23619Y3023D01*
X23716Y2520D01*
X23778Y2307D01*
X23799Y2126D01*
X23848Y2022D01*
X23853Y1986D01*
X23951Y1777D01*
X24049Y1569D01*
X24314Y1197D01*
X24444Y1029D01*
X24570Y897D01*
X24615Y828D01*
X24655Y797D01*
X24772Y737D01*
X24849Y710D01*
X24921Y718D01*
X24966Y650D01*
X25056Y514D01*
X25199Y237D01*
X25252Y97D01*
X25306Y-44D01*
X25351Y-112D01*
X25355Y-148D01*
X25494Y-388D01*
X25588Y-561D01*
X25677Y-697D01*
X25726Y-801D01*
X25816Y-937D01*
X25856Y-969D01*
X25933Y-997D01*
X26046Y-1020D01*
X26304Y-1026D01*
X26525Y-1036D01*
X26598Y-1028D01*
X26634Y-1023D01*
X27032Y-976D01*
X27281Y-910D01*
X27458Y-852D01*
X27494Y-848D01*
X27500Y-590D01*
X27970Y-534D01*
X28296Y-495D01*
X28477Y-474D01*
X28550Y-465D01*
X28541Y-393D01*
X28528Y-284D01*
X28515Y-175D01*
X28506Y-103D01*
X28815Y81D01*
X29019Y215D01*
X29160Y268D01*
X29191Y309D01*
X29247Y462D01*
X29396Y443D01*
X29504Y456D01*
X29545Y424D01*
X29546Y718D01*
X29593Y944D01*
X29608Y1129D01*
X29627Y1278D01*
X29654Y1355D01*
X29682Y1432D01*
X29714Y1472D01*
X29927Y1534D01*
X29959Y1575D01*
X29995Y1579D01*
X29788Y1775D01*
X29626Y1902D01*
X29509Y1962D01*
X29468Y1994D01*
X29451Y2138D01*
X29434Y2283D01*
X29425Y2356D01*
X29421Y2392D01*
X29457Y2396D01*
X29570Y2373D01*
X29647Y2345D01*
X29687Y2313D01*
X29855Y2444D01*
X29959Y2493D01*
X29991Y2533D01*
X30027Y2537D01*
X30020Y2904D01*
X29986Y3193D01*
X29988Y3487D01*
X29962Y3704D01*
X29977Y3889D01*
X29964Y3998D01*
X29955Y4070D01*
X29951Y4107D01*
X30055Y4156D01*
X30123Y4201D01*
X30155Y4241D01*
X30057Y4450D01*
X29963Y4622D01*
X29909Y4763D01*
X29869Y4794D01*
X29775Y4967D01*
X29617Y5058D01*
X29500Y5118D01*
X29464Y5113D01*
X29319Y5096D01*
X29210Y5083D01*
X29138Y5074D01*
X29102Y5070D01*
X29061Y5102D01*
X29017Y5170D01*
X28918Y5379D01*
X28861Y5555D01*
X28820Y5587D01*
X28816Y5623D01*
X28758Y5800D01*
X28709Y5904D01*
X28579Y6072D01*
X28530Y6177D01*
X28493Y6172D01*
X28227Y6251D01*
X28001Y6297D01*
X27852Y6316D01*
X27816Y6312D01*
X27605Y6544D01*
X27434Y6744D01*
X27345Y6880D01*
X27304Y6912D01*
X27087Y6886D01*
X26942Y6869D01*
X26870Y6860D01*
X26834Y6856D01*
X26567Y6934D01*
X26378Y6985D01*
X26224Y7040D01*
X26107Y7100D01*
X25994Y7123D01*
X25954Y7155D01*
X25864Y7291D01*
X25819Y7359D01*
X25545Y7510D01*
X25310Y7629D01*
X25161Y7648D01*
X25120Y7680D01*
X25027Y7852D01*
X24977Y7956D01*
X24937Y7988D01*
X24933Y8024D01*
X24707Y8071D01*
X24630Y8098D01*
X24594Y8094D01*
X24536Y8271D01*
X24515Y8452D01*
X24470Y8520D01*
X24465Y8556D01*
X24312Y8611D01*
X24199Y8635D01*
X24123Y8662D01*
X24086Y8658D01*
X24060Y8875D01*
X23843Y8849D01*
X23807Y8845D01*
X23771Y8840D01*
X23718Y8981D01*
X23668Y9085D01*
X23660Y9158D01*
X23655Y9194D01*
X23434Y9204D01*
X23393Y9236D01*
X23357Y9232D01*
X23146Y9464D01*
X23003Y9740D01*
X22794Y10266D01*
X22732Y10479D01*
X22674Y10655D01*
X22661Y10764D01*
X22657Y10800D01*
X22671Y10985D01*
X22667Y11022D01*
X22895Y11269D01*
X23090Y11476D01*
X23254Y11642D01*
X23386Y11768D01*
X23550Y11934D01*
X23581Y11975D01*
X23890Y12158D01*
X24135Y12261D01*
X24271Y12350D01*
X24307Y12355D01*
X24358Y12544D01*
X24417Y12662D01*
X24413Y12698D01*
X24409Y12734D01*
X24617Y12832D01*
X24758Y12886D01*
X24830Y12894D01*
X24866Y12899D01*
X24983Y12839D01*
X25060Y12811D01*
X25096Y12816D01*
X25150Y12675D01*
X25167Y12530D01*
X25216Y12426D01*
X25220Y12390D01*
X25310Y12254D01*
X25468Y12163D01*
X25581Y12139D01*
X25621Y12107D01*
X25834Y12169D01*
X26011Y12227D01*
X26151Y12281D01*
X26187Y12285D01*
X26232Y12217D01*
X26309Y12189D01*
X26349Y12157D01*
X26390Y12126D01*
X26426Y12130D01*
X26535Y12143D01*
X26643Y12156D01*
X26679Y12160D01*
X26772Y12611D01*
X26842Y12950D01*
X26889Y13176D01*
X26916Y13253D01*
X27066Y13234D01*
X27174Y13247D01*
X27242Y13292D01*
X27278Y13296D01*
X27319Y13264D01*
D02*
G37*
G36*
X-20454Y31473D02*
X-20341Y31450D01*
X-20265Y31422D01*
X-20228Y31427D01*
X-20202Y31209D01*
X-20181Y31029D01*
X-20168Y30920D01*
X-20155Y30811D01*
X-20146Y30739D01*
X-20234Y30545D01*
X-20265Y30505D01*
X-20261Y30468D01*
X-20651Y30349D01*
X-20932Y30242D01*
X-21108Y30184D01*
X-21181Y30175D01*
X-21198Y30320D01*
X-21215Y30465D01*
X-21228Y30573D01*
X-21232Y30610D01*
X-21245Y30718D01*
X-21262Y30863D01*
X-21275Y30972D01*
X-21280Y31008D01*
X-21288Y31080D01*
X-21338Y31184D01*
X-21387Y31289D01*
X-21431Y31357D01*
X-21001Y31445D01*
X-20639Y31488D01*
X-20454Y31473D01*
D02*
G37*
G36*
X-23108Y16768D02*
X-22806Y16694D01*
X-22652Y16639D01*
X-22576Y16611D01*
X-22080Y16450D01*
X-21728Y16272D01*
X-21449Y16084D01*
X-21278Y15885D01*
X-21148Y15717D01*
X-21094Y15576D01*
X-21045Y15472D01*
X-21041Y15436D01*
X-21020Y15255D01*
X-20998Y15074D01*
X-21021Y14961D01*
X-21013Y14888D01*
X-21221Y14790D01*
X-21204Y14645D01*
X-21218Y14460D01*
X-21238Y14311D01*
X-21233Y14275D01*
X-21229Y14239D01*
X-21199Y13985D01*
X-21181Y13840D01*
X-21173Y13768D01*
X-21169Y13732D01*
X-21002Y13568D01*
X-20876Y13436D01*
X-20791Y13336D01*
X-20751Y13304D01*
X-20616Y13100D01*
X-20490Y12968D01*
X-20369Y12873D01*
X-20324Y12805D01*
X-20243Y12741D01*
X-20207Y12745D01*
X-20171Y12749D01*
X-20130Y12718D01*
X-19913Y12743D01*
X-19728Y12729D01*
X-19692Y12733D01*
X-19655Y12737D01*
X-19474Y12759D01*
X-19330Y12776D01*
X-19117Y12838D01*
X-19012Y12887D01*
X-18976Y12892D01*
X-18993Y13036D01*
X-19006Y13145D01*
X-19024Y13290D01*
X-19028Y13326D01*
X-18932Y13447D01*
X-18864Y13492D01*
X-18796Y13537D01*
X-18760Y13541D01*
X-18611Y13522D01*
X-18457Y13467D01*
X-18340Y13408D01*
X-18300Y13376D01*
X-18101Y13253D01*
X-17948Y13197D01*
X-17908Y13166D01*
X-17871Y13170D01*
X-17622Y13236D01*
X-17450Y13330D01*
X-17314Y13420D01*
X-17246Y13465D01*
X-17046Y13635D01*
X-16910Y13725D01*
X-16842Y13770D01*
X-16805Y13774D01*
X-16339Y13866D01*
X-15937Y13878D01*
X-15788Y13859D01*
X-15679Y13871D01*
X-15602Y13844D01*
X-15566Y13848D01*
X-15364Y13689D01*
X-15183Y13710D01*
X-15042Y13764D01*
X-14938Y13813D01*
X-14906Y13853D01*
X-14770Y13943D01*
X-14670Y14028D01*
X-14634Y14033D01*
X-14489Y14050D01*
X-14340Y14031D01*
X-14227Y14008D01*
X-14191Y14012D01*
X-14001Y13961D01*
X-13925Y13934D01*
X-13888Y13938D01*
X-13780Y13951D01*
X-13676Y14000D01*
X-13607Y14045D01*
X-13571Y14049D01*
X-13435Y14139D01*
X-13367Y14183D01*
X-13331Y14188D01*
X-13041Y14222D01*
X-12752Y14257D01*
X-12571Y14278D01*
X-12535Y14283D01*
X-12498Y14287D01*
X-12358Y14340D01*
X-12217Y14394D01*
X-12054Y14560D01*
X-11994Y14677D01*
X-11967Y14754D01*
X-11984Y14899D01*
X-11997Y15007D01*
X-12005Y15080D01*
X-12010Y15116D01*
X-11837Y15210D01*
X-11675Y15082D01*
X-11635Y15050D01*
X-11524Y14733D01*
X-11462Y14520D01*
X-11412Y14416D01*
X-11408Y14380D01*
X-11363Y14312D01*
X-11282Y14248D01*
X-11084Y14125D01*
X-10854Y14042D01*
X-10813Y14010D01*
X-10777Y14015D01*
X-10398Y13913D01*
X-10136Y13871D01*
X-9951Y13856D01*
X-9915Y13860D01*
X-9847Y13905D01*
X-9815Y13946D01*
X-9783Y13986D01*
X-9472Y13840D01*
X-9237Y13721D01*
X-9043Y13634D01*
X-8926Y13574D01*
X-8845Y13510D01*
X-8809Y13515D01*
X-8768Y13483D01*
X-8611Y13391D01*
X-8444Y13228D01*
X-8157Y12968D01*
X-8027Y12800D01*
X-7941Y12700D01*
X-7860Y12637D01*
X-7856Y12600D01*
X-7587Y12192D01*
X-7327Y11856D01*
X-7237Y11720D01*
X-7152Y11620D01*
X-7107Y11552D01*
X-7103Y11515D01*
X-6886Y11541D01*
X-6877Y11469D01*
X-6909Y11428D01*
X-6945Y11424D01*
X-7017Y11415D01*
X-7013Y11379D01*
X-7009Y11343D01*
X-6847Y11215D01*
X-6730Y11156D01*
X-6649Y11092D01*
X-6612Y11096D01*
X-6401Y10865D01*
X-6267Y10661D01*
X-6043Y10320D01*
X-5908Y10116D01*
X-5904Y10080D01*
X-5900Y10044D01*
X-5906Y9786D01*
X-5920Y9601D01*
X-5971Y9411D01*
X-5994Y9298D01*
X-6009Y9113D01*
X-6041Y9072D01*
X-5830Y8840D01*
X-5623Y8645D01*
X-5461Y8517D01*
X-5421Y8485D01*
X-5378Y8123D01*
X-5343Y7834D01*
X-5308Y7544D01*
X-5323Y7359D01*
X-5338Y7174D01*
X-5325Y7065D01*
X-5353Y6989D01*
X-5348Y6952D01*
X-5303Y6884D01*
X-5214Y6748D01*
X-5165Y6644D01*
X-5124Y6612D01*
X-4958Y6448D01*
X-4909Y6344D01*
X-4864Y6276D01*
X-4879Y6090D01*
X-4966Y5897D01*
X-5053Y5703D01*
X-5085Y5662D01*
X-5080Y5626D01*
X-5195Y5355D01*
X-5282Y5161D01*
X-5309Y5085D01*
X-5305Y5049D01*
X-5253Y4614D01*
X-5215Y4289D01*
X-5193Y4108D01*
X-5184Y4035D01*
X-5359Y3647D01*
X-5469Y3341D01*
X-5596Y3179D01*
X-5624Y3102D01*
X-5562Y2889D01*
X-5540Y2708D01*
X-5442Y2499D01*
X-5389Y2359D01*
X-5348Y2327D01*
X-5376Y2251D01*
X-5431Y2097D01*
X-5573Y1750D01*
X-5660Y1556D01*
X-5751Y1398D01*
X-5775Y1285D01*
X-5807Y1245D01*
X-5953Y934D01*
X-6072Y699D01*
X-6159Y505D01*
X-6219Y388D01*
X-6282Y307D01*
X-6310Y231D01*
X-6342Y190D01*
X-6406Y109D01*
X-6537Y-17D01*
X-6869Y-313D01*
X-7037Y-443D01*
X-7169Y-569D01*
X-7269Y-655D01*
X-7301Y-695D01*
X-7410Y-708D01*
X-7482Y-717D01*
X-7554Y-725D01*
X-7750Y-932D01*
X-7882Y-1058D01*
X-7982Y-1143D01*
X-8014Y-1184D01*
X-8114Y-1269D01*
X-8290Y-1327D01*
X-8535Y-1429D01*
X-8784Y-1496D01*
X-9065Y-1602D01*
X-9278Y-1665D01*
X-9418Y-1718D01*
X-9491Y-1727D01*
X-9953Y-1855D01*
X-10310Y-1934D01*
X-10559Y-2001D01*
X-10740Y-2022D01*
X-10885Y-2039D01*
X-10957Y-2048D01*
X-10994Y-2052D01*
X-11192Y-1929D01*
X-11313Y-1833D01*
X-11394Y-1770D01*
X-11435Y-1738D01*
X-11548Y-1715D01*
X-11584Y-1719D01*
X-11620Y-1723D01*
X-11842Y-1713D01*
X-11995Y-1658D01*
X-12036Y-1626D01*
X-12076Y-1594D01*
X-12129Y-1453D01*
X-12179Y-1349D01*
X-12232Y-1209D01*
X-12273Y-1177D01*
X-12511Y-1022D01*
X-12705Y-935D01*
X-12822Y-875D01*
X-12858Y-879D01*
X-13155Y-548D01*
X-13388Y-135D01*
X-13477Y1D01*
X-13531Y142D01*
X-13580Y246D01*
X-13584Y282D01*
X-13563Y101D01*
X-13771Y3D01*
X-13943Y-91D01*
X-14048Y-140D01*
X-14084Y-144D01*
X-14058Y-362D01*
X-14037Y-543D01*
X-14019Y-687D01*
X-14015Y-723D01*
X-14124Y-736D01*
X-14293Y-1160D01*
X-14399Y-1503D01*
X-14514Y-1774D01*
X-14601Y-1968D01*
X-14697Y-2089D01*
X-14756Y-2207D01*
X-14788Y-2247D01*
X-15033Y-2350D01*
X-15209Y-2407D01*
X-15318Y-2420D01*
X-15354Y-2425D01*
X-15799Y-2698D01*
X-16139Y-2922D01*
X-16239Y-3007D01*
X-16343Y-3056D01*
X-16375Y-3097D01*
X-16412Y-3101D01*
X-16520Y-3114D01*
X-16593Y-3123D01*
X-16665Y-3131D01*
X-16724Y-3249D01*
X-16820Y-3370D01*
X-16839Y-3519D01*
X-16871Y-3560D01*
X-16958Y-3754D01*
X-17054Y-3875D01*
X-17117Y-3956D01*
X-17154Y-3960D01*
X-17556Y-3971D01*
X-17814Y-3965D01*
X-17999Y-3951D01*
X-18035Y-3955D01*
X-18312Y-4098D01*
X-18520Y-4197D01*
X-18697Y-4254D01*
X-18729Y-4295D01*
X-18946Y-4321D01*
X-19136Y-4270D01*
X-19285Y-4251D01*
X-19361Y-4223D01*
X-19591Y-4140D01*
X-19704Y-4117D01*
X-19781Y-4090D01*
X-19817Y-4094D01*
X-20179Y-4137D01*
X-20433Y-4167D01*
X-20577Y-4184D01*
X-20650Y-4193D01*
X-21150Y-3996D01*
X-21534Y-3858D01*
X-21764Y-3775D01*
X-21805Y-3743D01*
X-21841Y-3748D01*
X-22301Y-3582D01*
X-22684Y-3444D01*
X-22996Y-3298D01*
X-23189Y-3211D01*
X-23311Y-3115D01*
X-23428Y-3056D01*
X-23473Y-2987D01*
X-23665Y-2606D01*
X-23844Y-2334D01*
X-23902Y-2158D01*
X-23947Y-2089D01*
X-24303Y-1875D01*
X-24610Y-1764D01*
X-24803Y-1678D01*
X-24844Y-1646D01*
X-24880Y-1650D01*
X-24991Y-1333D01*
X-25058Y-1084D01*
X-25124Y-835D01*
X-25146Y-654D01*
X-25163Y-509D01*
X-25176Y-400D01*
X-25180Y-364D01*
X-25184Y-328D01*
X-25323Y-88D01*
X-25458Y117D01*
X-25511Y257D01*
X-25552Y289D01*
X-25567Y728D01*
X-25570Y1058D01*
X-25555Y1243D01*
X-25564Y1315D01*
X-25572Y1388D01*
X-25621Y1492D01*
X-25670Y1596D01*
X-25675Y1633D01*
X-25769Y1805D01*
X-25822Y1945D01*
X-25831Y2018D01*
X-25835Y2054D01*
X-25746Y2542D01*
X-25681Y2917D01*
X-25634Y3142D01*
X-25607Y3219D01*
X-25667Y3726D01*
X-25710Y4088D01*
X-25723Y4196D01*
X-25736Y4305D01*
X-25745Y4377D01*
X-25657Y4571D01*
X-25566Y4729D01*
X-25539Y4806D01*
X-25507Y4846D01*
X-25590Y5240D01*
X-25661Y5525D01*
X-25719Y5702D01*
X-25727Y5774D01*
X-25555Y5868D01*
X-25576Y6049D01*
X-25594Y6194D01*
X-25598Y6230D01*
X-25602Y6266D01*
X-25479Y6464D01*
X-25392Y6658D01*
X-25328Y6739D01*
X-25297Y6780D01*
X-25115Y6802D01*
X-24950Y7262D01*
X-24861Y7749D01*
X-24851Y7971D01*
X-24832Y8120D01*
X-24809Y8233D01*
X-24813Y8269D01*
X-24830Y8414D01*
X-24884Y8554D01*
X-24937Y8695D01*
X-24978Y8727D01*
X-25170Y9108D01*
X-25345Y9344D01*
X-25475Y9512D01*
X-25515Y9544D01*
X-25831Y9726D01*
X-26106Y9877D01*
X-26263Y9968D01*
X-26340Y9996D01*
X-26393Y10137D01*
X-26451Y10313D01*
X-26539Y10743D01*
X-26597Y10920D01*
X-26618Y11101D01*
X-26631Y11209D01*
X-26636Y11246D01*
X-26674Y11571D01*
X-26709Y11861D01*
X-26699Y12082D01*
X-26720Y12263D01*
X-26701Y12412D01*
X-26710Y12485D01*
X-26682Y12562D01*
X-26563Y12796D01*
X-26512Y12986D01*
X-26449Y13067D01*
X-26417Y13107D01*
X-26343Y13409D01*
X-26300Y13671D01*
X-26333Y14255D01*
X-26323Y14476D01*
X-26381Y14653D01*
X-26398Y14798D01*
X-26402Y14834D01*
X-26202Y15005D01*
X-26002Y15175D01*
X-25726Y15318D01*
X-25553Y15412D01*
X-25517Y15417D01*
X-25404Y15393D01*
X-25364Y15361D01*
X-25319Y15293D01*
X-25315Y15257D01*
X-25128Y15536D01*
X-24972Y15775D01*
X-24881Y15933D01*
X-24849Y15973D01*
X-24704Y15991D01*
X-24596Y16003D01*
X-24523Y16012D01*
X-24487Y16016D01*
X-24292Y16223D01*
X-24264Y16300D01*
X-24228Y16304D01*
X-24105Y16502D01*
X-24045Y16620D01*
X-24013Y16660D01*
X-24018Y16696D01*
X-23805Y16758D01*
X-23664Y16812D01*
X-23560Y16861D01*
X-23524Y16865D01*
X-23108Y16768D01*
D02*
G37*
G36*
X7150Y-62882D02*
X7227Y-62910D01*
X7263Y-62906D01*
X7421Y-62997D01*
X7538Y-63056D01*
X7583Y-63124D01*
X7619Y-63120D01*
X7817Y-63243D01*
X7947Y-63411D01*
X8139Y-63792D01*
X8193Y-63933D01*
X8246Y-64073D01*
X8255Y-64146D01*
X8259Y-64182D01*
X8281Y-64363D01*
X8266Y-64548D01*
X8247Y-64697D01*
X8252Y-64733D01*
X8256Y-64770D01*
X8250Y-65027D01*
X8267Y-65172D01*
X8280Y-65281D01*
X8284Y-65317D01*
X8359Y-65638D01*
X8426Y-65887D01*
X8479Y-66028D01*
X8488Y-66100D01*
X8622Y-66304D01*
X8748Y-66436D01*
X8797Y-66540D01*
X8838Y-66572D01*
X8930Y-67039D01*
X8990Y-67545D01*
X9016Y-67763D01*
X9001Y-67948D01*
X9014Y-68056D01*
X9018Y-68093D01*
X8944Y-68395D01*
X8866Y-68661D01*
X8847Y-68810D01*
X8819Y-68887D01*
X8890Y-69172D01*
X9001Y-69490D01*
X9055Y-69630D01*
X9108Y-69770D01*
X9153Y-69839D01*
X9157Y-69875D01*
X9260Y-70119D01*
X9354Y-70292D01*
X9411Y-70468D01*
X9460Y-70573D01*
X9518Y-70749D01*
X9523Y-70786D01*
X9580Y-70962D01*
X9597Y-71107D01*
X9615Y-71252D01*
X9619Y-71288D01*
X9662Y-71650D01*
X9669Y-72016D01*
X9654Y-72202D01*
X9672Y-72346D01*
X9644Y-72423D01*
X9648Y-72459D01*
X9673Y-72970D01*
X9679Y-73336D01*
X9692Y-73445D01*
X9705Y-73554D01*
X9710Y-73590D01*
X9714Y-73626D01*
X9744Y-73879D01*
X9802Y-74056D01*
X9819Y-74201D01*
X9828Y-74273D01*
X9872Y-74341D01*
X9922Y-74445D01*
X9971Y-74550D01*
X10011Y-74582D01*
X10105Y-74754D01*
X10190Y-74854D01*
X10199Y-74926D01*
X10203Y-74963D01*
X10129Y-75265D01*
X10083Y-75491D01*
X10032Y-75680D01*
X10000Y-75721D01*
X10035Y-76011D01*
X10065Y-76264D01*
X10091Y-76481D01*
X10095Y-76517D01*
X10099Y-76553D01*
X10157Y-76730D01*
X10210Y-76871D01*
X10308Y-77079D01*
X10321Y-77188D01*
X10326Y-77224D01*
X10315Y-77445D01*
X10305Y-77667D01*
X10199Y-78010D01*
X10108Y-78167D01*
X10048Y-78285D01*
X10016Y-78325D01*
X9984Y-78366D01*
X9574Y-78929D01*
X9330Y-79031D01*
X9189Y-79084D01*
X9081Y-79097D01*
X9044Y-79102D01*
X8925Y-79336D01*
X8857Y-79381D01*
X8862Y-79417D01*
X8485Y-79646D01*
X8136Y-79797D01*
X8027Y-79810D01*
X7923Y-79859D01*
X7851Y-79868D01*
X7814Y-79872D01*
X7706Y-79885D01*
X7629Y-79857D01*
X7593Y-79862D01*
X7567Y-79645D01*
X7365Y-79485D01*
X7320Y-79417D01*
X7284Y-79421D01*
X7138Y-78815D01*
X7041Y-78312D01*
X6954Y-77882D01*
X6874Y-77525D01*
X6840Y-77235D01*
X6814Y-77018D01*
X6801Y-76909D01*
X6797Y-76873D01*
X6558Y-76718D01*
X6430Y-76256D01*
X6355Y-75935D01*
X6293Y-75722D01*
X6284Y-75649D01*
X6294Y-75428D01*
X6341Y-75202D01*
X6356Y-75017D01*
X6383Y-74940D01*
X6457Y-74638D01*
X6468Y-74416D01*
X6491Y-74303D01*
X6487Y-74267D01*
X6329Y-74176D01*
X6248Y-74112D01*
X6167Y-74048D01*
X6101Y-73799D01*
X6043Y-73623D01*
X6034Y-73550D01*
X6030Y-73514D01*
X5813Y-73540D01*
X5800Y-73431D01*
X5295Y-73198D01*
X4911Y-73060D01*
X4758Y-73005D01*
X4645Y-72981D01*
X4568Y-72954D01*
X4532Y-72958D01*
X4402Y-72790D01*
X4280Y-72694D01*
X4236Y-72626D01*
X4199Y-72631D01*
X4067Y-72756D01*
X3963Y-72806D01*
X3900Y-72887D01*
X3863Y-72891D01*
X3655Y-72989D01*
X3546Y-73002D01*
X3510Y-73006D01*
X3180Y-73009D01*
X2850Y-73011D01*
X2516Y-72978D01*
X2249Y-72900D01*
X2019Y-72817D01*
X1866Y-72762D01*
X1753Y-72738D01*
X1712Y-72707D01*
X1553Y-72909D01*
X1425Y-73071D01*
X1330Y-73193D01*
X1298Y-73233D01*
X1076Y-73223D01*
X963Y-73199D01*
X887Y-73172D01*
X851Y-73176D01*
X710Y-73230D01*
X574Y-73319D01*
X506Y-73364D01*
X470Y-73368D01*
X221Y-73435D01*
X8Y-73497D01*
X-137Y-73514D01*
X-173Y-73518D01*
X-214Y-73486D01*
X-254Y-73454D01*
X-331Y-73427D01*
X-367Y-73431D01*
X-484Y-73372D01*
X-561Y-73344D01*
X-633Y-73353D01*
X-765Y-73479D01*
X-861Y-73600D01*
X-929Y-73645D01*
X-961Y-73685D01*
X-1182Y-73675D01*
X-1331Y-73656D01*
X-1404Y-73665D01*
X-1440Y-73669D01*
X-1431Y-73742D01*
X-1798Y-73748D01*
X-2196Y-73796D01*
X-2630Y-73848D01*
X-3024Y-73931D01*
X-3382Y-74010D01*
X-3671Y-74045D01*
X-3848Y-74102D01*
X-3884Y-74107D01*
X-3920Y-74111D01*
X-3956Y-74116D01*
X-4061Y-74165D01*
X-4201Y-74218D01*
X-4233Y-74259D01*
X-4442Y-74357D01*
X-4582Y-74410D01*
X-4691Y-74423D01*
X-4727Y-74427D01*
X-4885Y-74336D01*
X-5002Y-74277D01*
X-5155Y-74221D01*
X-5232Y-74194D01*
X-5558Y-74233D01*
X-5843Y-74303D01*
X-6056Y-74365D01*
X-6124Y-74410D01*
X-6160Y-74414D01*
X-6545Y-74571D01*
X-6826Y-74677D01*
X-7003Y-74735D01*
X-7075Y-74744D01*
X-7256Y-74765D01*
X-7405Y-74746D01*
X-7518Y-74723D01*
X-7554Y-74727D01*
X-7784Y-74645D01*
X-7865Y-74581D01*
X-7902Y-74585D01*
X-8132Y-74502D01*
X-8281Y-74484D01*
X-8426Y-74501D01*
X-8462Y-74505D01*
X-8602Y-74558D01*
X-8775Y-74652D01*
X-8947Y-74746D01*
X-8979Y-74787D01*
X-9015Y-74791D01*
X-9328Y-74938D01*
X-9577Y-75005D01*
X-9722Y-75022D01*
X-9794Y-75031D01*
X-9835Y-74999D01*
X-9875Y-74967D01*
X-9916Y-74935D01*
X-9920Y-74899D01*
X-10001Y-74835D01*
X-10082Y-74771D01*
X-10154Y-74780D01*
X-10191Y-74784D01*
X-10335Y-74801D01*
X-10367Y-74842D01*
X-10440Y-74851D01*
X-10508Y-74895D01*
X-10544Y-74900D01*
X-10580Y-74904D01*
X-10689Y-74917D01*
X-10906Y-74943D01*
X-11087Y-74964D01*
X-11159Y-74973D01*
X-11195Y-74977D01*
X-11387Y-75220D01*
X-11546Y-75423D01*
X-11637Y-75581D01*
X-11669Y-75621D01*
X-11742Y-75630D01*
X-11882Y-75683D01*
X-12023Y-75736D01*
X-12059Y-75741D01*
X-12095Y-75745D01*
X-12231Y-75835D01*
X-12327Y-75956D01*
X-12354Y-76033D01*
X-12350Y-76069D01*
X-12303Y-76467D01*
X-12236Y-76716D01*
X-12179Y-76893D01*
X-12170Y-76965D01*
X-12221Y-77155D01*
X-12240Y-77304D01*
X-12263Y-77417D01*
X-12295Y-77457D01*
X-12282Y-77566D01*
X-12229Y-77706D01*
X-12154Y-78028D01*
X-12136Y-78173D01*
X-12083Y-78313D01*
X-12074Y-78386D01*
X-12070Y-78422D01*
X-11937Y-78920D01*
X-11822Y-79273D01*
X-11805Y-79418D01*
X-11792Y-79527D01*
X-11787Y-79563D01*
X-11783Y-79599D01*
X-11749Y-79888D01*
X-11759Y-80110D01*
X-11778Y-80259D01*
X-11773Y-80295D01*
X-11801Y-80372D01*
X-11897Y-80493D01*
X-12152Y-80818D01*
X-12279Y-80980D01*
X-12407Y-81142D01*
X-12471Y-81222D01*
X-12503Y-81263D01*
X-12726Y-81546D01*
X-12921Y-81753D01*
X-13053Y-81879D01*
X-13149Y-82001D01*
X-13285Y-82090D01*
X-13317Y-82131D01*
X-13457Y-82184D01*
X-13638Y-82206D01*
X-14045Y-82181D01*
X-14230Y-82166D01*
X-14379Y-82147D01*
X-14492Y-82124D01*
X-14529Y-82128D01*
X-14680Y-81779D01*
X-14792Y-81462D01*
X-14894Y-81217D01*
X-14988Y-81045D01*
X-15041Y-80905D01*
X-15086Y-80836D01*
X-15131Y-80768D01*
X-15327Y-80351D01*
X-15479Y-80002D01*
X-15558Y-79645D01*
X-15629Y-79359D01*
X-15659Y-79106D01*
X-15681Y-78925D01*
X-15658Y-78812D01*
X-15662Y-78776D01*
X-15666Y-78740D01*
X-15639Y-78663D01*
X-15556Y-78433D01*
X-15509Y-78207D01*
X-15477Y-78167D01*
X-15482Y-78131D01*
X-15448Y-77796D01*
X-15442Y-77538D01*
X-15464Y-77358D01*
X-15472Y-77285D01*
X-15660Y-76940D01*
X-15799Y-76700D01*
X-15889Y-76564D01*
X-15933Y-76496D01*
X-16004Y-76210D01*
X-16075Y-75925D01*
X-16144Y-75346D01*
X-16174Y-75093D01*
X-16200Y-74875D01*
X-16217Y-74731D01*
X-16221Y-74695D01*
X-16260Y-74369D01*
X-16258Y-74075D01*
X-16288Y-73822D01*
X-16310Y-73641D01*
X-16312Y-73311D01*
X-16338Y-73093D01*
X-16356Y-72949D01*
X-16360Y-72912D01*
X-16364Y-72876D01*
X-16433Y-72297D01*
X-16538Y-71722D01*
X-16635Y-71220D01*
X-16687Y-70786D01*
X-16766Y-70428D01*
X-16836Y-70143D01*
X-16894Y-69966D01*
X-16903Y-69894D01*
X-17010Y-69613D01*
X-17112Y-69368D01*
X-17166Y-69227D01*
X-17170Y-69191D01*
X-17160Y-68970D01*
X-17145Y-68785D01*
X-17126Y-68635D01*
X-17135Y-68563D01*
X-17088Y-68337D01*
X-17029Y-68220D01*
X-17037Y-68148D01*
X-17067Y-67894D01*
X-17089Y-67713D01*
X-17110Y-67532D01*
X-17123Y-67424D01*
X-17145Y-67243D01*
X-17149Y-67207D01*
X-17022Y-67045D01*
X-16926Y-66923D01*
X-16826Y-66838D01*
X-16794Y-66797D01*
X-16803Y-66725D01*
X-16775Y-66648D01*
X-16765Y-66427D01*
X-16714Y-66237D01*
X-16718Y-66201D01*
X-16723Y-66165D01*
X-16676Y-65939D01*
X-16589Y-65745D01*
X-16525Y-65664D01*
X-16493Y-65624D01*
X-16312Y-65602D01*
X-16204Y-65589D01*
X-16168Y-65585D01*
X-16131Y-65580D01*
X-15652Y-65597D01*
X-15282Y-65626D01*
X-14988Y-65628D01*
X-14803Y-65642D01*
X-14690Y-65666D01*
X-14613Y-65693D01*
X-14577Y-65689D01*
X-14500Y-65717D01*
X-14415Y-65817D01*
X-14321Y-65989D01*
X-14195Y-66121D01*
X-14065Y-66289D01*
X-13975Y-66425D01*
X-13926Y-66529D01*
X-13886Y-66561D01*
X-13706Y-66834D01*
X-13536Y-67033D01*
X-13442Y-67206D01*
X-13393Y-67310D01*
X-13344Y-67414D01*
X-13303Y-67446D01*
X-13299Y-67482D01*
X-13273Y-67700D01*
X-13251Y-67881D01*
X-13258Y-68138D01*
X-13276Y-68287D01*
X-13272Y-68323D01*
X-13165Y-68604D01*
X-13099Y-68853D01*
X-13037Y-69066D01*
X-12939Y-69275D01*
X-12885Y-69415D01*
X-12877Y-69488D01*
D01*
X-12872Y-69524D01*
X-12864Y-69596D01*
X-12878Y-69782D01*
X-12874Y-69818D01*
X-12870Y-69854D01*
X-12827Y-70216D01*
X-12765Y-70429D01*
X-12711Y-70569D01*
X-12707Y-70605D01*
X-12500Y-70801D01*
X-12460Y-70833D01*
X-12419Y-70865D01*
X-12402Y-71010D01*
X-12140Y-71052D01*
X-11991Y-71071D01*
X-11882Y-71058D01*
X-11846Y-71054D01*
X-11611Y-71172D01*
X-11454Y-71264D01*
X-11373Y-71328D01*
X-11332Y-71359D01*
X-11156Y-71302D01*
X-11047Y-71289D01*
X-11015Y-71248D01*
X-10979Y-71244D01*
X-10973Y-70986D01*
X-10945Y-70910D01*
X-10950Y-70873D01*
X-10922Y-70797D01*
X-10854Y-70752D01*
X-10709Y-70735D01*
X-10528Y-70713D01*
X-10492Y-70709D01*
X-10456Y-70705D01*
X-10326Y-70873D01*
X-10281Y-70941D01*
X-10277Y-70977D01*
X-10059Y-70951D01*
X-9915Y-70934D01*
X-9842Y-70925D01*
X-9806Y-70921D01*
X-9599Y-71117D01*
X-9473Y-71248D01*
X-9384Y-71385D01*
X-9343Y-71416D01*
X-9077Y-71495D01*
X-8779Y-71533D01*
X-8521Y-71539D01*
X-8268Y-71509D01*
X-8019Y-71442D01*
X-7842Y-71385D01*
X-7738Y-71335D01*
X-7702Y-71331D01*
X-7499Y-71491D01*
X-7342Y-71582D01*
X-7220Y-71678D01*
X-7143Y-71705D01*
X-7062Y-71769D01*
X-6837Y-71815D01*
X-6800Y-71811D01*
X-6764Y-71807D01*
X-6587Y-71749D01*
X-6374Y-71687D01*
X-6198Y-71629D01*
X-6166Y-71589D01*
X-6130Y-71584D01*
X-5813Y-71473D01*
X-5564Y-71407D01*
X-5415Y-71426D01*
X-5342Y-71417D01*
X-5229Y-71441D01*
X-5040Y-71491D01*
X-4918Y-71587D01*
X-4841Y-71615D01*
X-4643Y-71738D01*
X-4454Y-71789D01*
X-4309Y-71772D01*
X-4273Y-71767D01*
X-4062Y-71375D01*
X-4026Y-71371D01*
X-3945Y-71434D01*
X-3869Y-71462D01*
X-3828Y-71494D01*
X-3692Y-71404D01*
X-3624Y-71359D01*
X-3588Y-71355D01*
X-3577Y-71134D01*
X-3554Y-71021D01*
X-3526Y-70944D01*
X-3531Y-70908D01*
X-3314Y-70882D01*
X-3205Y-70869D01*
X-3169Y-70865D01*
X-3002Y-71029D01*
X-2840Y-71156D01*
X-2719Y-71252D01*
X-2678Y-71284D01*
X-2403Y-71434D01*
X-2178Y-71481D01*
X-2029Y-71500D01*
X-1956Y-71491D01*
X-1761Y-71285D01*
X-1674Y-71091D01*
X-1610Y-71010D01*
X-1578Y-70969D01*
X-1333Y-70867D01*
X-1193Y-70813D01*
X-1084Y-70800D01*
X-1048Y-70796D01*
X-961Y-70602D01*
X-721Y-70463D01*
X-508Y-70401D01*
X-367Y-70348D01*
X-331Y-70344D01*
X-344Y-70235D01*
X-159Y-70250D01*
X31Y-70300D01*
X148Y-70360D01*
X189Y-70392D01*
X351Y-70519D01*
X468Y-70579D01*
X545Y-70606D01*
X689Y-70589D01*
X798Y-70576D01*
X870Y-70568D01*
X907Y-70563D01*
X919Y-70672D01*
X1056Y-70582D01*
X1088Y-70542D01*
X1300Y-70480D01*
X1477Y-70422D01*
X1726Y-70356D01*
X1871Y-70338D01*
X1907Y-70334D01*
X2107Y-70163D01*
X2271Y-69997D01*
X2366Y-69876D01*
X2398Y-69835D01*
X2686Y-70094D01*
X2925Y-70250D01*
X3087Y-70377D01*
X3127Y-70409D01*
X3272Y-70392D01*
X3381Y-70379D01*
X3453Y-70370D01*
X3489Y-70366D01*
X3581Y-70208D01*
X3604Y-70095D01*
X3636Y-70055D01*
X3853Y-70029D01*
X4070Y-70003D01*
X4292Y-70013D01*
X4328Y-70009D01*
X4364Y-70005D01*
X4617Y-69975D01*
X4794Y-69917D01*
X4898Y-69868D01*
X4935Y-69863D01*
X5090Y-69625D01*
X5145Y-69471D01*
X5168Y-69358D01*
X5164Y-69322D01*
X5209Y-69390D01*
X5213Y-69427D01*
X5253Y-69459D01*
X5245Y-69386D01*
X5236Y-69314D01*
X5227Y-69241D01*
X5187Y-69209D01*
X4980Y-69014D01*
X4940Y-68982D01*
X4899Y-68950D01*
X4873Y-68733D01*
X4920Y-68507D01*
X4930Y-68286D01*
X4962Y-68245D01*
X4958Y-68209D01*
X5064Y-67866D01*
X5074Y-67644D01*
X5093Y-67495D01*
X5089Y-67459D01*
X5080Y-67387D01*
X5063Y-67242D01*
X4979Y-66848D01*
X4958Y-66667D01*
X4904Y-66527D01*
X4891Y-66418D01*
X4887Y-66382D01*
X4827Y-65875D01*
X4820Y-65509D01*
X4803Y-65364D01*
X4826Y-65251D01*
X4822Y-65215D01*
X4817Y-65179D01*
X4896Y-64913D01*
X5019Y-64714D01*
X5155Y-64625D01*
X5187Y-64584D01*
X5391Y-64450D01*
X5491Y-64364D01*
X5559Y-64320D01*
X5593Y-63985D01*
X5603Y-63764D01*
X5586Y-63619D01*
X5582Y-63583D01*
X5705Y-63385D01*
X5869Y-63218D01*
X6077Y-63120D01*
X6286Y-63022D01*
X6499Y-62960D01*
X6675Y-62902D01*
X6820Y-62885D01*
X6856Y-62881D01*
X7001Y-62863D01*
X7150Y-62882D01*
D02*
G37*
G36*
X-12836Y-69520D02*
X-12832Y-69556D01*
X-12872Y-69524D01*
X-12877Y-69488D01*
X-12836Y-69520D01*
D02*
G37*
G36*
X-13711Y-46755D02*
X-13544Y-46919D01*
X-13387Y-47010D01*
X-13306Y-47074D01*
X-13220Y-47174D01*
X-12935Y-47103D01*
X-12758Y-47045D01*
X-12690Y-47001D01*
X-12654Y-46996D01*
X-12641Y-47105D01*
X-12456Y-47120D01*
X-12275Y-47098D01*
X-12198Y-47126D01*
X-12162Y-47121D01*
X-12100Y-47334D01*
X-12060Y-47366D01*
X-12055Y-47402D01*
X-11947Y-47389D01*
X-11806Y-47336D01*
X-11489Y-47225D01*
X-11312Y-47167D01*
X-11172Y-47114D01*
X-11068Y-47064D01*
X-11032Y-47060D01*
X-10771Y-47396D01*
X-10637Y-47600D01*
X-10547Y-47737D01*
X-10507Y-47769D01*
X-10398Y-47756D01*
X-10266Y-47630D01*
X-10162Y-47581D01*
X-10094Y-47536D01*
X-10058Y-47532D01*
X-10141Y-47138D01*
X-10212Y-46852D01*
X-10270Y-46676D01*
X-10278Y-46603D01*
X-10129Y-46622D01*
X-10057Y-46614D01*
X-9908Y-46633D01*
X-9867Y-46665D01*
X-9723Y-46647D01*
X-9650Y-46639D01*
X-9614Y-46634D01*
X-9569Y-46703D01*
X-9597Y-46779D01*
X-9629Y-46820D01*
X-9665Y-46824D01*
X-9673Y-46752D01*
X-9678Y-46715D01*
X-9746Y-46760D01*
X-9814Y-46805D01*
X-9846Y-46846D01*
X-9860Y-47031D01*
X-9871Y-47252D01*
X-9885Y-47438D01*
X-9881Y-47474D01*
X-9877Y-47510D01*
X-9710Y-47674D01*
X-9589Y-47769D01*
X-9508Y-47833D01*
X-9467Y-47865D01*
X-9427Y-47897D01*
X-9423Y-47933D01*
X-9414Y-48006D01*
X-9410Y-48042D01*
X-9361Y-48146D01*
X-9284Y-48174D01*
X-9243Y-48205D01*
X-9207Y-48201D01*
X-9099Y-48188D01*
X-9058Y-48220D01*
X-9018Y-48252D01*
X-8800Y-48226D01*
X-8656Y-48209D01*
X-8583Y-48200D01*
X-8547Y-48196D01*
X-8420Y-48034D01*
X-8324Y-47912D01*
X-8264Y-47795D01*
X-8232Y-47755D01*
X-7983Y-47688D01*
X-7802Y-47667D01*
X-7694Y-47654D01*
X-7658Y-47650D01*
X-7439Y-47330D01*
X-7320Y-47096D01*
X-7228Y-46938D01*
X-7197Y-46897D01*
X-6404Y-47390D01*
X-6259Y-47373D01*
X-6119Y-47319D01*
X-5978Y-47266D01*
X-5946Y-47226D01*
X-5738Y-47127D01*
X-5561Y-47070D01*
X-5452Y-47057D01*
X-5416Y-47052D01*
X-5390Y-47269D01*
X-5201Y-47320D01*
X-5088Y-47344D01*
X-5011Y-47371D01*
X-4975Y-47367D01*
X-4613Y-47324D01*
X-4328Y-47253D01*
X-4183Y-47236D01*
X-4147Y-47232D01*
X-3957Y-47282D01*
X-3800Y-47374D01*
X-3687Y-47397D01*
X-3646Y-47429D01*
X-3465Y-47407D01*
X-3289Y-47350D01*
X-3076Y-47288D01*
X-2971Y-47238D01*
X-2935Y-47234D01*
X-2801Y-47438D01*
X-2547Y-47408D01*
X-2330Y-47382D01*
X-2222Y-47370D01*
X-2186Y-47365D01*
X-1838Y-47507D01*
X-1568Y-47622D01*
X-1414Y-47677D01*
X-1374Y-47709D01*
X-1156Y-47683D01*
X-1094Y-47896D01*
X-1064Y-48149D01*
X-1075Y-48371D01*
X-1070Y-48407D01*
X-1066Y-48443D01*
X-1221Y-48682D01*
X-1308Y-48876D01*
X-1363Y-49029D01*
X-1395Y-49070D01*
X-1504Y-49083D01*
X-1576Y-49091D01*
X-1649Y-49100D01*
X-1631Y-49245D01*
X-1450Y-49223D01*
X-1414Y-49219D01*
X-1378Y-49215D01*
X-1131Y-49442D01*
X-996Y-49646D01*
X-907Y-49782D01*
X-902Y-49819D01*
X-1043Y-49872D01*
X-1111Y-49917D01*
X-1179Y-49962D01*
X-1162Y-50107D01*
X-1149Y-50215D01*
X-1140Y-50287D01*
X-1136Y-50324D01*
X-1014Y-50419D01*
X-938Y-50447D01*
X-857Y-50511D01*
X-812Y-50579D01*
X-807Y-50615D01*
X-803Y-50651D01*
X-895Y-50809D01*
X-954Y-50926D01*
X-986Y-50967D01*
X-815Y-51166D01*
X-685Y-51335D01*
X-438Y-51562D01*
X-276Y-51690D01*
X-199Y-51717D01*
X-134Y-52260D01*
X-113Y-52441D01*
X-91Y-52622D01*
X-74Y-52767D01*
X-61Y-52875D01*
X-57Y-52912D01*
X-53Y-52948D01*
X37Y-53084D01*
X159Y-53180D01*
X203Y-53248D01*
X244Y-53280D01*
X371Y-54035D01*
X448Y-54687D01*
X513Y-55230D01*
X569Y-55700D01*
X612Y-56062D01*
X606Y-56320D01*
X627Y-56501D01*
X632Y-56537D01*
X698Y-56786D01*
X756Y-56963D01*
X773Y-57108D01*
X818Y-57176D01*
X826Y-57248D01*
X803Y-57361D01*
X761Y-57623D01*
X678Y-57853D01*
X651Y-57930D01*
X655Y-57966D01*
X604Y-58155D01*
X549Y-58309D01*
X462Y-58503D01*
X434Y-58579D01*
X402Y-58620D01*
X53Y-58772D01*
X-223Y-58915D01*
X-400Y-58972D01*
X-432Y-59013D01*
X-468Y-59017D01*
X-452Y-59456D01*
X-450Y-59786D01*
X-465Y-59971D01*
X-456Y-60044D01*
X-520Y-60125D01*
X-583Y-60206D01*
X-615Y-60246D01*
X-652Y-60250D01*
X-760Y-60263D01*
X-833Y-60272D01*
X-905Y-60281D01*
X-919Y-60466D01*
X-938Y-60615D01*
X-930Y-60687D01*
X-926Y-60724D01*
X-1068Y-61071D01*
X-1182Y-61341D01*
X-1274Y-61499D01*
X-1306Y-61540D01*
X-1676Y-61510D01*
X-1863Y-61790D01*
X-2018Y-62028D01*
X-2146Y-62190D01*
X-2178Y-62231D01*
X-2282Y-62280D01*
X-2427Y-62297D01*
X-2608Y-62319D01*
X-2825Y-62344D01*
X-3046Y-62334D01*
X-3191Y-62351D01*
X-3336Y-62369D01*
X-3372Y-62373D01*
X-3734Y-62416D01*
X-4028Y-62414D01*
X-4245Y-62440D01*
X-4394Y-62421D01*
X-4503Y-62434D01*
X-4580Y-62407D01*
X-4616Y-62411D01*
X-4786Y-62211D01*
X-4880Y-62039D01*
X-4929Y-61934D01*
X-4934Y-61898D01*
X-5232Y-61860D01*
X-5526Y-61858D01*
X-5743Y-61884D01*
X-5924Y-61906D01*
X-6105Y-61927D01*
X-6213Y-61940D01*
X-6250Y-61945D01*
X-6286Y-61949D01*
X-6561Y-61798D01*
X-6642Y-61734D01*
X-6678Y-61739D01*
X-6940Y-61696D01*
X-7089Y-61677D01*
X-7198Y-61690D01*
X-7234Y-61695D01*
X-7436Y-61535D01*
X-7598Y-61408D01*
X-7720Y-61312D01*
X-7760Y-61280D01*
X-7905Y-61298D01*
X-8014Y-61310D01*
X-8086Y-61319D01*
X-8122Y-61323D01*
X-8061Y-60912D01*
X-7987Y-60610D01*
X-7896Y-60452D01*
X-7868Y-60375D01*
X-7994Y-60243D01*
X-8083Y-60107D01*
X-8128Y-60039D01*
X-8169Y-60007D01*
X-8431Y-59965D01*
X-8612Y-59987D01*
X-8720Y-60000D01*
X-8756Y-60004D01*
X-8927Y-59804D01*
X-8968Y-59772D01*
X-8972Y-59736D01*
X-9225Y-59766D01*
X-9370Y-59783D01*
X-9479Y-59796D01*
X-9515Y-59801D01*
X-9551Y-59805D01*
X-9591Y-59773D01*
X-9785Y-59686D01*
X-9979Y-59599D01*
X-10020Y-59567D01*
X-10056Y-59571D01*
X-10250Y-59484D01*
X-10403Y-59429D01*
X-10665Y-59387D01*
X-10810Y-59404D01*
X-10882Y-59413D01*
X-10970Y-59607D01*
X-11006Y-59611D01*
X-11114Y-59624D01*
X-11223Y-59637D01*
X-11259Y-59641D01*
X-11269Y-59863D01*
X-11288Y-60012D01*
X-11316Y-60088D01*
X-11312Y-60125D01*
X-11060Y-60388D01*
X-10889Y-60588D01*
X-10763Y-60720D01*
X-10719Y-60788D01*
X-10474Y-60686D01*
X-10361Y-60709D01*
X-10253Y-60696D01*
X-10140Y-60719D01*
X-10103Y-60715D01*
X-10059Y-60783D01*
X-10022Y-60779D01*
X-9986Y-60774D01*
X-9995Y-60702D01*
X-9999Y-60666D01*
X-9886Y-60689D01*
X-9895Y-60617D01*
X-9899Y-60580D01*
X-9859Y-60612D01*
X-9818Y-60644D01*
X-9729Y-60780D01*
X-9688Y-60812D01*
X-9684Y-60848D01*
X-9654Y-61102D01*
X-9632Y-61283D01*
X-9619Y-61391D01*
X-9615Y-61428D01*
X-9421Y-61515D01*
X-9304Y-61574D01*
X-9110Y-61661D01*
X-8993Y-61721D01*
X-8890Y-61965D01*
X-8877Y-62074D01*
X-8873Y-62110D01*
X-8866Y-62476D01*
X-8940Y-62779D01*
X-9055Y-63050D01*
X-9214Y-63252D01*
X-9378Y-63418D01*
X-9514Y-63508D01*
X-9614Y-63593D01*
X-9650Y-63598D01*
X-9791Y-63651D01*
X-9935Y-63668D01*
X-10044Y-63681D01*
X-10116Y-63690D01*
X-10519Y-63701D01*
X-10962Y-63680D01*
X-11405Y-63660D01*
X-11820Y-63562D01*
X-12195Y-63497D01*
X-12493Y-63459D01*
X-12683Y-63408D01*
X-12759Y-63380D01*
X-12913Y-63325D01*
X-13026Y-63302D01*
X-13175Y-63283D01*
X-13251Y-63255D01*
X-13447Y-63462D01*
X-13515Y-63507D01*
X-13656Y-63560D01*
X-13969Y-63708D01*
X-14145Y-63766D01*
X-14290Y-63783D01*
X-14394Y-63832D01*
X-14430Y-63836D01*
X-14716Y-63907D01*
X-14969Y-63937D01*
X-15150Y-63959D01*
X-15295Y-63976D01*
X-15403Y-63989D01*
X-15480Y-63961D01*
X-15552Y-63970D01*
X-15755Y-63810D01*
X-15795Y-63779D01*
X-15836Y-63747D01*
X-16066Y-63664D01*
X-16215Y-63645D01*
X-16292Y-63617D01*
X-16328Y-63622D01*
X-16631Y-63548D01*
X-16861Y-63465D01*
X-17018Y-63374D01*
X-17135Y-63314D01*
X-17217Y-63250D01*
X-17261Y-63182D01*
X-17302Y-63150D01*
X-17319Y-63006D01*
X-17341Y-62824D01*
X-17322Y-62675D01*
X-17290Y-62635D01*
X-17130Y-62432D01*
X-17030Y-62347D01*
X-16962Y-62302D01*
X-16926Y-62298D01*
X-16875Y-62108D01*
X-16852Y-61996D01*
X-16820Y-61955D01*
X-16824Y-61919D01*
X-16542Y-61518D01*
X-16314Y-61271D01*
X-16187Y-61109D01*
X-16155Y-61068D01*
X-16159Y-61032D01*
X-16163Y-60996D01*
X-16185Y-60815D01*
X-16202Y-60670D01*
X-16206Y-60634D01*
X-16211Y-60598D01*
X-16549Y-60528D01*
X-16812Y-60486D01*
X-16965Y-60431D01*
X-17001Y-60435D01*
X-17117Y-60081D01*
X-17191Y-59760D01*
X-17258Y-59511D01*
X-17324Y-59262D01*
X-17342Y-59117D01*
X-17359Y-58972D01*
X-17367Y-58900D01*
X-17372Y-58864D01*
X-17651Y-58677D01*
X-17849Y-58554D01*
X-17975Y-58422D01*
X-18096Y-58326D01*
X-18182Y-58226D01*
X-18222Y-58194D01*
X-18310Y-57764D01*
X-18389Y-57407D01*
X-18428Y-57081D01*
X-18463Y-56791D01*
X-18488Y-56574D01*
X-18506Y-56429D01*
X-18519Y-56321D01*
X-18523Y-56285D01*
X-18624Y-55746D01*
X-18676Y-55312D01*
X-18750Y-54990D01*
X-18776Y-54773D01*
X-18830Y-54633D01*
X-18843Y-54524D01*
X-18847Y-54488D01*
X-19109Y-54445D01*
X-19156Y-54047D01*
X-19191Y-53758D01*
X-19217Y-53541D01*
X-19234Y-53396D01*
X-19242Y-53324D01*
X-19251Y-53251D01*
X-19077Y-52863D01*
X-18926Y-52588D01*
X-18839Y-52394D01*
X-18812Y-52318D01*
X-18778Y-51983D01*
X-18776Y-51690D01*
X-18766Y-51468D01*
X-18751Y-51283D01*
X-18773Y-51102D01*
X-18750Y-50989D01*
X-18754Y-50953D01*
X-18758Y-50917D01*
X-18475Y-50516D01*
X-18257Y-50196D01*
X-18129Y-50034D01*
X-18061Y-49989D01*
X-17946Y-49719D01*
X-17900Y-49493D01*
X-17845Y-49340D01*
X-17849Y-49303D01*
X-17640Y-49205D01*
X-17604Y-49201D01*
X-17568Y-49196D01*
X-17594Y-48979D01*
X-17377Y-48953D01*
X-17158Y-48634D01*
X-16967Y-48391D01*
X-16875Y-48233D01*
X-16848Y-48156D01*
X-16567Y-48050D01*
X-16354Y-47987D01*
X-16245Y-47975D01*
X-16209Y-47970D01*
X-16167Y-47708D01*
X-16139Y-47631D01*
X-16144Y-47595D01*
X-16071Y-47587D01*
X-16003Y-47542D01*
X-15935Y-47497D01*
X-15903Y-47456D01*
X-15871Y-47416D01*
X-15808Y-47335D01*
X-15744Y-47254D01*
X-15708Y-47250D01*
X-15595Y-47273D01*
X-15446Y-47292D01*
X-15260Y-47307D01*
X-15075Y-47321D01*
X-14926Y-47340D01*
X-14813Y-47363D01*
X-14777Y-47359D01*
X-14685Y-47201D01*
X-14626Y-47084D01*
X-14535Y-46927D01*
X-14503Y-46886D01*
X-14471Y-46846D01*
X-14403Y-46801D01*
X-14230Y-46707D01*
X-14022Y-46609D01*
X-13990Y-46568D01*
X-13954Y-46564D01*
X-13711Y-46755D01*
D02*
G37*
G36*
X-21834Y-7197D02*
X-21744Y-7333D01*
X-21663Y-7397D01*
X-21659Y-7433D01*
X-21442Y-7407D01*
X-21297Y-7390D01*
X-21225Y-7382D01*
X-21188Y-7377D01*
X-20850Y-7447D01*
X-20624Y-7494D01*
X-20439Y-7508D01*
X-20398Y-7540D01*
X-20323Y-7862D01*
X-20289Y-8151D01*
X-20235Y-8292D01*
X-20227Y-8364D01*
X-20052Y-8600D01*
X-19917Y-8804D01*
X-19792Y-8936D01*
X-19751Y-8968D01*
X-19693Y-9145D01*
X-19676Y-9290D01*
X-19663Y-9398D01*
X-19659Y-9434D01*
X-19629Y-9688D01*
X-19635Y-9945D01*
X-19645Y-10167D01*
X-19636Y-10239D01*
X-19632Y-10275D01*
X-19629Y-10605D01*
X-19636Y-10863D01*
X-19618Y-11008D01*
X-19610Y-11080D01*
X-19548Y-11293D01*
X-19490Y-11470D01*
X-19436Y-11610D01*
X-19432Y-11647D01*
X-19315Y-11706D01*
X-19238Y-11733D01*
X-19166Y-11725D01*
X-18756Y-12080D01*
X-18388Y-12403D01*
X-18104Y-12626D01*
X-17865Y-12781D01*
X-17703Y-12909D01*
X-17586Y-12968D01*
X-17505Y-13032D01*
X-17324Y-13011D01*
X-17071Y-12980D01*
X-16854Y-12955D01*
X-16709Y-12937D01*
X-16673Y-12933D01*
X-16547Y-13065D01*
X-16498Y-13169D01*
X-16453Y-13237D01*
X-16449Y-13273D01*
X-16093Y-13488D01*
X-15858Y-13607D01*
X-15701Y-13698D01*
X-15660Y-13730D01*
X-15530Y-13898D01*
X-15440Y-14035D01*
X-15391Y-14139D01*
X-15387Y-14175D01*
X-15021Y-14168D01*
X-14691Y-14165D01*
X-14401Y-14131D01*
X-14184Y-14105D01*
X-14003Y-14084D01*
X-13858Y-14066D01*
X-13786Y-14058D01*
X-13750Y-14053D01*
X-13663Y-13859D01*
X-13607Y-13706D01*
X-13580Y-13629D01*
X-13584Y-13593D01*
X-13412Y-13499D01*
X-13344Y-13454D01*
X-13077Y-13533D01*
X-12811Y-13611D01*
X-12617Y-13698D01*
X-12464Y-13754D01*
X-12234Y-13836D01*
X-12157Y-13864D01*
X-12012Y-13847D01*
X-11904Y-13834D01*
X-11831Y-13825D01*
X-11795Y-13821D01*
X-11661Y-14025D01*
X-11480Y-14003D01*
X-11371Y-13991D01*
X-11335Y-13986D01*
X-11299Y-13982D01*
X-11101Y-14105D01*
X-10979Y-14201D01*
X-10898Y-14265D01*
X-10858Y-14296D01*
X-10789Y-14252D01*
X-10721Y-14207D01*
X-10653Y-14162D01*
X-10589Y-14081D01*
X-10521Y-14036D01*
X-10015Y-13976D01*
X-9653Y-13933D01*
X-9544Y-13920D01*
X-9436Y-13907D01*
X-9363Y-13898D01*
X-9155Y-13800D01*
X-8987Y-13670D01*
X-8846Y-13616D01*
X-8814Y-13576D01*
X-8457Y-13497D01*
X-8058Y-13449D01*
X-7692Y-13442D01*
X-7326Y-13435D01*
X-7028Y-13473D01*
X-6806Y-13484D01*
X-6621Y-13498D01*
X-6585Y-13494D01*
X-6534Y-13305D01*
X-6483Y-13115D01*
X-6455Y-13038D01*
X-6460Y-13002D01*
X-6194Y-13081D01*
X-6008Y-13095D01*
X-5895Y-13118D01*
X-5859Y-13114D01*
X-5652Y-13310D01*
X-5486Y-13473D01*
X-5396Y-13610D01*
X-5356Y-13642D01*
X-5171Y-13656D01*
X-5026Y-13639D01*
X-4849Y-13581D01*
X-4749Y-13496D01*
X-4717Y-13455D01*
X-4685Y-13415D01*
X-4649Y-13410D01*
X-4613Y-13406D01*
X-4500Y-13430D01*
X-4387Y-13453D01*
X-4274Y-13476D01*
X-4234Y-13508D01*
X-4081Y-13563D01*
X-4004Y-13591D01*
X-3968Y-13586D01*
X-3695Y-13407D01*
X-3459Y-13232D01*
X-3323Y-13142D01*
X-3255Y-13098D01*
X-3065Y-13149D01*
X-2848Y-13123D01*
X-2708Y-13069D01*
X-2640Y-13025D01*
X-2603Y-13020D01*
X-2156Y-13077D01*
X-1705Y-13170D01*
X-1479Y-13217D01*
X-1330Y-13236D01*
X-1213Y-13295D01*
X-1176Y-13291D01*
X-981Y-13084D01*
X-817Y-12918D01*
X-717Y-12832D01*
X-685Y-12792D01*
X-643Y-12530D01*
X-628Y-12344D01*
X-641Y-12236D01*
X-646Y-12200D01*
X-501Y-12183D01*
X-428Y-12174D01*
X-392Y-12170D01*
X-204Y-12514D01*
X-106Y-12723D01*
X-16Y-12859D01*
X-12Y-12895D01*
X309Y-12820D01*
X595Y-12750D01*
X812Y-12724D01*
X993Y-12702D01*
X1106Y-12725D01*
X1214Y-12712D01*
X1291Y-12740D01*
X1453Y-12868D01*
X1575Y-12963D01*
X1656Y-13027D01*
X1696Y-13059D01*
X1877Y-13037D01*
X2058Y-13016D01*
X2130Y-13007D01*
X2166Y-13003D01*
X2256Y-13139D01*
X2310Y-13280D01*
X2354Y-13348D01*
X2359Y-13384D01*
X2421Y-13597D01*
X2474Y-13737D01*
X2455Y-13886D01*
X2459Y-13922D01*
X2428Y-13963D01*
X2368Y-14080D01*
X2304Y-14161D01*
X2272Y-14202D01*
X2186Y-14396D01*
X2171Y-14581D01*
X2188Y-14726D01*
X2197Y-14798D01*
X2363Y-14962D01*
X2448Y-15062D01*
X2529Y-15125D01*
X2570Y-15157D01*
X2651Y-15221D01*
X2700Y-15325D01*
X2843Y-15602D01*
X2896Y-15743D01*
X2950Y-15883D01*
X2995Y-15951D01*
X2999Y-15987D01*
X3097Y-16196D01*
X3159Y-16409D01*
X3213Y-16549D01*
X3226Y-16658D01*
X3275Y-16762D01*
X3279Y-16798D01*
X3133Y-17109D01*
X3005Y-17271D01*
X2909Y-17393D01*
X2877Y-17433D01*
X2899Y-17614D01*
X2903Y-17650D01*
X2908Y-17687D01*
X2740Y-17817D01*
X2793Y-17957D01*
X2883Y-18093D01*
X2968Y-18193D01*
X3008Y-18225D01*
X3170Y-18353D01*
X3220Y-18457D01*
X3264Y-18525D01*
X3318Y-18666D01*
X3331Y-18774D01*
X3308Y-18887D01*
X3312Y-18923D01*
X3229Y-19153D01*
X3201Y-19230D01*
X3206Y-19266D01*
X3204Y-19560D01*
X3198Y-19818D01*
X3224Y-20035D01*
X3282Y-20212D01*
X3299Y-20356D01*
X3312Y-20465D01*
X3352Y-20497D01*
X3357Y-20533D01*
X3527Y-20733D01*
X3589Y-20946D01*
X3579Y-21167D01*
X3567Y-21683D01*
X3520Y-21908D01*
X3506Y-22094D01*
X3446Y-22211D01*
X3450Y-22247D01*
X3440Y-22469D01*
X3417Y-22581D01*
X3389Y-22658D01*
X3394Y-22694D01*
X3249Y-22712D01*
X3130Y-22946D01*
X3002Y-23108D01*
X2871Y-23234D01*
X2771Y-23319D01*
X2566Y-23454D01*
X2494Y-23462D01*
X2458Y-23467D01*
X2272Y-23452D01*
X2232Y-23420D01*
X2196Y-23424D01*
X1970Y-23378D01*
X1821Y-23359D01*
X1749Y-23367D01*
X1712Y-23372D01*
X1555Y-23280D01*
X1397Y-23189D01*
X1109Y-22930D01*
X934Y-22693D01*
X853Y-22630D01*
X849Y-22594D01*
X571Y-22113D01*
X415Y-21727D01*
X398Y-21583D01*
X349Y-21478D01*
X340Y-21406D01*
X336Y-21370D01*
X344Y-20818D01*
X354Y-20597D01*
X369Y-20412D01*
X388Y-20263D01*
X411Y-20150D01*
X407Y-20113D01*
X402Y-20077D01*
X151Y-19814D01*
X112Y-19488D01*
X114Y-19194D01*
X124Y-18972D01*
X156Y-18932D01*
X152Y-18896D01*
X175Y-18783D01*
X230Y-18629D01*
X249Y-18480D01*
X277Y-18404D01*
X355Y-18137D01*
X406Y-17948D01*
X397Y-17875D01*
X393Y-17839D01*
X173Y-17535D01*
X-2Y-17299D01*
X-132Y-17131D01*
X-172Y-17099D01*
X-339Y-16935D01*
X-424Y-16835D01*
X-465Y-16803D01*
X-635Y-16603D01*
X-676Y-16571D01*
X-716Y-16540D01*
X-806Y-16404D01*
X-891Y-16304D01*
X-932Y-16272D01*
X-1113Y-16293D01*
X-1311Y-16170D01*
X-1469Y-16079D01*
X-1550Y-16015D01*
X-1590Y-15983D01*
X-2133Y-16048D01*
X-2314Y-16069D01*
X-2495Y-16091D01*
X-2640Y-16108D01*
X-2748Y-16121D01*
X-2784Y-16125D01*
X-2821Y-16129D01*
X-2910Y-15993D01*
X-2915Y-15957D01*
X-3277Y-16000D01*
X-3566Y-16035D01*
X-3747Y-16056D01*
X-3892Y-16073D01*
X-3964Y-16082D01*
X-4000Y-16086D01*
X-4036Y-16091D01*
X-4105Y-16136D01*
X-4236Y-16261D01*
X-4336Y-16347D01*
X-4405Y-16391D01*
X-4645Y-16530D01*
X-4858Y-16592D01*
X-5039Y-16614D01*
X-5075Y-16618D01*
X-5111Y-16622D01*
X-5522Y-16561D01*
X-5861Y-16491D01*
X-6082Y-16481D01*
X-6123Y-16449D01*
X-6159Y-16454D01*
X-6163Y-16417D01*
X-6200Y-16422D01*
X-6340Y-16475D01*
X-6444Y-16524D01*
X-6476Y-16565D01*
X-6512Y-16569D01*
X-6830Y-16680D01*
X-7219Y-16800D01*
X-7613Y-16883D01*
X-8007Y-16967D01*
X-8332Y-17006D01*
X-8622Y-17040D01*
X-8803Y-17062D01*
X-8839Y-17066D01*
X-8875Y-17071D01*
X-9020Y-17088D01*
X-9169Y-17069D01*
X-9572Y-17080D01*
X-9757Y-17065D01*
X-9906Y-17046D01*
X-10015Y-17059D01*
X-10051Y-17064D01*
X-10345Y-17062D01*
X-10602Y-17056D01*
X-10824Y-17045D01*
X-11009Y-17031D01*
X-11154Y-17048D01*
X-11263Y-17061D01*
X-11299Y-17065D01*
X-11335Y-17070D01*
X-11625Y-17104D01*
X-11837Y-17166D01*
X-11978Y-17220D01*
X-12014Y-17224D01*
X-12097Y-17454D01*
X-12527Y-17542D01*
X-12816Y-17576D01*
X-12965Y-17557D01*
X-13038Y-17566D01*
X-13283Y-17669D01*
X-13487Y-17803D01*
X-13627Y-17856D01*
X-13659Y-17897D01*
X-14057Y-17944D01*
X-14347Y-17979D01*
X-14492Y-17996D01*
X-14564Y-18005D01*
X-14832Y-18220D01*
X-15053Y-18210D01*
X-15275Y-18199D01*
X-15460Y-18185D01*
X-15496Y-18189D01*
X-15533Y-18193D01*
X-15718Y-18179D01*
X-15871Y-18124D01*
X-16057Y-18109D01*
X-16133Y-18081D01*
X-16169Y-18086D01*
X-16604Y-18137D01*
X-16929Y-18176D01*
X-17110Y-18198D01*
X-17183Y-18206D01*
X-17232Y-18102D01*
X-17273Y-18070D01*
X-17490Y-18096D01*
X-17635Y-18113D01*
X-17779Y-18130D01*
X-17852Y-18139D01*
X-17924Y-18148D01*
X-17915Y-18220D01*
X-18043Y-18382D01*
X-18207Y-18548D01*
X-18370Y-18715D01*
X-18402Y-18755D01*
X-18439Y-18759D01*
X-18575Y-18849D01*
X-18707Y-18975D01*
X-18834Y-19137D01*
X-18898Y-19218D01*
X-18930Y-19259D01*
X-18940Y-19480D01*
X-18874Y-19729D01*
X-18816Y-19906D01*
X-18812Y-19942D01*
X-18807Y-19978D01*
X-18713Y-20151D01*
X-18624Y-20287D01*
X-18575Y-20391D01*
X-18530Y-20459D01*
X-18485Y-20527D01*
X-18540Y-20680D01*
X-18559Y-20830D01*
X-18591Y-20870D01*
X-18623Y-20910D01*
X-18416Y-21106D01*
X-18390Y-21323D01*
X-18383Y-21690D01*
X-18376Y-22056D01*
X-18401Y-22463D01*
X-18390Y-22865D01*
X-18424Y-23199D01*
X-18434Y-23421D01*
X-18430Y-23457D01*
X-18426Y-23493D01*
X-18423Y-23823D01*
X-18461Y-24122D01*
X-18477Y-24601D01*
X-18511Y-24935D01*
X-18517Y-25193D01*
X-18572Y-25346D01*
X-18559Y-25455D01*
X-18591Y-25495D01*
X-18659Y-25540D01*
X-18759Y-25625D01*
X-18931Y-25719D01*
X-19140Y-25817D01*
X-19312Y-25911D01*
X-19485Y-26005D01*
X-19589Y-26054D01*
X-19621Y-26095D01*
X-20042Y-26255D01*
X-20400Y-26335D01*
X-20726Y-26373D01*
X-20983Y-26367D01*
X-21209Y-26321D01*
X-21358Y-26302D01*
X-21439Y-26238D01*
X-21475Y-26242D01*
X-21663Y-25898D01*
X-21838Y-25662D01*
X-21896Y-25485D01*
X-21941Y-25417D01*
X-22169Y-25040D01*
X-22353Y-24732D01*
X-22447Y-24559D01*
X-22491Y-24491D01*
X-22646Y-23812D01*
X-22727Y-23124D01*
X-22777Y-22396D01*
X-22787Y-21700D01*
X-22783Y-21112D01*
X-22777Y-20854D01*
X-22767Y-20633D01*
X-22752Y-20448D01*
X-22770Y-20303D01*
X-22742Y-20226D01*
X-22747Y-20190D01*
X-22722Y-19783D01*
X-22728Y-19417D01*
X-22731Y-19087D01*
X-22761Y-18834D01*
X-22791Y-18580D01*
X-22813Y-18399D01*
X-22862Y-18295D01*
X-22866Y-18259D01*
X-23095Y-17882D01*
X-23114Y-17407D01*
X-23166Y-16973D01*
X-23169Y-16643D01*
X-23163Y-16385D01*
X-23152Y-16164D01*
X-23170Y-16019D01*
X-23142Y-15942D01*
X-23146Y-15906D01*
X-23245Y-15698D01*
X-23343Y-15489D01*
X-23396Y-15349D01*
X-23401Y-15313D01*
X-23452Y-14878D01*
X-23491Y-14552D01*
X-23513Y-14371D01*
X-23521Y-14299D01*
X-23737Y-14031D01*
X-23763Y-13814D01*
X-23756Y-13556D01*
X-23742Y-13371D01*
X-23746Y-13335D01*
X-23750Y-13298D01*
X-23749Y-13005D01*
X-23734Y-12819D01*
X-23707Y-12743D01*
X-23711Y-12707D01*
X-23741Y-12453D01*
X-23807Y-12204D01*
X-23869Y-11991D01*
X-23914Y-11923D01*
X-23919Y-11887D01*
X-23980Y-11674D01*
X-24002Y-11493D01*
X-24064Y-11280D01*
X-24081Y-11135D01*
X-24086Y-11099D01*
X-24127Y-10443D01*
X-24156Y-9896D01*
X-24135Y-9453D01*
X-24105Y-9083D01*
X-24068Y-8784D01*
X-24017Y-8595D01*
X-23957Y-8478D01*
X-23962Y-8442D01*
X-23794Y-8311D01*
X-23694Y-8226D01*
X-23666Y-8149D01*
X-23630Y-8145D01*
X-23488Y-7798D01*
X-23409Y-7531D01*
X-23390Y-7382D01*
X-23358Y-7342D01*
X-23286Y-7333D01*
X-23218Y-7288D01*
X-22969Y-7222D01*
X-22792Y-7164D01*
X-22720Y-7156D01*
X-22684Y-7152D01*
X-22503Y-7130D01*
X-22322Y-7108D01*
X-22105Y-7083D01*
X-21996Y-7070D01*
X-21960Y-7065D01*
X-21834Y-7197D01*
D02*
G37*
G36*
X-9880Y-26514D02*
X-9695Y-26528D01*
X-9623Y-26520D01*
X-9465Y-26611D01*
X-9348Y-26671D01*
X-9307Y-26702D01*
X-9171Y-26613D01*
X-9139Y-26572D01*
X-9118Y-26753D01*
X-8864Y-26723D01*
X-8719Y-26706D01*
X-8611Y-26693D01*
X-8575Y-26689D01*
X-8268Y-26799D01*
X-7957Y-26945D01*
X-7754Y-27105D01*
X-7714Y-27137D01*
X-7673Y-27169D01*
X-7465Y-27071D01*
X-7433Y-27030D01*
X-7397Y-27026D01*
X-7077Y-27244D01*
X-6838Y-27400D01*
X-6712Y-27531D01*
X-6672Y-27563D01*
X-6482Y-27614D01*
X-6252Y-27697D01*
X-6031Y-27707D01*
X-5990Y-27739D01*
X-5954Y-27735D01*
X-5615Y-27805D01*
X-5385Y-27887D01*
X-5268Y-27947D01*
X-5227Y-27979D01*
X-5065Y-28106D01*
X-4967Y-28315D01*
X-4869Y-28523D01*
X-4829Y-28555D01*
X-4824Y-28591D01*
X-4730Y-28764D01*
X-4677Y-28904D01*
X-4547Y-29072D01*
X-4502Y-29140D01*
X-4461Y-29172D01*
X-4308Y-29228D01*
X-4155Y-29283D01*
X-4005Y-29302D01*
X-3965Y-29333D01*
X-3739Y-29380D01*
X-3582Y-29471D01*
X-3500Y-29535D01*
X-3460Y-29567D01*
X-3438Y-29748D01*
X-3434Y-29784D01*
X-3430Y-29820D01*
X-3272Y-29912D01*
X-3191Y-29976D01*
X-3110Y-30039D01*
X-3074Y-30035D01*
X-3016Y-30212D01*
X-2990Y-30429D01*
X-2933Y-30606D01*
X-2928Y-30642D01*
X-2924Y-30678D01*
X-2866Y-30854D01*
X-2813Y-30995D01*
X-2764Y-31099D01*
X-2759Y-31135D01*
X-2678Y-31199D01*
X-2516Y-31327D01*
X-2359Y-31418D01*
X-2278Y-31482D01*
X-2116Y-31609D01*
X-1994Y-31705D01*
X-1819Y-31941D01*
X-1730Y-32077D01*
X-1721Y-32150D01*
X-1767Y-32375D01*
X-1818Y-32565D01*
X-1897Y-32831D01*
X-1952Y-32985D01*
X-1984Y-33025D01*
X-1796Y-33370D01*
X-1653Y-33647D01*
X-1559Y-33819D01*
X-1514Y-33887D01*
X-1467Y-34285D01*
X-1432Y-34575D01*
X-1411Y-34756D01*
X-1402Y-34828D01*
X-1363Y-35154D01*
X-1329Y-35443D01*
X-1303Y-35661D01*
X-1277Y-35878D01*
X-1238Y-36204D01*
X-1213Y-36421D01*
X-1195Y-36566D01*
X-1187Y-36638D01*
X-1182Y-36674D01*
X-1175Y-37040D01*
X-1209Y-37375D01*
X-1215Y-37632D01*
X-1257Y-37894D01*
X-1304Y-38120D01*
X-1359Y-38274D01*
X-1387Y-38350D01*
X-1382Y-38386D01*
X-1565Y-38702D01*
X-1724Y-38904D01*
X-1816Y-39062D01*
X-1848Y-39103D01*
X-1862Y-39288D01*
X-1881Y-39437D01*
X-1868Y-39546D01*
X-1864Y-39582D01*
X-2160Y-39874D01*
X-2359Y-40045D01*
X-2532Y-40138D01*
X-2564Y-40179D01*
X-2610Y-40405D01*
X-2629Y-40554D01*
X-2657Y-40630D01*
X-2653Y-40667D01*
X-2925Y-40846D01*
X-3197Y-41025D01*
X-3406Y-41123D01*
X-3578Y-41217D01*
X-3750Y-41311D01*
X-3855Y-41360D01*
X-3887Y-41401D01*
X-3923Y-41405D01*
X-3901Y-41586D01*
X-3974Y-41595D01*
X-4248Y-42068D01*
X-4535Y-42432D01*
X-4667Y-42558D01*
X-4766Y-42644D01*
X-4830Y-42725D01*
X-4866Y-42729D01*
X-5143Y-42872D01*
X-5352Y-42970D01*
X-5560Y-43068D01*
X-5737Y-43126D01*
X-5841Y-43175D01*
X-5945Y-43224D01*
X-5982Y-43229D01*
X-6018Y-43233D01*
X-6303Y-43304D01*
X-6561Y-43298D01*
X-6778Y-43323D01*
X-6923Y-43341D01*
X-6959Y-43345D01*
X-7041Y-43575D01*
X-7278Y-43750D01*
X-7482Y-43885D01*
X-7867Y-44041D01*
X-8044Y-44098D01*
X-8148Y-44147D01*
X-8220Y-44156D01*
X-8257Y-44160D01*
X-8478Y-44150D01*
X-8668Y-44099D01*
X-8821Y-44044D01*
X-8898Y-44016D01*
X-9096Y-43893D01*
X-9209Y-43870D01*
X-9286Y-43842D01*
X-9322Y-43847D01*
X-9358Y-43851D01*
X-9467Y-43864D01*
X-9679Y-43926D01*
X-9856Y-43984D01*
X-9928Y-43992D01*
X-9965Y-43997D01*
X-10114Y-43978D01*
X-10259Y-43995D01*
X-10371Y-43972D01*
X-10444Y-43980D01*
X-10621Y-44038D01*
X-10652Y-44078D01*
X-10689Y-44083D01*
X-10950Y-44041D01*
X-11172Y-44030D01*
X-11325Y-43975D01*
X-11398Y-43984D01*
X-11864Y-44076D01*
X-12185Y-44151D01*
X-12398Y-44213D01*
X-12471Y-44221D01*
X-12818Y-44079D01*
X-13121Y-44005D01*
X-13274Y-43950D01*
X-13351Y-43922D01*
X-13600Y-43989D01*
X-13849Y-44055D01*
X-14025Y-44113D01*
X-14166Y-44166D01*
X-14343Y-44224D01*
X-14415Y-44233D01*
X-14984Y-44080D01*
X-15512Y-43960D01*
X-15927Y-43862D01*
X-16275Y-43720D01*
X-16541Y-43641D01*
X-16735Y-43554D01*
X-16848Y-43531D01*
X-16888Y-43499D01*
X-17299Y-43438D01*
X-17561Y-43396D01*
X-17751Y-43345D01*
X-17823Y-43354D01*
X-18128Y-42950D01*
X-18344Y-42682D01*
X-18442Y-42473D01*
X-18487Y-42405D01*
X-18762Y-42254D01*
X-19000Y-42099D01*
X-19154Y-42044D01*
X-19194Y-42012D01*
X-19374Y-41740D01*
X-19512Y-41499D01*
X-19615Y-41254D01*
X-19709Y-41082D01*
X-19762Y-40942D01*
X-19775Y-40833D01*
X-19816Y-40801D01*
X-19820Y-40765D01*
X-19986Y-40601D01*
X-20108Y-40505D01*
X-20184Y-40478D01*
X-20225Y-40446D01*
X-20255Y-40193D01*
X-20281Y-39976D01*
X-20298Y-39831D01*
X-20302Y-39794D01*
X-20450Y-39482D01*
X-20593Y-39205D01*
X-20732Y-38965D01*
X-20830Y-38756D01*
X-20924Y-38584D01*
X-20973Y-38480D01*
X-21018Y-38411D01*
X-21022Y-38375D01*
X-21031Y-38303D01*
X-21048Y-38158D01*
X-21033Y-37973D01*
X-21023Y-37751D01*
X-21043Y-37276D01*
X-21035Y-36725D01*
X-21027Y-36173D01*
X-21043Y-35735D01*
X-21028Y-35550D01*
X-21009Y-35400D01*
X-21018Y-35328D01*
X-21022Y-35292D01*
X-21044Y-35111D01*
X-21065Y-34930D01*
X-21074Y-34857D01*
X-21078Y-34821D01*
X-20991Y-34627D01*
X-20940Y-34438D01*
X-20876Y-34357D01*
X-20881Y-34321D01*
X-20875Y-34063D01*
X-20864Y-33841D01*
X-20845Y-33692D01*
X-20850Y-33656D01*
X-20677Y-33562D01*
X-20539Y-33179D01*
X-20465Y-32876D01*
X-20446Y-32727D01*
X-20414Y-32687D01*
X-20466Y-32252D01*
X-20505Y-31927D01*
X-20527Y-31746D01*
X-20535Y-31673D01*
X-20335Y-31503D01*
X-20267Y-31458D01*
X-20231Y-31453D01*
X-20193Y-31155D01*
X-20183Y-30934D01*
X-20159Y-30821D01*
X-20164Y-30785D01*
X-19955Y-30687D01*
X-19923Y-30646D01*
X-19887Y-30642D01*
X-19796Y-30484D01*
X-19772Y-30371D01*
X-19745Y-30294D01*
X-19749Y-30258D01*
X-19573Y-30200D01*
X-19468Y-30151D01*
X-19436Y-30111D01*
X-19400Y-30106D01*
X-19417Y-29962D01*
X-19277Y-29908D01*
X-19173Y-29859D01*
X-19141Y-29819D01*
X-18962Y-29467D01*
X-18844Y-29233D01*
X-18793Y-29043D01*
X-18761Y-29003D01*
X-18316Y-28729D01*
X-17971Y-28541D01*
X-17763Y-28443D01*
X-17691Y-28435D01*
X-17627Y-28354D01*
X-17495Y-28228D01*
X-17367Y-28066D01*
X-17299Y-28021D01*
X-17104Y-27814D01*
X-16931Y-27720D01*
X-16827Y-27671D01*
X-16791Y-27667D01*
X-16497Y-27668D01*
X-16235Y-27711D01*
X-15969Y-27789D01*
X-15928Y-27821D01*
X-15892Y-27817D01*
X-15477Y-27914D01*
X-15178Y-27952D01*
X-15034Y-27935D01*
X-14961Y-27926D01*
X-14734Y-27679D01*
X-14611Y-27481D01*
X-14551Y-27363D01*
X-14555Y-27327D01*
X-14451Y-27278D01*
X-14338Y-27301D01*
X-14225Y-27325D01*
X-14185Y-27357D01*
X-13832Y-27241D01*
X-13546Y-27170D01*
X-13374Y-27077D01*
X-13302Y-27068D01*
X-13193Y-27055D01*
X-13008Y-27070D01*
X-12858Y-27089D01*
X-12782Y-27116D01*
X-12484Y-27154D01*
X-12230Y-27124D01*
X-12086Y-27107D01*
X-12049Y-27102D01*
X-11890Y-26900D01*
X-11862Y-26823D01*
X-11830Y-26783D01*
X-11586Y-26680D01*
X-11264Y-26605D01*
X-10500Y-26551D01*
X-10174Y-26512D01*
X-9880Y-26514D01*
D02*
G37*
G36*
X-12267Y37624D02*
X-12122Y37641D01*
X-12004Y37581D01*
X-11924Y37518D01*
X-11919Y37481D01*
X-11911Y37409D01*
X-11866Y37341D01*
X-11861Y37305D01*
X-11644Y37331D01*
X-11361Y37107D01*
X-11154Y36912D01*
X-11028Y36780D01*
X-10988Y36748D01*
X-10838Y36729D01*
X-10730Y36742D01*
X-10694Y36746D01*
X-10540Y36691D01*
X-10455Y36591D01*
X-10244Y36359D01*
X-10141Y36115D01*
X-10097Y36047D01*
X-10092Y36010D01*
X-10058Y35721D01*
X-10032Y35504D01*
X-10006Y35287D01*
X-9984Y35105D01*
X-9972Y34997D01*
X-9959Y34888D01*
X-9954Y34852D01*
X-9950Y34816D01*
X-9591Y34271D01*
X-9402Y34220D01*
X-9325Y34193D01*
X-9304Y34012D01*
X-9286Y33867D01*
X-9278Y33795D01*
X-9273Y33759D01*
X-9523Y33692D01*
X-9699Y33634D01*
X-9767Y33590D01*
X-9804Y33585D01*
X-9765Y33260D01*
X-9735Y33006D01*
X-9713Y32825D01*
X-9700Y32717D01*
X-9691Y32644D01*
X-9683Y32572D01*
X-9553Y32404D01*
X-9476Y32376D01*
X-9472Y32340D01*
X-9482Y32119D01*
X-9497Y31933D01*
X-9498Y31640D01*
X-9517Y31490D01*
X-9549Y31450D01*
X-9315Y31331D01*
X-9274Y31299D01*
X-9238Y31303D01*
X-9091Y30991D01*
X-8993Y30782D01*
X-8899Y30610D01*
X-8894Y30573D01*
X-8669Y30527D01*
X-8632Y30531D01*
X-8596Y30536D01*
X-8475Y30440D01*
X-8344Y30272D01*
X-8152Y29891D01*
X-8058Y29719D01*
X-8037Y29538D01*
X-7988Y29433D01*
X-7983Y29397D01*
X-7947Y29401D01*
X-7839Y29414D01*
X-7730Y29427D01*
X-7658Y29436D01*
X-7765Y29717D01*
X-7831Y29966D01*
X-7893Y30179D01*
X-7946Y30319D01*
X-8000Y30460D01*
X-8045Y30528D01*
X-8053Y30600D01*
X-7659Y30684D01*
X-7370Y30718D01*
X-7112Y30712D01*
X-6927Y30698D01*
X-6810Y30638D01*
X-6697Y30615D01*
X-6656Y30583D01*
X-6513Y30306D01*
X-6437Y30279D01*
X-6292Y30296D01*
X-6038Y30326D01*
X-5789Y30393D01*
X-5717Y30401D01*
X-5681Y30405D01*
X-5591Y30269D01*
X-5502Y30133D01*
X-5380Y30037D01*
X-5335Y29969D01*
X-5203Y30095D01*
X-5131Y30104D01*
X-5095Y30108D01*
X-5035Y30225D01*
X-5012Y30338D01*
X-5016Y30374D01*
X-5021Y30411D01*
X-4853Y30541D01*
X-4676Y30598D01*
X-4608Y30643D01*
X-4572Y30648D01*
X-4456Y30294D01*
X-4354Y30049D01*
X-4296Y29873D01*
X-4292Y29837D01*
X-4138Y29781D01*
X-4025Y29758D01*
X-3953Y29767D01*
X-3917Y29771D01*
X-3650Y29693D01*
X-3461Y29642D01*
X-3308Y29587D01*
X-3190Y29527D01*
X-3037Y29472D01*
X-2996Y29440D01*
X-2834Y29313D01*
X-2745Y29177D01*
X-2602Y28900D01*
X-2548Y28759D01*
X-2535Y28651D01*
X-2527Y28578D01*
X-2522Y28542D01*
X-2641Y28308D01*
X-2673Y28267D01*
X-2705Y28227D01*
X-2696Y28155D01*
X-2684Y28046D01*
X-2671Y27937D01*
X-2662Y27865D01*
X-3043Y27673D01*
X-3279Y27498D01*
X-3456Y27440D01*
X-3524Y27395D01*
X-3925Y26760D01*
X-3962Y26756D01*
X-4070Y26743D01*
X-4251Y26721D01*
X-4432Y26700D01*
X-4613Y26678D01*
X-4794Y26657D01*
X-4903Y26644D01*
X-4939Y26640D01*
X-5069Y26807D01*
X-5286Y26782D01*
X-5463Y26724D01*
X-5676Y26662D01*
X-5816Y26608D01*
X-5852Y26604D01*
X-6082Y26687D01*
X-6236Y26742D01*
X-6349Y26765D01*
X-6385Y26761D01*
X-6581Y26554D01*
X-6744Y26388D01*
X-6840Y26266D01*
X-6872Y26226D01*
X-7238Y26219D01*
X-7500Y26261D01*
X-7685Y26276D01*
X-7726Y26308D01*
X-7989Y26056D01*
X-8149Y25853D01*
X-8281Y25728D01*
X-8313Y25687D01*
X-8421Y25674D01*
X-8494Y25666D01*
X-8566Y25657D01*
X-8519Y25259D01*
X-8480Y24933D01*
X-8454Y24716D01*
X-8437Y24571D01*
X-8428Y24499D01*
X-8424Y24463D01*
X-8420Y24426D01*
X-8507Y24232D01*
X-8598Y24075D01*
X-8625Y23998D01*
X-8657Y23958D01*
X-8659Y23664D01*
X-8625Y23374D01*
X-8563Y23161D01*
X-8558Y23125D01*
X-8554Y23089D01*
X-8515Y22763D01*
X-8481Y22474D01*
X-8500Y22325D01*
X-8491Y22252D01*
X-8606Y21982D01*
X-8688Y21752D01*
X-8743Y21598D01*
X-8775Y21558D01*
X-8796Y21115D01*
X-8789Y20748D01*
X-8808Y20599D01*
X-8795Y20491D01*
X-8823Y20414D01*
X-8818Y20378D01*
X-8869Y20188D01*
X-8920Y19999D01*
X-9116Y19792D01*
X-9320Y19657D01*
X-9352Y19617D01*
X-9388Y19613D01*
X-9782Y19529D01*
X-10067Y19458D01*
X-10357Y19424D01*
X-10538Y19402D01*
X-10683Y19385D01*
X-10791Y19372D01*
X-10827Y19368D01*
X-10864Y19364D01*
X-11075Y19595D01*
X-11245Y19795D01*
X-11371Y19927D01*
X-11412Y19959D01*
X-11416Y19995D01*
X-11424Y20068D01*
X-11410Y20253D01*
X-11444Y20542D01*
X-11447Y20873D01*
X-11481Y21162D01*
X-11480Y21456D01*
X-11501Y21637D01*
X-11510Y21709D01*
X-11527Y21854D01*
X-11549Y22035D01*
X-11624Y22356D01*
X-11645Y22537D01*
X-11699Y22678D01*
X-11707Y22750D01*
X-11711Y22786D01*
X-11799Y23216D01*
X-11874Y23538D01*
X-11864Y23759D01*
X-11868Y23796D01*
X-11873Y23832D01*
X-11822Y24021D01*
X-11803Y24171D01*
X-11807Y24207D01*
X-11812Y24243D01*
X-11635Y24301D01*
X-11567Y24345D01*
X-11530Y24350D01*
X-11561Y24603D01*
X-11578Y24748D01*
X-11591Y24857D01*
X-11595Y24893D01*
X-11870Y25043D01*
X-12068Y25167D01*
X-12190Y25262D01*
X-12307Y25322D01*
X-12388Y25386D01*
X-12424Y25381D01*
X-12533Y25368D01*
X-12605Y25360D01*
X-12677Y25351D01*
X-12808Y25519D01*
X-12897Y25655D01*
X-12942Y25723D01*
X-12946Y25760D01*
X-13344Y25712D01*
X-13711Y25705D01*
X-13896Y25720D01*
X-14045Y25739D01*
X-14122Y25767D01*
X-14158Y25762D01*
X-14456Y25800D01*
X-14678Y25810D01*
X-14863Y25825D01*
X-15044Y25804D01*
X-15157Y25827D01*
X-15229Y25818D01*
X-15302Y25810D01*
X-15483Y25788D01*
X-15627Y25771D01*
X-15732Y25722D01*
X-15768Y25717D01*
X-16036Y25502D01*
X-16236Y25331D01*
X-16408Y25237D01*
X-16440Y25197D01*
X-16770Y25194D01*
X-17064Y25196D01*
X-17281Y25170D01*
X-17466Y25185D01*
X-17611Y25168D01*
X-17724Y25191D01*
X-17760Y25186D01*
X-17797Y25182D01*
X-18033Y25007D01*
X-18214Y24986D01*
X-18399Y25000D01*
X-18544Y24983D01*
X-18648Y24934D01*
X-18684Y24930D01*
X-18744Y24813D01*
X-18844Y24727D01*
X-18871Y24651D01*
X-18907Y24646D01*
X-19080Y24552D01*
X-19152Y24544D01*
X-19188Y24539D01*
X-19410Y24550D01*
X-19708Y24588D01*
X-20345Y24695D01*
X-20647Y24769D01*
X-20877Y24852D01*
X-21026Y24871D01*
X-21103Y24899D01*
X-21407Y24679D01*
X-21688Y24572D01*
X-21901Y24510D01*
X-21937Y24506D01*
X-21973Y24501D01*
X-22303Y24499D01*
X-22642Y24569D01*
X-22796Y24624D01*
X-22908Y24647D01*
X-22985Y24675D01*
X-23021Y24670D01*
X-23364Y24776D01*
X-23599Y24895D01*
X-23788Y24946D01*
X-23901Y24969D01*
X-23978Y24997D01*
X-24018Y25029D01*
X-24055Y25025D01*
X-24236Y25003D01*
X-24670Y24951D01*
X-24996Y24913D01*
X-25290Y24914D01*
X-25471Y24893D01*
X-25615Y24875D01*
X-25692Y24903D01*
X-25764Y24894D01*
X-25975Y25126D01*
X-26142Y25290D01*
X-26227Y25390D01*
X-26268Y25422D01*
X-26417Y25441D01*
X-26530Y25464D01*
X-26606Y25492D01*
X-26643Y25487D01*
X-26664Y25668D01*
X-26673Y25741D01*
X-26952Y25928D01*
X-27150Y26051D01*
X-27272Y26147D01*
X-27312Y26178D01*
X-27504Y26559D01*
X-27688Y26868D01*
X-27831Y27145D01*
X-27933Y27389D01*
X-27995Y27602D01*
X-28049Y27742D01*
X-28094Y27811D01*
X-28098Y27847D01*
X-28245Y28160D01*
X-28389Y28436D01*
X-28487Y28645D01*
X-28527Y28677D01*
X-28532Y28713D01*
X-28692Y29134D01*
X-28735Y29496D01*
X-28752Y29641D01*
X-28765Y29750D01*
X-28769Y29786D01*
X-28774Y29822D01*
X-28676Y30237D01*
X-28598Y30504D01*
X-28547Y30693D01*
X-28515Y30734D01*
X-28524Y30806D01*
X-28501Y30919D01*
X-28531Y31172D01*
X-28552Y31353D01*
X-28561Y31426D01*
X-28565Y31462D01*
X-28559Y31720D01*
X-28540Y31869D01*
X-28517Y31982D01*
X-28485Y32022D01*
X-28457Y32099D01*
X-28394Y32180D01*
X-28238Y32419D01*
X-28079Y32621D01*
X-28047Y32662D01*
X-28015Y32702D01*
X-27828Y32981D01*
X-27746Y33211D01*
X-27695Y33401D01*
X-27703Y33473D01*
X-27765Y33686D01*
X-27819Y33827D01*
X-27864Y33895D01*
X-27724Y34572D01*
X-27763Y34898D01*
X-27797Y35187D01*
X-27783Y35373D01*
X-27804Y35554D01*
X-27817Y35662D01*
X-27790Y35739D01*
X-27794Y35775D01*
X-27585Y35873D01*
X-27377Y35972D01*
X-27241Y36061D01*
X-27168Y36070D01*
X-26887Y36177D01*
X-26670Y36203D01*
X-26561Y36215D01*
X-26525Y36220D01*
X-26327Y36097D01*
X-26201Y35965D01*
X-26120Y35901D01*
X-26080Y35869D01*
X-25893Y36148D01*
X-25738Y36387D01*
X-25487Y36747D01*
X-25328Y36950D01*
X-25300Y37026D01*
X-25119Y37048D01*
X-24989Y36880D01*
X-24899Y36744D01*
X-24814Y36644D01*
X-24733Y36580D01*
X-24688Y36512D01*
X-24652Y36516D01*
X-24584Y36561D01*
X-24524Y36678D01*
X-24497Y36755D01*
X-24465Y36795D01*
X-24378Y36989D01*
X-24318Y37106D01*
X-24291Y37183D01*
X-24295Y37219D01*
X-24114Y37241D01*
X-24005Y37254D01*
X-23969Y37258D01*
X-23933Y37262D01*
X-23699Y37144D01*
X-23469Y37061D01*
X-23307Y36933D01*
X-23230Y36906D01*
X-23111Y37140D01*
X-23020Y37298D01*
X-22964Y37451D01*
X-22901Y37532D01*
X-22837Y37613D01*
X-22801Y37618D01*
X-22652Y37599D01*
X-22566Y37499D01*
X-22481Y37399D01*
X-22441Y37367D01*
X-22415Y37150D01*
X-22410Y37113D01*
X-22406Y37077D01*
X-22298Y37090D01*
X-22123Y36854D01*
X-21988Y36650D01*
X-21899Y36514D01*
X-21809Y36378D01*
X-21683Y36246D01*
X-21643Y36214D01*
X-21525Y36154D01*
X-21372Y36099D01*
X-20993Y35997D01*
X-20803Y35947D01*
X-20654Y35928D01*
X-20537Y35868D01*
X-20501Y35873D01*
X-20234Y35794D01*
X-20004Y35711D01*
X-19851Y35656D01*
X-19693Y35565D01*
X-19531Y35437D01*
X-19486Y35369D01*
X-19397Y35233D01*
X-19307Y35097D01*
X-19228Y34739D01*
X-19174Y34599D01*
X-19157Y34454D01*
X-19149Y34382D01*
X-19144Y34345D01*
X-19105Y34020D01*
X-19075Y33766D01*
X-19054Y33585D01*
X-19037Y33441D01*
X-19028Y33368D01*
X-19019Y33296D01*
X-19015Y33260D01*
X-19328Y33112D01*
X-19604Y32969D01*
X-19745Y32916D01*
X-19813Y32871D01*
X-20143Y32868D01*
X-20365Y32879D01*
X-20509Y32862D01*
X-20546Y32857D01*
X-20614Y32812D01*
X-20714Y32727D01*
X-20909Y32520D01*
X-21101Y32277D01*
X-21128Y32201D01*
X-21160Y32160D01*
X-21147Y32051D01*
X-21328Y32030D01*
X-21364Y32026D01*
X-21400Y32021D01*
X-21406Y31764D01*
X-21389Y31619D01*
X-21340Y31514D01*
X-21336Y31478D01*
X-21580Y31376D01*
X-21685Y31327D01*
X-21721Y31322D01*
X-21750Y30952D01*
X-21756Y30694D01*
X-21775Y30545D01*
X-21771Y30509D01*
X-21988Y30483D01*
X-21794Y30396D01*
X-21673Y30300D01*
X-21632Y30268D01*
X-21592Y30237D01*
X-21438Y30181D01*
X-21362Y30154D01*
X-21553Y29911D01*
X-21585Y29870D01*
X-21617Y29830D01*
X-21599Y29685D01*
X-21555Y29617D01*
X-21510Y29549D01*
X-21678Y29419D01*
X-21710Y29378D01*
X-21746Y29374D01*
X-21733Y29265D01*
X-21552Y29287D01*
X-21593Y29319D01*
X-21565Y29395D01*
X-21497Y29440D01*
X-21429Y29485D01*
X-21393Y29489D01*
X-21118Y29338D01*
X-21037Y29275D01*
X-20996Y29243D01*
X-20892Y29292D01*
X-20860Y29333D01*
X-20828Y29373D01*
X-20815Y29264D01*
X-20449Y29271D01*
X-20227Y29261D01*
X-20078Y29242D01*
X-20042Y29246D01*
X-19948Y29074D01*
X-19944Y29038D01*
X-19940Y29002D01*
X-19654Y29072D01*
X-19442Y29134D01*
X-19337Y29183D01*
X-19301Y29188D01*
X-19265Y29192D01*
X-19224Y29160D01*
X-19184Y29128D01*
X-19180Y29092D01*
X-19062Y29033D01*
X-18949Y29009D01*
X-18913Y29014D01*
X-18877Y29018D01*
X-18709Y29148D01*
X-18577Y29274D01*
X-18473Y29323D01*
X-18441Y29364D01*
X-18156Y29434D01*
X-17970Y29419D01*
X-17894Y29392D01*
X-17853Y29360D01*
X-17740Y29337D01*
X-17560Y29358D01*
X-17306Y29388D01*
X-17021Y29459D01*
X-16768Y29489D01*
X-16519Y29556D01*
X-16378Y29609D01*
X-16306Y29618D01*
X-16201Y29667D01*
X-16165Y29671D01*
X-16125Y29639D01*
X-16084Y29607D01*
X-16116Y29567D01*
X-15935Y29588D01*
X-15863Y29597D01*
X-15826Y29601D01*
X-15590Y29776D01*
X-15237Y29892D01*
X-14884Y30007D01*
X-14490Y30091D01*
X-14164Y30130D01*
X-13843Y30205D01*
X-13589Y30235D01*
X-13444Y30252D01*
X-13372Y30261D01*
X-13283Y30748D01*
X-13218Y31123D01*
X-13195Y31236D01*
X-13171Y31349D01*
X-13139Y31390D01*
X-13144Y31426D01*
X-13191Y31824D01*
X-13226Y32113D01*
X-13247Y32294D01*
X-13251Y32331D01*
X-13228Y32443D01*
X-13169Y32561D01*
X-13109Y32678D01*
X-13077Y32718D01*
X-12990Y32912D01*
X-12971Y33061D01*
X-12984Y33170D01*
X-12989Y33206D01*
X-13123Y33410D01*
X-13217Y33583D01*
X-13266Y33687D01*
X-13307Y33719D01*
X-13520Y34281D01*
X-13582Y34494D01*
X-13640Y34670D01*
X-13657Y34815D01*
X-13670Y34924D01*
X-13679Y34996D01*
X-13683Y35032D01*
X-13644Y35624D01*
X-13601Y35886D01*
X-13555Y36112D01*
X-13504Y36302D01*
X-13449Y36455D01*
X-13385Y36536D01*
X-13389Y36572D01*
X-13230Y36775D01*
X-13066Y36941D01*
X-13002Y37022D01*
X-12970Y37063D01*
X-12996Y37280D01*
X-13014Y37424D01*
X-13022Y37497D01*
X-13027Y37533D01*
X-12809Y37559D01*
X-12596Y37621D01*
X-12452Y37638D01*
X-12416Y37643D01*
X-12267Y37624D01*
D02*
G37*
G36*
X-23924Y38108D02*
X-23919Y38072D01*
X-23915Y38036D01*
X-23906Y37963D01*
X-23943Y37959D01*
X-24019Y37986D01*
X-24024Y38023D01*
X-23996Y38099D01*
X-23964Y38140D01*
X-23928Y38144D01*
X-23924Y38108D01*
D02*
G37*
G36*
X-24057Y37688D02*
X-24053Y37652D01*
X-24044Y37580D01*
X-24081Y37575D01*
X-24121Y37607D01*
X-24125Y37643D01*
X-24098Y37720D01*
X-24102Y37756D01*
X-24057Y37688D01*
D02*
G37*
G36*
X23298Y36865D02*
X23460Y36738D01*
X23586Y36606D01*
X23743Y36514D01*
X23937Y36428D01*
X23978Y36396D01*
X24014Y36400D01*
X24059Y36332D01*
X24099Y36300D01*
X24131Y36340D01*
X24191Y36458D01*
X24286Y36579D01*
X24427Y36633D01*
X24459Y36673D01*
X24644Y36658D01*
X24793Y36639D01*
X24834Y36608D01*
X24870Y36612D01*
X24900Y36358D01*
X24917Y36214D01*
X24930Y36105D01*
X24934Y36069D01*
X25028Y35897D01*
X25150Y35801D01*
X25457Y35691D01*
X25606Y35672D01*
X25719Y35648D01*
X25791Y35657D01*
X25827Y35661D01*
X26004Y35719D01*
X26140Y35809D01*
X26168Y35885D01*
X26199Y35926D01*
X26353Y35871D01*
X26430Y35843D01*
X26466Y35847D01*
X26677Y35616D01*
X26843Y35452D01*
X26969Y35320D01*
X27090Y35224D01*
X27216Y35093D01*
X27257Y35061D01*
X27564Y34950D01*
X27798Y34832D01*
X27947Y34813D01*
X27988Y34781D01*
X28063Y34459D01*
X28129Y34210D01*
X28146Y34065D01*
X28155Y33993D01*
X28389Y33874D01*
X28466Y33847D01*
X28502Y33851D01*
X28524Y33670D01*
X28541Y33525D01*
X28554Y33416D01*
X28558Y33380D01*
X28737Y33108D01*
X28872Y32904D01*
X28961Y32768D01*
X29002Y32736D01*
X29109Y32455D01*
X29211Y32210D01*
X29273Y31997D01*
X29295Y31816D01*
X29348Y31676D01*
X29357Y31603D01*
X29361Y31567D01*
X29366Y31531D01*
X29541Y31295D01*
X29671Y31127D01*
X29756Y31027D01*
X29796Y30995D01*
X29827Y30742D01*
X29821Y30484D01*
X29810Y30262D01*
X29819Y30190D01*
X29823Y30154D01*
X29830Y29787D01*
X29828Y29494D01*
X29882Y29353D01*
X29890Y29281D01*
X30061Y29081D01*
X30195Y28877D01*
X30321Y28745D01*
X30362Y28713D01*
X30343Y28564D01*
X30292Y28374D01*
X30233Y28257D01*
X30205Y28180D01*
X30122Y27950D01*
X30071Y27761D01*
X30089Y27616D01*
X30093Y27580D01*
X30146Y27439D01*
X30236Y27303D01*
X30289Y27163D01*
X30334Y27095D01*
X30509Y26858D01*
X30571Y26645D01*
X30625Y26505D01*
X30629Y26469D01*
X30633Y26433D01*
X30606Y26356D01*
X30587Y26207D01*
X30536Y26017D01*
X30504Y25977D01*
X30508Y25941D01*
X30517Y25868D01*
X30534Y25723D01*
X30605Y25438D01*
X30622Y25293D01*
X30676Y25153D01*
X30684Y25080D01*
X30688Y25044D01*
X30755Y24795D01*
X30821Y24546D01*
X30879Y24370D01*
X30896Y24225D01*
X30918Y24044D01*
X30926Y23971D01*
X30652Y23498D01*
X30401Y23138D01*
X30246Y22899D01*
X30214Y22859D01*
X30182Y22818D01*
X30176Y22561D01*
X30211Y22271D01*
X30339Y21809D01*
X30401Y21596D01*
X30491Y21460D01*
X30540Y21356D01*
X30544Y21320D01*
X30675Y21152D01*
X30796Y21056D01*
X30841Y20988D01*
X30881Y20956D01*
X30890Y20884D01*
X30871Y20735D01*
X30848Y20622D01*
X30852Y20585D01*
X30838Y20400D01*
X30859Y20219D01*
X30872Y20111D01*
X30876Y20075D01*
X30998Y19979D01*
X31083Y19879D01*
X31164Y19815D01*
X31168Y19779D01*
X31254Y19679D01*
X31307Y19538D01*
X31320Y19430D01*
X31324Y19394D01*
X31333Y19321D01*
X31286Y19095D01*
X31276Y18874D01*
X31238Y18576D01*
X31200Y18278D01*
X31194Y18020D01*
X31139Y17867D01*
X31148Y17794D01*
X31110Y17496D01*
X31104Y17238D01*
X31049Y17085D01*
X31030Y16936D01*
X31002Y16859D01*
X31006Y16823D01*
X30975Y16782D01*
X30698Y16639D01*
X30381Y16528D01*
X30240Y16475D01*
X30095Y16458D01*
X30023Y16449D01*
X29987Y16445D01*
X29733Y16414D01*
X29548Y16429D01*
X29214Y16463D01*
X29061Y16518D01*
X28984Y16545D01*
X28817Y16709D01*
X28638Y16982D01*
X28491Y17294D01*
X28343Y17607D01*
X28237Y17888D01*
X28170Y18137D01*
X28113Y18314D01*
X28104Y18386D01*
X28065Y18712D01*
X28031Y19002D01*
X28041Y19223D01*
X28015Y19440D01*
X27998Y19585D01*
X28021Y19698D01*
X28013Y19770D01*
X28008Y19806D01*
X27936Y19798D01*
X27712Y20138D01*
X27573Y20379D01*
X27483Y20515D01*
X27443Y20547D01*
X27285Y20638D01*
X27128Y20729D01*
X27087Y20761D01*
X27046Y20793D01*
X26997Y20898D01*
X26985Y21006D01*
X27008Y21119D01*
X27003Y21155D01*
X26986Y21300D01*
X26937Y21404D01*
X26897Y21436D01*
X26892Y21472D01*
X26694Y21596D01*
X26541Y21651D01*
X26464Y21678D01*
X26428Y21674D01*
X26260Y21544D01*
X26128Y21418D01*
X25919Y21320D01*
X25847Y21311D01*
X25811Y21307D01*
X25568Y21498D01*
X25265Y21572D01*
X25039Y21619D01*
X25003Y21614D01*
X24967Y21610D01*
X24460Y21550D01*
X24026Y21498D01*
X23668Y21419D01*
X23343Y21380D01*
X23130Y21318D01*
X22949Y21296D01*
X22844Y21247D01*
X22808Y21243D01*
X22551Y21249D01*
X22329Y21259D01*
X21999Y21257D01*
X21778Y21267D01*
X21629Y21286D01*
X21556Y21278D01*
X21552Y21314D01*
X21307Y21211D01*
X21099Y21113D01*
X20958Y21059D01*
X20886Y21051D01*
X20601Y20980D01*
X20347Y20950D01*
X20202Y20933D01*
X20130Y20924D01*
X20013Y20984D01*
X19819Y21071D01*
X19661Y21162D01*
X19621Y21194D01*
X19584Y21190D01*
X19273Y21336D01*
X19011Y21378D01*
X18867Y21361D01*
X18794Y21352D01*
X18671Y21154D01*
X18639Y21114D01*
X18643Y21078D01*
X18503Y21024D01*
X18394Y21011D01*
X18282Y21035D01*
X18245Y21030D01*
X18137Y21017D01*
X18069Y20973D01*
X18000Y20928D01*
X17969Y20887D01*
X17819Y20906D01*
X17630Y20957D01*
X17481Y20976D01*
X17404Y21003D01*
X16789Y20930D01*
X16504Y20860D01*
X16250Y20829D01*
X16033Y20804D01*
X15893Y20750D01*
X15784Y20737D01*
X15748Y20733D01*
X15471Y20590D01*
X15267Y20455D01*
X15131Y20366D01*
X15063Y20321D01*
X14524Y20220D01*
X14017Y20160D01*
X13836Y20138D01*
X13692Y20121D01*
X13583Y20108D01*
X13547Y20104D01*
X13185Y20061D01*
X12864Y19986D01*
X12651Y19924D01*
X12510Y19870D01*
X12410Y19785D01*
X12342Y19740D01*
X12310Y19700D01*
X12278Y19659D01*
X12202Y19687D01*
X12048Y19742D01*
X11891Y19833D01*
X11850Y19865D01*
X11814Y19861D01*
X11633Y19839D01*
X11452Y19818D01*
X11235Y19792D01*
X11090Y19775D01*
X11054Y19770D01*
X10828Y19817D01*
X10679Y19836D01*
X10526Y19891D01*
X10489Y19887D01*
X10227Y19929D01*
X9970Y19935D01*
X9825Y19918D01*
X9753Y19909D01*
X9670Y19679D01*
X9638Y19638D01*
X9642Y19602D01*
X9172Y19546D01*
X8846Y19507D01*
X8665Y19486D01*
X8592Y19477D01*
X8463Y19021D01*
X8394Y18683D01*
X8311Y18453D01*
X8296Y18267D01*
X8273Y18155D01*
X8245Y18078D01*
X8250Y18042D01*
X8267Y17897D01*
X8284Y17752D01*
X8323Y17426D01*
X8344Y17245D01*
X8398Y17105D01*
X8406Y17032D01*
X8411Y16996D01*
X8462Y16562D01*
X8501Y16236D01*
X8486Y16051D01*
X8495Y15979D01*
X8304Y15735D01*
X8272Y15695D01*
X8240Y15654D01*
X8211Y15284D01*
X8205Y15026D01*
X8222Y14882D01*
X8226Y14845D01*
X8225Y14551D01*
X8214Y14330D01*
X8191Y14217D01*
X8195Y14181D01*
X7955Y14042D01*
X7714Y13903D01*
X7578Y13814D01*
X7510Y13769D01*
X7161Y13617D01*
X6844Y13506D01*
X6667Y13448D01*
X6631Y13444D01*
X6595Y13440D01*
X6450Y13422D01*
X6301Y13441D01*
X6261Y13473D01*
X6224Y13469D01*
X6103Y13565D01*
X6058Y13633D01*
X5883Y13869D01*
X5736Y14182D01*
X5674Y14395D01*
X5665Y14467D01*
X5661Y14503D01*
X5609Y14938D01*
X5538Y15223D01*
X5481Y15399D01*
X5440Y15431D01*
X5184Y15731D01*
X5009Y15967D01*
X4843Y16131D01*
X4798Y16199D01*
X4723Y16521D01*
X4693Y16774D01*
X4712Y16923D01*
X4708Y16959D01*
X4908Y17130D01*
X4939Y17170D01*
X4976Y17175D01*
X4945Y17428D01*
X4915Y17681D01*
X4858Y17858D01*
X4840Y18003D01*
X4783Y18179D01*
X4738Y18248D01*
X4854Y18812D01*
X4797Y18989D01*
X4752Y19057D01*
X4747Y19093D01*
X4698Y19197D01*
X4653Y19265D01*
X4613Y19297D01*
X4535Y19949D01*
X4471Y20492D01*
X4415Y20962D01*
X4367Y21360D01*
X4333Y21650D01*
X4307Y21867D01*
X4290Y22012D01*
X4285Y22048D01*
X4229Y22519D01*
X4214Y22957D01*
X4171Y23319D01*
X4172Y23613D01*
X4142Y23866D01*
X4161Y24015D01*
X4148Y24124D01*
X4144Y24160D01*
X4140Y24196D01*
X4127Y24305D01*
X4082Y24373D01*
X4078Y24409D01*
X4020Y24586D01*
X3967Y24726D01*
X3958Y24799D01*
X3954Y24835D01*
X4113Y25037D01*
X4096Y25182D01*
X4074Y25363D01*
X4021Y25504D01*
X4016Y25540D01*
X3923Y25712D01*
X3873Y25817D01*
X3829Y25885D01*
X3623Y26998D01*
X3558Y27541D01*
X3502Y28011D01*
X3491Y28414D01*
X3452Y28740D01*
X3462Y28961D01*
X3454Y29033D01*
X3556Y29413D01*
X3598Y29675D01*
X3649Y29864D01*
X3676Y29941D01*
X3656Y30416D01*
X3618Y30742D01*
X3596Y30922D01*
X3587Y30995D01*
X3666Y31261D01*
X3712Y31487D01*
X3804Y31645D01*
X3859Y31798D01*
X3950Y31956D01*
X3982Y31996D01*
X4086Y32045D01*
X4154Y32090D01*
X4222Y32135D01*
X4197Y32352D01*
X4192Y32388D01*
X4188Y32425D01*
X4356Y32555D01*
X4452Y32676D01*
X4520Y32721D01*
X4552Y32761D01*
X4585Y33096D01*
X4623Y33394D01*
X4665Y33656D01*
X4680Y33841D01*
X4659Y34022D01*
X4682Y34135D01*
X4677Y34171D01*
X4673Y34207D01*
X4905Y34419D01*
X5069Y34585D01*
X5409Y34809D01*
X5550Y34863D01*
X5654Y34912D01*
X5686Y34952D01*
X5722Y34956D01*
X5700Y35137D01*
X5683Y35282D01*
X5675Y35355D01*
X5670Y35391D01*
X5821Y35666D01*
X5908Y35860D01*
X5963Y36013D01*
X5995Y36053D01*
X6149Y35998D01*
X6298Y35979D01*
X6370Y35988D01*
X6406Y35992D01*
X6549Y35716D01*
X6611Y35503D01*
X6665Y35362D01*
X6669Y35326D01*
X6886Y35352D01*
X6922Y35356D01*
X6959Y35361D01*
X7005Y35586D01*
X7001Y35623D01*
X6997Y35659D01*
X7406Y35614D01*
X7390Y35742D01*
X7382Y35815D01*
X7352Y36068D01*
X7334Y36213D01*
X7326Y36285D01*
X7615Y36320D01*
X7833Y36346D01*
X7977Y36363D01*
X8013Y36367D01*
X8245Y36578D01*
X8445Y36749D01*
X8577Y36875D01*
X8645Y36920D01*
X8937Y36624D01*
X9161Y36284D01*
X9215Y36143D01*
X9264Y36039D01*
X9309Y35971D01*
X9313Y35934D01*
X9639Y35973D01*
X9928Y36008D01*
X10146Y36034D01*
X10363Y36059D01*
X10688Y36098D01*
X10905Y36124D01*
X11014Y36137D01*
X11086Y36146D01*
X11123Y36150D01*
X11182Y36267D01*
X11206Y36380D01*
X11201Y36416D01*
X11197Y36452D01*
X11442Y36555D01*
X11614Y36649D01*
X11718Y36698D01*
X11827Y36711D01*
X11931Y36760D01*
X12287Y36546D01*
X12530Y36354D01*
X12656Y36222D01*
X12701Y36154D01*
X13026Y36193D01*
X13239Y36255D01*
X13416Y36313D01*
X13452Y36317D01*
X13614Y36190D01*
X13776Y36062D01*
X13861Y35962D01*
X13902Y35930D01*
X14273Y35901D01*
X14530Y35895D01*
X14675Y35912D01*
X14747Y35921D01*
X15071Y35666D01*
X15314Y35474D01*
X15440Y35342D01*
X15481Y35311D01*
X15775Y35309D01*
X16032Y35303D01*
X16254Y35293D01*
X16435Y35314D01*
X16579Y35331D01*
X16688Y35344D01*
X16724Y35348D01*
X16760Y35353D01*
X16963Y35193D01*
X17334Y35164D01*
X17659Y35203D01*
X17949Y35237D01*
X18125Y35295D01*
X18302Y35353D01*
X18406Y35402D01*
X18438Y35443D01*
X18474Y35447D01*
X18598Y35645D01*
X18657Y35762D01*
X18721Y35843D01*
X18717Y35879D01*
X18857Y35933D01*
X18966Y35946D01*
X19155Y35895D01*
X19277Y35799D01*
X19317Y35767D01*
X19552Y35648D01*
X19778Y35602D01*
X19959Y35623D01*
X20031Y35632D01*
X20267Y35807D01*
X20467Y35978D01*
X20603Y36067D01*
X20635Y36108D01*
X21056Y36268D01*
X21373Y36379D01*
X21586Y36441D01*
X21659Y36450D01*
X21750Y36608D01*
X21805Y36761D01*
X21833Y36838D01*
X21828Y36874D01*
X21869Y36842D01*
X21950Y36778D01*
X21995Y36710D01*
X22035Y36678D01*
X22184Y36659D01*
X22261Y36632D01*
X22302Y36600D01*
X22370Y36645D01*
X22433Y36726D01*
X22502Y36770D01*
X22533Y36811D01*
X22665Y36937D01*
X22733Y36982D01*
X22765Y37022D01*
X22838Y37031D01*
X22946Y37044D01*
X23055Y37057D01*
X23127Y37065D01*
X23298Y36865D01*
D02*
G37*
G36*
X-18032Y81427D02*
X-17757Y81276D01*
X-17559Y81153D01*
X-17518Y81121D01*
X-17220Y81083D01*
X-16998Y81072D01*
X-16890Y81085D01*
X-16854Y81090D01*
X-16768Y80990D01*
X-16724Y80922D01*
X-16715Y80849D01*
X-16711Y80813D01*
X-16436Y80662D01*
X-16242Y80575D01*
X-16088Y80520D01*
X-16048Y80488D01*
X-15913Y80284D01*
X-15860Y80143D01*
X-15815Y80075D01*
X-15811Y80039D01*
X-15442Y79716D01*
X-15191Y79452D01*
X-14992Y79329D01*
X-14947Y79261D01*
X-14864Y78867D01*
X-14789Y78546D01*
X-14723Y78297D01*
X-14692Y78043D01*
X-14671Y77862D01*
X-14658Y77754D01*
X-14649Y77681D01*
X-14645Y77645D01*
X-14542Y77400D01*
X-14408Y77196D01*
X-14355Y77056D01*
X-14310Y76988D01*
X-14154Y76602D01*
X-14083Y76317D01*
X-14057Y76100D01*
X-14053Y76064D01*
X-14049Y76028D01*
X-14118Y75689D01*
X-14197Y75423D01*
X-14216Y75274D01*
X-14243Y75197D01*
X-14416Y75103D01*
X-14360Y74632D01*
X-14321Y74307D01*
X-14295Y74089D01*
X-14287Y74017D01*
X-14405Y73783D01*
X-14492Y73589D01*
X-14548Y73435D01*
X-14580Y73395D01*
X-14554Y73178D01*
X-14549Y73141D01*
X-14545Y73105D01*
X-14815Y72596D01*
X-14993Y72244D01*
X-15112Y72010D01*
X-15144Y71969D01*
X-15140Y71933D01*
X-15122Y71789D01*
X-15065Y71612D01*
X-15011Y71471D01*
X-15003Y71399D01*
X-14949Y71259D01*
X-14896Y71118D01*
X-14806Y70982D01*
X-14797Y70910D01*
X-14759Y70584D01*
X-14729Y70330D01*
X-14698Y70077D01*
X-14677Y69896D01*
X-14660Y69751D01*
X-14647Y69643D01*
X-14642Y69607D01*
X-14638Y69570D01*
X-14467Y69370D01*
X-14337Y69202D01*
X-14256Y69139D01*
X-14216Y69107D01*
X-14113Y68862D01*
X-14055Y68685D01*
X-14043Y68577D01*
X-14038Y68541D01*
X-13821Y68566D01*
X-13710Y68249D01*
X-13607Y68005D01*
X-13505Y67760D01*
X-13447Y67583D01*
X-13389Y67406D01*
X-13340Y67302D01*
X-13300Y67270D01*
X-13295Y67234D01*
X-13261Y66944D01*
X-13258Y66615D01*
X-13241Y66470D01*
X-13264Y66357D01*
X-13256Y66284D01*
X-13251Y66248D01*
X-13236Y65810D01*
X-13197Y65484D01*
X-13171Y65267D01*
X-13167Y65231D01*
X-13163Y65194D01*
X-12996Y65030D01*
X-12920Y65003D01*
X-12915Y64967D01*
X-12817Y64758D01*
X-12764Y64618D01*
X-12746Y64473D01*
X-12742Y64437D01*
X-12865Y64239D01*
X-12993Y64077D01*
X-13052Y63959D01*
X-13084Y63919D01*
X-13076Y63846D01*
X-13099Y63734D01*
X-13060Y63408D01*
X-13017Y63046D01*
X-12970Y62648D01*
X-12886Y62254D01*
X-12847Y61928D01*
X-12817Y61675D01*
X-12813Y61639D01*
X-12809Y61602D01*
X-13221Y61370D01*
X-13602Y61178D01*
X-13879Y61035D01*
X-14087Y60936D01*
X-14264Y60878D01*
X-14404Y60825D01*
X-14441Y60821D01*
X-14477Y60817D01*
X-14694Y60791D01*
X-14879Y60805D01*
X-15028Y60824D01*
X-15065Y60820D01*
X-15290Y60866D01*
X-15480Y60917D01*
X-15638Y61009D01*
X-15755Y61068D01*
X-15881Y61200D01*
X-15921Y61232D01*
X-16001Y61589D01*
X-16071Y61875D01*
X-16101Y62128D01*
X-16087Y62313D01*
X-16104Y62458D01*
X-16121Y62603D01*
X-16089Y62643D01*
X-16094Y62680D01*
X-16324Y62762D01*
X-16431Y63043D01*
X-16533Y63288D01*
X-16630Y63790D01*
X-16651Y63971D01*
X-16668Y64116D01*
X-16681Y64225D01*
X-16686Y64261D01*
X-16671Y64446D01*
X-16656Y64631D01*
X-16605Y64821D01*
X-16614Y64894D01*
X-16576Y65192D01*
X-16530Y65417D01*
X-16547Y65562D01*
X-16551Y65598D01*
X-16573Y65779D01*
X-16626Y65920D01*
X-16675Y66024D01*
X-16716Y66056D01*
X-16850Y66260D01*
X-17008Y66352D01*
X-17121Y66375D01*
X-17157Y66371D01*
X-17193Y66366D01*
X-17261Y66321D01*
X-17370Y66309D01*
X-17583Y66246D01*
X-17655Y66238D01*
X-17691Y66234D01*
X-17826Y66438D01*
X-17915Y66574D01*
X-17960Y66642D01*
X-17965Y66678D01*
X-18109Y66661D01*
X-18150Y66693D01*
X-18186Y66689D01*
X-18299Y66712D01*
X-18484Y66726D01*
X-18520Y66722D01*
X-18556Y66718D01*
X-18584Y66641D01*
X-18612Y66565D01*
X-18644Y66524D01*
X-18952Y66340D01*
X-19193Y66202D01*
X-19333Y66148D01*
X-19365Y66108D01*
X-19654Y66073D01*
X-19872Y66047D01*
X-20016Y66030D01*
X-20053Y66026D01*
X-20085Y65985D01*
X-20153Y65941D01*
X-20216Y65860D01*
X-20248Y65819D01*
X-20384Y65729D01*
X-20489Y65680D01*
X-20561Y65672D01*
X-20597Y65667D01*
X-20768Y65867D01*
X-20808Y65899D01*
X-20813Y65935D01*
X-21030Y65910D01*
X-21102Y65901D01*
X-21138Y65897D01*
X-21562Y66066D01*
X-21869Y66177D01*
X-22063Y66264D01*
X-22140Y66291D01*
X-22208Y66246D01*
X-22280Y66238D01*
X-22393Y66261D01*
X-22429Y66257D01*
X-22493Y66176D01*
X-22561Y66131D01*
X-22597Y66127D01*
X-22634Y66122D01*
X-22783Y66141D01*
X-22896Y66165D01*
X-22936Y66197D01*
X-23372Y65851D01*
X-23712Y65627D01*
X-23853Y65574D01*
X-23957Y65524D01*
X-23989Y65484D01*
X-24025Y65479D01*
X-24012Y65371D01*
X-24193Y65349D01*
X-24342Y65368D01*
X-24492Y65387D01*
X-24528Y65383D01*
X-24681Y65438D01*
X-24758Y65466D01*
X-24794Y65461D01*
X-25011Y65436D01*
X-25265Y65405D01*
X-25441Y65348D01*
X-25477Y65343D01*
X-25514Y65339D01*
X-25690Y65281D01*
X-25795Y65232D01*
X-25971Y65175D01*
X-26039Y65130D01*
X-26329Y65095D01*
X-26623Y65097D01*
X-26844Y65107D01*
X-26880Y65103D01*
X-26917Y65099D01*
X-27215Y65136D01*
X-27436Y65147D01*
X-27581Y65130D01*
X-27617Y65125D01*
X-27830Y65063D01*
X-28007Y65006D01*
X-28143Y64916D01*
X-28175Y64875D01*
X-28266Y64718D01*
X-28321Y64564D01*
X-28349Y64488D01*
X-28345Y64451D01*
X-28513Y64321D01*
X-28538Y63915D01*
X-28531Y63548D01*
X-28532Y63254D01*
X-28502Y63001D01*
X-28517Y62816D01*
X-28500Y62671D01*
X-28491Y62599D01*
X-28487Y62562D01*
X-28674Y62283D01*
X-28793Y62049D01*
X-28884Y61891D01*
X-28916Y61851D01*
X-29024Y61838D01*
X-28990Y61548D01*
X-28924Y61299D01*
X-28862Y61086D01*
X-28821Y61054D01*
X-28817Y61018D01*
X-28674Y60742D01*
X-28644Y60488D01*
X-28626Y60343D01*
X-28618Y60271D01*
X-28822Y60136D01*
X-28890Y60092D01*
X-28922Y60051D01*
X-28996Y59749D01*
X-29043Y59523D01*
X-29102Y59406D01*
X-29098Y59370D01*
X-29321Y59086D01*
X-29553Y58875D01*
X-29876Y58506D01*
X-29976Y58421D01*
X-30076Y58335D01*
X-30103Y58259D01*
X-30140Y58254D01*
X-30397Y58261D01*
X-30619Y58271D01*
X-30727Y58258D01*
X-30764Y58254D01*
X-30862Y58462D01*
X-30902Y58494D01*
X-30907Y58530D01*
X-31194Y58790D01*
X-31397Y58949D01*
X-31478Y59013D01*
X-31519Y59045D01*
X-31568Y59149D01*
X-31580Y59258D01*
X-31615Y59547D01*
X-31609Y59805D01*
X-31618Y59877D01*
X-31622Y59913D01*
X-31699Y59941D01*
X-31775Y59969D01*
X-31816Y60000D01*
X-31976Y60422D01*
X-32047Y60707D01*
X-32141Y60879D01*
X-32149Y60952D01*
X-32194Y61020D01*
X-32316Y61115D01*
X-32401Y61216D01*
X-32441Y61247D01*
X-32572Y61415D01*
X-32661Y61552D01*
X-32706Y61620D01*
X-32710Y61656D01*
X-32723Y61764D01*
X-32700Y61877D01*
X-32681Y62026D01*
X-32685Y62063D01*
X-32639Y62288D01*
X-32616Y62401D01*
X-32624Y62474D01*
X-32689Y63017D01*
X-32781Y63483D01*
X-32828Y63881D01*
X-32867Y64207D01*
X-32938Y64492D01*
X-32959Y64673D01*
X-32972Y64781D01*
X-32977Y64818D01*
X-32983Y65184D01*
X-33014Y65437D01*
X-32999Y65623D01*
X-33012Y65731D01*
X-33016Y65767D01*
X-33087Y66053D01*
X-33113Y66270D01*
X-33130Y66414D01*
X-33175Y66483D01*
X-33183Y66555D01*
X-33024Y66758D01*
X-33026Y67088D01*
X-33065Y67413D01*
X-33108Y67775D01*
X-33183Y68097D01*
X-33254Y68382D01*
X-33316Y68595D01*
X-33369Y68735D01*
X-33378Y68808D01*
X-33521Y69084D01*
X-33656Y69289D01*
X-33709Y69429D01*
X-33750Y69461D01*
X-33748Y69755D01*
X-33737Y69976D01*
X-33723Y70161D01*
X-33731Y70234D01*
X-33657Y70536D01*
X-33579Y70803D01*
X-33560Y70952D01*
X-33532Y71029D01*
X-33351Y71050D01*
X-33408Y71521D01*
X-33450Y71882D01*
X-33472Y72063D01*
X-33481Y72136D01*
X-33388Y72587D01*
X-33277Y72894D01*
X-33226Y73084D01*
X-33199Y73160D01*
X-33225Y73378D01*
X-33229Y73414D01*
X-33233Y73450D01*
X-33070Y73616D01*
X-32897Y73710D01*
X-32833Y73791D01*
X-32797Y73796D01*
X-32634Y73962D01*
X-32538Y74084D01*
X-32474Y74164D01*
X-32442Y74205D01*
X-32193Y74271D01*
X-31936Y74265D01*
X-31674Y74223D01*
X-31444Y74140D01*
X-31286Y74049D01*
X-31128Y73958D01*
X-31047Y73894D01*
X-31007Y73862D01*
X-30602Y73543D01*
X-30269Y73216D01*
X-30147Y73120D01*
X-30026Y73024D01*
X-29981Y72956D01*
X-29941Y72924D01*
X-29904Y72929D01*
X-29828Y72901D01*
X-29634Y72814D01*
X-29404Y72731D01*
X-29363Y72699D01*
X-29327Y72704D01*
X-29097Y72621D01*
X-28971Y72489D01*
X-28886Y72389D01*
X-28881Y72353D01*
X-28779Y72108D01*
X-28681Y71900D01*
X-28663Y71755D01*
X-28655Y71683D01*
X-28644Y71280D01*
X-28705Y70869D01*
X-28756Y70679D01*
X-28815Y70562D01*
X-28838Y70449D01*
X-28834Y70413D01*
X-28613Y70403D01*
X-28464Y70384D01*
X-28387Y70356D01*
X-28351Y70361D01*
X-28071Y70174D01*
X-27837Y70055D01*
X-27675Y69927D01*
X-27598Y69899D01*
X-27362Y70074D01*
X-27158Y70209D01*
X-27022Y70299D01*
X-26954Y70343D01*
X-26881Y70352D01*
X-26768Y70329D01*
X-26624Y70346D01*
X-26443Y70367D01*
X-26330Y70344D01*
X-26221Y70357D01*
X-26185Y70362D01*
X-26176Y70289D01*
X-26123Y70149D01*
X-26074Y70044D01*
X-26065Y69972D01*
X-26193Y69810D01*
X-26288Y69688D01*
X-26375Y69494D01*
X-26435Y69377D01*
X-26430Y69341D01*
X-26386Y69273D01*
X-26341Y69205D01*
X-26175Y69041D01*
X-26017Y68950D01*
X-25936Y68886D01*
X-25768Y69016D01*
X-25636Y69142D01*
X-25604Y69183D01*
X-25572Y69223D01*
X-25396Y69281D01*
X-25247Y69262D01*
X-25134Y69239D01*
X-25093Y69207D01*
X-24904Y69156D01*
X-24791Y69133D01*
X-24754Y69137D01*
X-24610Y69154D01*
X-24469Y69208D01*
X-24365Y69257D01*
X-24329Y69261D01*
X-24156Y69355D01*
X-24052Y69404D01*
X-24016Y69408D01*
X-23658Y69488D01*
X-23292Y69494D01*
X-23111Y69516D01*
X-22962Y69497D01*
X-22889Y69506D01*
X-22853Y69510D01*
X-22455Y69557D01*
X-22134Y69632D01*
X-21957Y69690D01*
X-21889Y69735D01*
X-21725Y69901D01*
X-21593Y70027D01*
X-21434Y70230D01*
X-21379Y70383D01*
X-21347Y70424D01*
X-21206Y70477D01*
X-21102Y70526D01*
X-21034Y70571D01*
X-20998Y70575D01*
X-21015Y70720D01*
X-21032Y70865D01*
X-21041Y70937D01*
X-21045Y70973D01*
X-20837Y71072D01*
X-20764Y71080D01*
X-20728Y71084D01*
X-20714Y71270D01*
X-20727Y71378D01*
X-20695Y71419D01*
X-20699Y71455D01*
X-20418Y71562D01*
X-20205Y71624D01*
X-20060Y71641D01*
X-20024Y71645D01*
X-19978Y71871D01*
X-19665Y72019D01*
X-19460Y72153D01*
X-19356Y72202D01*
X-19324Y72243D01*
X-19305Y72392D01*
X-19278Y72469D01*
X-19250Y72545D01*
X-19385Y72749D01*
X-19474Y72886D01*
X-19560Y72986D01*
X-19600Y73017D01*
X-19765Y73475D01*
X-19921Y73860D01*
X-19996Y74182D01*
X-20026Y74435D01*
X-20052Y74652D01*
X-20069Y74797D01*
X-20041Y74874D01*
X-20046Y74910D01*
X-19886Y75112D01*
X-19854Y75153D01*
X-19963Y75140D01*
X-20044Y75204D01*
X-20166Y75299D01*
X-20283Y75359D01*
X-20323Y75391D01*
X-20521Y75514D01*
X-20634Y75537D01*
X-20711Y75565D01*
X-20747Y75560D01*
X-20815Y75516D01*
X-20843Y75439D01*
X-20830Y75330D01*
X-20826Y75294D01*
X-20727Y75086D01*
X-20597Y74918D01*
X-20548Y74813D01*
X-20508Y74782D01*
X-20471Y74786D01*
X-20467Y74750D01*
X-20418Y74645D01*
X-20369Y74541D01*
X-20365Y74505D01*
X-20360Y74469D01*
X-20496Y74379D01*
X-20601Y74330D01*
X-20669Y74285D01*
X-20701Y74245D01*
X-20696Y74208D01*
X-20732Y74204D01*
X-20841Y74191D01*
X-20954Y74214D01*
X-21026Y74206D01*
X-21125Y74414D01*
X-21218Y74587D01*
X-21272Y74727D01*
X-21313Y74759D01*
X-21419Y75040D01*
X-21481Y75253D01*
X-21458Y75366D01*
X-21462Y75402D01*
X-21245Y75428D01*
X-21226Y75577D01*
X-21239Y75686D01*
X-21207Y75726D01*
X-21212Y75762D01*
X-21397Y75777D01*
X-21510Y75800D01*
X-21582Y75792D01*
X-21618Y75787D01*
X-21717Y75996D01*
X-21725Y76068D01*
X-21730Y76104D01*
X-21892Y76232D01*
X-22049Y76323D01*
X-22433Y76461D01*
X-22622Y76512D01*
X-22735Y76535D01*
X-22848Y76559D01*
X-22884Y76554D01*
X-22919Y76844D01*
X-22945Y77061D01*
X-22992Y77459D01*
X-23027Y77749D01*
X-23048Y77930D01*
X-23061Y78038D01*
X-23065Y78074D01*
X-23070Y78110D01*
X-22983Y78304D01*
X-22896Y78498D01*
X-22868Y78575D01*
X-22836Y78615D01*
X-22847Y79018D01*
X-22850Y79348D01*
X-22840Y79570D01*
X-22844Y79606D01*
X-22848Y79642D01*
X-22815Y79976D01*
X-22696Y80211D01*
X-22604Y80368D01*
X-22536Y80413D01*
X-22319Y80439D01*
X-22283Y80443D01*
X-22247Y80448D01*
X-22155Y80605D01*
X-22064Y80763D01*
X-22036Y80840D01*
X-22005Y80880D01*
X-21764Y81019D01*
X-21487Y81162D01*
X-20953Y81299D01*
X-20740Y81361D01*
X-20559Y81383D01*
X-20451Y81396D01*
X-20414Y81400D01*
X-20112Y81326D01*
X-19882Y81243D01*
X-19729Y81188D01*
X-19688Y81156D01*
X-19435Y81186D01*
X-19262Y81280D01*
X-19122Y81334D01*
X-19054Y81378D01*
X-18849Y81513D01*
X-18637Y81575D01*
X-18496Y81628D01*
X-18460Y81633D01*
X-18032Y81427D01*
D02*
G37*
G36*
X-25495Y70113D02*
X-25454Y70081D01*
X-25450Y70045D01*
X-25514Y69964D01*
X-25627Y69987D01*
X-25699Y69979D01*
X-25739Y70011D01*
X-25676Y70092D01*
X-25644Y70132D01*
X-25535Y70145D01*
X-25495Y70113D01*
D02*
G37*
G36*
X-19907Y57711D02*
X-19722Y57696D01*
X-19649Y57705D01*
X-19492Y57613D01*
X-19374Y57554D01*
X-19334Y57522D01*
X-19198Y57612D01*
X-19166Y57652D01*
X-19144Y57471D01*
X-18891Y57501D01*
X-18746Y57519D01*
X-18638Y57531D01*
X-18601Y57536D01*
X-18295Y57425D01*
X-17984Y57279D01*
X-17781Y57120D01*
X-17740Y57088D01*
X-17700Y57056D01*
X-17491Y57154D01*
X-17459Y57194D01*
X-17423Y57199D01*
X-17104Y56980D01*
X-16865Y56825D01*
X-16739Y56693D01*
X-16699Y56661D01*
X-16509Y56610D01*
X-16279Y56527D01*
X-16057Y56517D01*
X-16017Y56485D01*
X-15981Y56489D01*
X-15642Y56420D01*
X-15412Y56337D01*
X-15295Y56278D01*
X-15254Y56246D01*
X-15092Y56118D01*
X-14994Y55910D01*
X-14896Y55701D01*
X-14855Y55669D01*
X-14851Y55633D01*
X-14757Y55461D01*
X-14704Y55320D01*
X-14573Y55152D01*
X-14529Y55084D01*
X-14488Y55052D01*
X-14335Y54997D01*
X-14181Y54942D01*
X-14032Y54923D01*
X-13992Y54891D01*
X-13766Y54844D01*
X-13608Y54753D01*
X-13527Y54689D01*
X-13487Y54657D01*
X-13465Y54476D01*
X-13461Y54440D01*
X-13457Y54404D01*
X-13299Y54313D01*
X-13218Y54249D01*
X-13137Y54185D01*
X-13101Y54189D01*
X-13043Y54013D01*
X-13017Y53796D01*
X-12959Y53619D01*
X-12955Y53583D01*
X-12951Y53547D01*
X-12893Y53370D01*
X-12840Y53229D01*
X-12790Y53125D01*
X-12786Y53089D01*
X-12705Y53025D01*
X-12543Y52898D01*
X-12385Y52806D01*
X-12304Y52742D01*
X-12142Y52615D01*
X-12021Y52519D01*
X-11846Y52283D01*
X-11756Y52147D01*
X-11748Y52075D01*
X-11794Y51849D01*
X-11845Y51659D01*
X-11924Y51393D01*
X-11979Y51240D01*
X-12010Y51199D01*
X-11823Y50854D01*
X-11680Y50578D01*
X-11586Y50405D01*
X-11541Y50337D01*
X-11494Y49939D01*
X-11459Y49650D01*
X-11437Y49469D01*
X-11429Y49396D01*
X-11390Y49071D01*
X-11356Y48781D01*
X-11330Y48564D01*
X-11304Y48347D01*
X-11265Y48021D01*
X-11239Y47804D01*
X-11222Y47659D01*
X-11213Y47587D01*
X-11209Y47550D01*
X-11202Y47184D01*
X-11236Y46850D01*
X-11242Y46592D01*
X-11284Y46330D01*
X-11331Y46104D01*
X-11386Y45951D01*
X-11413Y45874D01*
X-11409Y45838D01*
X-11592Y45523D01*
X-11751Y45320D01*
X-11842Y45162D01*
X-11874Y45122D01*
X-11889Y44937D01*
X-11908Y44787D01*
X-11895Y44679D01*
X-11891Y44643D01*
X-12186Y44351D01*
X-12386Y44180D01*
X-12559Y44086D01*
X-12591Y44045D01*
X-12637Y43820D01*
X-12656Y43671D01*
X-12684Y43594D01*
X-12679Y43558D01*
X-12952Y43378D01*
X-13224Y43199D01*
X-13432Y43101D01*
X-13605Y43007D01*
X-13777Y42913D01*
X-13881Y42864D01*
X-13913Y42823D01*
X-13950Y42819D01*
X-13928Y42638D01*
X-14000Y42630D01*
X-14274Y42156D01*
X-14561Y41792D01*
X-14693Y41666D01*
X-14793Y41581D01*
X-14857Y41500D01*
X-14893Y41495D01*
X-15170Y41352D01*
X-15378Y41254D01*
X-15587Y41156D01*
X-15764Y41098D01*
X-15868Y41049D01*
X-15972Y41000D01*
X-16008Y40996D01*
X-16045Y40991D01*
X-16330Y40921D01*
X-16587Y40927D01*
X-16805Y40901D01*
X-16949Y40884D01*
X-16985Y40879D01*
X-17068Y40649D01*
X-17304Y40474D01*
X-17509Y40340D01*
X-17894Y40184D01*
X-18070Y40126D01*
X-18175Y40077D01*
X-18247Y40069D01*
X-18283Y40064D01*
X-18505Y40075D01*
X-18694Y40125D01*
X-18848Y40181D01*
X-18925Y40208D01*
X-19123Y40331D01*
X-19236Y40355D01*
X-19312Y40382D01*
X-19349Y40378D01*
X-19385Y40374D01*
X-19493Y40361D01*
X-19706Y40299D01*
X-19883Y40241D01*
X-19955Y40232D01*
X-19991Y40228D01*
X-20141Y40247D01*
X-20285Y40230D01*
X-20398Y40253D01*
X-20470Y40244D01*
X-20647Y40187D01*
X-20679Y40146D01*
X-20715Y40142D01*
X-20977Y40184D01*
X-21199Y40194D01*
X-21352Y40249D01*
X-21425Y40241D01*
X-21891Y40149D01*
X-22212Y40074D01*
X-22425Y40012D01*
X-22497Y40003D01*
X-22845Y40145D01*
X-23147Y40219D01*
X-23301Y40274D01*
X-23377Y40302D01*
X-23626Y40236D01*
X-23875Y40169D01*
X-24052Y40112D01*
X-24193Y40058D01*
X-24369Y40000D01*
X-24442Y39992D01*
X-25010Y40144D01*
X-25539Y40265D01*
X-25954Y40362D01*
X-26301Y40505D01*
X-26568Y40583D01*
X-26761Y40670D01*
X-26874Y40693D01*
X-26915Y40725D01*
X-27326Y40786D01*
X-27588Y40828D01*
X-27777Y40879D01*
X-27850Y40871D01*
X-28155Y41275D01*
X-28370Y41543D01*
X-28469Y41752D01*
X-28514Y41820D01*
X-28788Y41970D01*
X-29027Y42125D01*
X-29180Y42181D01*
X-29221Y42213D01*
X-29400Y42485D01*
X-29539Y42725D01*
X-29642Y42970D01*
X-29735Y43142D01*
X-29789Y43283D01*
X-29802Y43391D01*
X-29842Y43423D01*
X-29847Y43459D01*
X-30013Y43623D01*
X-30134Y43719D01*
X-30211Y43747D01*
X-30252Y43778D01*
X-30282Y44032D01*
X-30308Y44249D01*
X-30325Y44394D01*
X-30329Y44430D01*
X-30477Y44743D01*
X-30620Y45019D01*
X-30758Y45260D01*
X-30857Y45468D01*
X-30950Y45641D01*
X-31000Y45745D01*
X-31045Y45813D01*
X-31049Y45849D01*
X-31057Y45922D01*
X-31075Y46066D01*
X-31060Y46252D01*
X-31050Y46473D01*
X-31069Y46948D01*
X-31062Y47499D01*
X-31054Y48051D01*
X-31069Y48490D01*
X-31055Y48675D01*
X-31036Y48824D01*
X-31045Y48896D01*
X-31049Y48933D01*
X-31070Y49114D01*
X-31092Y49295D01*
X-31100Y49367D01*
X-31105Y49403D01*
X-31018Y49597D01*
X-30967Y49787D01*
X-30903Y49868D01*
X-30907Y49904D01*
X-30901Y50161D01*
X-30891Y50383D01*
X-30872Y50532D01*
X-30876Y50568D01*
X-30704Y50662D01*
X-30566Y51046D01*
X-30492Y51348D01*
X-30473Y51497D01*
X-30441Y51538D01*
X-30493Y51972D01*
X-30532Y52298D01*
X-30553Y52479D01*
X-30562Y52551D01*
X-30362Y52722D01*
X-30294Y52767D01*
X-30258Y52771D01*
X-30220Y53069D01*
X-30209Y53291D01*
X-30186Y53404D01*
X-30191Y53440D01*
X-29982Y53538D01*
X-29950Y53578D01*
X-29914Y53583D01*
X-29822Y53741D01*
X-29799Y53853D01*
X-29772Y53930D01*
X-29776Y53966D01*
X-29599Y54024D01*
X-29495Y54073D01*
X-29463Y54114D01*
X-29427Y54118D01*
X-29444Y54263D01*
X-29304Y54316D01*
X-29199Y54365D01*
X-29168Y54406D01*
X-28989Y54757D01*
X-28870Y54992D01*
X-28819Y55181D01*
X-28787Y55222D01*
X-28343Y55495D01*
X-27998Y55683D01*
X-27790Y55781D01*
X-27717Y55790D01*
X-27653Y55871D01*
X-27522Y55997D01*
X-27394Y56159D01*
X-27326Y56203D01*
X-27130Y56410D01*
X-26958Y56504D01*
X-26854Y56553D01*
X-26818Y56558D01*
X-26524Y56556D01*
X-26262Y56514D01*
X-25995Y56435D01*
X-25955Y56403D01*
X-25919Y56408D01*
X-25503Y56310D01*
X-25205Y56272D01*
X-25060Y56290D01*
X-24988Y56298D01*
X-24760Y56546D01*
X-24637Y56744D01*
X-24578Y56861D01*
X-24582Y56897D01*
X-24478Y56946D01*
X-24365Y56923D01*
X-24252Y56900D01*
X-24212Y56868D01*
X-23858Y56983D01*
X-23573Y57054D01*
X-23401Y57148D01*
X-23328Y57156D01*
X-23220Y57170D01*
X-23034Y57155D01*
X-22885Y57136D01*
X-22808Y57108D01*
X-22510Y57070D01*
X-22257Y57100D01*
X-22112Y57118D01*
X-22076Y57122D01*
X-21917Y57325D01*
X-21889Y57401D01*
X-21857Y57442D01*
X-21612Y57544D01*
X-21291Y57619D01*
X-20527Y57674D01*
X-20201Y57712D01*
X-19907Y57711D01*
D02*
G37*
G36*
X6797Y36406D02*
X6878Y36342D01*
X6923Y36274D01*
X6928Y36238D01*
X6887Y36270D01*
X6806Y36334D01*
X6761Y36402D01*
X6721Y36434D01*
X6797Y36406D01*
D02*
G37*
%LPC*%
G36*
X7406Y35614D02*
X7408Y35598D01*
X7444Y35602D01*
X7450Y35609D01*
X7406Y35614D01*
D02*
G37*
G36*
X-11034Y-31313D02*
X-11287Y-31343D01*
X-11468Y-31365D01*
X-11649Y-31386D01*
X-11758Y-31399D01*
X-11794Y-31403D01*
X-11830Y-31408D01*
X-11868Y-31706D01*
X-11883Y-31891D01*
X-11866Y-32036D01*
X-11861Y-32072D01*
X-11966Y-32121D01*
X-12002Y-32126D01*
X-12034Y-32166D01*
X-12255Y-32156D01*
X-12441Y-32141D01*
X-12590Y-32122D01*
X-12626Y-32127D01*
X-12784Y-32035D01*
X-12905Y-31940D01*
X-12990Y-31839D01*
X-12995Y-31803D01*
X-13016Y-31622D01*
X-13029Y-31514D01*
X-13033Y-31478D01*
X-13038Y-31441D01*
X-13155Y-31382D01*
X-13195Y-31350D01*
X-13268Y-31359D01*
X-13327Y-31476D01*
X-13387Y-31593D01*
X-13419Y-31634D01*
X-13414Y-31670D01*
X-13704Y-31704D01*
X-13921Y-31730D01*
X-14102Y-31752D01*
X-14211Y-31765D01*
X-14283Y-31773D01*
X-14319Y-31778D01*
X-14542Y-32061D01*
X-14666Y-32259D01*
X-14757Y-32417D01*
X-14785Y-32494D01*
X-14925Y-32547D01*
X-15106Y-32569D01*
X-15219Y-32545D01*
X-15291Y-32554D01*
X-15477Y-32539D01*
X-15626Y-32520D01*
X-15698Y-32529D01*
X-15802Y-32578D01*
X-15870Y-32623D01*
X-15902Y-32663D01*
X-15898Y-32700D01*
X-16079Y-32721D01*
X-16151Y-32730D01*
X-16187Y-32734D01*
X-16325Y-33117D01*
X-16431Y-33461D01*
X-16519Y-33654D01*
X-16550Y-33695D01*
X-16546Y-33731D01*
X-16842Y-34023D01*
X-17037Y-34230D01*
X-17173Y-34320D01*
X-17205Y-34360D01*
X-16985Y-34664D01*
X-16851Y-34869D01*
X-16798Y-35009D01*
X-16757Y-35041D01*
X-16759Y-35335D01*
X-16769Y-35556D01*
X-16793Y-35669D01*
X-16788Y-35705D01*
X-16592Y-36123D01*
X-16440Y-36472D01*
X-16293Y-36784D01*
X-16154Y-37025D01*
X-16019Y-37229D01*
X-15966Y-37369D01*
X-15885Y-37433D01*
X-15881Y-37470D01*
X-15814Y-37718D01*
X-15793Y-37900D01*
X-15744Y-38004D01*
X-15739Y-38040D01*
X-15522Y-38014D01*
X-15486Y-38010D01*
X-15450Y-38006D01*
X-15283Y-38169D01*
X-15077Y-38365D01*
X-14910Y-38529D01*
X-14834Y-38556D01*
X-14829Y-38592D01*
X-14767Y-38805D01*
X-14737Y-39059D01*
X-14748Y-39280D01*
X-14739Y-39352D01*
X-14735Y-39389D01*
X-14692Y-39751D01*
X-14629Y-39963D01*
X-14576Y-40104D01*
X-14536Y-40136D01*
X-13999Y-40329D01*
X-13575Y-40499D01*
X-13421Y-40554D01*
X-13304Y-40613D01*
X-13227Y-40641D01*
X-13191Y-40637D01*
X-13106Y-40736D01*
X-13016Y-40873D01*
X-12967Y-40977D01*
X-12922Y-41045D01*
X-12752Y-41245D01*
X-12630Y-41341D01*
X-12549Y-41404D01*
X-12513Y-41400D01*
X-12291Y-41410D01*
X-12006Y-41340D01*
X-11685Y-41265D01*
X-11336Y-41113D01*
X-11019Y-41002D01*
X-10774Y-40899D01*
X-10597Y-40842D01*
X-10529Y-40797D01*
X-10358Y-40997D01*
X-10237Y-41092D01*
X-10156Y-41156D01*
X-10115Y-41188D01*
X-9952Y-41022D01*
X-9856Y-40900D01*
X-9828Y-40824D01*
X-9797Y-40783D01*
X-9760Y-40779D01*
X-9688Y-40770D01*
X-9471Y-40744D01*
X-9290Y-40723D01*
X-9254Y-40718D01*
X-9217Y-40714D01*
X-8896Y-40639D01*
X-8719Y-40581D01*
X-8615Y-40532D01*
X-8583Y-40492D01*
X-8488Y-40370D01*
X-8428Y-40253D01*
X-8360Y-40208D01*
X-8364Y-40172D01*
X-8292Y-40163D01*
X-8183Y-40150D01*
X-8039Y-40133D01*
X-8002Y-40129D01*
X-7781Y-40139D01*
X-7636Y-40122D01*
X-7568Y-40077D01*
X-7532Y-40073D01*
X-7517Y-39888D01*
X-7498Y-39739D01*
X-7511Y-39630D01*
X-7515Y-39594D01*
X-7360Y-39355D01*
X-7201Y-39153D01*
X-6978Y-38869D01*
X-6814Y-38703D01*
X-6782Y-38662D01*
X-6565Y-38636D01*
X-6582Y-38491D01*
X-6600Y-38347D01*
X-6608Y-38274D01*
X-6612Y-38238D01*
X-6443Y-37814D01*
X-6296Y-37503D01*
X-6169Y-37341D01*
X-6141Y-37264D01*
X-6131Y-37043D01*
X-6116Y-36858D01*
X-6129Y-36749D01*
X-6133Y-36713D01*
X-6213Y-36355D01*
X-6292Y-35998D01*
X-6345Y-35857D01*
X-6394Y-35753D01*
X-6439Y-35685D01*
X-6443Y-35649D01*
X-6510Y-35399D01*
X-6568Y-35223D01*
X-6625Y-35046D01*
X-6638Y-34938D01*
X-6696Y-34761D01*
X-6700Y-34725D01*
X-6686Y-34539D01*
X-6699Y-34431D01*
X-6671Y-34354D01*
X-6426Y-34252D01*
X-6182Y-34149D01*
X-6009Y-34055D01*
X-5869Y-34002D01*
X-5692Y-33944D01*
X-5620Y-33935D01*
X-5831Y-33704D01*
X-5961Y-33536D01*
X-6046Y-33435D01*
X-6050Y-33399D01*
X-6276Y-33353D01*
X-6353Y-33325D01*
X-6389Y-33329D01*
X-6492Y-33085D01*
X-6586Y-32912D01*
X-6697Y-32595D01*
X-6750Y-32455D01*
X-6759Y-32382D01*
X-6993Y-32263D01*
X-7183Y-32213D01*
X-7300Y-32153D01*
X-7336Y-32157D01*
X-7466Y-31989D01*
X-7520Y-31849D01*
X-7605Y-31749D01*
X-7609Y-31713D01*
X-7650Y-31681D01*
X-7763Y-31658D01*
X-7989Y-31611D01*
X-8174Y-31596D01*
X-8251Y-31569D01*
X-8287Y-31573D01*
X-8472Y-31559D01*
X-8621Y-31540D01*
X-8811Y-31489D01*
X-8883Y-31497D01*
X-8919Y-31502D01*
X-9024Y-31551D01*
X-9128Y-31600D01*
X-9264Y-31690D01*
X-9296Y-31730D01*
X-9500Y-31865D01*
X-9717Y-31890D01*
X-9862Y-31908D01*
X-9898Y-31912D01*
X-10109Y-31680D01*
X-10280Y-31480D01*
X-10406Y-31348D01*
X-10446Y-31316D01*
X-10776Y-31319D01*
X-11034Y-31313D01*
D02*
G37*
G36*
X-21061Y52911D02*
X-21314Y52881D01*
X-21495Y52860D01*
X-21676Y52838D01*
X-21785Y52825D01*
X-21821Y52821D01*
X-21857Y52817D01*
X-21895Y52518D01*
X-21910Y52333D01*
X-21892Y52188D01*
X-21888Y52152D01*
X-21992Y52103D01*
X-22029Y52099D01*
X-22061Y52058D01*
X-22282Y52069D01*
X-22467Y52083D01*
X-22616Y52102D01*
X-22652Y52098D01*
X-22810Y52189D01*
X-22932Y52285D01*
X-23017Y52385D01*
X-23021Y52421D01*
X-23043Y52602D01*
X-23056Y52711D01*
X-23060Y52747D01*
X-23065Y52783D01*
X-23182Y52842D01*
X-23222Y52874D01*
X-23295Y52866D01*
X-23354Y52749D01*
X-23414Y52631D01*
X-23445Y52591D01*
X-23441Y52555D01*
X-23731Y52520D01*
X-23948Y52494D01*
X-24129Y52473D01*
X-24237Y52460D01*
X-24310Y52451D01*
X-24346Y52447D01*
X-24569Y52163D01*
X-24692Y51965D01*
X-24784Y51807D01*
X-24811Y51731D01*
X-24952Y51677D01*
X-25133Y51656D01*
X-25246Y51679D01*
X-25318Y51670D01*
X-25503Y51685D01*
X-25652Y51704D01*
X-25725Y51696D01*
X-25829Y51646D01*
X-25897Y51601D01*
X-25929Y51561D01*
X-25925Y51525D01*
X-26106Y51503D01*
X-26178Y51495D01*
X-26214Y51490D01*
X-26352Y51107D01*
X-26458Y50764D01*
X-26545Y50570D01*
X-26577Y50529D01*
X-26573Y50493D01*
X-26868Y50201D01*
X-27064Y49994D01*
X-27200Y49905D01*
X-27232Y49864D01*
X-27012Y49560D01*
X-26878Y49356D01*
X-26824Y49215D01*
X-26784Y49183D01*
X-26786Y48890D01*
X-26796Y48668D01*
X-26819Y48555D01*
X-26815Y48519D01*
X-26618Y48102D01*
X-26467Y47753D01*
X-26319Y47440D01*
X-26181Y47200D01*
X-26046Y46995D01*
X-25993Y46855D01*
X-25912Y46791D01*
X-25907Y46755D01*
X-25841Y46506D01*
X-25820Y46325D01*
X-25770Y46221D01*
X-25766Y46184D01*
X-25549Y46210D01*
X-25513Y46215D01*
X-25477Y46219D01*
X-25310Y46055D01*
X-25103Y45860D01*
X-24937Y45696D01*
X-24860Y45668D01*
X-24856Y45632D01*
X-24794Y45419D01*
X-24764Y45166D01*
X-24774Y44944D01*
X-24766Y44872D01*
X-24761Y44836D01*
X-24718Y44474D01*
X-24656Y44261D01*
X-24603Y44120D01*
X-24562Y44089D01*
X-24025Y43896D01*
X-23601Y43726D01*
X-23448Y43671D01*
X-23331Y43611D01*
X-23254Y43584D01*
X-23218Y43588D01*
X-23133Y43488D01*
X-23043Y43352D01*
X-22994Y43248D01*
X-22949Y43180D01*
X-22778Y42979D01*
X-22657Y42884D01*
X-22576Y42820D01*
X-22540Y42824D01*
X-22318Y42814D01*
X-22033Y42885D01*
X-21711Y42960D01*
X-21362Y43111D01*
X-21045Y43222D01*
X-20801Y43325D01*
X-20624Y43383D01*
X-20556Y43428D01*
X-20385Y43228D01*
X-20264Y43132D01*
X-20183Y43068D01*
X-20142Y43036D01*
X-19978Y43203D01*
X-19883Y43324D01*
X-19855Y43401D01*
X-19823Y43441D01*
X-19787Y43446D01*
X-19715Y43454D01*
X-19498Y43480D01*
X-19317Y43502D01*
X-19280Y43506D01*
X-19244Y43510D01*
X-18923Y43585D01*
X-18746Y43643D01*
X-18642Y43692D01*
X-18610Y43733D01*
X-18514Y43854D01*
X-18455Y43971D01*
X-18387Y44016D01*
X-18391Y44052D01*
X-18319Y44061D01*
X-18210Y44074D01*
X-18065Y44091D01*
X-18029Y44096D01*
X-17808Y44085D01*
X-17663Y44102D01*
X-17595Y44147D01*
X-17559Y44151D01*
X-17544Y44337D01*
X-17525Y44486D01*
X-17538Y44594D01*
X-17542Y44631D01*
X-17387Y44869D01*
X-17228Y45072D01*
X-17005Y45355D01*
X-16841Y45522D01*
X-16809Y45562D01*
X-16592Y45588D01*
X-16609Y45733D01*
X-16626Y45878D01*
X-16635Y45950D01*
X-16639Y45986D01*
X-16469Y46410D01*
X-16323Y46721D01*
X-16195Y46883D01*
X-16168Y46960D01*
X-16157Y47181D01*
X-16143Y47367D01*
X-16156Y47475D01*
X-16160Y47512D01*
X-16239Y47869D01*
X-16319Y48227D01*
X-16372Y48367D01*
X-16421Y48472D01*
X-16466Y48540D01*
X-16470Y48576D01*
X-16536Y48825D01*
X-16594Y49002D01*
X-16652Y49178D01*
X-16665Y49287D01*
X-16723Y49463D01*
X-16727Y49500D01*
X-16712Y49685D01*
X-16725Y49793D01*
X-16698Y49870D01*
X-16453Y49973D01*
X-16208Y50075D01*
X-16036Y50169D01*
X-15895Y50223D01*
X-15719Y50280D01*
X-15646Y50289D01*
X-15857Y50521D01*
X-15988Y50689D01*
X-16073Y50789D01*
X-16077Y50825D01*
X-16303Y50872D01*
X-16380Y50899D01*
X-16416Y50895D01*
X-16519Y51140D01*
X-16612Y51312D01*
X-16724Y51629D01*
X-16777Y51770D01*
X-16786Y51842D01*
X-17020Y51961D01*
X-17210Y52012D01*
X-17327Y52071D01*
X-17363Y52067D01*
X-17493Y52235D01*
X-17547Y52375D01*
X-17632Y52475D01*
X-17636Y52512D01*
X-17677Y52543D01*
X-17790Y52567D01*
X-18015Y52613D01*
X-18201Y52628D01*
X-18277Y52656D01*
X-18314Y52651D01*
X-18499Y52666D01*
X-18648Y52685D01*
X-18837Y52736D01*
X-18910Y52727D01*
X-18946Y52723D01*
X-19050Y52674D01*
X-19155Y52624D01*
X-19291Y52535D01*
X-19323Y52494D01*
X-19527Y52360D01*
X-19744Y52334D01*
X-19889Y52317D01*
X-19925Y52312D01*
X-20136Y52544D01*
X-20307Y52744D01*
X-20433Y52876D01*
X-20473Y52908D01*
X-20803Y52905D01*
X-21061Y52911D01*
D02*
G37*
G36*
X-12142Y-52221D02*
X-12215Y-52230D01*
X-12287Y-52239D01*
X-12319Y-52279D01*
X-12355Y-52283D01*
X-12451Y-52405D01*
X-12483Y-52445D01*
X-12836Y-52561D01*
X-13090Y-52591D01*
X-13270Y-52613D01*
X-13307Y-52617D01*
X-13469Y-52489D01*
X-13590Y-52394D01*
X-13671Y-52330D01*
X-13712Y-52298D01*
X-13929Y-52324D01*
X-13965Y-52328D01*
X-14001Y-52333D01*
X-14252Y-52693D01*
X-14507Y-53017D01*
X-14662Y-53255D01*
X-14694Y-53296D01*
X-14726Y-53336D01*
X-15022Y-53629D01*
X-15358Y-53889D01*
X-15494Y-53978D01*
X-15594Y-54064D01*
X-15662Y-54109D01*
X-15698Y-54113D01*
X-15564Y-54317D01*
X-15474Y-54453D01*
X-15429Y-54521D01*
X-15425Y-54558D01*
X-15227Y-54681D01*
X-15033Y-54768D01*
X-14956Y-54795D01*
X-14920Y-54791D01*
X-14822Y-55000D01*
X-14813Y-55072D01*
X-14809Y-55108D01*
X-14823Y-55294D01*
X-14834Y-55515D01*
X-14848Y-55700D01*
X-14880Y-55741D01*
X-14876Y-55777D01*
X-14882Y-56035D01*
X-14892Y-56256D01*
X-14843Y-56360D01*
X-14839Y-56397D01*
X-14604Y-56516D01*
X-14564Y-56547D01*
X-14528Y-56543D01*
X-14272Y-56843D01*
X-14048Y-57183D01*
X-13958Y-57319D01*
X-13869Y-57456D01*
X-13824Y-57524D01*
X-13819Y-57560D01*
X-13815Y-57596D01*
X-13811Y-57632D01*
X-13785Y-57850D01*
X-13763Y-58030D01*
X-13755Y-58103D01*
X-13750Y-58139D01*
X-13412Y-58209D01*
X-13182Y-58292D01*
X-13033Y-58311D01*
X-12992Y-58342D01*
X-13009Y-58198D01*
X-13018Y-58125D01*
X-13035Y-57981D01*
X-13039Y-57944D01*
X-12886Y-57999D01*
X-12846Y-58031D01*
X-12752Y-58204D01*
X-12662Y-58340D01*
X-12613Y-58444D01*
X-12609Y-58480D01*
X-12572Y-58476D01*
X-12500Y-58467D01*
X-12279Y-58478D01*
X-12057Y-58488D01*
X-11985Y-58479D01*
X-11948Y-58475D01*
X-11940Y-58548D01*
X-11899Y-58579D01*
X-11718Y-58558D01*
X-11574Y-58541D01*
X-11537Y-58536D01*
X-11501Y-58532D01*
X-11365Y-58442D01*
X-11297Y-58398D01*
X-11225Y-58389D01*
X-11188Y-58385D01*
X-11210Y-58204D01*
X-11219Y-58131D01*
X-11340Y-58036D01*
X-11453Y-58012D01*
X-11530Y-57985D01*
X-11566Y-57989D01*
X-11560Y-57731D01*
X-11545Y-57546D01*
X-11567Y-57365D01*
X-11543Y-57252D01*
X-11565Y-57071D01*
X-11569Y-57035D01*
X-11184Y-56879D01*
X-10880Y-56659D01*
X-10676Y-56525D01*
X-10648Y-56448D01*
X-10612Y-56444D01*
X-10691Y-56086D01*
X-10798Y-55805D01*
X-10901Y-55561D01*
X-10994Y-55388D01*
X-11084Y-55252D01*
X-11169Y-55152D01*
X-11214Y-55084D01*
X-11436Y-55074D01*
X-11476Y-55042D01*
X-11512Y-55046D01*
X-11538Y-54829D01*
X-11543Y-54793D01*
X-11547Y-54757D01*
X-11705Y-54665D01*
X-11858Y-54610D01*
X-11939Y-54546D01*
X-11975Y-54551D01*
X-12010Y-54261D01*
X-12036Y-54044D01*
X-12048Y-53935D01*
X-12053Y-53899D01*
X-11844Y-53801D01*
X-11704Y-53747D01*
X-11468Y-53573D01*
X-11368Y-53487D01*
X-11336Y-53447D01*
X-11191Y-53430D01*
X-11114Y-53457D01*
X-11038Y-53485D01*
X-11001Y-53480D01*
X-10765Y-53305D01*
X-10697Y-53261D01*
X-10661Y-53256D01*
X-10755Y-53084D01*
X-10845Y-52948D01*
X-10894Y-52843D01*
X-10934Y-52812D01*
X-11124Y-52761D01*
X-11269Y-52778D01*
X-11377Y-52791D01*
X-11413Y-52795D01*
X-11512Y-52587D01*
X-11516Y-52551D01*
X-11520Y-52514D01*
X-11705Y-52500D01*
X-11814Y-52513D01*
X-11886Y-52521D01*
X-11923Y-52526D01*
X-12048Y-52394D01*
X-12098Y-52289D01*
X-12138Y-52258D01*
X-12142Y-52221D01*
D02*
G37*
G36*
X12039Y32772D02*
X11568Y32716D01*
X11206Y32673D01*
X10849Y32594D01*
X10595Y32563D01*
X10378Y32537D01*
X10238Y32484D01*
X10165Y32475D01*
X10129Y32471D01*
X10246Y32412D01*
X10323Y32384D01*
X10395Y32393D01*
X10439Y32031D01*
X10469Y31777D01*
X10486Y31633D01*
X10490Y31596D01*
X10418Y31588D01*
X10309Y31575D01*
X10201Y31562D01*
X10128Y31553D01*
X9949Y31826D01*
X9819Y31994D01*
X9729Y32130D01*
X9644Y32230D01*
X9599Y32298D01*
X9595Y32334D01*
X9559Y32330D01*
X9527Y32289D01*
X9422Y32240D01*
X9354Y32195D01*
X9323Y32155D01*
X9150Y32061D01*
X9014Y31971D01*
X8873Y31918D01*
X8837Y31914D01*
X8692Y31896D01*
X8620Y31888D01*
X8548Y31879D01*
X8420Y31717D01*
X8365Y31564D01*
X8310Y31410D01*
X8319Y31338D01*
X8308Y31116D01*
X8325Y30972D01*
X8338Y30863D01*
X8311Y30786D01*
X8324Y30678D01*
X8250Y30375D01*
X8131Y30141D01*
X8039Y29983D01*
X8007Y29943D01*
X7835Y29849D01*
X7735Y29763D01*
X7667Y29719D01*
X7631Y29714D01*
X7678Y29316D01*
X7713Y29027D01*
X7734Y28846D01*
X7743Y28773D01*
X7552Y28530D01*
X7388Y28364D01*
X7252Y28274D01*
X7220Y28234D01*
X7197Y28121D01*
X7209Y28012D01*
X7253Y27650D01*
X7270Y27505D01*
X7287Y27361D01*
X7300Y27252D01*
X7304Y27216D01*
X7371Y26967D01*
X7437Y26718D01*
X7454Y26573D01*
X7508Y26433D01*
X7520Y26324D01*
X7565Y26256D01*
X7570Y26220D01*
X7732Y26092D01*
X7858Y25960D01*
X7938Y25897D01*
X7979Y25865D01*
X8113Y25660D01*
X8207Y25488D01*
X8257Y25384D01*
X8261Y25348D01*
X8495Y25229D01*
X8536Y25197D01*
X8576Y25165D01*
X8642Y24916D01*
X8673Y24663D01*
X8730Y24486D01*
X8748Y24341D01*
X8773Y24124D01*
X8782Y24052D01*
X9119Y23688D01*
X9407Y23428D01*
X9578Y23229D01*
X9654Y23201D01*
X9659Y23165D01*
X9759Y23250D01*
X9827Y23295D01*
X9899Y23304D01*
X9935Y23308D01*
X10084Y23289D01*
X10238Y23234D01*
X10391Y23179D01*
X10432Y23147D01*
X10663Y23358D01*
X10823Y23560D01*
X10882Y23677D01*
X10878Y23714D01*
X11086Y23812D01*
X11336Y23878D01*
X11553Y23904D01*
X11589Y23909D01*
X11625Y23913D01*
X11941Y23730D01*
X11945Y23694D01*
X11917Y23617D01*
X11885Y23577D01*
X11853Y23536D01*
X11790Y23455D01*
X11758Y23415D01*
X11816Y23238D01*
X11824Y23166D01*
X11829Y23130D01*
X11922Y22957D01*
X11931Y22885D01*
X11935Y22849D01*
X12080Y22866D01*
X12152Y22874D01*
X12297Y22892D01*
X12333Y22896D01*
X12457Y23094D01*
X12552Y23216D01*
X12616Y23297D01*
X12652Y23301D01*
X12635Y23446D01*
X12622Y23554D01*
X12618Y23591D01*
X12614Y23627D01*
X12447Y23790D01*
X12403Y23858D01*
X12366Y23854D01*
X12285Y23918D01*
X12240Y23986D01*
X12268Y24063D01*
X12296Y24139D01*
X12323Y24216D01*
X12319Y24252D01*
X12474Y24491D01*
X12502Y24568D01*
X12497Y24604D01*
X12678Y24625D01*
X12787Y24638D01*
X12859Y24647D01*
X12895Y24651D01*
X12917Y24470D01*
X12938Y24289D01*
X12956Y24145D01*
X12960Y24108D01*
X12932Y24032D01*
X12837Y23910D01*
X12741Y23789D01*
X12713Y23712D01*
X12984Y23597D01*
X13250Y23519D01*
X13549Y23481D01*
X13770Y23471D01*
X13992Y23460D01*
X14173Y23482D01*
X14281Y23495D01*
X14317Y23499D01*
X14283Y23789D01*
X14261Y23970D01*
X14248Y24078D01*
X14244Y24114D01*
X14423Y23842D01*
X14553Y23674D01*
X14643Y23538D01*
X14684Y23506D01*
X14647Y23502D01*
X14688Y23470D01*
X14801Y23447D01*
X14914Y23423D01*
X14986Y23432D01*
X15082Y23553D01*
X15114Y23594D01*
X15150Y23598D01*
X15133Y23743D01*
X15124Y23815D01*
X15107Y23960D01*
X15102Y23996D01*
X15198Y24118D01*
X15262Y24199D01*
X15330Y24244D01*
X15682Y24065D01*
X15875Y23978D01*
X15988Y23955D01*
X16025Y23959D01*
X16129Y24009D01*
X16197Y24053D01*
X16284Y24247D01*
X16303Y24396D01*
X16298Y24432D01*
X16294Y24469D01*
X16245Y24573D01*
X16196Y24677D01*
X16142Y24818D01*
X16102Y24850D01*
X16036Y25099D01*
X15978Y25275D01*
X15997Y25424D01*
X15988Y25497D01*
X16016Y25573D01*
X16039Y25686D01*
X16062Y25799D01*
X16094Y25840D01*
X16145Y26029D01*
X16200Y26183D01*
X16192Y26255D01*
X16187Y26291D01*
X16179Y26364D01*
X16134Y26432D01*
X16085Y26536D01*
X16044Y26568D01*
X15950Y26740D01*
X15937Y26849D01*
X15929Y26921D01*
X16110Y26943D01*
X16120Y27164D01*
X16103Y27309D01*
X16130Y27386D01*
X16126Y27422D01*
X16092Y27711D01*
X15953Y27952D01*
X15850Y28197D01*
X15810Y28229D01*
X15806Y28265D01*
X15712Y28437D01*
X15658Y28578D01*
X15560Y28786D01*
X15511Y28890D01*
X15507Y28927D01*
X15445Y29140D01*
X15414Y29393D01*
X15425Y29614D01*
X15420Y29651D01*
X15416Y29687D01*
X15418Y29980D01*
X15392Y30198D01*
X15343Y30302D01*
X15338Y30338D01*
X14676Y30663D01*
X14772Y30785D01*
X14835Y30866D01*
X14863Y30942D01*
X15008Y30959D01*
X15116Y30972D01*
X15152Y30977D01*
X15054Y31185D01*
X14965Y31321D01*
X14879Y31421D01*
X14834Y31490D01*
X14789Y31558D01*
X14645Y31540D01*
X14500Y31523D01*
X14464Y31519D01*
X14428Y31514D01*
X14193Y31633D01*
X14036Y31725D01*
X13918Y31784D01*
X13878Y31816D01*
X13403Y31796D01*
X13077Y31758D01*
X12901Y31700D01*
X12828Y31691D01*
X12671Y31782D01*
X12585Y31883D01*
X12495Y32019D01*
X12491Y32055D01*
X12425Y32304D01*
X12363Y32517D01*
X12309Y32657D01*
X12301Y32730D01*
X12156Y32712D01*
X12079Y32740D01*
X12039Y32772D01*
D02*
G37*
G36*
X-22314Y30444D02*
X-22350Y30440D01*
X-22459Y30427D01*
X-22490Y30386D01*
X-22522Y30346D01*
X-22518Y30310D01*
X-22410Y30323D01*
X-22301Y30336D01*
X-22192Y30349D01*
X-22156Y30353D01*
X-22161Y30389D01*
X-22237Y30417D01*
X-22314Y30444D01*
D02*
G37*
G36*
X-6304Y-50388D02*
X-6517Y-50450D01*
X-6693Y-50508D01*
X-6938Y-50611D01*
X-7079Y-50664D01*
X-7115Y-50668D01*
X-7085Y-50922D01*
X-7063Y-51103D01*
X-7050Y-51211D01*
X-7041Y-51284D01*
X-7029Y-51392D01*
X-7228Y-51563D01*
X-7256Y-51640D01*
X-7292Y-51644D01*
X-7348Y-51797D01*
X-7362Y-51983D01*
X-7360Y-52313D01*
X-7342Y-52457D01*
X-7293Y-52562D01*
X-7285Y-52634D01*
X-7280Y-52670D01*
X-7029Y-52934D01*
X-7043Y-53119D01*
X-7071Y-53196D01*
X-7067Y-53232D01*
X-7158Y-53390D01*
X-7186Y-53466D01*
X-7198Y-53982D01*
X-7218Y-54425D01*
X-7175Y-54787D01*
X-7177Y-55081D01*
X-7151Y-55298D01*
X-7093Y-55475D01*
X-7085Y-55547D01*
X-7080Y-55583D01*
X-7072Y-55655D01*
X-6986Y-55755D01*
X-6843Y-56032D01*
X-6754Y-56168D01*
X-6705Y-56273D01*
X-6619Y-56372D01*
X-6615Y-56409D01*
X-6476Y-56649D01*
X-6342Y-56853D01*
X-6252Y-56990D01*
X-6167Y-57089D01*
X-6081Y-57189D01*
X-6077Y-57226D01*
X-5883Y-57313D01*
X-5689Y-57400D01*
X-5613Y-57427D01*
X-5572Y-57459D01*
X-5527Y-57527D01*
X-5478Y-57631D01*
X-5403Y-57953D01*
X-5386Y-58098D01*
X-5337Y-58202D01*
X-5324Y-58311D01*
X-5320Y-58347D01*
X-5253Y-58596D01*
X-5227Y-58813D01*
X-5210Y-58958D01*
X-5193Y-59102D01*
X-5176Y-59247D01*
X-5172Y-59284D01*
X-5353Y-59305D01*
X-5371Y-59454D01*
X-5359Y-59563D01*
X-5378Y-59712D01*
X-5405Y-59789D01*
X-4971Y-59737D01*
X-4536Y-59685D01*
X-4355Y-59663D01*
X-4211Y-59646D01*
X-4102Y-59633D01*
X-4066Y-59629D01*
X-4061Y-59665D01*
X-3917Y-59648D01*
X-3768Y-59667D01*
X-3731Y-59663D01*
X-3695Y-59658D01*
X-3617Y-59392D01*
X-3525Y-59234D01*
X-3502Y-59122D01*
X-3470Y-59081D01*
X-3326Y-59064D01*
X-3339Y-58955D01*
X-3275Y-58874D01*
X-3215Y-58757D01*
X-2984Y-58546D01*
X-2784Y-58375D01*
X-2720Y-58294D01*
X-2684Y-58290D01*
X-2520Y-58124D01*
X-2388Y-57998D01*
X-2233Y-57759D01*
X-2178Y-57606D01*
X-2150Y-57529D01*
X-2163Y-57420D01*
X-2185Y-57239D01*
X-2268Y-56846D01*
X-2326Y-56669D01*
X-2343Y-56524D01*
X-2392Y-56420D01*
X-2397Y-56384D01*
X-2472Y-56062D01*
X-2538Y-55813D01*
X-2600Y-55600D01*
X-2653Y-55460D01*
X-2666Y-55351D01*
X-2715Y-55247D01*
X-2720Y-55211D01*
X-2971Y-54947D01*
X-3178Y-54751D01*
X-3336Y-54660D01*
X-3376Y-54628D01*
X-3411Y-54339D01*
X-3409Y-54045D01*
X-3435Y-53828D01*
X-3420Y-53642D01*
X-3433Y-53534D01*
X-3410Y-53421D01*
X-3419Y-53348D01*
X-3679Y-53012D01*
X-3681Y-52682D01*
X-3671Y-52461D01*
X-3648Y-52348D01*
X-3652Y-52312D01*
X-3806Y-52257D01*
X-3881Y-51935D01*
X-3943Y-51722D01*
X-4000Y-51546D01*
X-4005Y-51509D01*
X-4254Y-51576D01*
X-4471Y-51602D01*
X-4652Y-51623D01*
X-4797Y-51640D01*
X-4982Y-51626D01*
X-5018Y-51630D01*
X-5027Y-51558D01*
X-5270Y-51366D01*
X-5468Y-51243D01*
X-5621Y-51188D01*
X-5662Y-51156D01*
X-5958Y-50824D01*
X-6169Y-50592D01*
X-6263Y-50420D01*
X-6304Y-50388D01*
D02*
G37*
G36*
X7757Y35749D02*
X7616Y35696D01*
X7476Y35642D01*
X7450Y35609D01*
X7480Y35606D01*
X7846Y35613D01*
X8032Y35598D01*
X8104Y35607D01*
X7757Y35749D01*
D02*
G37*
G36*
X-11441Y10338D02*
X-11654Y10276D01*
X-11862Y10178D01*
X-12003Y10125D01*
X-12075Y10116D01*
X-12284Y10018D01*
X-12420Y9928D01*
X-12488Y9883D01*
X-12520Y9843D01*
X-12543Y9730D01*
X-12562Y9581D01*
X-12564Y9287D01*
X-12583Y9138D01*
X-12565Y8993D01*
X-12557Y8921D01*
X-12553Y8884D01*
X-12505Y8486D01*
X-12439Y8237D01*
X-12413Y8020D01*
X-12400Y7911D01*
X-12396Y7875D01*
X-12391Y7839D01*
X-12709Y7728D01*
X-12953Y7625D01*
X-13094Y7572D01*
X-13130Y7568D01*
X-13019Y7250D01*
X-12948Y6965D01*
X-12918Y6712D01*
X-12896Y6531D01*
X-12879Y6386D01*
X-12862Y6241D01*
X-12858Y6205D01*
X-12853Y6169D01*
X-12914Y5758D01*
X-13052Y5374D01*
X-13108Y5221D01*
X-13131Y5108D01*
X-13195Y5027D01*
X-13190Y4991D01*
X-13358Y4861D01*
X-13360Y4567D01*
X-13349Y4165D01*
X-13297Y3730D01*
X-13245Y3296D01*
X-13158Y2866D01*
X-13114Y2504D01*
X-13061Y2363D01*
X-13052Y2291D01*
X-13044Y2219D01*
X-13039Y2182D01*
X-12750Y2217D01*
X-12497Y2247D01*
X-12279Y2273D01*
X-12098Y2294D01*
X-11990Y2307D01*
X-11881Y2320D01*
X-11809Y2329D01*
X-11677Y2455D01*
X-11586Y2612D01*
X-11522Y2693D01*
X-11490Y2734D01*
X-11345Y2751D01*
X-11201Y2768D01*
X-11056Y2786D01*
X-11020Y2790D01*
X-10956Y2871D01*
X-10928Y2948D01*
X-10969Y2980D01*
X-10932Y2984D01*
X-10815Y2924D01*
X-10698Y2865D01*
X-10657Y2833D01*
X-10323Y2799D01*
X-10002Y2874D01*
X-9857Y2892D01*
X-9748Y2905D01*
X-9680Y2949D01*
X-9644Y2954D01*
X-9670Y3171D01*
X-9683Y3279D01*
X-9687Y3316D01*
X-9302Y3472D01*
X-8980Y3547D01*
X-8804Y3604D01*
X-8732Y3613D01*
X-8757Y3830D01*
X-8643Y4101D01*
X-8560Y4331D01*
X-8505Y4484D01*
X-8473Y4525D01*
X-8525Y4959D01*
X-8563Y5285D01*
X-8585Y5466D01*
X-8594Y5538D01*
X-8434Y5741D01*
X-8460Y5958D01*
X-8554Y6130D01*
X-8603Y6234D01*
X-8644Y6266D01*
X-8842Y6390D01*
X-8927Y6489D01*
X-8968Y6521D01*
X-9083Y6875D01*
X-9190Y7156D01*
X-9292Y7400D01*
X-9354Y7613D01*
X-9412Y7790D01*
X-9461Y7894D01*
X-9470Y7967D01*
X-9474Y8003D01*
X-9722Y8230D01*
X-9924Y8390D01*
X-10041Y8449D01*
X-10082Y8481D01*
X-10221Y8721D01*
X-10315Y8894D01*
X-10364Y8998D01*
X-10368Y9034D01*
X-10566Y9158D01*
X-10607Y9189D01*
X-10643Y9185D01*
X-10822Y9458D01*
X-10997Y9694D01*
X-11131Y9898D01*
X-11262Y10066D01*
X-11347Y10166D01*
X-11396Y10270D01*
X-11441Y10338D01*
D02*
G37*
G36*
X-18364Y9294D02*
X-18505Y9240D01*
X-18650Y9223D01*
X-18681Y9183D01*
X-18718Y9178D01*
X-18696Y8997D01*
X-18854Y9089D01*
X-18967Y9112D01*
X-19007Y9144D01*
X-19067Y9027D01*
X-19139Y9018D01*
X-19180Y9050D01*
X-19362Y8734D01*
X-19549Y8455D01*
X-19781Y8244D01*
X-19977Y8037D01*
X-20181Y7903D01*
X-20317Y7813D01*
X-20417Y7728D01*
X-20453Y7724D01*
X-20423Y7470D01*
X-20402Y7289D01*
X-20389Y7181D01*
X-20380Y7108D01*
X-20367Y7000D01*
X-20527Y6797D01*
X-20658Y6671D01*
X-20758Y6586D01*
X-20790Y6545D01*
X-20769Y6364D01*
X-21013Y6262D01*
X-21194Y6241D01*
X-21303Y6227D01*
X-21339Y6223D01*
X-21371Y6183D01*
X-21430Y6066D01*
X-21545Y5795D01*
X-21624Y5529D01*
X-21687Y5448D01*
X-21683Y5411D01*
X-21792Y5398D01*
X-21783Y5326D01*
X-21743Y5294D01*
X-21670Y5303D01*
X-21469Y4850D01*
X-21345Y4424D01*
X-21230Y4070D01*
X-21159Y3785D01*
X-21129Y3532D01*
X-21139Y3310D01*
X-21126Y3202D01*
X-21122Y3166D01*
X-21213Y3008D01*
X-21309Y2886D01*
X-21337Y2810D01*
X-21369Y2769D01*
X-21356Y2661D01*
X-21343Y2552D01*
X-21308Y2262D01*
X-21246Y2050D01*
X-21201Y1982D01*
X-21197Y1945D01*
X-21180Y1801D01*
X-21162Y1656D01*
X-21158Y1620D01*
X-21154Y1583D01*
X-21028Y1452D01*
X-20866Y1324D01*
X-20708Y1233D01*
X-20632Y1205D01*
X-20357Y1054D01*
X-20195Y927D01*
X-20114Y863D01*
X-20109Y827D01*
X-20097Y718D01*
X-20088Y646D01*
X-20079Y573D01*
X-19862Y599D01*
X-19826Y604D01*
X-19790Y608D01*
X-19615Y372D01*
X-19480Y167D01*
X-19391Y31D01*
X-19350Y-0D01*
X-19161Y-51D01*
X-19048Y-75D01*
X-18975Y-66D01*
X-18939Y-62D01*
X-18956Y83D01*
X-18965Y155D01*
X-18969Y192D01*
X-18837Y317D01*
X-18872Y607D01*
X-18898Y824D01*
X-18911Y933D01*
X-18915Y969D01*
X-18824Y1127D01*
X-18719Y1176D01*
X-18651Y1221D01*
X-18615Y1225D01*
X-18466Y1206D01*
X-18321Y1223D01*
X-18213Y1236D01*
X-18177Y1240D01*
X-18039Y1624D01*
X-17928Y1931D01*
X-17909Y2080D01*
X-17882Y2156D01*
X-17750Y2282D01*
X-17646Y2331D01*
X-17578Y2376D01*
X-17541Y2381D01*
X-17567Y2598D01*
X-17571Y2634D01*
X-17576Y2670D01*
X-17510Y3045D01*
X-17436Y3348D01*
X-17362Y3650D01*
X-17316Y3876D01*
X-17265Y4065D01*
X-17205Y4183D01*
X-17178Y4259D01*
X-17182Y4295D01*
X-17206Y4806D01*
X-17258Y5241D01*
X-17269Y5643D01*
X-17303Y5933D01*
X-17334Y6186D01*
X-17351Y6331D01*
X-17364Y6440D01*
X-17368Y6476D01*
X-17281Y6670D01*
X-17186Y6791D01*
X-17154Y6832D01*
X-17122Y6872D01*
X-17052Y7211D01*
X-17010Y7473D01*
X-16963Y7699D01*
X-16908Y7852D01*
X-16889Y8001D01*
X-16898Y8073D01*
X-16870Y8150D01*
X-16689Y8172D01*
X-16706Y8316D01*
X-16755Y8421D01*
X-16886Y8589D01*
X-17003Y8648D01*
X-17079Y8676D01*
X-17310Y8759D01*
X-17535Y8805D01*
X-17684Y8824D01*
X-17721Y8820D01*
X-18000Y9007D01*
X-18202Y9166D01*
X-18324Y9262D01*
X-18364Y9294D01*
D02*
G37*
G36*
X23024Y33309D02*
X22658Y33302D01*
X22296Y33259D01*
X22187Y33246D01*
X22083Y33197D01*
X22010Y33188D01*
X21974Y33184D01*
X21810Y33017D01*
X21719Y32860D01*
X21655Y32779D01*
X21623Y32738D01*
X21334Y32704D01*
X21117Y32678D01*
X20972Y32661D01*
X20936Y32656D01*
X20892Y32100D01*
X20881Y31879D01*
X20871Y31658D01*
X20852Y31508D01*
X20829Y31396D01*
X20801Y31319D01*
X20806Y31283D01*
X20633Y31189D01*
X20497Y31099D01*
X20429Y31054D01*
X20393Y31050D01*
X20165Y30803D01*
X20010Y30564D01*
X19927Y30334D01*
X19896Y30293D01*
X19900Y30257D01*
X19904Y30221D01*
X19885Y30072D01*
X19866Y29923D01*
X19892Y29706D01*
X19877Y29520D01*
X19863Y29335D01*
X19844Y29186D01*
X19848Y29150D01*
X19678Y28726D01*
X19713Y28436D01*
X19783Y28151D01*
X19809Y27934D01*
X19863Y27793D01*
X19880Y27649D01*
X19929Y27544D01*
X19933Y27508D01*
X19938Y27472D01*
X19915Y27359D01*
X19859Y27206D01*
X19840Y27057D01*
X19808Y27016D01*
X19813Y26980D01*
X19771Y26718D01*
X19760Y26496D01*
X19773Y26388D01*
X19778Y26352D01*
X19957Y26079D01*
X20091Y25875D01*
X20221Y25707D01*
X20262Y25675D01*
X20283Y25494D01*
X20288Y25458D01*
X20292Y25422D01*
X20595Y25348D01*
X20852Y25342D01*
X21001Y25323D01*
X21074Y25331D01*
X21312Y25176D01*
X21434Y25080D01*
X21515Y25017D01*
X21555Y24985D01*
X21845Y25019D01*
X22062Y25045D01*
X22207Y25062D01*
X22243Y25067D01*
X22608Y24780D01*
X22859Y24516D01*
X23062Y24357D01*
X23102Y24325D01*
X23107Y24289D01*
X23288Y24310D01*
X23396Y24323D01*
X23469Y24332D01*
X23505Y24336D01*
X23664Y24539D01*
X23755Y24696D01*
X23779Y24809D01*
X23811Y24850D01*
X24028Y24875D01*
X24172Y24893D01*
X24281Y24906D01*
X24317Y24910D01*
X24452Y24706D01*
X24935Y24653D01*
X25410Y24673D01*
X25591Y24694D01*
X25736Y24712D01*
X25844Y24725D01*
X25881Y24729D01*
X26001Y25257D01*
X26135Y25677D01*
X26154Y25826D01*
X26177Y25939D01*
X26209Y25979D01*
X26205Y26015D01*
X26241Y26020D01*
X26277Y26024D01*
X26458Y26046D01*
X26603Y26063D01*
X26639Y26067D01*
X26675Y26072D01*
X26754Y26338D01*
X26841Y26532D01*
X26864Y26645D01*
X26896Y26685D01*
X26834Y26898D01*
X26780Y27038D01*
X26731Y27143D01*
X26727Y27179D01*
X26846Y27413D01*
X26897Y27603D01*
X26956Y27720D01*
X26988Y27761D01*
X26979Y27833D01*
X26894Y27933D01*
X26755Y28173D01*
X26585Y28373D01*
X26540Y28441D01*
X26499Y28473D01*
X26523Y28586D01*
X26546Y28699D01*
X26569Y28812D01*
X26601Y28852D01*
X26656Y29006D01*
X26716Y29123D01*
X26711Y29159D01*
X26698Y29268D01*
X26654Y29336D01*
X26609Y29404D01*
X26568Y29436D01*
X26483Y29536D01*
X26438Y29604D01*
X26434Y29640D01*
X26395Y29966D01*
X26365Y30219D01*
X26339Y30436D01*
X26313Y30654D01*
X26296Y30798D01*
X26283Y30907D01*
X26279Y30943D01*
X26274Y30979D01*
X26180Y31152D01*
X26072Y31139D01*
X25793Y31326D01*
X25563Y31409D01*
X25414Y31427D01*
X25377Y31423D01*
X25247Y31591D01*
X25149Y31800D01*
X25091Y31976D01*
X25051Y32008D01*
X25046Y32045D01*
X24939Y32325D01*
X24846Y32498D01*
X24760Y32598D01*
X24720Y32630D01*
X24309Y32691D01*
X24015Y32693D01*
X23830Y32707D01*
X23757Y32699D01*
X23510Y32926D01*
X23344Y33090D01*
X23258Y33190D01*
X23218Y33222D01*
X23024Y33309D01*
D02*
G37*
G36*
X34390Y-16839D02*
X34245Y-16856D01*
X34172Y-16864D01*
X34136Y-16869D01*
X34117Y-17018D01*
X34094Y-17131D01*
X34067Y-17208D01*
X34071Y-17244D01*
X33935Y-17333D01*
X33830Y-17382D01*
X33758Y-17391D01*
X33722Y-17395D01*
X33586Y-17485D01*
X33445Y-17538D01*
X33373Y-17547D01*
X33337Y-17551D01*
X33462Y-17683D01*
X33584Y-17779D01*
X33629Y-17847D01*
X33669Y-17879D01*
X33797Y-17717D01*
X33865Y-17672D01*
X33897Y-17631D01*
X33923Y-17849D01*
X33927Y-17885D01*
X33931Y-17921D01*
X34148Y-17895D01*
X34372Y-18236D01*
X34626Y-18205D01*
X34807Y-18184D01*
X34915Y-18171D01*
X34952Y-18167D01*
X34787Y-17709D01*
X34591Y-17292D01*
X34533Y-17115D01*
X34443Y-16979D01*
X34394Y-16875D01*
X34390Y-16839D01*
D02*
G37*
G36*
X27920Y-13057D02*
X27847Y-13066D01*
X27783Y-13147D01*
X27683Y-13232D01*
X27588Y-13354D01*
X27520Y-13398D01*
X27564Y-13466D01*
X27650Y-13566D01*
X27735Y-13667D01*
X27780Y-13735D01*
X27707Y-13743D01*
X27531Y-13801D01*
X27354Y-13859D01*
X27318Y-13863D01*
X27282Y-13867D01*
X27175Y-13586D01*
X26632Y-13651D01*
X26455Y-13709D01*
X26274Y-13730D01*
X26134Y-13784D01*
X26025Y-13797D01*
X25993Y-13837D01*
X25957Y-13841D01*
X25800Y-13750D01*
X25678Y-13654D01*
X25601Y-13627D01*
X25561Y-13595D01*
X25452Y-13608D01*
X25308Y-13625D01*
X24909Y-13672D01*
X24728Y-13694D01*
X24584Y-13711D01*
X24475Y-13724D01*
X24439Y-13728D01*
X24194Y-13831D01*
X23949Y-13934D01*
X23809Y-13987D01*
X23664Y-14004D01*
X23555Y-14017D01*
X23483Y-14026D01*
X23447Y-14030D01*
X23370Y-14003D01*
X23253Y-13943D01*
X23176Y-13916D01*
X23136Y-13884D01*
X22942Y-13797D01*
X22793Y-13778D01*
X22680Y-13754D01*
X22644Y-13759D01*
X22435Y-13857D01*
X22263Y-13951D01*
X22122Y-14004D01*
X22086Y-14009D01*
X21978Y-14021D01*
X21869Y-14035D01*
X21760Y-14047D01*
X21724Y-14052D01*
X21543Y-14073D01*
X21471Y-14082D01*
X21435Y-14086D01*
X21036Y-14133D01*
X20747Y-14168D01*
X20566Y-14190D01*
X20494Y-14198D01*
X20372Y-14103D01*
X19961Y-14041D01*
X19631Y-14044D01*
X19414Y-14070D01*
X19378Y-14074D01*
X19341Y-14078D01*
X19056Y-14149D01*
X18807Y-14215D01*
X18671Y-14305D01*
X18603Y-14350D01*
X18624Y-14531D01*
X18448Y-14589D01*
X18416Y-14629D01*
X18380Y-14633D01*
X18235Y-14651D01*
X18050Y-14636D01*
X17779Y-14521D01*
X17549Y-14439D01*
X17504Y-14370D01*
X17468Y-14375D01*
X17432Y-14379D01*
X17323Y-14392D01*
X17251Y-14401D01*
X17215Y-14405D01*
X17015Y-14576D01*
X16883Y-14702D01*
X16783Y-14787D01*
X16751Y-14827D01*
X16679Y-14836D01*
X16566Y-14813D01*
X16489Y-14785D01*
X16453Y-14789D01*
X16336Y-14730D01*
X16223Y-14707D01*
X16150Y-14715D01*
X16114Y-14720D01*
X16023Y-14877D01*
X15931Y-15035D01*
X15904Y-15112D01*
X15872Y-15152D01*
X15732Y-15206D01*
X15555Y-15263D01*
X15414Y-15317D01*
X15378Y-15321D01*
X15342Y-15325D01*
X15093Y-15392D01*
X14957Y-15481D01*
X14925Y-15522D01*
X14893Y-15562D01*
X14791Y-15942D01*
X14713Y-16208D01*
X14698Y-16393D01*
X14671Y-16470D01*
X14349Y-16545D01*
X14136Y-16607D01*
X13992Y-16624D01*
X13955Y-16628D01*
X13773Y-16944D01*
X13622Y-17219D01*
X13499Y-17417D01*
X13467Y-17457D01*
X13471Y-17494D01*
X13435Y-17498D01*
X13371Y-17579D01*
X13167Y-17713D01*
X13003Y-17880D01*
X12935Y-17924D01*
X12903Y-17965D01*
X12767Y-18055D01*
X12635Y-18180D01*
X12503Y-18306D01*
X12439Y-18387D01*
X12444Y-18423D01*
X12433Y-18645D01*
X12495Y-18858D01*
X12549Y-18998D01*
X12553Y-19035D01*
X12558Y-19071D01*
X12660Y-19315D01*
X12682Y-19496D01*
X12695Y-19605D01*
X12699Y-19641D01*
X12520Y-19993D01*
X12542Y-20174D01*
X12596Y-20314D01*
X12604Y-20387D01*
X12608Y-20423D01*
X12743Y-20627D01*
X12792Y-20731D01*
X12837Y-20799D01*
X12912Y-21121D01*
X12982Y-21406D01*
X13013Y-21659D01*
X13070Y-21836D01*
X13088Y-21981D01*
X13105Y-22126D01*
X13109Y-22162D01*
X13113Y-22198D01*
X13303Y-22249D01*
X13343Y-22281D01*
X13380Y-22276D01*
X13587Y-22472D01*
X13708Y-22568D01*
X13753Y-22636D01*
X13789Y-22632D01*
X13898Y-22619D01*
X14155Y-22625D01*
X14377Y-22635D01*
X14449Y-22626D01*
X14485Y-22622D01*
X14588Y-22867D01*
X14722Y-23071D01*
X14812Y-23207D01*
X14929Y-23267D01*
X15010Y-23330D01*
X15087Y-23358D01*
X15123Y-23354D01*
X15232Y-23341D01*
X15336Y-23292D01*
X15608Y-23112D01*
X15812Y-22978D01*
X15880Y-22933D01*
X15917Y-22929D01*
X16241Y-23184D01*
X16492Y-23448D01*
X16582Y-23584D01*
X16631Y-23688D01*
X16676Y-23756D01*
X16680Y-23792D01*
X16893Y-23730D01*
X17034Y-23677D01*
X17138Y-23628D01*
X17174Y-23623D01*
X17381Y-23819D01*
X17530Y-23838D01*
X17639Y-23825D01*
X17711Y-23816D01*
X17747Y-23812D01*
X17888Y-23759D01*
X18064Y-23701D01*
X18364Y-23445D01*
X18500Y-23355D01*
X18632Y-23230D01*
X18700Y-23185D01*
X18732Y-23144D01*
X19003Y-23259D01*
X19237Y-23378D01*
X19390Y-23433D01*
X19431Y-23465D01*
X19761Y-23462D01*
X20051Y-23428D01*
X20268Y-23402D01*
X20485Y-23376D01*
X20626Y-23323D01*
X20734Y-23310D01*
X20806Y-23301D01*
X20843Y-23297D01*
X20956Y-23320D01*
X21109Y-23375D01*
X21226Y-23435D01*
X21267Y-23467D01*
X21492Y-23513D01*
X21714Y-23523D01*
X21863Y-23542D01*
X21899Y-23538D01*
X22044Y-23521D01*
X22184Y-23467D01*
X22538Y-23352D01*
X22719Y-23330D01*
X22823Y-23281D01*
X22927Y-23232D01*
X22964Y-23228D01*
X23244Y-23121D01*
X23489Y-23018D01*
X23702Y-22956D01*
X23847Y-22939D01*
X23987Y-22886D01*
X24060Y-22877D01*
X24132Y-22869D01*
X24385Y-22838D01*
X24462Y-22866D01*
X24498Y-22862D01*
X24705Y-23057D01*
X24827Y-23153D01*
X24903Y-23180D01*
X24939Y-23176D01*
X24971Y-23136D01*
X24967Y-23099D01*
X24963Y-23063D01*
X24995Y-23023D01*
X25063Y-22978D01*
X25276Y-22916D01*
X25488Y-22854D01*
X25561Y-22845D01*
X25597Y-22841D01*
X25850Y-22811D01*
X26027Y-22753D01*
X26172Y-22736D01*
X26312Y-22682D01*
X26417Y-22633D01*
X26453Y-22629D01*
X26644Y-22386D01*
X26676Y-22345D01*
X26708Y-22305D01*
X26893Y-22320D01*
X27119Y-22366D01*
X27308Y-22417D01*
X27385Y-22445D01*
X27724Y-22514D01*
X27986Y-22557D01*
X28167Y-22535D01*
X28239Y-22526D01*
X28503Y-22275D01*
X28720Y-22249D01*
X28901Y-22227D01*
X29159Y-22233D01*
X29308Y-22252D01*
X29348Y-22284D01*
X29540Y-22041D01*
X29572Y-22001D01*
X29603Y-21960D01*
X29974Y-21990D01*
X30268Y-21991D01*
X30417Y-22010D01*
X30457Y-22042D01*
X30698Y-21903D01*
X30906Y-21805D01*
X31043Y-21715D01*
X31075Y-21675D01*
X31111Y-21671D01*
X31147Y-21666D01*
X31364Y-21641D01*
X31654Y-21606D01*
X31979Y-21567D01*
X32305Y-21528D01*
X32595Y-21494D01*
X32812Y-21468D01*
X32848Y-21464D01*
X32884Y-21460D01*
X32826Y-20659D01*
X32746Y-20301D01*
X32703Y-19939D01*
X32632Y-19654D01*
X32570Y-19441D01*
X32513Y-19264D01*
X32508Y-19228D01*
X32504Y-19192D01*
X32459Y-19124D01*
X32365Y-18952D01*
X32235Y-18784D01*
X32195Y-18752D01*
X32190Y-18716D01*
X32084Y-18435D01*
X32021Y-18222D01*
X32009Y-18113D01*
X32004Y-18077D01*
X32119Y-17806D01*
X32206Y-17613D01*
X32265Y-17495D01*
X32297Y-17455D01*
X32446Y-17474D01*
X32596Y-17493D01*
X32708Y-17516D01*
X32781Y-17507D01*
X32908Y-17345D01*
X32936Y-17269D01*
X32825Y-16952D01*
X32758Y-16702D01*
X32741Y-16558D01*
X32737Y-16522D01*
X32562Y-16285D01*
X32432Y-16117D01*
X32342Y-15981D01*
X32302Y-15949D01*
X32272Y-15696D01*
X32250Y-15515D01*
X32237Y-15406D01*
X32233Y-15370D01*
X32021Y-15138D01*
X31851Y-14939D01*
X31729Y-14843D01*
X31689Y-14811D01*
X31685Y-14775D01*
X31667Y-14630D01*
X31642Y-14413D01*
X31616Y-14196D01*
X31590Y-13978D01*
X31564Y-13761D01*
X31547Y-13616D01*
X31542Y-13580D01*
X31217Y-13619D01*
X30931Y-13690D01*
X30682Y-13756D01*
X30465Y-13782D01*
X30288Y-13840D01*
X30180Y-13853D01*
X30112Y-13897D01*
X30076Y-13902D01*
X29852Y-13561D01*
X29672Y-13289D01*
X29546Y-13157D01*
X29506Y-13125D01*
X28565Y-13237D01*
X28412Y-13182D01*
X28371Y-13150D01*
X28335Y-13155D01*
X28186Y-13136D01*
X28073Y-13112D01*
X27920Y-13057D01*
D02*
G37*
%LPD*%
G36*
X26298Y28927D02*
X26411Y28903D01*
X26452Y28871D01*
X26424Y28795D01*
X26392Y28754D01*
X26316Y28782D01*
X26275Y28814D01*
X26235Y28846D01*
X26226Y28918D01*
X26222Y28954D01*
X26298Y28927D01*
D02*
G37*
G36*
X-12409Y-55226D02*
X-12391Y-55371D01*
X-12378Y-55480D01*
X-12361Y-55624D01*
X-12353Y-55697D01*
X-12448Y-55818D01*
X-12567Y-56053D01*
X-12599Y-56093D01*
X-12595Y-56129D01*
X-12789Y-56042D01*
X-12865Y-56015D01*
X-12906Y-55983D01*
X-12923Y-55838D01*
X-12940Y-55693D01*
X-12953Y-55585D01*
X-12962Y-55512D01*
X-12843Y-55278D01*
X-12811Y-55238D01*
X-12815Y-55201D01*
X-12409Y-55226D01*
D02*
G37*
G36*
X1034465Y-150646D02*
Y-150933D01*
Y-151219D01*
Y-151505D01*
Y-151791D01*
Y-152078D01*
Y-152364D01*
Y-152650D01*
Y-152937D01*
Y-153223D01*
Y-153509D01*
Y-153796D01*
Y-154082D01*
Y-154368D01*
Y-154655D01*
Y-154941D01*
Y-155227D01*
Y-155514D01*
Y-155800D01*
Y-156086D01*
Y-156372D01*
X1034179D01*
Y-156659D01*
Y-156945D01*
Y-157231D01*
Y-157518D01*
Y-157804D01*
X1033893D01*
Y-158090D01*
Y-158377D01*
Y-158663D01*
Y-158949D01*
X1033607D01*
Y-159236D01*
Y-159522D01*
Y-159808D01*
Y-160094D01*
X1033320D01*
Y-160381D01*
Y-160667D01*
Y-160953D01*
X1033034D01*
Y-161240D01*
Y-161526D01*
Y-161812D01*
X1032747D01*
Y-162099D01*
Y-162385D01*
Y-162671D01*
X1032461D01*
Y-162958D01*
Y-163244D01*
Y-163530D01*
X1032175D01*
Y-163816D01*
Y-164103D01*
X1031889D01*
Y-164389D01*
Y-164675D01*
X1031602D01*
Y-164962D01*
Y-165248D01*
Y-165534D01*
X1031316D01*
Y-165821D01*
Y-166107D01*
X1031030D01*
Y-166393D01*
Y-166680D01*
Y-166966D01*
X1030743D01*
Y-167252D01*
Y-167539D01*
X1030457D01*
Y-167825D01*
Y-168111D01*
Y-168398D01*
X1030171D01*
Y-168684D01*
Y-168970D01*
X1029884D01*
Y-169256D01*
Y-169543D01*
Y-169829D01*
X1029598D01*
Y-170115D01*
Y-170402D01*
X1029312D01*
Y-170688D01*
Y-170974D01*
Y-171261D01*
X1029025D01*
Y-171547D01*
Y-171833D01*
X1028739D01*
Y-172120D01*
Y-172406D01*
Y-172692D01*
X1028453D01*
Y-172978D01*
Y-173265D01*
X1028166D01*
Y-173551D01*
Y-173837D01*
Y-174124D01*
X1027880D01*
Y-174410D01*
Y-174696D01*
X1027594D01*
Y-174983D01*
Y-175269D01*
Y-175555D01*
X1027308D01*
Y-175842D01*
Y-176128D01*
X1027021D01*
Y-176414D01*
Y-176701D01*
Y-176987D01*
X1026735D01*
Y-177273D01*
Y-177560D01*
X1026449D01*
Y-177846D01*
Y-178132D01*
Y-178419D01*
X1026162D01*
Y-178705D01*
Y-178991D01*
X1025876D01*
Y-179277D01*
Y-179564D01*
Y-179850D01*
X1025590D01*
Y-180136D01*
Y-180423D01*
X1025303D01*
Y-180709D01*
Y-180995D01*
Y-181282D01*
X1025017D01*
Y-181568D01*
Y-181854D01*
X1024731D01*
Y-182141D01*
Y-182427D01*
Y-182713D01*
X1024444D01*
Y-183000D01*
Y-183286D01*
X1024158D01*
Y-183572D01*
Y-183858D01*
Y-184145D01*
X1023872D01*
Y-184431D01*
Y-184717D01*
X1023586D01*
Y-185004D01*
Y-185290D01*
Y-185576D01*
X1023299D01*
Y-185863D01*
Y-186149D01*
X1023013D01*
Y-186435D01*
Y-186722D01*
Y-187008D01*
X1022727D01*
Y-187294D01*
Y-187581D01*
X1022440D01*
Y-187867D01*
Y-188153D01*
X1022154D01*
Y-188439D01*
Y-188726D01*
X1021868D01*
Y-189012D01*
Y-189298D01*
Y-189585D01*
X1021581D01*
Y-189871D01*
X1021295D01*
Y-190157D01*
Y-190444D01*
Y-190730D01*
X1021009D01*
Y-191016D01*
X1020722D01*
Y-191303D01*
Y-191589D01*
X1020436D01*
Y-191875D01*
Y-192162D01*
X1020150D01*
Y-192448D01*
Y-192734D01*
X1019864D01*
Y-193020D01*
Y-193307D01*
X1019577D01*
Y-193593D01*
X1019291D01*
Y-193879D01*
Y-194166D01*
X1019005D01*
Y-194452D01*
Y-194738D01*
X1018718D01*
Y-195025D01*
X1018432D01*
Y-195311D01*
X1018146D01*
Y-195597D01*
Y-195884D01*
X1017859D01*
Y-196170D01*
X1017573D01*
Y-196456D01*
Y-196742D01*
X1017287D01*
Y-197029D01*
X1017000D01*
Y-197315D01*
X1016714D01*
Y-197601D01*
Y-197888D01*
X1016428D01*
Y-198174D01*
X1016141D01*
Y-198460D01*
X1015855D01*
Y-198747D01*
X1015569D01*
Y-199033D01*
X1015283D01*
Y-199319D01*
Y-199606D01*
X1014996D01*
Y-199892D01*
X1014710D01*
Y-200178D01*
X1014423D01*
Y-200465D01*
X1014137D01*
Y-200751D01*
X1013851D01*
Y-201037D01*
X1013565D01*
Y-201324D01*
X1013278D01*
Y-201610D01*
X1012706D01*
Y-201896D01*
X1012419D01*
Y-202183D01*
X1012133D01*
Y-202469D01*
X1011847D01*
Y-202755D01*
X1011560D01*
Y-203041D01*
X1010988D01*
Y-203328D01*
X1010701D01*
Y-203614D01*
X1010129D01*
Y-203900D01*
X1009842D01*
Y-204187D01*
X1009270D01*
Y-204473D01*
X1008984D01*
Y-204759D01*
X1008411D01*
Y-205046D01*
X1007838D01*
Y-205332D01*
X1007266D01*
Y-205618D01*
X1006693D01*
Y-205905D01*
X1006120D01*
Y-206191D01*
X1005262D01*
Y-206477D01*
X1004689D01*
Y-206764D01*
X1003830D01*
Y-207050D01*
X1002685D01*
Y-207336D01*
X1001539D01*
Y-207622D01*
X999822D01*
Y-207909D01*
X997817D01*
Y-208195D01*
X997531D01*
Y-207909D01*
Y-207622D01*
Y-207336D01*
Y-207050D01*
Y-206764D01*
Y-206477D01*
Y-206191D01*
Y-205905D01*
Y-205618D01*
Y-205332D01*
Y-205046D01*
Y-204759D01*
Y-204473D01*
Y-204187D01*
Y-203900D01*
Y-203614D01*
Y-203328D01*
Y-203041D01*
Y-202755D01*
Y-202469D01*
Y-202183D01*
Y-201896D01*
Y-201610D01*
Y-201324D01*
Y-201037D01*
Y-200751D01*
Y-200465D01*
Y-200178D01*
Y-199892D01*
Y-199606D01*
Y-199319D01*
Y-199033D01*
Y-198747D01*
X998104D01*
Y-198460D01*
X998676D01*
Y-198174D01*
X999249D01*
Y-197888D01*
X999822D01*
Y-197601D01*
X1000394D01*
Y-197315D01*
X1000967D01*
Y-197029D01*
X1001253D01*
Y-196742D01*
X1001826D01*
Y-196456D01*
X1002112D01*
Y-196170D01*
X1002685D01*
Y-195884D01*
X1002971D01*
Y-195597D01*
X1003257D01*
Y-195311D01*
X1003830D01*
Y-195025D01*
X1004116D01*
Y-194738D01*
X1004403D01*
Y-194452D01*
X1004689D01*
Y-194166D01*
X1004975D01*
Y-193879D01*
X1005262D01*
Y-193593D01*
X1005548D01*
Y-193307D01*
X1005834D01*
Y-193020D01*
X1006120D01*
Y-192734D01*
X1006407D01*
Y-192448D01*
X1006693D01*
Y-192162D01*
X1006979D01*
Y-191875D01*
Y-191589D01*
X1007266D01*
Y-191303D01*
X1007552D01*
Y-191016D01*
X1007838D01*
Y-190730D01*
Y-190444D01*
X1008125D01*
Y-190157D01*
X1008411D01*
Y-189871D01*
Y-189585D01*
X1008697D01*
Y-189298D01*
Y-189012D01*
X1008984D01*
Y-188726D01*
X1009270D01*
Y-188439D01*
Y-188153D01*
X1009556D01*
Y-187867D01*
Y-187581D01*
X1009842D01*
Y-187294D01*
Y-187008D01*
X1008125D01*
Y-186722D01*
X1006120D01*
Y-186435D01*
X1004975D01*
Y-186149D01*
X1004403D01*
Y-185863D01*
X1003544D01*
Y-185576D01*
X1002971D01*
Y-185290D01*
X1002685D01*
Y-185004D01*
X1002112D01*
Y-184717D01*
X1001826D01*
Y-184431D01*
X1001539D01*
Y-184145D01*
X1001253D01*
Y-183858D01*
X1000967D01*
Y-183572D01*
X1000681D01*
Y-183286D01*
Y-183000D01*
X1000394D01*
Y-182713D01*
X1000108D01*
Y-182427D01*
Y-182141D01*
X999822D01*
Y-181854D01*
Y-181568D01*
X999535D01*
Y-181282D01*
Y-180995D01*
X999249D01*
Y-180709D01*
Y-180423D01*
Y-180136D01*
X998963D01*
Y-179850D01*
Y-179564D01*
Y-179277D01*
Y-178991D01*
X998676D01*
Y-178705D01*
Y-178419D01*
Y-178132D01*
Y-177846D01*
Y-177560D01*
Y-177273D01*
Y-176987D01*
X998390D01*
Y-176701D01*
Y-176414D01*
Y-176128D01*
Y-175842D01*
Y-175555D01*
Y-175269D01*
Y-174983D01*
Y-174696D01*
Y-174410D01*
Y-174124D01*
Y-173837D01*
Y-173551D01*
Y-173265D01*
Y-172978D01*
Y-172692D01*
X998104D01*
Y-172406D01*
Y-172120D01*
Y-171833D01*
Y-171547D01*
Y-171261D01*
Y-170974D01*
Y-170688D01*
Y-170402D01*
Y-170115D01*
Y-169829D01*
Y-169543D01*
Y-169256D01*
Y-168970D01*
Y-168684D01*
Y-168398D01*
X997817D01*
Y-168111D01*
Y-167825D01*
Y-167539D01*
Y-167252D01*
Y-166966D01*
Y-166680D01*
Y-166393D01*
Y-166107D01*
Y-165821D01*
Y-165534D01*
Y-165248D01*
Y-164962D01*
Y-164675D01*
Y-164389D01*
Y-164103D01*
Y-163816D01*
X997531D01*
Y-163530D01*
Y-163244D01*
Y-162958D01*
Y-162671D01*
Y-162385D01*
Y-162099D01*
Y-161812D01*
Y-161526D01*
Y-161240D01*
Y-160953D01*
Y-160667D01*
Y-160381D01*
Y-160094D01*
Y-159808D01*
Y-159522D01*
Y-159236D01*
X997245D01*
Y-158949D01*
Y-158663D01*
Y-158377D01*
Y-158090D01*
Y-157804D01*
Y-157518D01*
Y-157231D01*
Y-156945D01*
Y-156659D01*
Y-156372D01*
Y-156086D01*
Y-155800D01*
Y-155514D01*
Y-155227D01*
X996958D01*
Y-154941D01*
Y-154655D01*
Y-154368D01*
Y-154082D01*
Y-153796D01*
Y-153509D01*
Y-153223D01*
Y-152937D01*
Y-152650D01*
Y-152364D01*
Y-152078D01*
Y-151791D01*
Y-151505D01*
Y-151219D01*
Y-150933D01*
Y-150646D01*
X996672D01*
Y-150360D01*
X1010415D01*
Y-150646D01*
Y-150933D01*
Y-151219D01*
Y-151505D01*
Y-151791D01*
Y-152078D01*
Y-152364D01*
Y-152650D01*
Y-152937D01*
Y-153223D01*
Y-153509D01*
Y-153796D01*
Y-154082D01*
Y-154368D01*
X1010701D01*
Y-154655D01*
Y-154941D01*
Y-155227D01*
Y-155514D01*
Y-155800D01*
Y-156086D01*
Y-156372D01*
Y-156659D01*
Y-156945D01*
Y-157231D01*
Y-157518D01*
Y-157804D01*
Y-158090D01*
Y-158377D01*
Y-158663D01*
Y-158949D01*
Y-159236D01*
Y-159522D01*
Y-159808D01*
Y-160094D01*
Y-160381D01*
Y-160667D01*
Y-160953D01*
Y-161240D01*
Y-161526D01*
Y-161812D01*
Y-162099D01*
Y-162385D01*
Y-162671D01*
Y-162958D01*
Y-163244D01*
Y-163530D01*
Y-163816D01*
Y-164103D01*
Y-164389D01*
Y-164675D01*
Y-164962D01*
Y-165248D01*
Y-165534D01*
Y-165821D01*
Y-166107D01*
X1010988D01*
Y-166393D01*
X1010701D01*
Y-166680D01*
Y-166966D01*
X1010988D01*
Y-167252D01*
Y-167539D01*
Y-167825D01*
Y-168111D01*
Y-168398D01*
Y-168684D01*
Y-168970D01*
Y-169256D01*
Y-169543D01*
Y-169829D01*
Y-170115D01*
Y-170402D01*
Y-170688D01*
Y-170974D01*
Y-171261D01*
Y-171547D01*
Y-171833D01*
Y-172120D01*
Y-172406D01*
Y-172692D01*
Y-172978D01*
Y-173265D01*
Y-173551D01*
Y-173837D01*
Y-174124D01*
Y-174410D01*
X1011274D01*
Y-174696D01*
Y-174983D01*
Y-175269D01*
X1011560D01*
Y-175555D01*
X1011847D01*
Y-175842D01*
X1012133D01*
Y-176128D01*
X1012992D01*
Y-176414D01*
X1013851D01*
Y-176128D01*
X1014137D01*
Y-175842D01*
Y-175555D01*
Y-175269D01*
X1014423D01*
Y-174983D01*
Y-174696D01*
X1014710D01*
Y-174410D01*
Y-174124D01*
Y-173837D01*
X1014996D01*
Y-173551D01*
Y-173265D01*
Y-172978D01*
X1015283D01*
Y-172692D01*
Y-172406D01*
Y-172120D01*
X1015569D01*
Y-171833D01*
Y-171547D01*
Y-171261D01*
X1015855D01*
Y-170974D01*
Y-170688D01*
X1016141D01*
Y-170402D01*
Y-170115D01*
Y-169829D01*
X1016428D01*
Y-169543D01*
Y-169256D01*
Y-168970D01*
X1016714D01*
Y-168684D01*
Y-168398D01*
Y-168111D01*
X1017000D01*
Y-167825D01*
Y-167539D01*
X1017287D01*
Y-167252D01*
Y-166966D01*
Y-166680D01*
X1017573D01*
Y-166393D01*
Y-166107D01*
Y-165821D01*
X1017859D01*
Y-165534D01*
Y-165248D01*
Y-164962D01*
X1018146D01*
Y-164675D01*
Y-164389D01*
X1018432D01*
Y-164103D01*
Y-163816D01*
Y-163530D01*
X1018718D01*
Y-163244D01*
Y-162958D01*
Y-162671D01*
X1019005D01*
Y-162385D01*
Y-162099D01*
Y-161812D01*
X1019291D01*
Y-161526D01*
Y-161240D01*
X1019577D01*
Y-160953D01*
Y-160667D01*
Y-160381D01*
X1019864D01*
Y-160094D01*
Y-159808D01*
Y-159522D01*
X1020150D01*
Y-159236D01*
Y-158949D01*
Y-158663D01*
X1020436D01*
Y-158377D01*
Y-158090D01*
Y-157804D01*
Y-157518D01*
X1020722D01*
Y-157231D01*
Y-156945D01*
Y-156659D01*
Y-156372D01*
X1021009D01*
Y-156086D01*
Y-155800D01*
Y-155514D01*
Y-155227D01*
Y-154941D01*
X1021295D01*
Y-154655D01*
Y-154368D01*
Y-154082D01*
Y-153796D01*
Y-153509D01*
Y-153223D01*
X1021581D01*
Y-152937D01*
Y-152650D01*
Y-152364D01*
Y-152078D01*
Y-151791D01*
Y-151505D01*
Y-151219D01*
Y-150933D01*
Y-150646D01*
Y-150360D01*
X1034465D01*
Y-150646D01*
D02*
G37*
G36*
X976630Y-133181D02*
Y-133467D01*
X976344D01*
Y-133754D01*
Y-134040D01*
Y-134326D01*
Y-134613D01*
Y-134899D01*
Y-135185D01*
X976058D01*
Y-135472D01*
Y-135758D01*
Y-136044D01*
Y-136330D01*
Y-136617D01*
Y-136903D01*
X975771D01*
Y-137189D01*
Y-137476D01*
Y-137762D01*
Y-138048D01*
Y-138335D01*
Y-138621D01*
Y-138907D01*
X975485D01*
Y-139194D01*
Y-139480D01*
Y-139766D01*
Y-140053D01*
Y-140339D01*
Y-140625D01*
X975199D01*
Y-140911D01*
Y-141198D01*
Y-141484D01*
Y-141771D01*
Y-142057D01*
Y-142343D01*
X974912D01*
Y-142629D01*
Y-142916D01*
Y-143202D01*
Y-143488D01*
Y-143775D01*
Y-144061D01*
Y-144347D01*
X974626D01*
Y-144634D01*
Y-144920D01*
Y-145206D01*
Y-145492D01*
Y-145779D01*
Y-146065D01*
X974340D01*
Y-146352D01*
Y-146638D01*
Y-146924D01*
Y-147210D01*
Y-147497D01*
Y-147783D01*
X974053D01*
Y-148069D01*
Y-148356D01*
Y-148642D01*
Y-148928D01*
Y-149215D01*
Y-149501D01*
X973767D01*
Y-149787D01*
Y-150074D01*
Y-150360D01*
Y-150646D01*
Y-150933D01*
Y-151219D01*
Y-151505D01*
X973481D01*
Y-151791D01*
Y-152078D01*
Y-152364D01*
Y-152650D01*
Y-152937D01*
Y-153223D01*
X973195D01*
Y-153509D01*
Y-153796D01*
X973767D01*
Y-153509D01*
X974053D01*
Y-153223D01*
X974340D01*
Y-152937D01*
X974912D01*
Y-152650D01*
X975199D01*
Y-152364D01*
X975485D01*
Y-152078D01*
X976058D01*
Y-151791D01*
X976630D01*
Y-151505D01*
X976917D01*
Y-151219D01*
X977489D01*
Y-150933D01*
X978348D01*
Y-150646D01*
X978921D01*
Y-150360D01*
X979780D01*
Y-150074D01*
X981211D01*
Y-149787D01*
X987510D01*
Y-150074D01*
X988655D01*
Y-150360D01*
X989514D01*
Y-150646D01*
X990087D01*
Y-150933D01*
X990373D01*
Y-151219D01*
X990946D01*
Y-151505D01*
X991232D01*
Y-151791D01*
X991518D01*
Y-152078D01*
X991805D01*
Y-152364D01*
X992091D01*
Y-152650D01*
Y-152937D01*
X992377D01*
Y-153223D01*
Y-153509D01*
X992664D01*
Y-153796D01*
Y-154082D01*
Y-154368D01*
X992950D01*
Y-154655D01*
Y-154941D01*
Y-155227D01*
Y-155514D01*
X993236D01*
Y-155800D01*
Y-156086D01*
Y-156372D01*
Y-156659D01*
Y-156945D01*
Y-157231D01*
Y-157518D01*
Y-157804D01*
Y-158090D01*
Y-158377D01*
Y-158663D01*
Y-158949D01*
Y-159236D01*
Y-159522D01*
Y-159808D01*
Y-160094D01*
Y-160381D01*
Y-160667D01*
X992950D01*
Y-160953D01*
Y-161240D01*
Y-161526D01*
Y-161812D01*
Y-162099D01*
Y-162385D01*
Y-162671D01*
X992664D01*
Y-162958D01*
Y-163244D01*
Y-163530D01*
Y-163816D01*
Y-164103D01*
Y-164389D01*
Y-164675D01*
X992377D01*
Y-164962D01*
Y-165248D01*
Y-165534D01*
Y-165821D01*
Y-166107D01*
Y-166393D01*
X992091D01*
Y-166680D01*
Y-166966D01*
Y-167252D01*
Y-167539D01*
Y-167825D01*
Y-168111D01*
X991805D01*
Y-168398D01*
Y-168684D01*
Y-168970D01*
Y-169256D01*
Y-169543D01*
Y-169829D01*
X991518D01*
Y-170115D01*
Y-170402D01*
Y-170688D01*
Y-170974D01*
Y-171261D01*
Y-171547D01*
Y-171833D01*
X991232D01*
Y-172120D01*
Y-172406D01*
Y-172692D01*
Y-172978D01*
Y-173265D01*
Y-173551D01*
X990946D01*
Y-173837D01*
Y-174124D01*
Y-174410D01*
Y-174696D01*
Y-174983D01*
Y-175269D01*
X990660D01*
Y-175555D01*
Y-175842D01*
Y-176128D01*
Y-176414D01*
Y-176701D01*
Y-176987D01*
Y-177273D01*
X990373D01*
Y-177560D01*
Y-177846D01*
Y-178132D01*
Y-178419D01*
Y-178705D01*
Y-178991D01*
X990087D01*
Y-179277D01*
Y-179564D01*
Y-179850D01*
Y-180136D01*
Y-180423D01*
Y-180709D01*
X989801D01*
Y-180995D01*
Y-181282D01*
Y-181568D01*
Y-181854D01*
Y-182141D01*
Y-182427D01*
X989514D01*
Y-182713D01*
Y-183000D01*
Y-183286D01*
Y-183572D01*
Y-183858D01*
Y-184145D01*
Y-184431D01*
X989228D01*
Y-184717D01*
Y-185004D01*
Y-185290D01*
Y-185576D01*
Y-185863D01*
Y-186149D01*
X988942D01*
Y-186435D01*
Y-186722D01*
X975771D01*
Y-186435D01*
Y-186149D01*
X976058D01*
Y-185863D01*
Y-185576D01*
Y-185290D01*
Y-185004D01*
Y-184717D01*
Y-184431D01*
X976344D01*
Y-184145D01*
Y-183858D01*
Y-183572D01*
Y-183286D01*
Y-183000D01*
Y-182713D01*
Y-182427D01*
X976630D01*
Y-182141D01*
Y-181854D01*
Y-181568D01*
Y-181282D01*
Y-180995D01*
Y-180709D01*
X976917D01*
Y-180423D01*
Y-180136D01*
Y-179850D01*
Y-179564D01*
Y-179277D01*
Y-178991D01*
X977203D01*
Y-178705D01*
Y-178419D01*
Y-178132D01*
Y-177846D01*
Y-177560D01*
Y-177273D01*
Y-176987D01*
X977489D01*
Y-176701D01*
Y-176414D01*
Y-176128D01*
Y-175842D01*
Y-175555D01*
Y-175269D01*
X977775D01*
Y-174983D01*
Y-174696D01*
Y-174410D01*
Y-174124D01*
Y-173837D01*
Y-173551D01*
Y-173265D01*
X978062D01*
Y-172978D01*
Y-172692D01*
Y-172406D01*
Y-172120D01*
Y-171833D01*
Y-171547D01*
X978348D01*
Y-171261D01*
Y-170974D01*
Y-170688D01*
Y-170402D01*
Y-170115D01*
Y-169829D01*
X978634D01*
Y-169543D01*
Y-169256D01*
Y-168970D01*
Y-168684D01*
Y-168398D01*
Y-168111D01*
X978921D01*
Y-167825D01*
Y-167539D01*
Y-167252D01*
Y-166966D01*
Y-166680D01*
Y-166393D01*
Y-166107D01*
X979207D01*
Y-165821D01*
Y-165534D01*
Y-165248D01*
Y-164962D01*
Y-164675D01*
Y-164389D01*
X979493D01*
Y-164103D01*
Y-163816D01*
Y-163530D01*
Y-163244D01*
Y-162958D01*
Y-162671D01*
Y-162385D01*
X979780D01*
Y-162099D01*
Y-161812D01*
Y-161526D01*
Y-161240D01*
Y-160953D01*
Y-160667D01*
X979493D01*
Y-160381D01*
Y-160094D01*
X979207D01*
Y-159808D01*
X978921D01*
Y-159522D01*
X978348D01*
Y-159236D01*
X976630D01*
Y-159522D01*
X975199D01*
Y-159808D01*
X974340D01*
Y-160094D01*
X973767D01*
Y-160381D01*
X973481D01*
Y-160667D01*
X972908D01*
Y-160953D01*
X972622D01*
Y-161240D01*
X972336D01*
Y-161526D01*
Y-161812D01*
X972049D01*
Y-162099D01*
Y-162385D01*
Y-162671D01*
X971763D01*
Y-162958D01*
Y-163244D01*
Y-163530D01*
Y-163816D01*
Y-164103D01*
Y-164389D01*
X971477D01*
Y-164675D01*
Y-164962D01*
Y-165248D01*
Y-165534D01*
Y-165821D01*
Y-166107D01*
Y-166393D01*
X971190D01*
Y-166680D01*
Y-166966D01*
Y-167252D01*
Y-167539D01*
Y-167825D01*
Y-168111D01*
X970904D01*
Y-168398D01*
Y-168684D01*
Y-168970D01*
Y-169256D01*
Y-169543D01*
Y-169829D01*
X970618D01*
Y-170115D01*
Y-170402D01*
Y-170688D01*
Y-170974D01*
Y-171261D01*
Y-171547D01*
X970331D01*
Y-171833D01*
Y-172120D01*
Y-172406D01*
Y-172692D01*
Y-172978D01*
Y-173265D01*
Y-173551D01*
X970045D01*
Y-173837D01*
Y-174124D01*
Y-174410D01*
Y-174696D01*
Y-174983D01*
Y-175269D01*
X969759D01*
Y-175555D01*
Y-175842D01*
Y-176128D01*
Y-176414D01*
Y-176701D01*
Y-176987D01*
X969472D01*
Y-177273D01*
Y-177560D01*
Y-177846D01*
Y-178132D01*
Y-178419D01*
Y-178705D01*
Y-178991D01*
X969186D01*
Y-179277D01*
Y-179564D01*
Y-179850D01*
Y-180136D01*
Y-180423D01*
Y-180709D01*
X968900D01*
Y-180995D01*
Y-181282D01*
Y-181568D01*
Y-181854D01*
Y-182141D01*
Y-182427D01*
X968614D01*
Y-182713D01*
Y-183000D01*
Y-183286D01*
Y-183572D01*
Y-183858D01*
Y-184145D01*
X968327D01*
Y-184431D01*
Y-184717D01*
Y-185004D01*
Y-185290D01*
Y-185576D01*
Y-185863D01*
Y-186149D01*
X968041D01*
Y-186435D01*
Y-186722D01*
X954870D01*
Y-186435D01*
Y-186149D01*
X955157D01*
Y-185863D01*
Y-185576D01*
Y-185290D01*
Y-185004D01*
Y-184717D01*
Y-184431D01*
Y-184145D01*
X955443D01*
Y-183858D01*
Y-183572D01*
Y-183286D01*
Y-183000D01*
Y-182713D01*
Y-182427D01*
X955729D01*
Y-182141D01*
Y-181854D01*
Y-181568D01*
Y-181282D01*
Y-180995D01*
Y-180709D01*
X956016D01*
Y-180423D01*
Y-180136D01*
Y-179850D01*
Y-179564D01*
Y-179277D01*
Y-178991D01*
Y-178705D01*
X956302D01*
Y-178419D01*
Y-178132D01*
Y-177846D01*
Y-177560D01*
Y-177273D01*
Y-176987D01*
X956588D01*
Y-176701D01*
Y-176414D01*
Y-176128D01*
Y-175842D01*
Y-175555D01*
Y-175269D01*
X956875D01*
Y-174983D01*
Y-174696D01*
Y-174410D01*
Y-174124D01*
Y-173837D01*
Y-173551D01*
X957161D01*
Y-173265D01*
Y-172978D01*
Y-172692D01*
Y-172406D01*
Y-172120D01*
Y-171833D01*
Y-171547D01*
X957447D01*
Y-171261D01*
Y-170974D01*
Y-170688D01*
Y-170402D01*
Y-170115D01*
Y-169829D01*
X957734D01*
Y-169543D01*
Y-169256D01*
Y-168970D01*
Y-168684D01*
Y-168398D01*
Y-168111D01*
X958020D01*
Y-167825D01*
Y-167539D01*
Y-167252D01*
Y-166966D01*
Y-166680D01*
Y-166393D01*
Y-166107D01*
X958306D01*
Y-165821D01*
Y-165534D01*
Y-165248D01*
Y-164962D01*
Y-164675D01*
Y-164389D01*
X958593D01*
Y-164103D01*
Y-163816D01*
Y-163530D01*
Y-163244D01*
Y-162958D01*
Y-162671D01*
X958879D01*
Y-162385D01*
Y-162099D01*
Y-161812D01*
Y-161526D01*
Y-161240D01*
Y-160953D01*
X959165D01*
Y-160667D01*
Y-160381D01*
Y-160094D01*
Y-159808D01*
Y-159522D01*
Y-159236D01*
Y-158949D01*
X959451D01*
Y-158663D01*
Y-158377D01*
Y-158090D01*
Y-157804D01*
Y-157518D01*
Y-157231D01*
X959738D01*
Y-156945D01*
Y-156659D01*
Y-156372D01*
Y-156086D01*
Y-155800D01*
Y-155514D01*
X960024D01*
Y-155227D01*
Y-154941D01*
Y-154655D01*
Y-154368D01*
Y-154082D01*
Y-153796D01*
X960310D01*
Y-153509D01*
Y-153223D01*
Y-152937D01*
Y-152650D01*
Y-152364D01*
Y-152078D01*
Y-151791D01*
X960597D01*
Y-151505D01*
Y-151219D01*
Y-150933D01*
Y-150646D01*
Y-150360D01*
Y-150074D01*
X960883D01*
Y-149787D01*
Y-149501D01*
Y-149215D01*
Y-148928D01*
Y-148642D01*
Y-148356D01*
X961169D01*
Y-148069D01*
Y-147783D01*
Y-147497D01*
Y-147210D01*
Y-146924D01*
Y-146638D01*
Y-146352D01*
X961456D01*
Y-146065D01*
Y-145779D01*
Y-145492D01*
Y-145206D01*
Y-144920D01*
Y-144634D01*
X961742D01*
Y-144347D01*
Y-144061D01*
Y-143775D01*
Y-143488D01*
Y-143202D01*
Y-142916D01*
X962028D01*
Y-142629D01*
Y-142343D01*
Y-142057D01*
Y-141771D01*
Y-141484D01*
Y-141198D01*
X962315D01*
Y-140911D01*
Y-140625D01*
Y-140339D01*
Y-140053D01*
Y-139766D01*
Y-139480D01*
Y-139194D01*
X962601D01*
Y-138907D01*
Y-138621D01*
Y-138335D01*
Y-138048D01*
Y-137762D01*
Y-137476D01*
X962887D01*
Y-137189D01*
Y-136903D01*
Y-136617D01*
Y-136330D01*
Y-136044D01*
Y-135758D01*
X963173D01*
Y-135472D01*
Y-135185D01*
Y-134899D01*
Y-134613D01*
Y-134326D01*
Y-134040D01*
Y-133754D01*
X963460D01*
Y-133467D01*
Y-133181D01*
Y-132895D01*
X976630D01*
Y-133181D01*
D02*
G37*
G36*
X945422Y-136617D02*
X947140D01*
Y-136903D01*
X947999D01*
Y-137189D01*
X948858D01*
Y-137476D01*
X949717D01*
Y-137762D01*
X950289D01*
Y-138048D01*
X950576D01*
Y-138335D01*
X951148D01*
Y-138621D01*
X951435D01*
Y-138907D01*
X952007D01*
Y-139194D01*
X952294D01*
Y-139480D01*
X952580D01*
Y-139766D01*
X952866D01*
Y-140053D01*
X953153D01*
Y-140339D01*
X953439D01*
Y-140625D01*
X953725D01*
Y-140911D01*
Y-141198D01*
X954012D01*
Y-141484D01*
X954298D01*
Y-141771D01*
Y-142057D01*
X954584D01*
Y-142343D01*
X954870D01*
Y-142629D01*
Y-142916D01*
X955157D01*
Y-143202D01*
Y-143488D01*
Y-143775D01*
X955443D01*
Y-144061D01*
Y-144347D01*
Y-144634D01*
X955729D01*
Y-144920D01*
Y-145206D01*
Y-145492D01*
Y-145779D01*
X956016D01*
Y-146065D01*
Y-146352D01*
Y-146638D01*
Y-146924D01*
Y-147210D01*
X956302D01*
Y-147497D01*
Y-147783D01*
Y-148069D01*
Y-148356D01*
Y-148642D01*
Y-148928D01*
Y-149215D01*
Y-149501D01*
Y-149787D01*
Y-150074D01*
Y-150360D01*
Y-150646D01*
Y-150933D01*
Y-151219D01*
Y-151505D01*
Y-151791D01*
Y-152078D01*
Y-152364D01*
Y-152650D01*
Y-152937D01*
X956016D01*
Y-153223D01*
Y-153509D01*
Y-153796D01*
Y-154082D01*
Y-154368D01*
Y-154655D01*
Y-154941D01*
X955729D01*
Y-155227D01*
Y-155514D01*
Y-155800D01*
Y-156086D01*
Y-156372D01*
X955443D01*
Y-156659D01*
Y-156945D01*
Y-157231D01*
Y-157518D01*
Y-157804D01*
X955157D01*
Y-158090D01*
Y-158377D01*
Y-158663D01*
X954870D01*
Y-158949D01*
Y-159236D01*
Y-159522D01*
Y-159808D01*
X954584D01*
Y-160094D01*
Y-160381D01*
Y-160667D01*
X954298D01*
Y-160953D01*
Y-161240D01*
X954012D01*
Y-161526D01*
Y-161812D01*
Y-162099D01*
X953725D01*
Y-162385D01*
Y-162671D01*
X953439D01*
Y-162958D01*
Y-163244D01*
X953153D01*
Y-163530D01*
Y-163816D01*
X952866D01*
Y-164103D01*
X952580D01*
Y-164389D01*
Y-164675D01*
X952294D01*
Y-164962D01*
X952007D01*
Y-165248D01*
X951721D01*
Y-165534D01*
Y-165821D01*
X951435D01*
Y-166107D01*
X951148D01*
Y-166393D01*
X950862D01*
Y-166680D01*
X950576D01*
Y-166966D01*
X950289D01*
Y-167252D01*
X949717D01*
Y-167539D01*
X949430D01*
Y-167825D01*
X948858D01*
Y-168111D01*
X948572D01*
Y-168398D01*
X947999D01*
Y-168684D01*
X947140D01*
Y-168970D01*
X946281D01*
Y-169256D01*
X945422D01*
Y-169543D01*
X943704D01*
Y-169829D01*
X938551D01*
Y-169543D01*
X935974D01*
Y-169256D01*
X933970D01*
Y-168970D01*
X932538D01*
Y-168684D01*
X931106D01*
Y-168398D01*
X929675D01*
Y-168684D01*
Y-168970D01*
Y-169256D01*
Y-169543D01*
Y-169829D01*
Y-170115D01*
Y-170402D01*
X929389D01*
Y-170688D01*
Y-170974D01*
Y-171261D01*
Y-171547D01*
Y-171833D01*
Y-172120D01*
X929102D01*
Y-172406D01*
Y-172692D01*
Y-172978D01*
Y-173265D01*
Y-173551D01*
Y-173837D01*
X928816D01*
Y-174124D01*
Y-174410D01*
Y-174696D01*
Y-174983D01*
Y-175269D01*
Y-175555D01*
Y-175842D01*
X928530D01*
Y-176128D01*
Y-176414D01*
Y-176701D01*
Y-176987D01*
Y-177273D01*
Y-177560D01*
X928243D01*
Y-177846D01*
Y-178132D01*
Y-178419D01*
Y-178705D01*
Y-178991D01*
Y-179277D01*
X927957D01*
Y-179564D01*
Y-179850D01*
Y-180136D01*
Y-180423D01*
Y-180709D01*
Y-180995D01*
Y-181282D01*
X927671D01*
Y-181568D01*
Y-181854D01*
Y-182141D01*
Y-182427D01*
Y-182713D01*
Y-183000D01*
X927384D01*
Y-183286D01*
Y-183572D01*
Y-183858D01*
Y-184145D01*
Y-184431D01*
Y-184717D01*
X927098D01*
Y-185004D01*
Y-185290D01*
Y-185576D01*
Y-185863D01*
Y-186149D01*
Y-186435D01*
Y-186722D01*
X913641D01*
Y-186435D01*
X913928D01*
Y-186149D01*
Y-185863D01*
Y-185576D01*
Y-185290D01*
Y-185004D01*
X914214D01*
Y-184717D01*
Y-184431D01*
Y-184145D01*
Y-183858D01*
Y-183572D01*
Y-183286D01*
Y-183000D01*
X914500D01*
Y-182713D01*
Y-182427D01*
Y-182141D01*
Y-181854D01*
Y-181568D01*
Y-181282D01*
X914787D01*
Y-180995D01*
Y-180709D01*
Y-180423D01*
Y-180136D01*
Y-179850D01*
Y-179564D01*
X915073D01*
Y-179277D01*
Y-178991D01*
Y-178705D01*
Y-178419D01*
Y-178132D01*
Y-177846D01*
Y-177560D01*
X915359D01*
Y-177273D01*
Y-176987D01*
Y-176701D01*
Y-176414D01*
Y-176128D01*
Y-175842D01*
X915646D01*
Y-175555D01*
Y-175269D01*
Y-174983D01*
Y-174696D01*
Y-174410D01*
Y-174124D01*
X915932D01*
Y-173837D01*
Y-173551D01*
Y-173265D01*
Y-172978D01*
Y-172692D01*
Y-172406D01*
X916218D01*
Y-172120D01*
Y-171833D01*
Y-171547D01*
Y-171261D01*
Y-170974D01*
Y-170688D01*
Y-170402D01*
X916504D01*
Y-170115D01*
Y-169829D01*
Y-169543D01*
Y-169256D01*
Y-168970D01*
Y-168684D01*
X916791D01*
Y-168398D01*
Y-168111D01*
Y-167825D01*
Y-167539D01*
Y-167252D01*
Y-166966D01*
X917077D01*
Y-166680D01*
Y-166393D01*
Y-166107D01*
Y-165821D01*
Y-165534D01*
Y-165248D01*
X917363D01*
Y-164962D01*
Y-164675D01*
Y-164389D01*
Y-164103D01*
Y-163816D01*
Y-163530D01*
Y-163244D01*
X917650D01*
Y-162958D01*
Y-162671D01*
Y-162385D01*
Y-162099D01*
Y-161812D01*
Y-161526D01*
X917936D01*
Y-161240D01*
Y-160953D01*
Y-160667D01*
Y-160381D01*
Y-160094D01*
Y-159808D01*
X918222D01*
Y-159522D01*
Y-159236D01*
Y-158949D01*
Y-158663D01*
Y-158377D01*
Y-158090D01*
Y-157804D01*
X918509D01*
Y-157518D01*
Y-157231D01*
Y-156945D01*
Y-156659D01*
Y-156372D01*
Y-156086D01*
X918795D01*
Y-155800D01*
Y-155514D01*
Y-155227D01*
Y-154941D01*
Y-154655D01*
Y-154368D01*
X919081D01*
Y-154082D01*
Y-153796D01*
Y-153509D01*
Y-153223D01*
Y-152937D01*
Y-152650D01*
X919368D01*
Y-152364D01*
Y-152078D01*
Y-151791D01*
Y-151505D01*
Y-151219D01*
Y-150933D01*
Y-150646D01*
X919654D01*
Y-150360D01*
Y-150074D01*
Y-149787D01*
Y-149501D01*
Y-149215D01*
Y-148928D01*
X919940D01*
Y-148642D01*
Y-148356D01*
Y-148069D01*
Y-147783D01*
Y-147497D01*
Y-147210D01*
X920227D01*
Y-146924D01*
Y-146638D01*
Y-146352D01*
Y-146065D01*
Y-145779D01*
Y-145492D01*
Y-145206D01*
X920513D01*
Y-144920D01*
Y-144634D01*
Y-144347D01*
Y-144061D01*
Y-143775D01*
Y-143488D01*
X920799D01*
Y-143202D01*
Y-142916D01*
Y-142629D01*
Y-142343D01*
Y-142057D01*
Y-141771D01*
X921085D01*
Y-141484D01*
Y-141198D01*
Y-140911D01*
Y-140625D01*
Y-140339D01*
Y-140053D01*
Y-139766D01*
X921372D01*
Y-139480D01*
Y-139194D01*
Y-138907D01*
Y-138621D01*
Y-138335D01*
Y-138048D01*
X921658D01*
Y-137762D01*
Y-137476D01*
Y-137189D01*
Y-136903D01*
Y-136617D01*
Y-136330D01*
X945422D01*
Y-136617D01*
D02*
G37*
G36*
X1078558Y-150646D02*
X1078271D01*
Y-150933D01*
X1077985D01*
Y-151219D01*
Y-151505D01*
X1077699D01*
Y-151791D01*
X1077412D01*
Y-152078D01*
X1077126D01*
Y-152364D01*
Y-152650D01*
X1076840D01*
Y-152937D01*
X1076553D01*
Y-153223D01*
X1076267D01*
Y-153509D01*
X1075981D01*
Y-153796D01*
Y-154082D01*
X1075694D01*
Y-154368D01*
X1075408D01*
Y-154655D01*
X1075122D01*
Y-154941D01*
Y-155227D01*
X1074835D01*
Y-155514D01*
X1074549D01*
Y-155800D01*
X1074263D01*
Y-156086D01*
X1073977D01*
Y-156372D01*
Y-156659D01*
X1073690D01*
Y-156945D01*
X1073404D01*
Y-157231D01*
X1073118D01*
Y-157518D01*
Y-157804D01*
X1072831D01*
Y-158090D01*
X1072545D01*
Y-158377D01*
X1072259D01*
Y-158663D01*
Y-158949D01*
X1071972D01*
Y-159236D01*
X1071686D01*
Y-159522D01*
X1071400D01*
Y-159808D01*
X1071113D01*
Y-160094D01*
Y-160381D01*
X1070827D01*
Y-160667D01*
X1070541D01*
Y-160953D01*
X1070255D01*
Y-161240D01*
Y-161526D01*
X1069968D01*
Y-161812D01*
X1069682D01*
Y-162099D01*
X1069396D01*
Y-162385D01*
Y-162671D01*
X1069109D01*
Y-162958D01*
X1068823D01*
Y-163244D01*
X1068537D01*
Y-163530D01*
X1068250D01*
Y-163816D01*
Y-164103D01*
X1067964D01*
Y-164389D01*
X1067678D01*
Y-164675D01*
X1067391D01*
Y-164962D01*
Y-165248D01*
X1067105D01*
Y-165534D01*
X1066819D01*
Y-165821D01*
X1066533D01*
Y-166107D01*
Y-166393D01*
X1066246D01*
Y-166680D01*
X1065960D01*
Y-166966D01*
X1065674D01*
Y-167252D01*
X1065387D01*
Y-167539D01*
Y-167825D01*
X1065101D01*
Y-168111D01*
X1064815D01*
Y-168398D01*
X1064528D01*
Y-168684D01*
Y-168970D01*
X1064242D01*
Y-169256D01*
X1063956D01*
Y-169543D01*
X1063669D01*
Y-169829D01*
X1063383D01*
Y-170115D01*
Y-170402D01*
X1063669D01*
Y-170688D01*
Y-170974D01*
X1063956D01*
Y-171261D01*
Y-171547D01*
X1064242D01*
Y-171833D01*
X1064528D01*
Y-172120D01*
Y-172406D01*
X1064815D01*
Y-172692D01*
Y-172978D01*
X1065101D01*
Y-173265D01*
Y-173551D01*
X1065387D01*
Y-173837D01*
Y-174124D01*
X1065674D01*
Y-174410D01*
Y-174696D01*
X1065960D01*
Y-174983D01*
Y-175269D01*
X1066246D01*
Y-175555D01*
Y-175842D01*
X1066533D01*
Y-176128D01*
Y-176414D01*
X1066819D01*
Y-176701D01*
X1067105D01*
Y-176987D01*
Y-177273D01*
X1067391D01*
Y-177560D01*
Y-177846D01*
X1067678D01*
Y-178132D01*
Y-178419D01*
X1067964D01*
Y-178705D01*
Y-178991D01*
X1068250D01*
Y-179277D01*
Y-179564D01*
X1068537D01*
Y-179850D01*
Y-180136D01*
X1068823D01*
Y-180423D01*
Y-180709D01*
X1069109D01*
Y-180995D01*
X1069396D01*
Y-181282D01*
Y-181568D01*
X1069682D01*
Y-181854D01*
Y-182141D01*
X1069968D01*
Y-182427D01*
Y-182713D01*
X1070255D01*
Y-183000D01*
Y-183286D01*
X1070541D01*
Y-183572D01*
Y-183858D01*
X1070827D01*
Y-184145D01*
Y-184431D01*
X1071113D01*
Y-184717D01*
Y-185004D01*
X1071400D01*
Y-185290D01*
X1071686D01*
Y-185576D01*
Y-185863D01*
X1071972D01*
Y-186149D01*
Y-186435D01*
X1072259D01*
Y-186722D01*
X1057084D01*
Y-186435D01*
X1056798D01*
Y-186149D01*
Y-185863D01*
Y-185576D01*
X1056511D01*
Y-185290D01*
Y-185004D01*
Y-184717D01*
X1056225D01*
Y-184431D01*
Y-184145D01*
X1055939D01*
Y-183858D01*
Y-183572D01*
Y-183286D01*
X1055653D01*
Y-183000D01*
Y-182713D01*
Y-182427D01*
X1055366D01*
Y-182141D01*
Y-181854D01*
X1055080D01*
Y-181568D01*
Y-181282D01*
Y-180995D01*
X1054794D01*
Y-180709D01*
Y-180423D01*
Y-180136D01*
X1054507D01*
Y-179850D01*
Y-179564D01*
Y-179277D01*
X1054221D01*
Y-178991D01*
X1053648D01*
Y-179277D01*
Y-179564D01*
X1053362D01*
Y-179850D01*
X1053076D01*
Y-180136D01*
Y-180423D01*
X1052789D01*
Y-180709D01*
X1052503D01*
Y-180995D01*
Y-181282D01*
X1052217D01*
Y-181568D01*
X1051931D01*
Y-181854D01*
Y-182141D01*
X1051644D01*
Y-182427D01*
X1051358D01*
Y-182713D01*
X1051072D01*
Y-183000D01*
Y-183286D01*
X1050785D01*
Y-183572D01*
X1050499D01*
Y-183858D01*
Y-184145D01*
X1050213D01*
Y-184431D01*
X1049926D01*
Y-184717D01*
Y-185004D01*
X1049640D01*
Y-185290D01*
X1049354D01*
Y-185576D01*
Y-185863D01*
X1049067D01*
Y-186149D01*
X1048781D01*
Y-186435D01*
Y-186722D01*
X1032747D01*
Y-186435D01*
X1033034D01*
Y-186149D01*
X1033320D01*
Y-185863D01*
X1033607D01*
Y-185576D01*
X1033893D01*
Y-185290D01*
Y-185004D01*
X1034179D01*
Y-184717D01*
X1034465D01*
Y-184431D01*
X1034752D01*
Y-184145D01*
X1035038D01*
Y-183858D01*
Y-183572D01*
X1035324D01*
Y-183286D01*
X1035611D01*
Y-183000D01*
X1035897D01*
Y-182713D01*
Y-182427D01*
X1036183D01*
Y-182141D01*
X1036470D01*
Y-181854D01*
X1036756D01*
Y-181568D01*
X1037042D01*
Y-181282D01*
Y-180995D01*
X1037329D01*
Y-180709D01*
X1037615D01*
Y-180423D01*
X1037901D01*
Y-180136D01*
X1038188D01*
Y-179850D01*
Y-179564D01*
X1038474D01*
Y-179277D01*
X1038760D01*
Y-178991D01*
X1039046D01*
Y-178705D01*
Y-178419D01*
X1039333D01*
Y-178132D01*
X1039619D01*
Y-177846D01*
X1039905D01*
Y-177560D01*
X1040192D01*
Y-177273D01*
Y-176987D01*
X1040478D01*
Y-176701D01*
X1040764D01*
Y-176414D01*
X1041051D01*
Y-176128D01*
Y-175842D01*
X1041337D01*
Y-175555D01*
X1041623D01*
Y-175269D01*
X1041910D01*
Y-174983D01*
X1042196D01*
Y-174696D01*
Y-174410D01*
X1042482D01*
Y-174124D01*
X1042768D01*
Y-173837D01*
X1043055D01*
Y-173551D01*
Y-173265D01*
X1043341D01*
Y-172978D01*
X1043627D01*
Y-172692D01*
X1043914D01*
Y-172406D01*
X1044200D01*
Y-172120D01*
Y-171833D01*
X1044486D01*
Y-171547D01*
X1044773D01*
Y-171261D01*
X1045059D01*
Y-170974D01*
X1045345D01*
Y-170688D01*
Y-170402D01*
X1045632D01*
Y-170115D01*
X1045918D01*
Y-169829D01*
X1046204D01*
Y-169543D01*
Y-169256D01*
X1046491D01*
Y-168970D01*
X1046777D01*
Y-168684D01*
X1047063D01*
Y-168398D01*
X1047349D01*
Y-168111D01*
Y-167825D01*
X1047636D01*
Y-167539D01*
Y-167252D01*
Y-166966D01*
X1047349D01*
Y-166680D01*
X1047063D01*
Y-166393D01*
Y-166107D01*
X1046777D01*
Y-165821D01*
Y-165534D01*
X1046491D01*
Y-165248D01*
Y-164962D01*
X1046204D01*
Y-164675D01*
Y-164389D01*
X1045918D01*
Y-164103D01*
Y-163816D01*
X1045632D01*
Y-163530D01*
Y-163244D01*
X1045345D01*
Y-162958D01*
X1045059D01*
Y-162671D01*
Y-162385D01*
X1044773D01*
Y-162099D01*
Y-161812D01*
X1044486D01*
Y-161526D01*
Y-161240D01*
X1044200D01*
Y-160953D01*
Y-160667D01*
X1043914D01*
Y-160381D01*
Y-160094D01*
X1043627D01*
Y-159808D01*
Y-159522D01*
X1043341D01*
Y-159236D01*
X1043055D01*
Y-158949D01*
Y-158663D01*
X1042768D01*
Y-158377D01*
Y-158090D01*
X1042482D01*
Y-157804D01*
Y-157518D01*
X1042196D01*
Y-157231D01*
Y-156945D01*
X1041910D01*
Y-156659D01*
Y-156372D01*
X1041623D01*
Y-156086D01*
Y-155800D01*
X1041337D01*
Y-155514D01*
Y-155227D01*
X1041051D01*
Y-154941D01*
X1040764D01*
Y-154655D01*
Y-154368D01*
X1040478D01*
Y-154082D01*
Y-153796D01*
X1040192D01*
Y-153509D01*
Y-153223D01*
X1039905D01*
Y-152937D01*
Y-152650D01*
X1039619D01*
Y-152364D01*
Y-152078D01*
X1039333D01*
Y-151791D01*
Y-151505D01*
X1039046D01*
Y-151219D01*
X1038760D01*
Y-150933D01*
Y-150646D01*
X1038474D01*
Y-150360D01*
X1054221D01*
Y-150646D01*
X1054507D01*
Y-150933D01*
Y-151219D01*
Y-151505D01*
X1054794D01*
Y-151791D01*
Y-152078D01*
Y-152364D01*
X1055080D01*
Y-152650D01*
Y-152937D01*
Y-153223D01*
X1055366D01*
Y-153509D01*
Y-153796D01*
Y-154082D01*
X1055653D01*
Y-154368D01*
Y-154655D01*
Y-154941D01*
X1055939D01*
Y-155227D01*
Y-155514D01*
Y-155800D01*
X1056225D01*
Y-156086D01*
Y-156372D01*
Y-156659D01*
X1056511D01*
Y-156945D01*
Y-157231D01*
Y-157518D01*
X1056798D01*
Y-157804D01*
Y-158090D01*
Y-158377D01*
Y-158663D01*
X1057370D01*
Y-158377D01*
X1057657D01*
Y-158090D01*
X1057943D01*
Y-157804D01*
Y-157518D01*
X1058229D01*
Y-157231D01*
X1058516D01*
Y-156945D01*
Y-156659D01*
X1058802D01*
Y-156372D01*
X1059088D01*
Y-156086D01*
Y-155800D01*
X1059375D01*
Y-155514D01*
X1059661D01*
Y-155227D01*
Y-154941D01*
X1059947D01*
Y-154655D01*
X1060234D01*
Y-154368D01*
Y-154082D01*
X1060520D01*
Y-153796D01*
X1060806D01*
Y-153509D01*
Y-153223D01*
X1061092D01*
Y-152937D01*
X1061379D01*
Y-152650D01*
Y-152364D01*
X1061665D01*
Y-152078D01*
X1061951D01*
Y-151791D01*
Y-151505D01*
X1062238D01*
Y-151219D01*
X1062524D01*
Y-150933D01*
Y-150646D01*
X1062810D01*
Y-150360D01*
X1078558D01*
Y-150646D01*
D02*
G37*
%LPC*%
G36*
X941127Y-147497D02*
X933111D01*
Y-147783D01*
Y-148069D01*
Y-148356D01*
Y-148642D01*
Y-148928D01*
X932824D01*
Y-149215D01*
Y-149501D01*
Y-149787D01*
Y-150074D01*
Y-150360D01*
Y-150646D01*
X932538D01*
Y-150933D01*
Y-151219D01*
Y-151505D01*
Y-151791D01*
Y-152078D01*
Y-152364D01*
X932252D01*
Y-152650D01*
Y-152937D01*
Y-153223D01*
Y-153509D01*
Y-153796D01*
Y-154082D01*
X931965D01*
Y-154368D01*
Y-154655D01*
Y-154941D01*
Y-155227D01*
Y-155514D01*
Y-155800D01*
Y-156086D01*
X931679D01*
Y-156372D01*
Y-156659D01*
Y-156945D01*
Y-157231D01*
Y-157518D01*
Y-157804D01*
X931393D01*
Y-158090D01*
Y-158377D01*
Y-158663D01*
X938551D01*
Y-158377D01*
X939696D01*
Y-158090D01*
X940269D01*
Y-157804D01*
X940555D01*
Y-157518D01*
X940841D01*
Y-157231D01*
X941127D01*
Y-156945D01*
X941414D01*
Y-156659D01*
Y-156372D01*
X941700D01*
Y-156086D01*
Y-155800D01*
X941986D01*
Y-155514D01*
Y-155227D01*
X942273D01*
Y-154941D01*
Y-154655D01*
Y-154368D01*
Y-154082D01*
X942559D01*
Y-153796D01*
Y-153509D01*
Y-153223D01*
Y-152937D01*
Y-152650D01*
X942845D01*
Y-152364D01*
Y-152078D01*
Y-151791D01*
Y-151505D01*
Y-151219D01*
Y-150933D01*
Y-150646D01*
Y-150360D01*
Y-150074D01*
Y-149787D01*
Y-149501D01*
X942559D01*
Y-149215D01*
Y-148928D01*
X942273D01*
Y-148642D01*
Y-148356D01*
X941986D01*
Y-148069D01*
X941700D01*
Y-147783D01*
X941127D01*
Y-147497D01*
D02*
G37*
%LPD*%
D18*
X-283465Y-263779D02*
X1370079D01*
X-283465D02*
Y905512D01*
X1370079Y-263779D02*
Y905512D01*
X-283465D02*
X1370079D01*
X1094488Y-263779D02*
Y-106299D01*
X897638Y-263779D02*
Y-106299D01*
X1370079D01*
X897638Y-224410D02*
X1370079D01*
X1094488Y-185039D02*
X1370079D01*
X1094488Y-145669D02*
X1370079D01*
X1251968Y-224410D02*
Y-185039D01*
X1104331Y-250002D02*
Y-254922D01*
X1105315Y-255906D01*
X1107283D01*
X1108266Y-254922D01*
Y-250002D01*
X1114170Y-250986D02*
X1113186Y-250002D01*
X1111218D01*
X1110234Y-250986D01*
Y-251970D01*
X1111218Y-252954D01*
X1113186D01*
X1114170Y-253938D01*
Y-254922D01*
X1113186Y-255906D01*
X1111218D01*
X1110234Y-254922D01*
X1116138Y-250002D02*
Y-255906D01*
X1119090D01*
X1120074Y-254922D01*
Y-253938D01*
X1119090Y-252954D01*
X1116138D01*
X1119090D01*
X1120074Y-251970D01*
Y-250986D01*
X1119090Y-250002D01*
X1116138D01*
X1122042Y-256889D02*
X1125977D01*
X1127945Y-250002D02*
X1129913D01*
X1128929D01*
Y-255906D01*
X1127945D01*
X1129913D01*
X1136800Y-250986D02*
X1135817Y-250002D01*
X1133849D01*
X1132865Y-250986D01*
Y-251970D01*
X1133849Y-252954D01*
X1135817D01*
X1136800Y-253938D01*
Y-254922D01*
X1135817Y-255906D01*
X1133849D01*
X1132865Y-254922D01*
X1141720Y-250002D02*
X1139752D01*
X1138768Y-250986D01*
Y-254922D01*
X1139752Y-255906D01*
X1141720D01*
X1142704Y-254922D01*
Y-250986D01*
X1141720Y-250002D01*
X1144672Y-256889D02*
X1148608D01*
X1154511Y-250002D02*
X1150576D01*
Y-252954D01*
X1152543D01*
X1150576D01*
Y-255906D01*
X1160415Y-250986D02*
X1159431Y-250002D01*
X1157463D01*
X1156479Y-250986D01*
Y-251970D01*
X1157463Y-252954D01*
X1159431D01*
X1160415Y-253938D01*
Y-254922D01*
X1159431Y-255906D01*
X1157463D01*
X1156479Y-254922D01*
X1162383Y-256889D02*
X1166319D01*
X1168286Y-250986D02*
X1169270Y-250002D01*
X1171238D01*
X1172222Y-250986D01*
Y-254922D01*
X1171238Y-255906D01*
X1169270D01*
X1168286Y-254922D01*
Y-250986D01*
X1174190D02*
X1175174Y-250002D01*
X1177142D01*
X1178126Y-250986D01*
Y-254922D01*
X1177142Y-255906D01*
X1175174D01*
X1174190Y-254922D01*
Y-250986D01*
X1180094Y-255906D02*
Y-254922D01*
X1181077D01*
Y-255906D01*
X1180094D01*
X1185013D02*
Y-250002D01*
X1187965D01*
X1188949Y-250986D01*
Y-252954D01*
X1187965Y-253938D01*
X1185013D01*
X1194853Y-251970D02*
X1191901D01*
X1190917Y-252954D01*
Y-254922D01*
X1191901Y-255906D01*
X1194853D01*
X1196820Y-250002D02*
Y-255906D01*
X1199772D01*
X1200756Y-254922D01*
Y-253938D01*
Y-252954D01*
X1199772Y-251970D01*
X1196820D01*
X1202724Y-250002D02*
Y-255906D01*
X1205676D01*
X1206660Y-254922D01*
Y-250986D01*
X1205676Y-250002D01*
X1202724D01*
X1209612Y-255906D02*
X1211579D01*
X1212563Y-254922D01*
Y-252954D01*
X1211579Y-251970D01*
X1209612D01*
X1208628Y-252954D01*
Y-254922D01*
X1209612Y-255906D01*
X1218467Y-251970D02*
X1215515D01*
X1214531Y-252954D01*
Y-254922D01*
X1215515Y-255906D01*
X1218467D01*
D20*
X1116142Y-163390D02*
Y-177165D01*
X1123029D01*
X1125325Y-174870D01*
Y-172574D01*
X1123029Y-170278D01*
X1116142D01*
X1123029D01*
X1125325Y-167982D01*
Y-165686D01*
X1123029Y-163390D01*
X1116142D01*
X1132213Y-177165D02*
X1136804D01*
X1139100Y-174870D01*
Y-170278D01*
X1136804Y-167982D01*
X1132213D01*
X1129917Y-170278D01*
Y-174870D01*
X1132213Y-177165D01*
X1145988Y-165686D02*
Y-167982D01*
X1143692D01*
X1148284D01*
X1145988D01*
Y-174870D01*
X1148284Y-177165D01*
X1157467Y-165686D02*
Y-167982D01*
X1155171D01*
X1159763D01*
X1157467D01*
Y-174870D01*
X1159763Y-177165D01*
X1168946D02*
X1173538D01*
X1175834Y-174870D01*
Y-170278D01*
X1173538Y-167982D01*
X1168946D01*
X1166650Y-170278D01*
Y-174870D01*
X1168946Y-177165D01*
X1180425D02*
Y-167982D01*
X1182721D01*
X1185017Y-170278D01*
Y-177165D01*
Y-170278D01*
X1187313Y-167982D01*
X1189609Y-170278D01*
Y-177165D01*
X1214863Y-163390D02*
X1210271D01*
X1207976Y-165686D01*
Y-174870D01*
X1210271Y-177165D01*
X1214863D01*
X1217159Y-174870D01*
Y-165686D01*
X1214863Y-163390D01*
X1221751Y-167982D02*
X1226342Y-177165D01*
X1230934Y-167982D01*
X1242413Y-177165D02*
X1237822D01*
X1235526Y-174870D01*
Y-170278D01*
X1237822Y-167982D01*
X1242413D01*
X1244709Y-170278D01*
Y-172574D01*
X1235526D01*
X1249301Y-167982D02*
Y-177165D01*
Y-172574D01*
X1251597Y-170278D01*
X1253893Y-167982D01*
X1256188D01*
X1263076Y-177165D02*
X1267668D01*
X1265372D01*
Y-163390D01*
X1263076D01*
X1276851Y-167982D02*
X1281443D01*
X1283739Y-170278D01*
Y-177165D01*
X1276851D01*
X1274555Y-174870D01*
X1276851Y-172574D01*
X1283739D01*
X1288330Y-167982D02*
Y-174870D01*
X1290626Y-177165D01*
X1297514D01*
Y-179461D01*
X1295218Y-181757D01*
X1292922D01*
X1297514Y-177165D02*
Y-167982D01*
X1104331Y-124021D02*
Y-137140D01*
X1106954Y-139764D01*
X1112202D01*
X1114826Y-137140D01*
Y-124021D01*
X1130569Y-126645D02*
X1127945Y-124021D01*
X1122698D01*
X1120074Y-126645D01*
Y-129269D01*
X1122698Y-131892D01*
X1127945D01*
X1130569Y-134516D01*
Y-137140D01*
X1127945Y-139764D01*
X1122698D01*
X1120074Y-137140D01*
X1135817Y-124021D02*
Y-139764D01*
X1143688D01*
X1146312Y-137140D01*
Y-134516D01*
X1143688Y-131892D01*
X1135817D01*
X1143688D01*
X1146312Y-129269D01*
Y-126645D01*
X1143688Y-124021D01*
X1135817D01*
X1151560Y-142388D02*
X1162055D01*
X1167303Y-124021D02*
X1172550D01*
X1169926D01*
Y-139764D01*
X1167303D01*
X1172550D01*
X1190917Y-126645D02*
X1188293Y-124021D01*
X1183045D01*
X1180422Y-126645D01*
Y-129269D01*
X1183045Y-131892D01*
X1188293D01*
X1190917Y-134516D01*
Y-137140D01*
X1188293Y-139764D01*
X1183045D01*
X1180422Y-137140D01*
X1204036Y-124021D02*
X1198788D01*
X1196165Y-126645D01*
Y-137140D01*
X1198788Y-139764D01*
X1204036D01*
X1206660Y-137140D01*
Y-126645D01*
X1204036Y-124021D01*
X1211907Y-142388D02*
X1222403D01*
X1238146Y-124021D02*
X1227650D01*
Y-131892D01*
X1232898D01*
X1227650D01*
Y-139764D01*
X1253889Y-126645D02*
X1251265Y-124021D01*
X1246017D01*
X1243393Y-126645D01*
Y-129269D01*
X1246017Y-131892D01*
X1251265D01*
X1253889Y-134516D01*
Y-137140D01*
X1251265Y-139764D01*
X1246017D01*
X1243393Y-137140D01*
X1110236Y-218504D02*
X1114828D01*
X1112532D01*
Y-204729D01*
X1110236Y-207025D01*
X1121715Y-218504D02*
X1126307D01*
X1124011D01*
Y-204729D01*
X1121715Y-207025D01*
X1133195Y-218504D02*
X1142378Y-209321D01*
X1146970Y-207025D02*
X1149266Y-204729D01*
X1153857D01*
X1156153Y-207025D01*
Y-216208D01*
X1153857Y-218504D01*
X1149266D01*
X1146970Y-216208D01*
Y-207025D01*
X1160745Y-218504D02*
X1165337D01*
X1163041D01*
Y-204729D01*
X1160745Y-207025D01*
X1172224Y-218504D02*
X1181407Y-209321D01*
X1195183Y-218504D02*
X1185999D01*
X1195183Y-209321D01*
Y-207025D01*
X1192887Y-204729D01*
X1188295D01*
X1185999Y-207025D01*
X1199774D02*
X1202070Y-204729D01*
X1206662D01*
X1208958Y-207025D01*
Y-216208D01*
X1206662Y-218504D01*
X1202070D01*
X1199774Y-216208D01*
Y-207025D01*
X1213549Y-218504D02*
X1218141D01*
X1215845D01*
Y-204729D01*
X1213549Y-207025D01*
X1225029Y-204729D02*
X1234212D01*
Y-207025D01*
X1225029Y-216208D01*
Y-218504D01*
X1273622Y-205385D02*
X1276246Y-202761D01*
X1281493D01*
X1284117Y-205385D01*
Y-215880D01*
X1281493Y-218504D01*
X1276246D01*
X1273622Y-215880D01*
Y-205385D01*
X1289365D02*
X1291989Y-202761D01*
X1297236D01*
X1299860Y-205385D01*
Y-215880D01*
X1297236Y-218504D01*
X1291989D01*
X1289365Y-215880D01*
Y-205385D01*
X919291Y-242131D02*
Y-257874D01*
X924539Y-252626D01*
X929787Y-257874D01*
Y-242131D01*
X935034Y-257874D02*
X940282D01*
X937658D01*
Y-247379D01*
X935034D01*
X948153Y-257874D02*
Y-247379D01*
X950777D01*
X953401Y-250003D01*
Y-257874D01*
Y-250003D01*
X956025Y-247379D01*
X958649Y-250003D01*
Y-257874D01*
X963896Y-242131D02*
Y-252626D01*
X969144Y-257874D01*
X974392Y-252626D01*
Y-242131D01*
X990135Y-244755D02*
X987511Y-242131D01*
X982263D01*
X979639Y-244755D01*
Y-255250D01*
X982263Y-257874D01*
X987511D01*
X990135Y-255250D01*
Y-250003D01*
X984887D01*
D21*
X-62008Y-73819D02*
G03*
X-73819Y-62008I-11811J0D01*
G01*
X62008Y73819D02*
G03*
X73819Y62008I11811J0D01*
G01*
X-82677Y86614D02*
G03*
X-86614Y82677I0J-3937D01*
G01*
X82677Y-86614D02*
G03*
X86614Y-82677I0J3937D01*
G01*
X-86614Y-62008D02*
X-73819D01*
X-62008Y-86614D02*
Y-73819D01*
X62008Y73819D02*
Y86614D01*
X73819Y62008D02*
X86614D01*
X-86614Y-62008D02*
Y82677D01*
X-82677Y86614D02*
X62008D01*
X-62008Y-86614D02*
X82677D01*
X86614Y-82677D02*
Y62008D01*
D22*
X1098425Y-228349D02*
Y-236221D01*
X1102361D01*
X1103673Y-234909D01*
Y-229661D01*
X1102361Y-228349D01*
X1098425D01*
X1107609Y-236221D02*
X1110232D01*
X1111544Y-234909D01*
Y-232285D01*
X1110232Y-230973D01*
X1107609D01*
X1106297Y-232285D01*
Y-234909D01*
X1107609Y-236221D01*
X1119416Y-230973D02*
X1115480D01*
X1114168Y-232285D01*
Y-234909D01*
X1115480Y-236221D01*
X1119416D01*
X1122040Y-230973D02*
Y-234909D01*
X1123351Y-236221D01*
X1127287D01*
Y-230973D01*
X1129911Y-236221D02*
Y-230973D01*
X1131223D01*
X1132535Y-232285D01*
Y-236221D01*
Y-232285D01*
X1133847Y-230973D01*
X1135159Y-232285D01*
Y-236221D01*
X1141718D02*
X1139095D01*
X1137783Y-234909D01*
Y-232285D01*
X1139095Y-230973D01*
X1141718D01*
X1143030Y-232285D01*
Y-233597D01*
X1137783D01*
X1145654Y-236221D02*
Y-230973D01*
X1149590D01*
X1150902Y-232285D01*
Y-236221D01*
X1154838Y-229661D02*
Y-230973D01*
X1153526D01*
X1156149D01*
X1154838D01*
Y-234909D01*
X1156149Y-236221D01*
X1098425Y-188979D02*
Y-196850D01*
X1102361D01*
X1103673Y-195538D01*
Y-190291D01*
X1102361Y-188979D01*
X1098425D01*
X1107609Y-191603D02*
X1110232D01*
X1111544Y-192915D01*
Y-196850D01*
X1107609D01*
X1106297Y-195538D01*
X1107609Y-194227D01*
X1111544D01*
X1115480Y-190291D02*
Y-191603D01*
X1114168D01*
X1116792D01*
X1115480D01*
Y-195538D01*
X1116792Y-196850D01*
X1124664D02*
X1122040D01*
X1120728Y-195538D01*
Y-192915D01*
X1122040Y-191603D01*
X1124664D01*
X1125975Y-192915D01*
Y-194227D01*
X1120728D01*
X1098425Y-149609D02*
Y-157480D01*
X1103673D01*
X1107609Y-152233D02*
X1110232D01*
X1111544Y-153545D01*
Y-157480D01*
X1107609D01*
X1106297Y-156168D01*
X1107609Y-154857D01*
X1111544D01*
X1114168Y-152233D02*
Y-156168D01*
X1115480Y-157480D01*
X1119416D01*
Y-158792D01*
X1118104Y-160104D01*
X1116792D01*
X1119416Y-157480D02*
Y-152233D01*
X1125975Y-157480D02*
X1123351D01*
X1122040Y-156168D01*
Y-153545D01*
X1123351Y-152233D01*
X1125975D01*
X1127287Y-153545D01*
Y-154857D01*
X1122040D01*
X1129911Y-152233D02*
Y-157480D01*
Y-154857D01*
X1131223Y-153545D01*
X1132535Y-152233D01*
X1133847D01*
X1145654Y-157480D02*
Y-149609D01*
X1150902Y-157480D01*
Y-149609D01*
X1154838Y-152233D02*
X1157461D01*
X1158773Y-153545D01*
Y-157480D01*
X1154838D01*
X1153526Y-156168D01*
X1154838Y-154857D01*
X1158773D01*
X1161397Y-157480D02*
Y-152233D01*
X1162709D01*
X1164021Y-153545D01*
Y-157480D01*
Y-153545D01*
X1165333Y-152233D01*
X1166645Y-153545D01*
Y-157480D01*
X1173204D02*
X1170580D01*
X1169269Y-156168D01*
Y-153545D01*
X1170580Y-152233D01*
X1173204D01*
X1174516Y-153545D01*
Y-154857D01*
X1169269D01*
X1098425Y-110239D02*
Y-118110D01*
X1102361D01*
X1103673Y-116798D01*
Y-111551D01*
X1102361Y-110239D01*
X1098425D01*
X1107609Y-118110D02*
X1110232D01*
X1111544Y-116798D01*
Y-114174D01*
X1110232Y-112863D01*
X1107609D01*
X1106297Y-114174D01*
Y-116798D01*
X1107609Y-118110D01*
X1119416Y-112863D02*
X1115480D01*
X1114168Y-114174D01*
Y-116798D01*
X1115480Y-118110D01*
X1119416D01*
X1122040Y-112863D02*
Y-116798D01*
X1123351Y-118110D01*
X1127287D01*
Y-112863D01*
X1129911Y-118110D02*
Y-112863D01*
X1131223D01*
X1132535Y-114174D01*
Y-118110D01*
Y-114174D01*
X1133847Y-112863D01*
X1135159Y-114174D01*
Y-118110D01*
X1141718D02*
X1139095D01*
X1137783Y-116798D01*
Y-114174D01*
X1139095Y-112863D01*
X1141718D01*
X1143030Y-114174D01*
Y-115486D01*
X1137783D01*
X1145654Y-118110D02*
Y-112863D01*
X1149590D01*
X1150902Y-114174D01*
Y-118110D01*
X1154838Y-111551D02*
Y-112863D01*
X1153526D01*
X1156149D01*
X1154838D01*
Y-116798D01*
X1156149Y-118110D01*
X901575Y-228349D02*
Y-236221D01*
X905511D01*
X906822Y-234909D01*
Y-229661D01*
X905511Y-228349D01*
X901575D01*
X913382Y-236221D02*
X910758D01*
X909446Y-234909D01*
Y-232285D01*
X910758Y-230973D01*
X913382D01*
X914694Y-232285D01*
Y-233597D01*
X909446D01*
X917318Y-236221D02*
X921253D01*
X922565Y-234909D01*
X921253Y-233597D01*
X918630D01*
X917318Y-232285D01*
X918630Y-230973D01*
X922565D01*
X927813Y-238844D02*
X929125D01*
X930437Y-237532D01*
Y-230973D01*
X926501D01*
X925189Y-232285D01*
Y-234909D01*
X926501Y-236221D01*
X930437D01*
X933061D02*
X935684D01*
X934373D01*
Y-230973D01*
X933061D01*
X939620Y-236221D02*
Y-230973D01*
X943556D01*
X944868Y-232285D01*
Y-236221D01*
X951427D02*
X948804D01*
X947492Y-234909D01*
Y-232285D01*
X948804Y-230973D01*
X951427D01*
X952739Y-232285D01*
Y-233597D01*
X947492D01*
X955363Y-230973D02*
Y-236221D01*
Y-233597D01*
X956675Y-232285D01*
X957987Y-230973D01*
X959299D01*
X1255906Y-196850D02*
Y-188979D01*
X1259841D01*
X1261153Y-190291D01*
Y-192915D01*
X1259841Y-194227D01*
X1255906D01*
X1258529D02*
X1261153Y-196850D01*
X1267713D02*
X1265089D01*
X1263777Y-195538D01*
Y-192915D01*
X1265089Y-191603D01*
X1267713D01*
X1269025Y-192915D01*
Y-194227D01*
X1263777D01*
X1271649Y-191603D02*
X1274272Y-196850D01*
X1276896Y-191603D01*
M02*
