G04 Layer_Color=65535*
%FSLAX25Y25*%
%MOIN*%
G70*
G01*
G75*
%ADD18C,0.00787*%
%ADD20C,0.01575*%
%ADD21C,0.00591*%
%ADD22C,0.00984*%
%ADD34C,0.02362*%
G36*
X-47567Y-29171D02*
Y-29252D01*
Y-29333D01*
Y-29414D01*
Y-29494D01*
Y-29575D01*
Y-29656D01*
Y-29736D01*
Y-29817D01*
Y-29898D01*
Y-29978D01*
Y-30059D01*
Y-30140D01*
Y-30220D01*
Y-30301D01*
Y-30382D01*
Y-30463D01*
Y-30543D01*
Y-30624D01*
Y-30705D01*
Y-30785D01*
X-47648D01*
Y-30866D01*
Y-30947D01*
Y-31027D01*
Y-31108D01*
Y-31189D01*
X-47729D01*
Y-31269D01*
Y-31350D01*
Y-31431D01*
Y-31511D01*
X-47810D01*
Y-31592D01*
Y-31673D01*
Y-31754D01*
Y-31834D01*
X-47890D01*
Y-31915D01*
Y-31996D01*
Y-32076D01*
X-47971D01*
Y-32157D01*
Y-32238D01*
Y-32318D01*
X-48052D01*
Y-32399D01*
Y-32480D01*
Y-32560D01*
X-48132D01*
Y-32641D01*
Y-32722D01*
Y-32802D01*
X-48213D01*
Y-32883D01*
Y-32964D01*
X-48294D01*
Y-33044D01*
Y-33125D01*
X-48374D01*
Y-33206D01*
Y-33286D01*
Y-33367D01*
X-48455D01*
Y-33448D01*
Y-33529D01*
X-48536D01*
Y-33609D01*
Y-33690D01*
Y-33771D01*
X-48616D01*
Y-33851D01*
Y-33932D01*
X-48697D01*
Y-34013D01*
Y-34093D01*
Y-34174D01*
X-48778D01*
Y-34255D01*
Y-34336D01*
X-48858D01*
Y-34416D01*
Y-34497D01*
Y-34578D01*
X-48939D01*
Y-34658D01*
Y-34739D01*
X-49020D01*
Y-34820D01*
Y-34900D01*
Y-34981D01*
X-49101D01*
Y-35062D01*
Y-35142D01*
X-49181D01*
Y-35223D01*
Y-35304D01*
Y-35384D01*
X-49262D01*
Y-35465D01*
Y-35546D01*
X-49343D01*
Y-35627D01*
Y-35707D01*
Y-35788D01*
X-49423D01*
Y-35868D01*
Y-35949D01*
X-49504D01*
Y-36030D01*
Y-36111D01*
Y-36191D01*
X-49585D01*
Y-36272D01*
Y-36353D01*
X-49665D01*
Y-36433D01*
Y-36514D01*
Y-36595D01*
X-49746D01*
Y-36675D01*
Y-36756D01*
X-49827D01*
Y-36837D01*
Y-36917D01*
Y-36998D01*
X-49907D01*
Y-37079D01*
Y-37159D01*
X-49988D01*
Y-37240D01*
Y-37321D01*
Y-37402D01*
X-50069D01*
Y-37482D01*
Y-37563D01*
X-50150D01*
Y-37644D01*
Y-37724D01*
Y-37805D01*
X-50230D01*
Y-37886D01*
Y-37966D01*
X-50311D01*
Y-38047D01*
Y-38128D01*
Y-38208D01*
X-50392D01*
Y-38289D01*
Y-38370D01*
X-50472D01*
Y-38451D01*
Y-38531D01*
Y-38612D01*
X-50553D01*
Y-38693D01*
Y-38773D01*
X-50634D01*
Y-38854D01*
Y-38935D01*
Y-39015D01*
X-50714D01*
Y-39096D01*
Y-39177D01*
X-50795D01*
Y-39257D01*
Y-39338D01*
Y-39419D01*
X-50876D01*
Y-39500D01*
Y-39580D01*
X-50956D01*
Y-39661D01*
Y-39742D01*
X-51037D01*
Y-39822D01*
Y-39903D01*
X-51118D01*
Y-39984D01*
Y-40064D01*
Y-40145D01*
X-51198D01*
Y-40226D01*
X-51279D01*
Y-40306D01*
Y-40387D01*
Y-40468D01*
X-51360D01*
Y-40548D01*
X-51441D01*
Y-40629D01*
Y-40710D01*
X-51521D01*
Y-40790D01*
Y-40871D01*
X-51602D01*
Y-40952D01*
Y-41032D01*
X-51683D01*
Y-41113D01*
Y-41194D01*
X-51763D01*
Y-41275D01*
X-51844D01*
Y-41355D01*
Y-41436D01*
X-51925D01*
Y-41517D01*
Y-41597D01*
X-52005D01*
Y-41678D01*
X-52086D01*
Y-41759D01*
X-52167D01*
Y-41839D01*
Y-41920D01*
X-52247D01*
Y-42001D01*
X-52328D01*
Y-42081D01*
Y-42162D01*
X-52409D01*
Y-42243D01*
X-52489D01*
Y-42323D01*
X-52570D01*
Y-42404D01*
Y-42485D01*
X-52651D01*
Y-42566D01*
X-52732D01*
Y-42646D01*
X-52812D01*
Y-42727D01*
X-52893D01*
Y-42808D01*
X-52974D01*
Y-42888D01*
Y-42969D01*
X-53054D01*
Y-43050D01*
X-53135D01*
Y-43130D01*
X-53216D01*
Y-43211D01*
X-53296D01*
Y-43292D01*
X-53377D01*
Y-43372D01*
X-53458D01*
Y-43453D01*
X-53538D01*
Y-43534D01*
X-53700D01*
Y-43615D01*
X-53780D01*
Y-43695D01*
X-53861D01*
Y-43776D01*
X-53942D01*
Y-43857D01*
X-54023D01*
Y-43937D01*
X-54184D01*
Y-44018D01*
X-54264D01*
Y-44099D01*
X-54426D01*
Y-44179D01*
X-54507D01*
Y-44260D01*
X-54668D01*
Y-44341D01*
X-54749D01*
Y-44421D01*
X-54910D01*
Y-44502D01*
X-55071D01*
Y-44583D01*
X-55233D01*
Y-44663D01*
X-55394D01*
Y-44744D01*
X-55555D01*
Y-44825D01*
X-55798D01*
Y-44905D01*
X-55959D01*
Y-44986D01*
X-56201D01*
Y-45067D01*
X-56524D01*
Y-45148D01*
X-56846D01*
Y-45228D01*
X-57331D01*
Y-45309D01*
X-57895D01*
Y-45390D01*
X-57976D01*
Y-45309D01*
Y-45228D01*
Y-45148D01*
Y-45067D01*
Y-44986D01*
Y-44905D01*
Y-44825D01*
Y-44744D01*
Y-44663D01*
Y-44583D01*
Y-44502D01*
Y-44421D01*
Y-44341D01*
Y-44260D01*
Y-44179D01*
Y-44099D01*
Y-44018D01*
Y-43937D01*
Y-43857D01*
Y-43776D01*
Y-43695D01*
Y-43615D01*
Y-43534D01*
Y-43453D01*
Y-43372D01*
Y-43292D01*
Y-43211D01*
Y-43130D01*
Y-43050D01*
Y-42969D01*
Y-42888D01*
Y-42808D01*
Y-42727D01*
X-57815D01*
Y-42646D01*
X-57653D01*
Y-42566D01*
X-57492D01*
Y-42485D01*
X-57331D01*
Y-42404D01*
X-57169D01*
Y-42323D01*
X-57008D01*
Y-42243D01*
X-56927D01*
Y-42162D01*
X-56766D01*
Y-42081D01*
X-56685D01*
Y-42001D01*
X-56524D01*
Y-41920D01*
X-56443D01*
Y-41839D01*
X-56362D01*
Y-41759D01*
X-56201D01*
Y-41678D01*
X-56120D01*
Y-41597D01*
X-56040D01*
Y-41517D01*
X-55959D01*
Y-41436D01*
X-55878D01*
Y-41355D01*
X-55798D01*
Y-41275D01*
X-55717D01*
Y-41194D01*
X-55636D01*
Y-41113D01*
X-55555D01*
Y-41032D01*
X-55475D01*
Y-40952D01*
X-55394D01*
Y-40871D01*
X-55313D01*
Y-40790D01*
Y-40710D01*
X-55233D01*
Y-40629D01*
X-55152D01*
Y-40548D01*
X-55071D01*
Y-40468D01*
Y-40387D01*
X-54991D01*
Y-40306D01*
X-54910D01*
Y-40226D01*
Y-40145D01*
X-54829D01*
Y-40064D01*
Y-39984D01*
X-54749D01*
Y-39903D01*
X-54668D01*
Y-39822D01*
Y-39742D01*
X-54587D01*
Y-39661D01*
Y-39580D01*
X-54507D01*
Y-39500D01*
Y-39419D01*
X-54991D01*
Y-39338D01*
X-55555D01*
Y-39257D01*
X-55878D01*
Y-39177D01*
X-56040D01*
Y-39096D01*
X-56282D01*
Y-39015D01*
X-56443D01*
Y-38935D01*
X-56524D01*
Y-38854D01*
X-56685D01*
Y-38773D01*
X-56766D01*
Y-38693D01*
X-56846D01*
Y-38612D01*
X-56927D01*
Y-38531D01*
X-57008D01*
Y-38451D01*
X-57089D01*
Y-38370D01*
Y-38289D01*
X-57169D01*
Y-38208D01*
X-57250D01*
Y-38128D01*
Y-38047D01*
X-57331D01*
Y-37966D01*
Y-37886D01*
X-57411D01*
Y-37805D01*
Y-37724D01*
X-57492D01*
Y-37644D01*
Y-37563D01*
Y-37482D01*
X-57573D01*
Y-37402D01*
Y-37321D01*
Y-37240D01*
Y-37159D01*
X-57653D01*
Y-37079D01*
Y-36998D01*
Y-36917D01*
Y-36837D01*
Y-36756D01*
Y-36675D01*
Y-36595D01*
X-57734D01*
Y-36514D01*
Y-36433D01*
Y-36353D01*
Y-36272D01*
Y-36191D01*
Y-36111D01*
Y-36030D01*
Y-35949D01*
Y-35868D01*
Y-35788D01*
Y-35707D01*
Y-35627D01*
Y-35546D01*
Y-35465D01*
Y-35384D01*
X-57815D01*
Y-35304D01*
Y-35223D01*
Y-35142D01*
Y-35062D01*
Y-34981D01*
Y-34900D01*
Y-34820D01*
Y-34739D01*
Y-34658D01*
Y-34578D01*
Y-34497D01*
Y-34416D01*
Y-34336D01*
Y-34255D01*
Y-34174D01*
X-57895D01*
Y-34093D01*
Y-34013D01*
Y-33932D01*
Y-33851D01*
Y-33771D01*
Y-33690D01*
Y-33609D01*
Y-33529D01*
Y-33448D01*
Y-33367D01*
Y-33286D01*
Y-33206D01*
Y-33125D01*
Y-33044D01*
Y-32964D01*
Y-32883D01*
X-57976D01*
Y-32802D01*
Y-32722D01*
Y-32641D01*
Y-32560D01*
Y-32480D01*
Y-32399D01*
Y-32318D01*
Y-32238D01*
Y-32157D01*
Y-32076D01*
Y-31996D01*
Y-31915D01*
Y-31834D01*
Y-31754D01*
Y-31673D01*
Y-31592D01*
X-58057D01*
Y-31511D01*
Y-31431D01*
Y-31350D01*
Y-31269D01*
Y-31189D01*
Y-31108D01*
Y-31027D01*
Y-30947D01*
Y-30866D01*
Y-30785D01*
Y-30705D01*
Y-30624D01*
Y-30543D01*
Y-30463D01*
X-58138D01*
Y-30382D01*
Y-30301D01*
Y-30220D01*
Y-30140D01*
Y-30059D01*
Y-29978D01*
Y-29898D01*
Y-29817D01*
Y-29736D01*
Y-29656D01*
Y-29575D01*
Y-29494D01*
Y-29414D01*
Y-29333D01*
Y-29252D01*
Y-29171D01*
X-58218D01*
Y-29091D01*
X-54345D01*
Y-29171D01*
Y-29252D01*
Y-29333D01*
Y-29414D01*
Y-29494D01*
Y-29575D01*
Y-29656D01*
Y-29736D01*
Y-29817D01*
Y-29898D01*
Y-29978D01*
Y-30059D01*
Y-30140D01*
Y-30220D01*
X-54264D01*
Y-30301D01*
Y-30382D01*
Y-30463D01*
Y-30543D01*
Y-30624D01*
Y-30705D01*
Y-30785D01*
Y-30866D01*
Y-30947D01*
Y-31027D01*
Y-31108D01*
Y-31189D01*
Y-31269D01*
Y-31350D01*
Y-31431D01*
Y-31511D01*
Y-31592D01*
Y-31673D01*
Y-31754D01*
Y-31834D01*
Y-31915D01*
Y-31996D01*
Y-32076D01*
Y-32157D01*
Y-32238D01*
Y-32318D01*
Y-32399D01*
Y-32480D01*
Y-32560D01*
Y-32641D01*
Y-32722D01*
Y-32802D01*
Y-32883D01*
Y-32964D01*
Y-33044D01*
Y-33125D01*
Y-33206D01*
Y-33286D01*
Y-33367D01*
Y-33448D01*
Y-33529D01*
X-54184D01*
Y-33609D01*
X-54264D01*
Y-33690D01*
Y-33771D01*
X-54184D01*
Y-33851D01*
Y-33932D01*
Y-34013D01*
Y-34093D01*
Y-34174D01*
Y-34255D01*
Y-34336D01*
Y-34416D01*
Y-34497D01*
Y-34578D01*
Y-34658D01*
Y-34739D01*
Y-34820D01*
Y-34900D01*
Y-34981D01*
Y-35062D01*
Y-35142D01*
Y-35223D01*
Y-35304D01*
Y-35384D01*
Y-35465D01*
Y-35546D01*
Y-35627D01*
Y-35707D01*
Y-35788D01*
Y-35868D01*
X-54103D01*
Y-35949D01*
Y-36030D01*
Y-36111D01*
X-54023D01*
Y-36191D01*
X-53942D01*
Y-36272D01*
X-53861D01*
Y-36353D01*
X-53619D01*
Y-36433D01*
X-53377D01*
Y-36353D01*
X-53296D01*
Y-36272D01*
Y-36191D01*
Y-36111D01*
X-53216D01*
Y-36030D01*
Y-35949D01*
X-53135D01*
Y-35868D01*
Y-35788D01*
Y-35707D01*
X-53054D01*
Y-35627D01*
Y-35546D01*
Y-35465D01*
X-52974D01*
Y-35384D01*
Y-35304D01*
Y-35223D01*
X-52893D01*
Y-35142D01*
Y-35062D01*
Y-34981D01*
X-52812D01*
Y-34900D01*
Y-34820D01*
X-52732D01*
Y-34739D01*
Y-34658D01*
Y-34578D01*
X-52651D01*
Y-34497D01*
Y-34416D01*
Y-34336D01*
X-52570D01*
Y-34255D01*
Y-34174D01*
Y-34093D01*
X-52489D01*
Y-34013D01*
Y-33932D01*
X-52409D01*
Y-33851D01*
Y-33771D01*
Y-33690D01*
X-52328D01*
Y-33609D01*
Y-33529D01*
Y-33448D01*
X-52247D01*
Y-33367D01*
Y-33286D01*
Y-33206D01*
X-52167D01*
Y-33125D01*
Y-33044D01*
X-52086D01*
Y-32964D01*
Y-32883D01*
Y-32802D01*
X-52005D01*
Y-32722D01*
Y-32641D01*
Y-32560D01*
X-51925D01*
Y-32480D01*
Y-32399D01*
Y-32318D01*
X-51844D01*
Y-32238D01*
Y-32157D01*
X-51763D01*
Y-32076D01*
Y-31996D01*
Y-31915D01*
X-51683D01*
Y-31834D01*
Y-31754D01*
Y-31673D01*
X-51602D01*
Y-31592D01*
Y-31511D01*
Y-31431D01*
X-51521D01*
Y-31350D01*
Y-31269D01*
Y-31189D01*
Y-31108D01*
X-51441D01*
Y-31027D01*
Y-30947D01*
Y-30866D01*
Y-30785D01*
X-51360D01*
Y-30705D01*
Y-30624D01*
Y-30543D01*
Y-30463D01*
Y-30382D01*
X-51279D01*
Y-30301D01*
Y-30220D01*
Y-30140D01*
Y-30059D01*
Y-29978D01*
Y-29898D01*
X-51198D01*
Y-29817D01*
Y-29736D01*
Y-29656D01*
Y-29575D01*
Y-29494D01*
Y-29414D01*
Y-29333D01*
Y-29252D01*
Y-29171D01*
Y-29091D01*
X-47567D01*
Y-29171D01*
D02*
G37*
G36*
X-63866Y-24250D02*
Y-24330D01*
X-63947D01*
Y-24411D01*
Y-24492D01*
Y-24572D01*
Y-24653D01*
Y-24734D01*
Y-24814D01*
X-64028D01*
Y-24895D01*
Y-24976D01*
Y-25056D01*
Y-25137D01*
Y-25218D01*
Y-25299D01*
X-64108D01*
Y-25379D01*
Y-25460D01*
Y-25541D01*
Y-25621D01*
Y-25702D01*
Y-25783D01*
Y-25863D01*
X-64189D01*
Y-25944D01*
Y-26025D01*
Y-26105D01*
Y-26186D01*
Y-26267D01*
Y-26347D01*
X-64270D01*
Y-26428D01*
Y-26509D01*
Y-26590D01*
Y-26670D01*
Y-26751D01*
Y-26831D01*
X-64350D01*
Y-26912D01*
Y-26993D01*
Y-27074D01*
Y-27154D01*
Y-27235D01*
Y-27316D01*
Y-27396D01*
X-64431D01*
Y-27477D01*
Y-27558D01*
Y-27638D01*
Y-27719D01*
Y-27800D01*
Y-27880D01*
X-64512D01*
Y-27961D01*
Y-28042D01*
Y-28123D01*
Y-28203D01*
Y-28284D01*
Y-28365D01*
X-64592D01*
Y-28445D01*
Y-28526D01*
Y-28607D01*
Y-28687D01*
Y-28768D01*
Y-28849D01*
X-64673D01*
Y-28929D01*
Y-29010D01*
Y-29091D01*
Y-29171D01*
Y-29252D01*
Y-29333D01*
Y-29414D01*
X-64754D01*
Y-29494D01*
Y-29575D01*
Y-29656D01*
Y-29736D01*
Y-29817D01*
Y-29898D01*
X-64835D01*
Y-29978D01*
Y-30059D01*
X-64673D01*
Y-29978D01*
X-64592D01*
Y-29898D01*
X-64512D01*
Y-29817D01*
X-64350D01*
Y-29736D01*
X-64270D01*
Y-29656D01*
X-64189D01*
Y-29575D01*
X-64028D01*
Y-29494D01*
X-63866D01*
Y-29414D01*
X-63786D01*
Y-29333D01*
X-63624D01*
Y-29252D01*
X-63382D01*
Y-29171D01*
X-63221D01*
Y-29091D01*
X-62979D01*
Y-29010D01*
X-62575D01*
Y-28929D01*
X-60800D01*
Y-29010D01*
X-60477D01*
Y-29091D01*
X-60235D01*
Y-29171D01*
X-60074D01*
Y-29252D01*
X-59993D01*
Y-29333D01*
X-59832D01*
Y-29414D01*
X-59751D01*
Y-29494D01*
X-59671D01*
Y-29575D01*
X-59590D01*
Y-29656D01*
X-59509D01*
Y-29736D01*
Y-29817D01*
X-59429D01*
Y-29898D01*
Y-29978D01*
X-59348D01*
Y-30059D01*
Y-30140D01*
Y-30220D01*
X-59267D01*
Y-30301D01*
Y-30382D01*
Y-30463D01*
Y-30543D01*
X-59187D01*
Y-30624D01*
Y-30705D01*
Y-30785D01*
Y-30866D01*
Y-30947D01*
Y-31027D01*
Y-31108D01*
Y-31189D01*
Y-31269D01*
Y-31350D01*
Y-31431D01*
Y-31511D01*
Y-31592D01*
Y-31673D01*
Y-31754D01*
Y-31834D01*
Y-31915D01*
Y-31996D01*
X-59267D01*
Y-32076D01*
Y-32157D01*
Y-32238D01*
Y-32318D01*
Y-32399D01*
Y-32480D01*
Y-32560D01*
X-59348D01*
Y-32641D01*
Y-32722D01*
Y-32802D01*
Y-32883D01*
Y-32964D01*
Y-33044D01*
Y-33125D01*
X-59429D01*
Y-33206D01*
Y-33286D01*
Y-33367D01*
Y-33448D01*
Y-33529D01*
Y-33609D01*
X-59509D01*
Y-33690D01*
Y-33771D01*
Y-33851D01*
Y-33932D01*
Y-34013D01*
Y-34093D01*
X-59590D01*
Y-34174D01*
Y-34255D01*
Y-34336D01*
Y-34416D01*
Y-34497D01*
Y-34578D01*
X-59671D01*
Y-34658D01*
Y-34739D01*
Y-34820D01*
Y-34900D01*
Y-34981D01*
Y-35062D01*
Y-35142D01*
X-59751D01*
Y-35223D01*
Y-35304D01*
Y-35384D01*
Y-35465D01*
Y-35546D01*
Y-35627D01*
X-59832D01*
Y-35707D01*
Y-35788D01*
Y-35868D01*
Y-35949D01*
Y-36030D01*
Y-36111D01*
X-59913D01*
Y-36191D01*
Y-36272D01*
Y-36353D01*
Y-36433D01*
Y-36514D01*
Y-36595D01*
Y-36675D01*
X-59993D01*
Y-36756D01*
Y-36837D01*
Y-36917D01*
Y-36998D01*
Y-37079D01*
Y-37159D01*
X-60074D01*
Y-37240D01*
Y-37321D01*
Y-37402D01*
Y-37482D01*
Y-37563D01*
Y-37644D01*
X-60155D01*
Y-37724D01*
Y-37805D01*
Y-37886D01*
Y-37966D01*
Y-38047D01*
Y-38128D01*
X-60235D01*
Y-38208D01*
Y-38289D01*
Y-38370D01*
Y-38451D01*
Y-38531D01*
Y-38612D01*
Y-38693D01*
X-60316D01*
Y-38773D01*
Y-38854D01*
Y-38935D01*
Y-39015D01*
Y-39096D01*
Y-39177D01*
X-60397D01*
Y-39257D01*
Y-39338D01*
X-64108D01*
Y-39257D01*
Y-39177D01*
X-64028D01*
Y-39096D01*
Y-39015D01*
Y-38935D01*
Y-38854D01*
Y-38773D01*
Y-38693D01*
X-63947D01*
Y-38612D01*
Y-38531D01*
Y-38451D01*
Y-38370D01*
Y-38289D01*
Y-38208D01*
Y-38128D01*
X-63866D01*
Y-38047D01*
Y-37966D01*
Y-37886D01*
Y-37805D01*
Y-37724D01*
Y-37644D01*
X-63786D01*
Y-37563D01*
Y-37482D01*
Y-37402D01*
Y-37321D01*
Y-37240D01*
Y-37159D01*
X-63705D01*
Y-37079D01*
Y-36998D01*
Y-36917D01*
Y-36837D01*
Y-36756D01*
Y-36675D01*
Y-36595D01*
X-63624D01*
Y-36514D01*
Y-36433D01*
Y-36353D01*
Y-36272D01*
Y-36191D01*
Y-36111D01*
X-63544D01*
Y-36030D01*
Y-35949D01*
Y-35868D01*
Y-35788D01*
Y-35707D01*
Y-35627D01*
Y-35546D01*
X-63463D01*
Y-35465D01*
Y-35384D01*
Y-35304D01*
Y-35223D01*
Y-35142D01*
Y-35062D01*
X-63382D01*
Y-34981D01*
Y-34900D01*
Y-34820D01*
Y-34739D01*
Y-34658D01*
Y-34578D01*
X-63301D01*
Y-34497D01*
Y-34416D01*
Y-34336D01*
Y-34255D01*
Y-34174D01*
Y-34093D01*
X-63221D01*
Y-34013D01*
Y-33932D01*
Y-33851D01*
Y-33771D01*
Y-33690D01*
Y-33609D01*
Y-33529D01*
X-63140D01*
Y-33448D01*
Y-33367D01*
Y-33286D01*
Y-33206D01*
Y-33125D01*
Y-33044D01*
X-63059D01*
Y-32964D01*
Y-32883D01*
Y-32802D01*
Y-32722D01*
Y-32641D01*
Y-32560D01*
Y-32480D01*
X-62979D01*
Y-32399D01*
Y-32318D01*
Y-32238D01*
Y-32157D01*
Y-32076D01*
Y-31996D01*
X-63059D01*
Y-31915D01*
Y-31834D01*
X-63140D01*
Y-31754D01*
X-63221D01*
Y-31673D01*
X-63382D01*
Y-31592D01*
X-63866D01*
Y-31673D01*
X-64270D01*
Y-31754D01*
X-64512D01*
Y-31834D01*
X-64673D01*
Y-31915D01*
X-64754D01*
Y-31996D01*
X-64915D01*
Y-32076D01*
X-64996D01*
Y-32157D01*
X-65077D01*
Y-32238D01*
Y-32318D01*
X-65157D01*
Y-32399D01*
Y-32480D01*
Y-32560D01*
X-65238D01*
Y-32641D01*
Y-32722D01*
Y-32802D01*
Y-32883D01*
Y-32964D01*
Y-33044D01*
X-65319D01*
Y-33125D01*
Y-33206D01*
Y-33286D01*
Y-33367D01*
Y-33448D01*
Y-33529D01*
Y-33609D01*
X-65399D01*
Y-33690D01*
Y-33771D01*
Y-33851D01*
Y-33932D01*
Y-34013D01*
Y-34093D01*
X-65480D01*
Y-34174D01*
Y-34255D01*
Y-34336D01*
Y-34416D01*
Y-34497D01*
Y-34578D01*
X-65561D01*
Y-34658D01*
Y-34739D01*
Y-34820D01*
Y-34900D01*
Y-34981D01*
Y-35062D01*
X-65641D01*
Y-35142D01*
Y-35223D01*
Y-35304D01*
Y-35384D01*
Y-35465D01*
Y-35546D01*
Y-35627D01*
X-65722D01*
Y-35707D01*
Y-35788D01*
Y-35868D01*
Y-35949D01*
Y-36030D01*
Y-36111D01*
X-65803D01*
Y-36191D01*
Y-36272D01*
Y-36353D01*
Y-36433D01*
Y-36514D01*
Y-36595D01*
X-65883D01*
Y-36675D01*
Y-36756D01*
Y-36837D01*
Y-36917D01*
Y-36998D01*
Y-37079D01*
Y-37159D01*
X-65964D01*
Y-37240D01*
Y-37321D01*
Y-37402D01*
Y-37482D01*
Y-37563D01*
Y-37644D01*
X-66045D01*
Y-37724D01*
Y-37805D01*
Y-37886D01*
Y-37966D01*
Y-38047D01*
Y-38128D01*
X-66126D01*
Y-38208D01*
Y-38289D01*
Y-38370D01*
Y-38451D01*
Y-38531D01*
Y-38612D01*
X-66206D01*
Y-38693D01*
Y-38773D01*
Y-38854D01*
Y-38935D01*
Y-39015D01*
Y-39096D01*
Y-39177D01*
X-66287D01*
Y-39257D01*
Y-39338D01*
X-69999D01*
Y-39257D01*
Y-39177D01*
X-69918D01*
Y-39096D01*
Y-39015D01*
Y-38935D01*
Y-38854D01*
Y-38773D01*
Y-38693D01*
Y-38612D01*
X-69837D01*
Y-38531D01*
Y-38451D01*
Y-38370D01*
Y-38289D01*
Y-38208D01*
Y-38128D01*
X-69756D01*
Y-38047D01*
Y-37966D01*
Y-37886D01*
Y-37805D01*
Y-37724D01*
Y-37644D01*
X-69676D01*
Y-37563D01*
Y-37482D01*
Y-37402D01*
Y-37321D01*
Y-37240D01*
Y-37159D01*
Y-37079D01*
X-69595D01*
Y-36998D01*
Y-36917D01*
Y-36837D01*
Y-36756D01*
Y-36675D01*
Y-36595D01*
X-69514D01*
Y-36514D01*
Y-36433D01*
Y-36353D01*
Y-36272D01*
Y-36191D01*
Y-36111D01*
X-69434D01*
Y-36030D01*
Y-35949D01*
Y-35868D01*
Y-35788D01*
Y-35707D01*
Y-35627D01*
X-69353D01*
Y-35546D01*
Y-35465D01*
Y-35384D01*
Y-35304D01*
Y-35223D01*
Y-35142D01*
Y-35062D01*
X-69272D01*
Y-34981D01*
Y-34900D01*
Y-34820D01*
Y-34739D01*
Y-34658D01*
Y-34578D01*
X-69192D01*
Y-34497D01*
Y-34416D01*
Y-34336D01*
Y-34255D01*
Y-34174D01*
Y-34093D01*
X-69111D01*
Y-34013D01*
Y-33932D01*
Y-33851D01*
Y-33771D01*
Y-33690D01*
Y-33609D01*
Y-33529D01*
X-69030D01*
Y-33448D01*
Y-33367D01*
Y-33286D01*
Y-33206D01*
Y-33125D01*
Y-33044D01*
X-68950D01*
Y-32964D01*
Y-32883D01*
Y-32802D01*
Y-32722D01*
Y-32641D01*
Y-32560D01*
X-68869D01*
Y-32480D01*
Y-32399D01*
Y-32318D01*
Y-32238D01*
Y-32157D01*
Y-32076D01*
X-68788D01*
Y-31996D01*
Y-31915D01*
Y-31834D01*
Y-31754D01*
Y-31673D01*
Y-31592D01*
Y-31511D01*
X-68708D01*
Y-31431D01*
Y-31350D01*
Y-31269D01*
Y-31189D01*
Y-31108D01*
Y-31027D01*
X-68627D01*
Y-30947D01*
Y-30866D01*
Y-30785D01*
Y-30705D01*
Y-30624D01*
Y-30543D01*
X-68546D01*
Y-30463D01*
Y-30382D01*
Y-30301D01*
Y-30220D01*
Y-30140D01*
Y-30059D01*
X-68465D01*
Y-29978D01*
Y-29898D01*
Y-29817D01*
Y-29736D01*
Y-29656D01*
Y-29575D01*
Y-29494D01*
X-68385D01*
Y-29414D01*
Y-29333D01*
Y-29252D01*
Y-29171D01*
Y-29091D01*
Y-29010D01*
X-68304D01*
Y-28929D01*
Y-28849D01*
Y-28768D01*
Y-28687D01*
Y-28607D01*
Y-28526D01*
X-68223D01*
Y-28445D01*
Y-28365D01*
Y-28284D01*
Y-28203D01*
Y-28123D01*
Y-28042D01*
Y-27961D01*
X-68143D01*
Y-27880D01*
Y-27800D01*
Y-27719D01*
Y-27638D01*
Y-27558D01*
Y-27477D01*
X-68062D01*
Y-27396D01*
Y-27316D01*
Y-27235D01*
Y-27154D01*
Y-27074D01*
Y-26993D01*
X-67981D01*
Y-26912D01*
Y-26831D01*
Y-26751D01*
Y-26670D01*
Y-26590D01*
Y-26509D01*
X-67901D01*
Y-26428D01*
Y-26347D01*
Y-26267D01*
Y-26186D01*
Y-26105D01*
Y-26025D01*
Y-25944D01*
X-67820D01*
Y-25863D01*
Y-25783D01*
Y-25702D01*
Y-25621D01*
Y-25541D01*
Y-25460D01*
X-67739D01*
Y-25379D01*
Y-25299D01*
Y-25218D01*
Y-25137D01*
Y-25056D01*
Y-24976D01*
X-67659D01*
Y-24895D01*
Y-24814D01*
Y-24734D01*
Y-24653D01*
Y-24572D01*
Y-24492D01*
Y-24411D01*
X-67578D01*
Y-24330D01*
Y-24250D01*
Y-24169D01*
X-63866D01*
Y-24250D01*
D02*
G37*
G36*
X9879Y55083D02*
X10873Y55295D01*
X11084Y54300D01*
X11300Y53285D01*
X11516Y52269D01*
X11730Y51264D01*
X11946Y50248D01*
X12162Y49233D01*
X12373Y48238D01*
X12584Y47244D01*
X12796Y46250D01*
X11801Y46038D01*
X10786Y45823D01*
X9781Y45609D01*
X8765Y45393D01*
X8554Y46387D01*
X7538Y46172D01*
X7750Y45177D01*
X6734Y44961D01*
X5750Y44752D01*
X4735Y44536D01*
X3719Y44320D01*
X2703Y44105D01*
X1720Y43896D01*
X704Y43680D01*
X-312Y43464D01*
X-523Y44458D01*
X-534Y44456D01*
X-322Y43461D01*
X-1317Y43250D01*
X-2332Y43034D01*
X-3337Y42821D01*
X-4353Y42605D01*
X-4564Y43599D01*
X-5580Y43383D01*
X-5369Y42389D01*
X-6384Y42173D01*
X-7368Y41964D01*
X-8383Y41748D01*
X-9399Y41532D01*
X-9611Y42526D01*
X-10615Y42313D01*
X-10827Y43307D01*
X-11038Y44301D01*
X-11254Y45317D01*
X-11470Y46333D01*
X-11683Y47338D01*
X-11899Y48353D01*
X-12115Y49369D01*
X-12327Y50363D01*
X-12542Y51379D01*
X-11537Y51592D01*
X-10522Y51808D01*
X-9506Y52024D01*
X-8523Y52233D01*
X-8307Y51218D01*
X-7291Y51434D01*
X-7507Y52449D01*
X-6491Y52665D01*
X-5476Y52881D01*
X-4471Y53095D01*
X-3455Y53311D01*
X-2450Y53524D01*
X-1434Y53740D01*
X-419Y53956D01*
X565Y54165D01*
X781Y53149D01*
X791Y53152D01*
X576Y54167D01*
X1581Y54381D01*
X2596Y54597D01*
X3612Y54813D01*
X4595Y55022D01*
X4811Y54006D01*
X5827Y54222D01*
X5611Y55238D01*
X6627Y55453D01*
X7642Y55669D01*
X8647Y55883D01*
X9663Y56099D01*
X9879Y55083D01*
D02*
G37*
G36*
X-35142Y-29171D02*
X-35222D01*
Y-29252D01*
X-35303D01*
Y-29333D01*
Y-29414D01*
X-35384D01*
Y-29494D01*
X-35464D01*
Y-29575D01*
X-35545D01*
Y-29656D01*
Y-29736D01*
X-35626D01*
Y-29817D01*
X-35706D01*
Y-29898D01*
X-35787D01*
Y-29978D01*
X-35868D01*
Y-30059D01*
Y-30140D01*
X-35949D01*
Y-30220D01*
X-36029D01*
Y-30301D01*
X-36110D01*
Y-30382D01*
Y-30463D01*
X-36191D01*
Y-30543D01*
X-36271D01*
Y-30624D01*
X-36352D01*
Y-30705D01*
X-36433D01*
Y-30785D01*
Y-30866D01*
X-36513D01*
Y-30947D01*
X-36594D01*
Y-31027D01*
X-36675D01*
Y-31108D01*
Y-31189D01*
X-36755D01*
Y-31269D01*
X-36836D01*
Y-31350D01*
X-36917D01*
Y-31431D01*
Y-31511D01*
X-36997D01*
Y-31592D01*
X-37078D01*
Y-31673D01*
X-37159D01*
Y-31754D01*
X-37240D01*
Y-31834D01*
Y-31915D01*
X-37320D01*
Y-31996D01*
X-37401D01*
Y-32076D01*
X-37482D01*
Y-32157D01*
Y-32238D01*
X-37562D01*
Y-32318D01*
X-37643D01*
Y-32399D01*
X-37724D01*
Y-32480D01*
Y-32560D01*
X-37804D01*
Y-32641D01*
X-37885D01*
Y-32722D01*
X-37966D01*
Y-32802D01*
X-38046D01*
Y-32883D01*
Y-32964D01*
X-38127D01*
Y-33044D01*
X-38208D01*
Y-33125D01*
X-38289D01*
Y-33206D01*
Y-33286D01*
X-38369D01*
Y-33367D01*
X-38450D01*
Y-33448D01*
X-38530D01*
Y-33529D01*
Y-33609D01*
X-38611D01*
Y-33690D01*
X-38692D01*
Y-33771D01*
X-38773D01*
Y-33851D01*
X-38853D01*
Y-33932D01*
Y-34013D01*
X-38934D01*
Y-34093D01*
X-39015D01*
Y-34174D01*
X-39095D01*
Y-34255D01*
Y-34336D01*
X-39176D01*
Y-34416D01*
X-39257D01*
Y-34497D01*
X-39337D01*
Y-34578D01*
X-39418D01*
Y-34658D01*
Y-34739D01*
X-39337D01*
Y-34820D01*
Y-34900D01*
X-39257D01*
Y-34981D01*
Y-35062D01*
X-39176D01*
Y-35142D01*
X-39095D01*
Y-35223D01*
Y-35304D01*
X-39015D01*
Y-35384D01*
Y-35465D01*
X-38934D01*
Y-35546D01*
Y-35627D01*
X-38853D01*
Y-35707D01*
Y-35788D01*
X-38773D01*
Y-35868D01*
Y-35949D01*
X-38692D01*
Y-36030D01*
Y-36111D01*
X-38611D01*
Y-36191D01*
Y-36272D01*
X-38530D01*
Y-36353D01*
Y-36433D01*
X-38450D01*
Y-36514D01*
X-38369D01*
Y-36595D01*
Y-36675D01*
X-38289D01*
Y-36756D01*
Y-36837D01*
X-38208D01*
Y-36917D01*
Y-36998D01*
X-38127D01*
Y-37079D01*
Y-37159D01*
X-38046D01*
Y-37240D01*
Y-37321D01*
X-37966D01*
Y-37402D01*
Y-37482D01*
X-37885D01*
Y-37563D01*
Y-37644D01*
X-37804D01*
Y-37724D01*
X-37724D01*
Y-37805D01*
Y-37886D01*
X-37643D01*
Y-37966D01*
Y-38047D01*
X-37562D01*
Y-38128D01*
Y-38208D01*
X-37482D01*
Y-38289D01*
Y-38370D01*
X-37401D01*
Y-38451D01*
Y-38531D01*
X-37320D01*
Y-38612D01*
Y-38693D01*
X-37240D01*
Y-38773D01*
Y-38854D01*
X-37159D01*
Y-38935D01*
X-37078D01*
Y-39015D01*
Y-39096D01*
X-36997D01*
Y-39177D01*
Y-39257D01*
X-36917D01*
Y-39338D01*
X-41193D01*
Y-39257D01*
X-41274D01*
Y-39177D01*
Y-39096D01*
Y-39015D01*
X-41355D01*
Y-38935D01*
Y-38854D01*
Y-38773D01*
X-41435D01*
Y-38693D01*
Y-38612D01*
X-41516D01*
Y-38531D01*
Y-38451D01*
Y-38370D01*
X-41597D01*
Y-38289D01*
Y-38208D01*
Y-38128D01*
X-41677D01*
Y-38047D01*
Y-37966D01*
X-41758D01*
Y-37886D01*
Y-37805D01*
Y-37724D01*
X-41839D01*
Y-37644D01*
Y-37563D01*
Y-37482D01*
X-41919D01*
Y-37402D01*
Y-37321D01*
Y-37240D01*
X-42000D01*
Y-37159D01*
X-42161D01*
Y-37240D01*
Y-37321D01*
X-42242D01*
Y-37402D01*
X-42323D01*
Y-37482D01*
Y-37563D01*
X-42404D01*
Y-37644D01*
X-42484D01*
Y-37724D01*
Y-37805D01*
X-42565D01*
Y-37886D01*
X-42645D01*
Y-37966D01*
Y-38047D01*
X-42726D01*
Y-38128D01*
X-42807D01*
Y-38208D01*
X-42888D01*
Y-38289D01*
Y-38370D01*
X-42968D01*
Y-38451D01*
X-43049D01*
Y-38531D01*
Y-38612D01*
X-43130D01*
Y-38693D01*
X-43210D01*
Y-38773D01*
Y-38854D01*
X-43291D01*
Y-38935D01*
X-43372D01*
Y-39015D01*
Y-39096D01*
X-43452D01*
Y-39177D01*
X-43533D01*
Y-39257D01*
Y-39338D01*
X-48052D01*
Y-39257D01*
X-47971D01*
Y-39177D01*
X-47890D01*
Y-39096D01*
X-47810D01*
Y-39015D01*
X-47729D01*
Y-38935D01*
Y-38854D01*
X-47648D01*
Y-38773D01*
X-47567D01*
Y-38693D01*
X-47487D01*
Y-38612D01*
X-47406D01*
Y-38531D01*
Y-38451D01*
X-47325D01*
Y-38370D01*
X-47245D01*
Y-38289D01*
X-47164D01*
Y-38208D01*
Y-38128D01*
X-47083D01*
Y-38047D01*
X-47003D01*
Y-37966D01*
X-46922D01*
Y-37886D01*
X-46841D01*
Y-37805D01*
Y-37724D01*
X-46761D01*
Y-37644D01*
X-46680D01*
Y-37563D01*
X-46599D01*
Y-37482D01*
X-46519D01*
Y-37402D01*
Y-37321D01*
X-46438D01*
Y-37240D01*
X-46357D01*
Y-37159D01*
X-46277D01*
Y-37079D01*
Y-36998D01*
X-46196D01*
Y-36917D01*
X-46115D01*
Y-36837D01*
X-46034D01*
Y-36756D01*
X-45954D01*
Y-36675D01*
Y-36595D01*
X-45873D01*
Y-36514D01*
X-45792D01*
Y-36433D01*
X-45712D01*
Y-36353D01*
Y-36272D01*
X-45631D01*
Y-36191D01*
X-45550D01*
Y-36111D01*
X-45470D01*
Y-36030D01*
X-45389D01*
Y-35949D01*
Y-35868D01*
X-45308D01*
Y-35788D01*
X-45228D01*
Y-35707D01*
X-45147D01*
Y-35627D01*
Y-35546D01*
X-45066D01*
Y-35465D01*
X-44985D01*
Y-35384D01*
X-44905D01*
Y-35304D01*
X-44824D01*
Y-35223D01*
Y-35142D01*
X-44743D01*
Y-35062D01*
X-44663D01*
Y-34981D01*
X-44582D01*
Y-34900D01*
X-44501D01*
Y-34820D01*
Y-34739D01*
X-44421D01*
Y-34658D01*
X-44340D01*
Y-34578D01*
X-44259D01*
Y-34497D01*
Y-34416D01*
X-44179D01*
Y-34336D01*
X-44098D01*
Y-34255D01*
X-44017D01*
Y-34174D01*
X-43937D01*
Y-34093D01*
Y-34013D01*
X-43856D01*
Y-33932D01*
Y-33851D01*
Y-33771D01*
X-43937D01*
Y-33690D01*
X-44017D01*
Y-33609D01*
Y-33529D01*
X-44098D01*
Y-33448D01*
Y-33367D01*
X-44179D01*
Y-33286D01*
Y-33206D01*
X-44259D01*
Y-33125D01*
Y-33044D01*
X-44340D01*
Y-32964D01*
Y-32883D01*
X-44421D01*
Y-32802D01*
Y-32722D01*
X-44501D01*
Y-32641D01*
X-44582D01*
Y-32560D01*
Y-32480D01*
X-44663D01*
Y-32399D01*
Y-32318D01*
X-44743D01*
Y-32238D01*
Y-32157D01*
X-44824D01*
Y-32076D01*
Y-31996D01*
X-44905D01*
Y-31915D01*
Y-31834D01*
X-44985D01*
Y-31754D01*
Y-31673D01*
X-45066D01*
Y-31592D01*
X-45147D01*
Y-31511D01*
Y-31431D01*
X-45228D01*
Y-31350D01*
Y-31269D01*
X-45308D01*
Y-31189D01*
Y-31108D01*
X-45389D01*
Y-31027D01*
Y-30947D01*
X-45470D01*
Y-30866D01*
Y-30785D01*
X-45550D01*
Y-30705D01*
Y-30624D01*
X-45631D01*
Y-30543D01*
Y-30463D01*
X-45712D01*
Y-30382D01*
X-45792D01*
Y-30301D01*
Y-30220D01*
X-45873D01*
Y-30140D01*
Y-30059D01*
X-45954D01*
Y-29978D01*
Y-29898D01*
X-46034D01*
Y-29817D01*
Y-29736D01*
X-46115D01*
Y-29656D01*
Y-29575D01*
X-46196D01*
Y-29494D01*
Y-29414D01*
X-46277D01*
Y-29333D01*
X-46357D01*
Y-29252D01*
Y-29171D01*
X-46438D01*
Y-29091D01*
X-42000D01*
Y-29171D01*
X-41919D01*
Y-29252D01*
Y-29333D01*
Y-29414D01*
X-41839D01*
Y-29494D01*
Y-29575D01*
Y-29656D01*
X-41758D01*
Y-29736D01*
Y-29817D01*
Y-29898D01*
X-41677D01*
Y-29978D01*
Y-30059D01*
Y-30140D01*
X-41597D01*
Y-30220D01*
Y-30301D01*
Y-30382D01*
X-41516D01*
Y-30463D01*
Y-30543D01*
Y-30624D01*
X-41435D01*
Y-30705D01*
Y-30785D01*
Y-30866D01*
X-41355D01*
Y-30947D01*
Y-31027D01*
Y-31108D01*
X-41274D01*
Y-31189D01*
Y-31269D01*
Y-31350D01*
Y-31431D01*
X-41113D01*
Y-31350D01*
X-41032D01*
Y-31269D01*
X-40951D01*
Y-31189D01*
Y-31108D01*
X-40870D01*
Y-31027D01*
X-40790D01*
Y-30947D01*
Y-30866D01*
X-40709D01*
Y-30785D01*
X-40628D01*
Y-30705D01*
Y-30624D01*
X-40548D01*
Y-30543D01*
X-40467D01*
Y-30463D01*
Y-30382D01*
X-40386D01*
Y-30301D01*
X-40306D01*
Y-30220D01*
Y-30140D01*
X-40225D01*
Y-30059D01*
X-40144D01*
Y-29978D01*
Y-29898D01*
X-40064D01*
Y-29817D01*
X-39983D01*
Y-29736D01*
Y-29656D01*
X-39902D01*
Y-29575D01*
X-39821D01*
Y-29494D01*
Y-29414D01*
X-39741D01*
Y-29333D01*
X-39660D01*
Y-29252D01*
Y-29171D01*
X-39579D01*
Y-29091D01*
X-35142D01*
Y-29171D01*
D02*
G37*
G36*
X-72661Y-25218D02*
X-72177D01*
Y-25299D01*
X-71935D01*
Y-25379D01*
X-71693D01*
Y-25460D01*
X-71451D01*
Y-25541D01*
X-71289D01*
Y-25621D01*
X-71209D01*
Y-25702D01*
X-71048D01*
Y-25783D01*
X-70967D01*
Y-25863D01*
X-70805D01*
Y-25944D01*
X-70725D01*
Y-26025D01*
X-70644D01*
Y-26105D01*
X-70563D01*
Y-26186D01*
X-70483D01*
Y-26267D01*
X-70402D01*
Y-26347D01*
X-70321D01*
Y-26428D01*
Y-26509D01*
X-70241D01*
Y-26590D01*
X-70160D01*
Y-26670D01*
Y-26751D01*
X-70079D01*
Y-26831D01*
X-69999D01*
Y-26912D01*
Y-26993D01*
X-69918D01*
Y-27074D01*
Y-27154D01*
Y-27235D01*
X-69837D01*
Y-27316D01*
Y-27396D01*
Y-27477D01*
X-69756D01*
Y-27558D01*
Y-27638D01*
Y-27719D01*
Y-27800D01*
X-69676D01*
Y-27880D01*
Y-27961D01*
Y-28042D01*
Y-28123D01*
Y-28203D01*
X-69595D01*
Y-28284D01*
Y-28365D01*
Y-28445D01*
Y-28526D01*
Y-28607D01*
Y-28687D01*
Y-28768D01*
Y-28849D01*
Y-28929D01*
Y-29010D01*
Y-29091D01*
Y-29171D01*
Y-29252D01*
Y-29333D01*
Y-29414D01*
Y-29494D01*
Y-29575D01*
Y-29656D01*
Y-29736D01*
Y-29817D01*
X-69676D01*
Y-29898D01*
Y-29978D01*
Y-30059D01*
Y-30140D01*
Y-30220D01*
Y-30301D01*
Y-30382D01*
X-69756D01*
Y-30463D01*
Y-30543D01*
Y-30624D01*
Y-30705D01*
Y-30785D01*
X-69837D01*
Y-30866D01*
Y-30947D01*
Y-31027D01*
Y-31108D01*
Y-31189D01*
X-69918D01*
Y-31269D01*
Y-31350D01*
Y-31431D01*
X-69999D01*
Y-31511D01*
Y-31592D01*
Y-31673D01*
Y-31754D01*
X-70079D01*
Y-31834D01*
Y-31915D01*
Y-31996D01*
X-70160D01*
Y-32076D01*
Y-32157D01*
X-70241D01*
Y-32238D01*
Y-32318D01*
Y-32399D01*
X-70321D01*
Y-32480D01*
Y-32560D01*
X-70402D01*
Y-32641D01*
Y-32722D01*
X-70483D01*
Y-32802D01*
Y-32883D01*
X-70563D01*
Y-32964D01*
X-70644D01*
Y-33044D01*
Y-33125D01*
X-70725D01*
Y-33206D01*
X-70805D01*
Y-33286D01*
X-70886D01*
Y-33367D01*
Y-33448D01*
X-70967D01*
Y-33529D01*
X-71048D01*
Y-33609D01*
X-71128D01*
Y-33690D01*
X-71209D01*
Y-33771D01*
X-71289D01*
Y-33851D01*
X-71451D01*
Y-33932D01*
X-71532D01*
Y-34013D01*
X-71693D01*
Y-34093D01*
X-71774D01*
Y-34174D01*
X-71935D01*
Y-34255D01*
X-72177D01*
Y-34336D01*
X-72419D01*
Y-34416D01*
X-72661D01*
Y-34497D01*
X-73145D01*
Y-34578D01*
X-74598D01*
Y-34497D01*
X-75324D01*
Y-34416D01*
X-75889D01*
Y-34336D01*
X-76292D01*
Y-34255D01*
X-76696D01*
Y-34174D01*
X-77099D01*
Y-34255D01*
Y-34336D01*
Y-34416D01*
Y-34497D01*
Y-34578D01*
Y-34658D01*
Y-34739D01*
X-77180D01*
Y-34820D01*
Y-34900D01*
Y-34981D01*
Y-35062D01*
Y-35142D01*
Y-35223D01*
X-77260D01*
Y-35304D01*
Y-35384D01*
Y-35465D01*
Y-35546D01*
Y-35627D01*
Y-35707D01*
X-77341D01*
Y-35788D01*
Y-35868D01*
Y-35949D01*
Y-36030D01*
Y-36111D01*
Y-36191D01*
Y-36272D01*
X-77422D01*
Y-36353D01*
Y-36433D01*
Y-36514D01*
Y-36595D01*
Y-36675D01*
Y-36756D01*
X-77503D01*
Y-36837D01*
Y-36917D01*
Y-36998D01*
Y-37079D01*
Y-37159D01*
Y-37240D01*
X-77583D01*
Y-37321D01*
Y-37402D01*
Y-37482D01*
Y-37563D01*
Y-37644D01*
Y-37724D01*
Y-37805D01*
X-77664D01*
Y-37886D01*
Y-37966D01*
Y-38047D01*
Y-38128D01*
Y-38208D01*
Y-38289D01*
X-77745D01*
Y-38370D01*
Y-38451D01*
Y-38531D01*
Y-38612D01*
Y-38693D01*
Y-38773D01*
X-77825D01*
Y-38854D01*
Y-38935D01*
Y-39015D01*
Y-39096D01*
Y-39177D01*
Y-39257D01*
Y-39338D01*
X-81617D01*
Y-39257D01*
X-81537D01*
Y-39177D01*
Y-39096D01*
Y-39015D01*
Y-38935D01*
Y-38854D01*
X-81456D01*
Y-38773D01*
Y-38693D01*
Y-38612D01*
Y-38531D01*
Y-38451D01*
Y-38370D01*
Y-38289D01*
X-81375D01*
Y-38208D01*
Y-38128D01*
Y-38047D01*
Y-37966D01*
Y-37886D01*
Y-37805D01*
X-81295D01*
Y-37724D01*
Y-37644D01*
Y-37563D01*
Y-37482D01*
Y-37402D01*
Y-37321D01*
X-81214D01*
Y-37240D01*
Y-37159D01*
Y-37079D01*
Y-36998D01*
Y-36917D01*
Y-36837D01*
Y-36756D01*
X-81133D01*
Y-36675D01*
Y-36595D01*
Y-36514D01*
Y-36433D01*
Y-36353D01*
Y-36272D01*
X-81053D01*
Y-36191D01*
Y-36111D01*
Y-36030D01*
Y-35949D01*
Y-35868D01*
Y-35788D01*
X-80972D01*
Y-35707D01*
Y-35627D01*
Y-35546D01*
Y-35465D01*
Y-35384D01*
Y-35304D01*
X-80891D01*
Y-35223D01*
Y-35142D01*
Y-35062D01*
Y-34981D01*
Y-34900D01*
Y-34820D01*
Y-34739D01*
X-80811D01*
Y-34658D01*
Y-34578D01*
Y-34497D01*
Y-34416D01*
Y-34336D01*
Y-34255D01*
X-80730D01*
Y-34174D01*
Y-34093D01*
Y-34013D01*
Y-33932D01*
Y-33851D01*
Y-33771D01*
X-80649D01*
Y-33690D01*
Y-33609D01*
Y-33529D01*
Y-33448D01*
Y-33367D01*
Y-33286D01*
X-80569D01*
Y-33206D01*
Y-33125D01*
Y-33044D01*
Y-32964D01*
Y-32883D01*
Y-32802D01*
Y-32722D01*
X-80488D01*
Y-32641D01*
Y-32560D01*
Y-32480D01*
Y-32399D01*
Y-32318D01*
Y-32238D01*
X-80407D01*
Y-32157D01*
Y-32076D01*
Y-31996D01*
Y-31915D01*
Y-31834D01*
Y-31754D01*
X-80326D01*
Y-31673D01*
Y-31592D01*
Y-31511D01*
Y-31431D01*
Y-31350D01*
Y-31269D01*
Y-31189D01*
X-80246D01*
Y-31108D01*
Y-31027D01*
Y-30947D01*
Y-30866D01*
Y-30785D01*
Y-30705D01*
X-80165D01*
Y-30624D01*
Y-30543D01*
Y-30463D01*
Y-30382D01*
Y-30301D01*
Y-30220D01*
X-80084D01*
Y-30140D01*
Y-30059D01*
Y-29978D01*
Y-29898D01*
Y-29817D01*
Y-29736D01*
X-80004D01*
Y-29656D01*
Y-29575D01*
Y-29494D01*
Y-29414D01*
Y-29333D01*
Y-29252D01*
Y-29171D01*
X-79923D01*
Y-29091D01*
Y-29010D01*
Y-28929D01*
Y-28849D01*
Y-28768D01*
Y-28687D01*
X-79842D01*
Y-28607D01*
Y-28526D01*
Y-28445D01*
Y-28365D01*
Y-28284D01*
Y-28203D01*
X-79762D01*
Y-28123D01*
Y-28042D01*
Y-27961D01*
Y-27880D01*
Y-27800D01*
Y-27719D01*
Y-27638D01*
X-79681D01*
Y-27558D01*
Y-27477D01*
Y-27396D01*
Y-27316D01*
Y-27235D01*
Y-27154D01*
X-79600D01*
Y-27074D01*
Y-26993D01*
Y-26912D01*
Y-26831D01*
Y-26751D01*
Y-26670D01*
X-79520D01*
Y-26590D01*
Y-26509D01*
Y-26428D01*
Y-26347D01*
Y-26267D01*
Y-26186D01*
Y-26105D01*
X-79439D01*
Y-26025D01*
Y-25944D01*
Y-25863D01*
Y-25783D01*
Y-25702D01*
Y-25621D01*
X-79358D01*
Y-25541D01*
Y-25460D01*
Y-25379D01*
Y-25299D01*
Y-25218D01*
Y-25137D01*
X-72661D01*
Y-25218D01*
D02*
G37*
%LPC*%
G36*
X-4255Y52079D02*
X-5260Y51865D01*
X-6275Y51649D01*
X-6064Y50655D01*
X-5848Y49639D01*
X-5632Y48624D01*
X-5419Y47619D01*
X-6434Y47403D01*
X-6648Y48408D01*
X-7664Y48192D01*
X-7450Y47187D01*
X-8434Y46978D01*
X-8647Y47983D01*
X-8863Y48999D01*
X-9079Y50014D01*
X-9290Y51009D01*
X-10306Y50793D01*
X-11322Y50577D01*
X-11110Y49583D01*
X-10894Y48567D01*
X-10678Y47551D01*
X-10465Y46546D01*
X-10249Y45531D01*
X-10033Y44515D01*
X-9822Y43521D01*
X-8806Y43737D01*
X-7790Y43953D01*
X-8002Y44947D01*
X-7018Y45156D01*
X-7234Y46172D01*
X-6219Y46387D01*
X-6003Y45372D01*
X-4987Y45588D01*
X-4776Y44593D01*
X-3760Y44809D01*
X-2755Y45023D01*
X-2966Y46017D01*
X-3182Y47033D01*
X-3398Y48048D01*
X-3612Y49053D01*
X-3828Y50069D01*
X-4043Y51085D01*
X-4255Y52079D01*
D02*
G37*
G36*
X-203Y52940D02*
X-1218Y52724D01*
X-2234Y52508D01*
X-2023Y51514D01*
X-1807Y50498D01*
X-1591Y49483D01*
X-1377Y48478D01*
X-1162Y47462D01*
X-946Y46447D01*
X-734Y45452D01*
X281Y45668D01*
X1297Y45884D01*
X1086Y46878D01*
X870Y47894D01*
X654Y48910D01*
X440Y49915D01*
X224Y50930D01*
X8Y51946D01*
X-203Y52940D01*
D02*
G37*
G36*
X-73871Y-28284D02*
X-76131D01*
Y-28365D01*
Y-28445D01*
Y-28526D01*
Y-28607D01*
Y-28687D01*
X-76211D01*
Y-28768D01*
Y-28849D01*
Y-28929D01*
Y-29010D01*
Y-29091D01*
Y-29171D01*
X-76292D01*
Y-29252D01*
Y-29333D01*
Y-29414D01*
Y-29494D01*
Y-29575D01*
Y-29656D01*
X-76373D01*
Y-29736D01*
Y-29817D01*
Y-29898D01*
Y-29978D01*
Y-30059D01*
Y-30140D01*
X-76454D01*
Y-30220D01*
Y-30301D01*
Y-30382D01*
Y-30463D01*
Y-30543D01*
Y-30624D01*
Y-30705D01*
X-76534D01*
Y-30785D01*
Y-30866D01*
Y-30947D01*
Y-31027D01*
Y-31108D01*
Y-31189D01*
X-76615D01*
Y-31269D01*
Y-31350D01*
Y-31431D01*
X-74598D01*
Y-31350D01*
X-74275D01*
Y-31269D01*
X-74114D01*
Y-31189D01*
X-74033D01*
Y-31108D01*
X-73952D01*
Y-31027D01*
X-73871D01*
Y-30947D01*
X-73791D01*
Y-30866D01*
Y-30785D01*
X-73710D01*
Y-30705D01*
Y-30624D01*
X-73629D01*
Y-30543D01*
Y-30463D01*
X-73549D01*
Y-30382D01*
Y-30301D01*
Y-30220D01*
Y-30140D01*
X-73468D01*
Y-30059D01*
Y-29978D01*
Y-29898D01*
Y-29817D01*
Y-29736D01*
X-73387D01*
Y-29656D01*
Y-29575D01*
Y-29494D01*
Y-29414D01*
Y-29333D01*
Y-29252D01*
Y-29171D01*
Y-29091D01*
Y-29010D01*
Y-28929D01*
Y-28849D01*
X-73468D01*
Y-28768D01*
Y-28687D01*
X-73549D01*
Y-28607D01*
Y-28526D01*
X-73629D01*
Y-28445D01*
X-73710D01*
Y-28365D01*
X-73871D01*
Y-28284D01*
D02*
G37*
G36*
X8863Y54867D02*
X7858Y54654D01*
X6843Y54438D01*
X7054Y53443D01*
X6038Y53228D01*
X6254Y52212D01*
X5238Y51996D01*
X5023Y53012D01*
X4039Y52803D01*
X3828Y53797D01*
X2812Y53581D01*
X1796Y53365D01*
X2008Y52371D01*
X2224Y51355D01*
X2440Y50340D01*
X2653Y49335D01*
X2869Y48319D01*
X3085Y47303D01*
X3296Y46309D01*
X4312Y46525D01*
X5328Y46741D01*
X5116Y47735D01*
X4900Y48751D01*
X4684Y49766D01*
X4471Y50771D01*
X5454Y50980D01*
X5668Y49975D01*
X6684Y50191D01*
X6470Y51196D01*
X7486Y51412D01*
X7699Y50407D01*
X7915Y49392D01*
X8131Y48376D01*
X8343Y47382D01*
X9358Y47598D01*
X10363Y47811D01*
X10152Y48805D01*
X9936Y49821D01*
X9720Y50837D01*
X9506Y51842D01*
X9290Y52857D01*
X9075Y53873D01*
X8863Y54867D01*
D02*
G37*
%LPD*%
G36*
X1034465Y-150646D02*
Y-150933D01*
Y-151219D01*
Y-151505D01*
Y-151791D01*
Y-152078D01*
Y-152364D01*
Y-152650D01*
Y-152937D01*
Y-153223D01*
Y-153509D01*
Y-153796D01*
Y-154082D01*
Y-154368D01*
Y-154655D01*
Y-154941D01*
Y-155227D01*
Y-155514D01*
Y-155800D01*
Y-156086D01*
Y-156372D01*
X1034179D01*
Y-156659D01*
Y-156945D01*
Y-157231D01*
Y-157518D01*
Y-157804D01*
X1033893D01*
Y-158090D01*
Y-158377D01*
Y-158663D01*
Y-158949D01*
X1033607D01*
Y-159236D01*
Y-159522D01*
Y-159808D01*
Y-160094D01*
X1033320D01*
Y-160381D01*
Y-160667D01*
Y-160953D01*
X1033034D01*
Y-161240D01*
Y-161526D01*
Y-161812D01*
X1032747D01*
Y-162099D01*
Y-162385D01*
Y-162671D01*
X1032461D01*
Y-162958D01*
Y-163244D01*
Y-163530D01*
X1032175D01*
Y-163816D01*
Y-164103D01*
X1031889D01*
Y-164389D01*
Y-164675D01*
X1031602D01*
Y-164962D01*
Y-165248D01*
Y-165534D01*
X1031316D01*
Y-165821D01*
Y-166107D01*
X1031030D01*
Y-166393D01*
Y-166680D01*
Y-166966D01*
X1030743D01*
Y-167252D01*
Y-167539D01*
X1030457D01*
Y-167825D01*
Y-168111D01*
Y-168398D01*
X1030171D01*
Y-168684D01*
Y-168970D01*
X1029884D01*
Y-169256D01*
Y-169543D01*
Y-169829D01*
X1029598D01*
Y-170115D01*
Y-170402D01*
X1029312D01*
Y-170688D01*
Y-170974D01*
Y-171261D01*
X1029025D01*
Y-171547D01*
Y-171833D01*
X1028739D01*
Y-172120D01*
Y-172406D01*
Y-172692D01*
X1028453D01*
Y-172978D01*
Y-173265D01*
X1028166D01*
Y-173551D01*
Y-173837D01*
Y-174124D01*
X1027880D01*
Y-174410D01*
Y-174696D01*
X1027594D01*
Y-174983D01*
Y-175269D01*
Y-175555D01*
X1027308D01*
Y-175842D01*
Y-176128D01*
X1027021D01*
Y-176414D01*
Y-176701D01*
Y-176987D01*
X1026735D01*
Y-177273D01*
Y-177560D01*
X1026449D01*
Y-177846D01*
Y-178132D01*
Y-178419D01*
X1026162D01*
Y-178705D01*
Y-178991D01*
X1025876D01*
Y-179277D01*
Y-179564D01*
Y-179850D01*
X1025590D01*
Y-180136D01*
Y-180423D01*
X1025303D01*
Y-180709D01*
Y-180995D01*
Y-181282D01*
X1025017D01*
Y-181568D01*
Y-181854D01*
X1024731D01*
Y-182141D01*
Y-182427D01*
Y-182713D01*
X1024444D01*
Y-183000D01*
Y-183286D01*
X1024158D01*
Y-183572D01*
Y-183858D01*
Y-184145D01*
X1023872D01*
Y-184431D01*
Y-184717D01*
X1023586D01*
Y-185004D01*
Y-185290D01*
Y-185576D01*
X1023299D01*
Y-185863D01*
Y-186149D01*
X1023013D01*
Y-186435D01*
Y-186722D01*
Y-187008D01*
X1022727D01*
Y-187294D01*
Y-187581D01*
X1022440D01*
Y-187867D01*
Y-188153D01*
X1022154D01*
Y-188439D01*
Y-188726D01*
X1021868D01*
Y-189012D01*
Y-189298D01*
Y-189585D01*
X1021581D01*
Y-189871D01*
X1021295D01*
Y-190157D01*
Y-190444D01*
Y-190730D01*
X1021009D01*
Y-191016D01*
X1020722D01*
Y-191303D01*
Y-191589D01*
X1020436D01*
Y-191875D01*
Y-192162D01*
X1020150D01*
Y-192448D01*
Y-192734D01*
X1019864D01*
Y-193020D01*
Y-193307D01*
X1019577D01*
Y-193593D01*
X1019291D01*
Y-193879D01*
Y-194166D01*
X1019005D01*
Y-194452D01*
Y-194738D01*
X1018718D01*
Y-195025D01*
X1018432D01*
Y-195311D01*
X1018146D01*
Y-195597D01*
Y-195884D01*
X1017859D01*
Y-196170D01*
X1017573D01*
Y-196456D01*
Y-196742D01*
X1017287D01*
Y-197029D01*
X1017000D01*
Y-197315D01*
X1016714D01*
Y-197601D01*
Y-197888D01*
X1016428D01*
Y-198174D01*
X1016141D01*
Y-198460D01*
X1015855D01*
Y-198747D01*
X1015569D01*
Y-199033D01*
X1015283D01*
Y-199319D01*
Y-199606D01*
X1014996D01*
Y-199892D01*
X1014710D01*
Y-200178D01*
X1014423D01*
Y-200465D01*
X1014137D01*
Y-200751D01*
X1013851D01*
Y-201037D01*
X1013565D01*
Y-201324D01*
X1013278D01*
Y-201610D01*
X1012706D01*
Y-201896D01*
X1012419D01*
Y-202183D01*
X1012133D01*
Y-202469D01*
X1011847D01*
Y-202755D01*
X1011560D01*
Y-203041D01*
X1010988D01*
Y-203328D01*
X1010701D01*
Y-203614D01*
X1010129D01*
Y-203900D01*
X1009842D01*
Y-204187D01*
X1009270D01*
Y-204473D01*
X1008984D01*
Y-204759D01*
X1008411D01*
Y-205046D01*
X1007838D01*
Y-205332D01*
X1007266D01*
Y-205618D01*
X1006693D01*
Y-205905D01*
X1006120D01*
Y-206191D01*
X1005262D01*
Y-206477D01*
X1004689D01*
Y-206764D01*
X1003830D01*
Y-207050D01*
X1002685D01*
Y-207336D01*
X1001539D01*
Y-207622D01*
X999822D01*
Y-207909D01*
X997817D01*
Y-208195D01*
X997531D01*
Y-207909D01*
Y-207622D01*
Y-207336D01*
Y-207050D01*
Y-206764D01*
Y-206477D01*
Y-206191D01*
Y-205905D01*
Y-205618D01*
Y-205332D01*
Y-205046D01*
Y-204759D01*
Y-204473D01*
Y-204187D01*
Y-203900D01*
Y-203614D01*
Y-203328D01*
Y-203041D01*
Y-202755D01*
Y-202469D01*
Y-202183D01*
Y-201896D01*
Y-201610D01*
Y-201324D01*
Y-201037D01*
Y-200751D01*
Y-200465D01*
Y-200178D01*
Y-199892D01*
Y-199606D01*
Y-199319D01*
Y-199033D01*
Y-198747D01*
X998104D01*
Y-198460D01*
X998676D01*
Y-198174D01*
X999249D01*
Y-197888D01*
X999822D01*
Y-197601D01*
X1000394D01*
Y-197315D01*
X1000967D01*
Y-197029D01*
X1001253D01*
Y-196742D01*
X1001826D01*
Y-196456D01*
X1002112D01*
Y-196170D01*
X1002685D01*
Y-195884D01*
X1002971D01*
Y-195597D01*
X1003257D01*
Y-195311D01*
X1003830D01*
Y-195025D01*
X1004116D01*
Y-194738D01*
X1004403D01*
Y-194452D01*
X1004689D01*
Y-194166D01*
X1004975D01*
Y-193879D01*
X1005262D01*
Y-193593D01*
X1005548D01*
Y-193307D01*
X1005834D01*
Y-193020D01*
X1006120D01*
Y-192734D01*
X1006407D01*
Y-192448D01*
X1006693D01*
Y-192162D01*
X1006979D01*
Y-191875D01*
Y-191589D01*
X1007266D01*
Y-191303D01*
X1007552D01*
Y-191016D01*
X1007838D01*
Y-190730D01*
Y-190444D01*
X1008125D01*
Y-190157D01*
X1008411D01*
Y-189871D01*
Y-189585D01*
X1008697D01*
Y-189298D01*
Y-189012D01*
X1008984D01*
Y-188726D01*
X1009270D01*
Y-188439D01*
Y-188153D01*
X1009556D01*
Y-187867D01*
Y-187581D01*
X1009842D01*
Y-187294D01*
Y-187008D01*
X1008125D01*
Y-186722D01*
X1006120D01*
Y-186435D01*
X1004975D01*
Y-186149D01*
X1004403D01*
Y-185863D01*
X1003544D01*
Y-185576D01*
X1002971D01*
Y-185290D01*
X1002685D01*
Y-185004D01*
X1002112D01*
Y-184717D01*
X1001826D01*
Y-184431D01*
X1001539D01*
Y-184145D01*
X1001253D01*
Y-183858D01*
X1000967D01*
Y-183572D01*
X1000681D01*
Y-183286D01*
Y-183000D01*
X1000394D01*
Y-182713D01*
X1000108D01*
Y-182427D01*
Y-182141D01*
X999822D01*
Y-181854D01*
Y-181568D01*
X999535D01*
Y-181282D01*
Y-180995D01*
X999249D01*
Y-180709D01*
Y-180423D01*
Y-180136D01*
X998963D01*
Y-179850D01*
Y-179564D01*
Y-179277D01*
Y-178991D01*
X998676D01*
Y-178705D01*
Y-178419D01*
Y-178132D01*
Y-177846D01*
Y-177560D01*
Y-177273D01*
Y-176987D01*
X998390D01*
Y-176701D01*
Y-176414D01*
Y-176128D01*
Y-175842D01*
Y-175555D01*
Y-175269D01*
Y-174983D01*
Y-174696D01*
Y-174410D01*
Y-174124D01*
Y-173837D01*
Y-173551D01*
Y-173265D01*
Y-172978D01*
Y-172692D01*
X998104D01*
Y-172406D01*
Y-172120D01*
Y-171833D01*
Y-171547D01*
Y-171261D01*
Y-170974D01*
Y-170688D01*
Y-170402D01*
Y-170115D01*
Y-169829D01*
Y-169543D01*
Y-169256D01*
Y-168970D01*
Y-168684D01*
Y-168398D01*
X997817D01*
Y-168111D01*
Y-167825D01*
Y-167539D01*
Y-167252D01*
Y-166966D01*
Y-166680D01*
Y-166393D01*
Y-166107D01*
Y-165821D01*
Y-165534D01*
Y-165248D01*
Y-164962D01*
Y-164675D01*
Y-164389D01*
Y-164103D01*
Y-163816D01*
X997531D01*
Y-163530D01*
Y-163244D01*
Y-162958D01*
Y-162671D01*
Y-162385D01*
Y-162099D01*
Y-161812D01*
Y-161526D01*
Y-161240D01*
Y-160953D01*
Y-160667D01*
Y-160381D01*
Y-160094D01*
Y-159808D01*
Y-159522D01*
Y-159236D01*
X997245D01*
Y-158949D01*
Y-158663D01*
Y-158377D01*
Y-158090D01*
Y-157804D01*
Y-157518D01*
Y-157231D01*
Y-156945D01*
Y-156659D01*
Y-156372D01*
Y-156086D01*
Y-155800D01*
Y-155514D01*
Y-155227D01*
X996958D01*
Y-154941D01*
Y-154655D01*
Y-154368D01*
Y-154082D01*
Y-153796D01*
Y-153509D01*
Y-153223D01*
Y-152937D01*
Y-152650D01*
Y-152364D01*
Y-152078D01*
Y-151791D01*
Y-151505D01*
Y-151219D01*
Y-150933D01*
Y-150646D01*
X996672D01*
Y-150360D01*
X1010415D01*
Y-150646D01*
Y-150933D01*
Y-151219D01*
Y-151505D01*
Y-151791D01*
Y-152078D01*
Y-152364D01*
Y-152650D01*
Y-152937D01*
Y-153223D01*
Y-153509D01*
Y-153796D01*
Y-154082D01*
Y-154368D01*
X1010701D01*
Y-154655D01*
Y-154941D01*
Y-155227D01*
Y-155514D01*
Y-155800D01*
Y-156086D01*
Y-156372D01*
Y-156659D01*
Y-156945D01*
Y-157231D01*
Y-157518D01*
Y-157804D01*
Y-158090D01*
Y-158377D01*
Y-158663D01*
Y-158949D01*
Y-159236D01*
Y-159522D01*
Y-159808D01*
Y-160094D01*
Y-160381D01*
Y-160667D01*
Y-160953D01*
Y-161240D01*
Y-161526D01*
Y-161812D01*
Y-162099D01*
Y-162385D01*
Y-162671D01*
Y-162958D01*
Y-163244D01*
Y-163530D01*
Y-163816D01*
Y-164103D01*
Y-164389D01*
Y-164675D01*
Y-164962D01*
Y-165248D01*
Y-165534D01*
Y-165821D01*
Y-166107D01*
X1010988D01*
Y-166393D01*
X1010701D01*
Y-166680D01*
Y-166966D01*
X1010988D01*
Y-167252D01*
Y-167539D01*
Y-167825D01*
Y-168111D01*
Y-168398D01*
Y-168684D01*
Y-168970D01*
Y-169256D01*
Y-169543D01*
Y-169829D01*
Y-170115D01*
Y-170402D01*
Y-170688D01*
Y-170974D01*
Y-171261D01*
Y-171547D01*
Y-171833D01*
Y-172120D01*
Y-172406D01*
Y-172692D01*
Y-172978D01*
Y-173265D01*
Y-173551D01*
Y-173837D01*
Y-174124D01*
Y-174410D01*
X1011274D01*
Y-174696D01*
Y-174983D01*
Y-175269D01*
X1011560D01*
Y-175555D01*
X1011847D01*
Y-175842D01*
X1012133D01*
Y-176128D01*
X1012992D01*
Y-176414D01*
X1013851D01*
Y-176128D01*
X1014137D01*
Y-175842D01*
Y-175555D01*
Y-175269D01*
X1014423D01*
Y-174983D01*
Y-174696D01*
X1014710D01*
Y-174410D01*
Y-174124D01*
Y-173837D01*
X1014996D01*
Y-173551D01*
Y-173265D01*
Y-172978D01*
X1015283D01*
Y-172692D01*
Y-172406D01*
Y-172120D01*
X1015569D01*
Y-171833D01*
Y-171547D01*
Y-171261D01*
X1015855D01*
Y-170974D01*
Y-170688D01*
X1016141D01*
Y-170402D01*
Y-170115D01*
Y-169829D01*
X1016428D01*
Y-169543D01*
Y-169256D01*
Y-168970D01*
X1016714D01*
Y-168684D01*
Y-168398D01*
Y-168111D01*
X1017000D01*
Y-167825D01*
Y-167539D01*
X1017287D01*
Y-167252D01*
Y-166966D01*
Y-166680D01*
X1017573D01*
Y-166393D01*
Y-166107D01*
Y-165821D01*
X1017859D01*
Y-165534D01*
Y-165248D01*
Y-164962D01*
X1018146D01*
Y-164675D01*
Y-164389D01*
X1018432D01*
Y-164103D01*
Y-163816D01*
Y-163530D01*
X1018718D01*
Y-163244D01*
Y-162958D01*
Y-162671D01*
X1019005D01*
Y-162385D01*
Y-162099D01*
Y-161812D01*
X1019291D01*
Y-161526D01*
Y-161240D01*
X1019577D01*
Y-160953D01*
Y-160667D01*
Y-160381D01*
X1019864D01*
Y-160094D01*
Y-159808D01*
Y-159522D01*
X1020150D01*
Y-159236D01*
Y-158949D01*
Y-158663D01*
X1020436D01*
Y-158377D01*
Y-158090D01*
Y-157804D01*
Y-157518D01*
X1020722D01*
Y-157231D01*
Y-156945D01*
Y-156659D01*
Y-156372D01*
X1021009D01*
Y-156086D01*
Y-155800D01*
Y-155514D01*
Y-155227D01*
Y-154941D01*
X1021295D01*
Y-154655D01*
Y-154368D01*
Y-154082D01*
Y-153796D01*
Y-153509D01*
Y-153223D01*
X1021581D01*
Y-152937D01*
Y-152650D01*
Y-152364D01*
Y-152078D01*
Y-151791D01*
Y-151505D01*
Y-151219D01*
Y-150933D01*
Y-150646D01*
Y-150360D01*
X1034465D01*
Y-150646D01*
D02*
G37*
G36*
X976630Y-133181D02*
Y-133467D01*
X976344D01*
Y-133754D01*
Y-134040D01*
Y-134326D01*
Y-134613D01*
Y-134899D01*
Y-135185D01*
X976058D01*
Y-135472D01*
Y-135758D01*
Y-136044D01*
Y-136330D01*
Y-136617D01*
Y-136903D01*
X975771D01*
Y-137189D01*
Y-137476D01*
Y-137762D01*
Y-138048D01*
Y-138335D01*
Y-138621D01*
Y-138907D01*
X975485D01*
Y-139194D01*
Y-139480D01*
Y-139766D01*
Y-140053D01*
Y-140339D01*
Y-140625D01*
X975199D01*
Y-140911D01*
Y-141198D01*
Y-141484D01*
Y-141771D01*
Y-142057D01*
Y-142343D01*
X974912D01*
Y-142629D01*
Y-142916D01*
Y-143202D01*
Y-143488D01*
Y-143775D01*
Y-144061D01*
Y-144347D01*
X974626D01*
Y-144634D01*
Y-144920D01*
Y-145206D01*
Y-145492D01*
Y-145779D01*
Y-146065D01*
X974340D01*
Y-146352D01*
Y-146638D01*
Y-146924D01*
Y-147210D01*
Y-147497D01*
Y-147783D01*
X974053D01*
Y-148069D01*
Y-148356D01*
Y-148642D01*
Y-148928D01*
Y-149215D01*
Y-149501D01*
X973767D01*
Y-149787D01*
Y-150074D01*
Y-150360D01*
Y-150646D01*
Y-150933D01*
Y-151219D01*
Y-151505D01*
X973481D01*
Y-151791D01*
Y-152078D01*
Y-152364D01*
Y-152650D01*
Y-152937D01*
Y-153223D01*
X973195D01*
Y-153509D01*
Y-153796D01*
X973767D01*
Y-153509D01*
X974053D01*
Y-153223D01*
X974340D01*
Y-152937D01*
X974912D01*
Y-152650D01*
X975199D01*
Y-152364D01*
X975485D01*
Y-152078D01*
X976058D01*
Y-151791D01*
X976630D01*
Y-151505D01*
X976917D01*
Y-151219D01*
X977489D01*
Y-150933D01*
X978348D01*
Y-150646D01*
X978921D01*
Y-150360D01*
X979780D01*
Y-150074D01*
X981211D01*
Y-149787D01*
X987510D01*
Y-150074D01*
X988655D01*
Y-150360D01*
X989514D01*
Y-150646D01*
X990087D01*
Y-150933D01*
X990373D01*
Y-151219D01*
X990946D01*
Y-151505D01*
X991232D01*
Y-151791D01*
X991518D01*
Y-152078D01*
X991805D01*
Y-152364D01*
X992091D01*
Y-152650D01*
Y-152937D01*
X992377D01*
Y-153223D01*
Y-153509D01*
X992664D01*
Y-153796D01*
Y-154082D01*
Y-154368D01*
X992950D01*
Y-154655D01*
Y-154941D01*
Y-155227D01*
Y-155514D01*
X993236D01*
Y-155800D01*
Y-156086D01*
Y-156372D01*
Y-156659D01*
Y-156945D01*
Y-157231D01*
Y-157518D01*
Y-157804D01*
Y-158090D01*
Y-158377D01*
Y-158663D01*
Y-158949D01*
Y-159236D01*
Y-159522D01*
Y-159808D01*
Y-160094D01*
Y-160381D01*
Y-160667D01*
X992950D01*
Y-160953D01*
Y-161240D01*
Y-161526D01*
Y-161812D01*
Y-162099D01*
Y-162385D01*
Y-162671D01*
X992664D01*
Y-162958D01*
Y-163244D01*
Y-163530D01*
Y-163816D01*
Y-164103D01*
Y-164389D01*
Y-164675D01*
X992377D01*
Y-164962D01*
Y-165248D01*
Y-165534D01*
Y-165821D01*
Y-166107D01*
Y-166393D01*
X992091D01*
Y-166680D01*
Y-166966D01*
Y-167252D01*
Y-167539D01*
Y-167825D01*
Y-168111D01*
X991805D01*
Y-168398D01*
Y-168684D01*
Y-168970D01*
Y-169256D01*
Y-169543D01*
Y-169829D01*
X991518D01*
Y-170115D01*
Y-170402D01*
Y-170688D01*
Y-170974D01*
Y-171261D01*
Y-171547D01*
Y-171833D01*
X991232D01*
Y-172120D01*
Y-172406D01*
Y-172692D01*
Y-172978D01*
Y-173265D01*
Y-173551D01*
X990946D01*
Y-173837D01*
Y-174124D01*
Y-174410D01*
Y-174696D01*
Y-174983D01*
Y-175269D01*
X990660D01*
Y-175555D01*
Y-175842D01*
Y-176128D01*
Y-176414D01*
Y-176701D01*
Y-176987D01*
Y-177273D01*
X990373D01*
Y-177560D01*
Y-177846D01*
Y-178132D01*
Y-178419D01*
Y-178705D01*
Y-178991D01*
X990087D01*
Y-179277D01*
Y-179564D01*
Y-179850D01*
Y-180136D01*
Y-180423D01*
Y-180709D01*
X989801D01*
Y-180995D01*
Y-181282D01*
Y-181568D01*
Y-181854D01*
Y-182141D01*
Y-182427D01*
X989514D01*
Y-182713D01*
Y-183000D01*
Y-183286D01*
Y-183572D01*
Y-183858D01*
Y-184145D01*
Y-184431D01*
X989228D01*
Y-184717D01*
Y-185004D01*
Y-185290D01*
Y-185576D01*
Y-185863D01*
Y-186149D01*
X988942D01*
Y-186435D01*
Y-186722D01*
X975771D01*
Y-186435D01*
Y-186149D01*
X976058D01*
Y-185863D01*
Y-185576D01*
Y-185290D01*
Y-185004D01*
Y-184717D01*
Y-184431D01*
X976344D01*
Y-184145D01*
Y-183858D01*
Y-183572D01*
Y-183286D01*
Y-183000D01*
Y-182713D01*
Y-182427D01*
X976630D01*
Y-182141D01*
Y-181854D01*
Y-181568D01*
Y-181282D01*
Y-180995D01*
Y-180709D01*
X976917D01*
Y-180423D01*
Y-180136D01*
Y-179850D01*
Y-179564D01*
Y-179277D01*
Y-178991D01*
X977203D01*
Y-178705D01*
Y-178419D01*
Y-178132D01*
Y-177846D01*
Y-177560D01*
Y-177273D01*
Y-176987D01*
X977489D01*
Y-176701D01*
Y-176414D01*
Y-176128D01*
Y-175842D01*
Y-175555D01*
Y-175269D01*
X977775D01*
Y-174983D01*
Y-174696D01*
Y-174410D01*
Y-174124D01*
Y-173837D01*
Y-173551D01*
Y-173265D01*
X978062D01*
Y-172978D01*
Y-172692D01*
Y-172406D01*
Y-172120D01*
Y-171833D01*
Y-171547D01*
X978348D01*
Y-171261D01*
Y-170974D01*
Y-170688D01*
Y-170402D01*
Y-170115D01*
Y-169829D01*
X978634D01*
Y-169543D01*
Y-169256D01*
Y-168970D01*
Y-168684D01*
Y-168398D01*
Y-168111D01*
X978921D01*
Y-167825D01*
Y-167539D01*
Y-167252D01*
Y-166966D01*
Y-166680D01*
Y-166393D01*
Y-166107D01*
X979207D01*
Y-165821D01*
Y-165534D01*
Y-165248D01*
Y-164962D01*
Y-164675D01*
Y-164389D01*
X979493D01*
Y-164103D01*
Y-163816D01*
Y-163530D01*
Y-163244D01*
Y-162958D01*
Y-162671D01*
Y-162385D01*
X979780D01*
Y-162099D01*
Y-161812D01*
Y-161526D01*
Y-161240D01*
Y-160953D01*
Y-160667D01*
X979493D01*
Y-160381D01*
Y-160094D01*
X979207D01*
Y-159808D01*
X978921D01*
Y-159522D01*
X978348D01*
Y-159236D01*
X976630D01*
Y-159522D01*
X975199D01*
Y-159808D01*
X974340D01*
Y-160094D01*
X973767D01*
Y-160381D01*
X973481D01*
Y-160667D01*
X972908D01*
Y-160953D01*
X972622D01*
Y-161240D01*
X972336D01*
Y-161526D01*
Y-161812D01*
X972049D01*
Y-162099D01*
Y-162385D01*
Y-162671D01*
X971763D01*
Y-162958D01*
Y-163244D01*
Y-163530D01*
Y-163816D01*
Y-164103D01*
Y-164389D01*
X971477D01*
Y-164675D01*
Y-164962D01*
Y-165248D01*
Y-165534D01*
Y-165821D01*
Y-166107D01*
Y-166393D01*
X971190D01*
Y-166680D01*
Y-166966D01*
Y-167252D01*
Y-167539D01*
Y-167825D01*
Y-168111D01*
X970904D01*
Y-168398D01*
Y-168684D01*
Y-168970D01*
Y-169256D01*
Y-169543D01*
Y-169829D01*
X970618D01*
Y-170115D01*
Y-170402D01*
Y-170688D01*
Y-170974D01*
Y-171261D01*
Y-171547D01*
X970331D01*
Y-171833D01*
Y-172120D01*
Y-172406D01*
Y-172692D01*
Y-172978D01*
Y-173265D01*
Y-173551D01*
X970045D01*
Y-173837D01*
Y-174124D01*
Y-174410D01*
Y-174696D01*
Y-174983D01*
Y-175269D01*
X969759D01*
Y-175555D01*
Y-175842D01*
Y-176128D01*
Y-176414D01*
Y-176701D01*
Y-176987D01*
X969472D01*
Y-177273D01*
Y-177560D01*
Y-177846D01*
Y-178132D01*
Y-178419D01*
Y-178705D01*
Y-178991D01*
X969186D01*
Y-179277D01*
Y-179564D01*
Y-179850D01*
Y-180136D01*
Y-180423D01*
Y-180709D01*
X968900D01*
Y-180995D01*
Y-181282D01*
Y-181568D01*
Y-181854D01*
Y-182141D01*
Y-182427D01*
X968614D01*
Y-182713D01*
Y-183000D01*
Y-183286D01*
Y-183572D01*
Y-183858D01*
Y-184145D01*
X968327D01*
Y-184431D01*
Y-184717D01*
Y-185004D01*
Y-185290D01*
Y-185576D01*
Y-185863D01*
Y-186149D01*
X968041D01*
Y-186435D01*
Y-186722D01*
X954870D01*
Y-186435D01*
Y-186149D01*
X955157D01*
Y-185863D01*
Y-185576D01*
Y-185290D01*
Y-185004D01*
Y-184717D01*
Y-184431D01*
Y-184145D01*
X955443D01*
Y-183858D01*
Y-183572D01*
Y-183286D01*
Y-183000D01*
Y-182713D01*
Y-182427D01*
X955729D01*
Y-182141D01*
Y-181854D01*
Y-181568D01*
Y-181282D01*
Y-180995D01*
Y-180709D01*
X956016D01*
Y-180423D01*
Y-180136D01*
Y-179850D01*
Y-179564D01*
Y-179277D01*
Y-178991D01*
Y-178705D01*
X956302D01*
Y-178419D01*
Y-178132D01*
Y-177846D01*
Y-177560D01*
Y-177273D01*
Y-176987D01*
X956588D01*
Y-176701D01*
Y-176414D01*
Y-176128D01*
Y-175842D01*
Y-175555D01*
Y-175269D01*
X956875D01*
Y-174983D01*
Y-174696D01*
Y-174410D01*
Y-174124D01*
Y-173837D01*
Y-173551D01*
X957161D01*
Y-173265D01*
Y-172978D01*
Y-172692D01*
Y-172406D01*
Y-172120D01*
Y-171833D01*
Y-171547D01*
X957447D01*
Y-171261D01*
Y-170974D01*
Y-170688D01*
Y-170402D01*
Y-170115D01*
Y-169829D01*
X957734D01*
Y-169543D01*
Y-169256D01*
Y-168970D01*
Y-168684D01*
Y-168398D01*
Y-168111D01*
X958020D01*
Y-167825D01*
Y-167539D01*
Y-167252D01*
Y-166966D01*
Y-166680D01*
Y-166393D01*
Y-166107D01*
X958306D01*
Y-165821D01*
Y-165534D01*
Y-165248D01*
Y-164962D01*
Y-164675D01*
Y-164389D01*
X958593D01*
Y-164103D01*
Y-163816D01*
Y-163530D01*
Y-163244D01*
Y-162958D01*
Y-162671D01*
X958879D01*
Y-162385D01*
Y-162099D01*
Y-161812D01*
Y-161526D01*
Y-161240D01*
Y-160953D01*
X959165D01*
Y-160667D01*
Y-160381D01*
Y-160094D01*
Y-159808D01*
Y-159522D01*
Y-159236D01*
Y-158949D01*
X959451D01*
Y-158663D01*
Y-158377D01*
Y-158090D01*
Y-157804D01*
Y-157518D01*
Y-157231D01*
X959738D01*
Y-156945D01*
Y-156659D01*
Y-156372D01*
Y-156086D01*
Y-155800D01*
Y-155514D01*
X960024D01*
Y-155227D01*
Y-154941D01*
Y-154655D01*
Y-154368D01*
Y-154082D01*
Y-153796D01*
X960310D01*
Y-153509D01*
Y-153223D01*
Y-152937D01*
Y-152650D01*
Y-152364D01*
Y-152078D01*
Y-151791D01*
X960597D01*
Y-151505D01*
Y-151219D01*
Y-150933D01*
Y-150646D01*
Y-150360D01*
Y-150074D01*
X960883D01*
Y-149787D01*
Y-149501D01*
Y-149215D01*
Y-148928D01*
Y-148642D01*
Y-148356D01*
X961169D01*
Y-148069D01*
Y-147783D01*
Y-147497D01*
Y-147210D01*
Y-146924D01*
Y-146638D01*
Y-146352D01*
X961456D01*
Y-146065D01*
Y-145779D01*
Y-145492D01*
Y-145206D01*
Y-144920D01*
Y-144634D01*
X961742D01*
Y-144347D01*
Y-144061D01*
Y-143775D01*
Y-143488D01*
Y-143202D01*
Y-142916D01*
X962028D01*
Y-142629D01*
Y-142343D01*
Y-142057D01*
Y-141771D01*
Y-141484D01*
Y-141198D01*
X962315D01*
Y-140911D01*
Y-140625D01*
Y-140339D01*
Y-140053D01*
Y-139766D01*
Y-139480D01*
Y-139194D01*
X962601D01*
Y-138907D01*
Y-138621D01*
Y-138335D01*
Y-138048D01*
Y-137762D01*
Y-137476D01*
X962887D01*
Y-137189D01*
Y-136903D01*
Y-136617D01*
Y-136330D01*
Y-136044D01*
Y-135758D01*
X963173D01*
Y-135472D01*
Y-135185D01*
Y-134899D01*
Y-134613D01*
Y-134326D01*
Y-134040D01*
Y-133754D01*
X963460D01*
Y-133467D01*
Y-133181D01*
Y-132895D01*
X976630D01*
Y-133181D01*
D02*
G37*
G36*
X945422Y-136617D02*
X947140D01*
Y-136903D01*
X947999D01*
Y-137189D01*
X948858D01*
Y-137476D01*
X949717D01*
Y-137762D01*
X950289D01*
Y-138048D01*
X950576D01*
Y-138335D01*
X951148D01*
Y-138621D01*
X951435D01*
Y-138907D01*
X952007D01*
Y-139194D01*
X952294D01*
Y-139480D01*
X952580D01*
Y-139766D01*
X952866D01*
Y-140053D01*
X953153D01*
Y-140339D01*
X953439D01*
Y-140625D01*
X953725D01*
Y-140911D01*
Y-141198D01*
X954012D01*
Y-141484D01*
X954298D01*
Y-141771D01*
Y-142057D01*
X954584D01*
Y-142343D01*
X954870D01*
Y-142629D01*
Y-142916D01*
X955157D01*
Y-143202D01*
Y-143488D01*
Y-143775D01*
X955443D01*
Y-144061D01*
Y-144347D01*
Y-144634D01*
X955729D01*
Y-144920D01*
Y-145206D01*
Y-145492D01*
Y-145779D01*
X956016D01*
Y-146065D01*
Y-146352D01*
Y-146638D01*
Y-146924D01*
Y-147210D01*
X956302D01*
Y-147497D01*
Y-147783D01*
Y-148069D01*
Y-148356D01*
Y-148642D01*
Y-148928D01*
Y-149215D01*
Y-149501D01*
Y-149787D01*
Y-150074D01*
Y-150360D01*
Y-150646D01*
Y-150933D01*
Y-151219D01*
Y-151505D01*
Y-151791D01*
Y-152078D01*
Y-152364D01*
Y-152650D01*
Y-152937D01*
X956016D01*
Y-153223D01*
Y-153509D01*
Y-153796D01*
Y-154082D01*
Y-154368D01*
Y-154655D01*
Y-154941D01*
X955729D01*
Y-155227D01*
Y-155514D01*
Y-155800D01*
Y-156086D01*
Y-156372D01*
X955443D01*
Y-156659D01*
Y-156945D01*
Y-157231D01*
Y-157518D01*
Y-157804D01*
X955157D01*
Y-158090D01*
Y-158377D01*
Y-158663D01*
X954870D01*
Y-158949D01*
Y-159236D01*
Y-159522D01*
Y-159808D01*
X954584D01*
Y-160094D01*
Y-160381D01*
Y-160667D01*
X954298D01*
Y-160953D01*
Y-161240D01*
X954012D01*
Y-161526D01*
Y-161812D01*
Y-162099D01*
X953725D01*
Y-162385D01*
Y-162671D01*
X953439D01*
Y-162958D01*
Y-163244D01*
X953153D01*
Y-163530D01*
Y-163816D01*
X952866D01*
Y-164103D01*
X952580D01*
Y-164389D01*
Y-164675D01*
X952294D01*
Y-164962D01*
X952007D01*
Y-165248D01*
X951721D01*
Y-165534D01*
Y-165821D01*
X951435D01*
Y-166107D01*
X951148D01*
Y-166393D01*
X950862D01*
Y-166680D01*
X950576D01*
Y-166966D01*
X950289D01*
Y-167252D01*
X949717D01*
Y-167539D01*
X949430D01*
Y-167825D01*
X948858D01*
Y-168111D01*
X948572D01*
Y-168398D01*
X947999D01*
Y-168684D01*
X947140D01*
Y-168970D01*
X946281D01*
Y-169256D01*
X945422D01*
Y-169543D01*
X943704D01*
Y-169829D01*
X938551D01*
Y-169543D01*
X935974D01*
Y-169256D01*
X933970D01*
Y-168970D01*
X932538D01*
Y-168684D01*
X931106D01*
Y-168398D01*
X929675D01*
Y-168684D01*
Y-168970D01*
Y-169256D01*
Y-169543D01*
Y-169829D01*
Y-170115D01*
Y-170402D01*
X929389D01*
Y-170688D01*
Y-170974D01*
Y-171261D01*
Y-171547D01*
Y-171833D01*
Y-172120D01*
X929102D01*
Y-172406D01*
Y-172692D01*
Y-172978D01*
Y-173265D01*
Y-173551D01*
Y-173837D01*
X928816D01*
Y-174124D01*
Y-174410D01*
Y-174696D01*
Y-174983D01*
Y-175269D01*
Y-175555D01*
Y-175842D01*
X928530D01*
Y-176128D01*
Y-176414D01*
Y-176701D01*
Y-176987D01*
Y-177273D01*
Y-177560D01*
X928243D01*
Y-177846D01*
Y-178132D01*
Y-178419D01*
Y-178705D01*
Y-178991D01*
Y-179277D01*
X927957D01*
Y-179564D01*
Y-179850D01*
Y-180136D01*
Y-180423D01*
Y-180709D01*
Y-180995D01*
Y-181282D01*
X927671D01*
Y-181568D01*
Y-181854D01*
Y-182141D01*
Y-182427D01*
Y-182713D01*
Y-183000D01*
X927384D01*
Y-183286D01*
Y-183572D01*
Y-183858D01*
Y-184145D01*
Y-184431D01*
Y-184717D01*
X927098D01*
Y-185004D01*
Y-185290D01*
Y-185576D01*
Y-185863D01*
Y-186149D01*
Y-186435D01*
Y-186722D01*
X913641D01*
Y-186435D01*
X913928D01*
Y-186149D01*
Y-185863D01*
Y-185576D01*
Y-185290D01*
Y-185004D01*
X914214D01*
Y-184717D01*
Y-184431D01*
Y-184145D01*
Y-183858D01*
Y-183572D01*
Y-183286D01*
Y-183000D01*
X914500D01*
Y-182713D01*
Y-182427D01*
Y-182141D01*
Y-181854D01*
Y-181568D01*
Y-181282D01*
X914787D01*
Y-180995D01*
Y-180709D01*
Y-180423D01*
Y-180136D01*
Y-179850D01*
Y-179564D01*
X915073D01*
Y-179277D01*
Y-178991D01*
Y-178705D01*
Y-178419D01*
Y-178132D01*
Y-177846D01*
Y-177560D01*
X915359D01*
Y-177273D01*
Y-176987D01*
Y-176701D01*
Y-176414D01*
Y-176128D01*
Y-175842D01*
X915646D01*
Y-175555D01*
Y-175269D01*
Y-174983D01*
Y-174696D01*
Y-174410D01*
Y-174124D01*
X915932D01*
Y-173837D01*
Y-173551D01*
Y-173265D01*
Y-172978D01*
Y-172692D01*
Y-172406D01*
X916218D01*
Y-172120D01*
Y-171833D01*
Y-171547D01*
Y-171261D01*
Y-170974D01*
Y-170688D01*
Y-170402D01*
X916504D01*
Y-170115D01*
Y-169829D01*
Y-169543D01*
Y-169256D01*
Y-168970D01*
Y-168684D01*
X916791D01*
Y-168398D01*
Y-168111D01*
Y-167825D01*
Y-167539D01*
Y-167252D01*
Y-166966D01*
X917077D01*
Y-166680D01*
Y-166393D01*
Y-166107D01*
Y-165821D01*
Y-165534D01*
Y-165248D01*
X917363D01*
Y-164962D01*
Y-164675D01*
Y-164389D01*
Y-164103D01*
Y-163816D01*
Y-163530D01*
Y-163244D01*
X917650D01*
Y-162958D01*
Y-162671D01*
Y-162385D01*
Y-162099D01*
Y-161812D01*
Y-161526D01*
X917936D01*
Y-161240D01*
Y-160953D01*
Y-160667D01*
Y-160381D01*
Y-160094D01*
Y-159808D01*
X918222D01*
Y-159522D01*
Y-159236D01*
Y-158949D01*
Y-158663D01*
Y-158377D01*
Y-158090D01*
Y-157804D01*
X918509D01*
Y-157518D01*
Y-157231D01*
Y-156945D01*
Y-156659D01*
Y-156372D01*
Y-156086D01*
X918795D01*
Y-155800D01*
Y-155514D01*
Y-155227D01*
Y-154941D01*
Y-154655D01*
Y-154368D01*
X919081D01*
Y-154082D01*
Y-153796D01*
Y-153509D01*
Y-153223D01*
Y-152937D01*
Y-152650D01*
X919368D01*
Y-152364D01*
Y-152078D01*
Y-151791D01*
Y-151505D01*
Y-151219D01*
Y-150933D01*
Y-150646D01*
X919654D01*
Y-150360D01*
Y-150074D01*
Y-149787D01*
Y-149501D01*
Y-149215D01*
Y-148928D01*
X919940D01*
Y-148642D01*
Y-148356D01*
Y-148069D01*
Y-147783D01*
Y-147497D01*
Y-147210D01*
X920227D01*
Y-146924D01*
Y-146638D01*
Y-146352D01*
Y-146065D01*
Y-145779D01*
Y-145492D01*
Y-145206D01*
X920513D01*
Y-144920D01*
Y-144634D01*
Y-144347D01*
Y-144061D01*
Y-143775D01*
Y-143488D01*
X920799D01*
Y-143202D01*
Y-142916D01*
Y-142629D01*
Y-142343D01*
Y-142057D01*
Y-141771D01*
X921085D01*
Y-141484D01*
Y-141198D01*
Y-140911D01*
Y-140625D01*
Y-140339D01*
Y-140053D01*
Y-139766D01*
X921372D01*
Y-139480D01*
Y-139194D01*
Y-138907D01*
Y-138621D01*
Y-138335D01*
Y-138048D01*
X921658D01*
Y-137762D01*
Y-137476D01*
Y-137189D01*
Y-136903D01*
Y-136617D01*
Y-136330D01*
X945422D01*
Y-136617D01*
D02*
G37*
G36*
X1078558Y-150646D02*
X1078271D01*
Y-150933D01*
X1077985D01*
Y-151219D01*
Y-151505D01*
X1077699D01*
Y-151791D01*
X1077412D01*
Y-152078D01*
X1077126D01*
Y-152364D01*
Y-152650D01*
X1076840D01*
Y-152937D01*
X1076553D01*
Y-153223D01*
X1076267D01*
Y-153509D01*
X1075981D01*
Y-153796D01*
Y-154082D01*
X1075694D01*
Y-154368D01*
X1075408D01*
Y-154655D01*
X1075122D01*
Y-154941D01*
Y-155227D01*
X1074835D01*
Y-155514D01*
X1074549D01*
Y-155800D01*
X1074263D01*
Y-156086D01*
X1073977D01*
Y-156372D01*
Y-156659D01*
X1073690D01*
Y-156945D01*
X1073404D01*
Y-157231D01*
X1073118D01*
Y-157518D01*
Y-157804D01*
X1072831D01*
Y-158090D01*
X1072545D01*
Y-158377D01*
X1072259D01*
Y-158663D01*
Y-158949D01*
X1071972D01*
Y-159236D01*
X1071686D01*
Y-159522D01*
X1071400D01*
Y-159808D01*
X1071113D01*
Y-160094D01*
Y-160381D01*
X1070827D01*
Y-160667D01*
X1070541D01*
Y-160953D01*
X1070255D01*
Y-161240D01*
Y-161526D01*
X1069968D01*
Y-161812D01*
X1069682D01*
Y-162099D01*
X1069396D01*
Y-162385D01*
Y-162671D01*
X1069109D01*
Y-162958D01*
X1068823D01*
Y-163244D01*
X1068537D01*
Y-163530D01*
X1068250D01*
Y-163816D01*
Y-164103D01*
X1067964D01*
Y-164389D01*
X1067678D01*
Y-164675D01*
X1067391D01*
Y-164962D01*
Y-165248D01*
X1067105D01*
Y-165534D01*
X1066819D01*
Y-165821D01*
X1066533D01*
Y-166107D01*
Y-166393D01*
X1066246D01*
Y-166680D01*
X1065960D01*
Y-166966D01*
X1065674D01*
Y-167252D01*
X1065387D01*
Y-167539D01*
Y-167825D01*
X1065101D01*
Y-168111D01*
X1064815D01*
Y-168398D01*
X1064528D01*
Y-168684D01*
Y-168970D01*
X1064242D01*
Y-169256D01*
X1063956D01*
Y-169543D01*
X1063669D01*
Y-169829D01*
X1063383D01*
Y-170115D01*
Y-170402D01*
X1063669D01*
Y-170688D01*
Y-170974D01*
X1063956D01*
Y-171261D01*
Y-171547D01*
X1064242D01*
Y-171833D01*
X1064528D01*
Y-172120D01*
Y-172406D01*
X1064815D01*
Y-172692D01*
Y-172978D01*
X1065101D01*
Y-173265D01*
Y-173551D01*
X1065387D01*
Y-173837D01*
Y-174124D01*
X1065674D01*
Y-174410D01*
Y-174696D01*
X1065960D01*
Y-174983D01*
Y-175269D01*
X1066246D01*
Y-175555D01*
Y-175842D01*
X1066533D01*
Y-176128D01*
Y-176414D01*
X1066819D01*
Y-176701D01*
X1067105D01*
Y-176987D01*
Y-177273D01*
X1067391D01*
Y-177560D01*
Y-177846D01*
X1067678D01*
Y-178132D01*
Y-178419D01*
X1067964D01*
Y-178705D01*
Y-178991D01*
X1068250D01*
Y-179277D01*
Y-179564D01*
X1068537D01*
Y-179850D01*
Y-180136D01*
X1068823D01*
Y-180423D01*
Y-180709D01*
X1069109D01*
Y-180995D01*
X1069396D01*
Y-181282D01*
Y-181568D01*
X1069682D01*
Y-181854D01*
Y-182141D01*
X1069968D01*
Y-182427D01*
Y-182713D01*
X1070255D01*
Y-183000D01*
Y-183286D01*
X1070541D01*
Y-183572D01*
Y-183858D01*
X1070827D01*
Y-184145D01*
Y-184431D01*
X1071113D01*
Y-184717D01*
Y-185004D01*
X1071400D01*
Y-185290D01*
X1071686D01*
Y-185576D01*
Y-185863D01*
X1071972D01*
Y-186149D01*
Y-186435D01*
X1072259D01*
Y-186722D01*
X1057084D01*
Y-186435D01*
X1056798D01*
Y-186149D01*
Y-185863D01*
Y-185576D01*
X1056511D01*
Y-185290D01*
Y-185004D01*
Y-184717D01*
X1056225D01*
Y-184431D01*
Y-184145D01*
X1055939D01*
Y-183858D01*
Y-183572D01*
Y-183286D01*
X1055653D01*
Y-183000D01*
Y-182713D01*
Y-182427D01*
X1055366D01*
Y-182141D01*
Y-181854D01*
X1055080D01*
Y-181568D01*
Y-181282D01*
Y-180995D01*
X1054794D01*
Y-180709D01*
Y-180423D01*
Y-180136D01*
X1054507D01*
Y-179850D01*
Y-179564D01*
Y-179277D01*
X1054221D01*
Y-178991D01*
X1053648D01*
Y-179277D01*
Y-179564D01*
X1053362D01*
Y-179850D01*
X1053076D01*
Y-180136D01*
Y-180423D01*
X1052789D01*
Y-180709D01*
X1052503D01*
Y-180995D01*
Y-181282D01*
X1052217D01*
Y-181568D01*
X1051931D01*
Y-181854D01*
Y-182141D01*
X1051644D01*
Y-182427D01*
X1051358D01*
Y-182713D01*
X1051072D01*
Y-183000D01*
Y-183286D01*
X1050785D01*
Y-183572D01*
X1050499D01*
Y-183858D01*
Y-184145D01*
X1050213D01*
Y-184431D01*
X1049926D01*
Y-184717D01*
Y-185004D01*
X1049640D01*
Y-185290D01*
X1049354D01*
Y-185576D01*
Y-185863D01*
X1049067D01*
Y-186149D01*
X1048781D01*
Y-186435D01*
Y-186722D01*
X1032747D01*
Y-186435D01*
X1033034D01*
Y-186149D01*
X1033320D01*
Y-185863D01*
X1033607D01*
Y-185576D01*
X1033893D01*
Y-185290D01*
Y-185004D01*
X1034179D01*
Y-184717D01*
X1034465D01*
Y-184431D01*
X1034752D01*
Y-184145D01*
X1035038D01*
Y-183858D01*
Y-183572D01*
X1035324D01*
Y-183286D01*
X1035611D01*
Y-183000D01*
X1035897D01*
Y-182713D01*
Y-182427D01*
X1036183D01*
Y-182141D01*
X1036470D01*
Y-181854D01*
X1036756D01*
Y-181568D01*
X1037042D01*
Y-181282D01*
Y-180995D01*
X1037329D01*
Y-180709D01*
X1037615D01*
Y-180423D01*
X1037901D01*
Y-180136D01*
X1038188D01*
Y-179850D01*
Y-179564D01*
X1038474D01*
Y-179277D01*
X1038760D01*
Y-178991D01*
X1039046D01*
Y-178705D01*
Y-178419D01*
X1039333D01*
Y-178132D01*
X1039619D01*
Y-177846D01*
X1039905D01*
Y-177560D01*
X1040192D01*
Y-177273D01*
Y-176987D01*
X1040478D01*
Y-176701D01*
X1040764D01*
Y-176414D01*
X1041051D01*
Y-176128D01*
Y-175842D01*
X1041337D01*
Y-175555D01*
X1041623D01*
Y-175269D01*
X1041910D01*
Y-174983D01*
X1042196D01*
Y-174696D01*
Y-174410D01*
X1042482D01*
Y-174124D01*
X1042768D01*
Y-173837D01*
X1043055D01*
Y-173551D01*
Y-173265D01*
X1043341D01*
Y-172978D01*
X1043627D01*
Y-172692D01*
X1043914D01*
Y-172406D01*
X1044200D01*
Y-172120D01*
Y-171833D01*
X1044486D01*
Y-171547D01*
X1044773D01*
Y-171261D01*
X1045059D01*
Y-170974D01*
X1045345D01*
Y-170688D01*
Y-170402D01*
X1045632D01*
Y-170115D01*
X1045918D01*
Y-169829D01*
X1046204D01*
Y-169543D01*
Y-169256D01*
X1046491D01*
Y-168970D01*
X1046777D01*
Y-168684D01*
X1047063D01*
Y-168398D01*
X1047349D01*
Y-168111D01*
Y-167825D01*
X1047636D01*
Y-167539D01*
Y-167252D01*
Y-166966D01*
X1047349D01*
Y-166680D01*
X1047063D01*
Y-166393D01*
Y-166107D01*
X1046777D01*
Y-165821D01*
Y-165534D01*
X1046491D01*
Y-165248D01*
Y-164962D01*
X1046204D01*
Y-164675D01*
Y-164389D01*
X1045918D01*
Y-164103D01*
Y-163816D01*
X1045632D01*
Y-163530D01*
Y-163244D01*
X1045345D01*
Y-162958D01*
X1045059D01*
Y-162671D01*
Y-162385D01*
X1044773D01*
Y-162099D01*
Y-161812D01*
X1044486D01*
Y-161526D01*
Y-161240D01*
X1044200D01*
Y-160953D01*
Y-160667D01*
X1043914D01*
Y-160381D01*
Y-160094D01*
X1043627D01*
Y-159808D01*
Y-159522D01*
X1043341D01*
Y-159236D01*
X1043055D01*
Y-158949D01*
Y-158663D01*
X1042768D01*
Y-158377D01*
Y-158090D01*
X1042482D01*
Y-157804D01*
Y-157518D01*
X1042196D01*
Y-157231D01*
Y-156945D01*
X1041910D01*
Y-156659D01*
Y-156372D01*
X1041623D01*
Y-156086D01*
Y-155800D01*
X1041337D01*
Y-155514D01*
Y-155227D01*
X1041051D01*
Y-154941D01*
X1040764D01*
Y-154655D01*
Y-154368D01*
X1040478D01*
Y-154082D01*
Y-153796D01*
X1040192D01*
Y-153509D01*
Y-153223D01*
X1039905D01*
Y-152937D01*
Y-152650D01*
X1039619D01*
Y-152364D01*
Y-152078D01*
X1039333D01*
Y-151791D01*
Y-151505D01*
X1039046D01*
Y-151219D01*
X1038760D01*
Y-150933D01*
Y-150646D01*
X1038474D01*
Y-150360D01*
X1054221D01*
Y-150646D01*
X1054507D01*
Y-150933D01*
Y-151219D01*
Y-151505D01*
X1054794D01*
Y-151791D01*
Y-152078D01*
Y-152364D01*
X1055080D01*
Y-152650D01*
Y-152937D01*
Y-153223D01*
X1055366D01*
Y-153509D01*
Y-153796D01*
Y-154082D01*
X1055653D01*
Y-154368D01*
Y-154655D01*
Y-154941D01*
X1055939D01*
Y-155227D01*
Y-155514D01*
Y-155800D01*
X1056225D01*
Y-156086D01*
Y-156372D01*
Y-156659D01*
X1056511D01*
Y-156945D01*
Y-157231D01*
Y-157518D01*
X1056798D01*
Y-157804D01*
Y-158090D01*
Y-158377D01*
Y-158663D01*
X1057370D01*
Y-158377D01*
X1057657D01*
Y-158090D01*
X1057943D01*
Y-157804D01*
Y-157518D01*
X1058229D01*
Y-157231D01*
X1058516D01*
Y-156945D01*
Y-156659D01*
X1058802D01*
Y-156372D01*
X1059088D01*
Y-156086D01*
Y-155800D01*
X1059375D01*
Y-155514D01*
X1059661D01*
Y-155227D01*
Y-154941D01*
X1059947D01*
Y-154655D01*
X1060234D01*
Y-154368D01*
Y-154082D01*
X1060520D01*
Y-153796D01*
X1060806D01*
Y-153509D01*
Y-153223D01*
X1061092D01*
Y-152937D01*
X1061379D01*
Y-152650D01*
Y-152364D01*
X1061665D01*
Y-152078D01*
X1061951D01*
Y-151791D01*
Y-151505D01*
X1062238D01*
Y-151219D01*
X1062524D01*
Y-150933D01*
Y-150646D01*
X1062810D01*
Y-150360D01*
X1078558D01*
Y-150646D01*
D02*
G37*
%LPC*%
G36*
X941127Y-147497D02*
X933111D01*
Y-147783D01*
Y-148069D01*
Y-148356D01*
Y-148642D01*
Y-148928D01*
X932824D01*
Y-149215D01*
Y-149501D01*
Y-149787D01*
Y-150074D01*
Y-150360D01*
Y-150646D01*
X932538D01*
Y-150933D01*
Y-151219D01*
Y-151505D01*
Y-151791D01*
Y-152078D01*
Y-152364D01*
X932252D01*
Y-152650D01*
Y-152937D01*
Y-153223D01*
Y-153509D01*
Y-153796D01*
Y-154082D01*
X931965D01*
Y-154368D01*
Y-154655D01*
Y-154941D01*
Y-155227D01*
Y-155514D01*
Y-155800D01*
Y-156086D01*
X931679D01*
Y-156372D01*
Y-156659D01*
Y-156945D01*
Y-157231D01*
Y-157518D01*
Y-157804D01*
X931393D01*
Y-158090D01*
Y-158377D01*
Y-158663D01*
X938551D01*
Y-158377D01*
X939696D01*
Y-158090D01*
X940269D01*
Y-157804D01*
X940555D01*
Y-157518D01*
X940841D01*
Y-157231D01*
X941127D01*
Y-156945D01*
X941414D01*
Y-156659D01*
Y-156372D01*
X941700D01*
Y-156086D01*
Y-155800D01*
X941986D01*
Y-155514D01*
Y-155227D01*
X942273D01*
Y-154941D01*
Y-154655D01*
Y-154368D01*
Y-154082D01*
X942559D01*
Y-153796D01*
Y-153509D01*
Y-153223D01*
Y-152937D01*
Y-152650D01*
X942845D01*
Y-152364D01*
Y-152078D01*
Y-151791D01*
Y-151505D01*
Y-151219D01*
Y-150933D01*
Y-150646D01*
Y-150360D01*
Y-150074D01*
Y-149787D01*
Y-149501D01*
X942559D01*
Y-149215D01*
Y-148928D01*
X942273D01*
Y-148642D01*
Y-148356D01*
X941986D01*
Y-148069D01*
X941700D01*
Y-147783D01*
X941127D01*
Y-147497D01*
D02*
G37*
%LPD*%
D18*
X87893Y-25065D02*
G03*
X85821Y-22992I-2073J0D01*
G01*
X86348Y-26008D02*
G03*
X85538Y-25197I-811J0D01*
G01*
X85542Y25199D02*
G03*
X86352Y26009I0J811D01*
G01*
X85825Y22994D02*
G03*
X87897Y25067I0J2073D01*
G01*
X-13386Y-8858D02*
Y32480D01*
X13386Y-8858D02*
Y32480D01*
X-13386D02*
X13386D01*
X-13386Y-8858D02*
X13386D01*
X31496Y-787D02*
Y787D01*
X43307Y-787D02*
Y787D01*
X37598Y-2560D02*
X38780D01*
X36024Y2559D02*
X38780D01*
X-68780Y46181D02*
X-38780D01*
Y56181D01*
X-68780D02*
X-38780D01*
X-68780Y46181D02*
Y56181D01*
X30906Y46181D02*
X60906D01*
Y56181D01*
X30906D02*
X60906D01*
X30906Y46181D02*
Y56181D01*
X-51181Y1181D02*
Y2756D01*
X-39370Y1181D02*
Y2756D01*
X-45079Y-591D02*
X-43898D01*
X-46654Y4528D02*
X-43898D01*
X-57898Y9500D02*
Y15000D01*
Y-15000D02*
Y-9500D01*
X-92520Y-15000D02*
Y15000D01*
X-57898D01*
X-92520Y-15000D02*
X-57898D01*
X47638Y-9843D02*
Y-7874D01*
Y-394D02*
Y394D01*
Y7874D02*
Y9843D01*
Y17717D02*
Y25197D01*
Y-25197D02*
Y-17717D01*
X86348Y-27353D02*
X87894D01*
X85821Y-21024D02*
X87894D01*
X85821Y-22992D02*
Y-21024D01*
X87894Y-27353D02*
Y-25065D01*
Y-21024D02*
Y21023D01*
X86348Y-27353D02*
Y-26008D01*
X86352Y26009D02*
Y27354D01*
X87898Y25067D02*
Y27354D01*
X85825Y21025D02*
Y22994D01*
Y21025D02*
X87898D01*
X86352Y27354D02*
X87898D01*
X83465Y-25197D02*
X85538D01*
X47638D02*
X71417D01*
X83463Y25199D02*
X85542D01*
X47638Y25197D02*
X71535D01*
X86614Y-61024D02*
Y-41339D01*
X51181Y-61024D02*
X94488D01*
X51181D02*
Y-37402D01*
X86614D01*
Y-41339D02*
Y-37402D01*
Y-41339D02*
X94488D01*
Y-61024D02*
Y-41339D01*
X-11417Y-21654D02*
X11417D01*
X-25591D02*
X-18701D01*
X18701D02*
X25591D01*
X18701Y-64961D02*
X25591D01*
X-1378D02*
X11417D01*
X-11417D02*
X-8465D01*
X-25591D02*
X-18701D01*
X25591D02*
Y-21654D01*
X-25591Y-64961D02*
Y-21654D01*
X-18039Y75246D02*
X-20663D01*
Y73278D01*
X-19351D01*
X-20663D01*
Y71310D01*
X-14103Y74590D02*
X-14759Y75246D01*
X-16071D01*
X-16727Y74590D01*
Y73934D01*
X-16071Y73278D01*
X-14759D01*
X-14103Y72622D01*
Y71966D01*
X-14759Y71310D01*
X-16071D01*
X-16727Y71966D01*
X-8855Y72622D02*
X-6232D01*
X-8855Y73934D02*
X-6232D01*
X-984Y71310D02*
X328D01*
X-328D01*
Y75246D01*
X-984Y74590D01*
X4920Y71310D02*
X2296D01*
X4920Y73934D01*
Y74590D01*
X4264Y75246D01*
X2952D01*
X2296Y74590D01*
X6232Y71310D02*
Y75246D01*
X7543Y73934D01*
X8855Y75246D01*
Y71310D01*
X10167Y75246D02*
Y71310D01*
X12135D01*
X12791Y71966D01*
Y72622D01*
Y73278D01*
X12135Y73934D01*
X10167D01*
X14103Y69998D02*
Y73934D01*
X16071D01*
X16727Y73278D01*
Y71966D01*
X16071Y71310D01*
X14103D01*
X18039D02*
X20007D01*
X20663Y71966D01*
X20007Y72622D01*
X18695D01*
X18039Y73278D01*
X18695Y73934D01*
X20663D01*
X-22302Y67059D02*
Y63123D01*
X-19679D01*
X-15743Y66403D02*
X-16399Y67059D01*
X-17711D01*
X-18367Y66403D01*
Y65747D01*
X-17711Y65091D01*
X-16399D01*
X-15743Y64435D01*
Y63779D01*
X-16399Y63123D01*
X-17711D01*
X-18367Y63779D01*
X-10495Y64435D02*
X-7871D01*
X-10495Y65747D02*
X-7871D01*
X-2624Y63123D02*
X-1312D01*
X-1968D01*
Y67059D01*
X-2624Y66403D01*
X656Y63123D02*
Y63779D01*
X1312D01*
Y63123D01*
X656D01*
X6560Y67059D02*
X3936D01*
Y65091D01*
X5248Y65747D01*
X5904D01*
X6560Y65091D01*
Y63779D01*
X5904Y63123D01*
X4592D01*
X3936Y63779D01*
X7871Y63123D02*
Y67059D01*
X9183Y65747D01*
X10495Y67059D01*
Y63123D01*
X11807Y67059D02*
Y63123D01*
X13775D01*
X14431Y63779D01*
Y64435D01*
Y65091D01*
X13775Y65747D01*
X11807D01*
X15743Y61811D02*
Y65747D01*
X17711D01*
X18367Y65091D01*
Y63779D01*
X17711Y63123D01*
X15743D01*
X19679D02*
X21647D01*
X22302Y63779D01*
X21647Y64435D01*
X20335D01*
X19679Y65091D01*
X20335Y65747D01*
X22302D01*
X-27550Y83463D02*
Y80184D01*
X-26894Y79528D01*
X-25582D01*
X-24926Y80184D01*
Y83463D01*
X-20991Y82807D02*
X-21647Y83463D01*
X-22959D01*
X-23614Y82807D01*
Y82151D01*
X-22959Y81495D01*
X-21647D01*
X-20991Y80840D01*
Y80184D01*
X-21647Y79528D01*
X-22959D01*
X-23614Y80184D01*
X-19679Y83463D02*
Y79528D01*
X-17711D01*
X-17055Y80184D01*
Y80840D01*
X-17711Y81495D01*
X-19679D01*
X-17711D01*
X-17055Y82151D01*
Y82807D01*
X-17711Y83463D01*
X-19679D01*
X-9183D02*
X-11807D01*
Y81495D01*
X-10495D01*
X-11807D01*
Y79528D01*
X-5248Y82807D02*
X-5904Y83463D01*
X-7215D01*
X-7871Y82807D01*
Y82151D01*
X-7215Y81495D01*
X-5904D01*
X-5248Y80840D01*
Y80184D01*
X-5904Y79528D01*
X-7215D01*
X-7871Y80184D01*
X0Y83463D02*
X1312D01*
X656D01*
Y79528D01*
X0D01*
X1312D01*
X3280D02*
X5248D01*
X5904Y80184D01*
X5248Y80840D01*
X3936D01*
X3280Y81495D01*
X3936Y82151D01*
X5904D01*
X7871Y79528D02*
X9183D01*
X9839Y80184D01*
Y81495D01*
X9183Y82151D01*
X7871D01*
X7215Y81495D01*
Y80184D01*
X7871Y79528D01*
X11151D02*
X12463D01*
X11807D01*
Y83463D01*
X11151D01*
X15087Y82151D02*
X16399D01*
X17055Y81495D01*
Y79528D01*
X15087D01*
X14431Y80184D01*
X15087Y80840D01*
X17055D01*
X19023Y82807D02*
Y82151D01*
X18367D01*
X19679D01*
X19023D01*
Y80184D01*
X19679Y79528D01*
X22302D02*
X23614D01*
X24270Y80184D01*
Y81495D01*
X23614Y82151D01*
X22302D01*
X21647Y81495D01*
Y80184D01*
X22302Y79528D01*
X25582Y82151D02*
Y79528D01*
Y80840D01*
X26238Y81495D01*
X26894Y82151D01*
X27550D01*
X-80709Y-49214D02*
Y-52494D01*
X-80053Y-53150D01*
X-78741D01*
X-78085Y-52494D01*
Y-49214D01*
X-74149Y-49870D02*
X-74805Y-49214D01*
X-76117D01*
X-76773Y-49870D01*
Y-50526D01*
X-76117Y-51182D01*
X-74805D01*
X-74149Y-51838D01*
Y-52494D01*
X-74805Y-53150D01*
X-76117D01*
X-76773Y-52494D01*
X-72837Y-49214D02*
Y-53150D01*
X-70869D01*
X-70213Y-52494D01*
Y-51838D01*
X-70869Y-51182D01*
X-72837D01*
X-70869D01*
X-70213Y-50526D01*
Y-49870D01*
X-70869Y-49214D01*
X-72837D01*
X-68901Y-53806D02*
X-66278D01*
X-64966Y-49214D02*
X-63654D01*
X-64310D01*
Y-53150D01*
X-64966D01*
X-63654D01*
X-59062Y-49870D02*
X-59718Y-49214D01*
X-61030D01*
X-61686Y-49870D01*
Y-50526D01*
X-61030Y-51182D01*
X-59718D01*
X-59062Y-51838D01*
Y-52494D01*
X-59718Y-53150D01*
X-61030D01*
X-61686Y-52494D01*
X-55782Y-49214D02*
X-57094D01*
X-57750Y-49870D01*
Y-52494D01*
X-57094Y-53150D01*
X-55782D01*
X-55126Y-52494D01*
Y-49870D01*
X-55782Y-49214D01*
X-53814Y-53806D02*
X-51191D01*
X-47255Y-49214D02*
X-49879D01*
Y-51182D01*
X-48567D01*
X-49879D01*
Y-53150D01*
X-43319Y-49870D02*
X-43975Y-49214D01*
X-45287D01*
X-45943Y-49870D01*
Y-50526D01*
X-45287Y-51182D01*
X-43975D01*
X-43319Y-51838D01*
Y-52494D01*
X-43975Y-53150D01*
X-45287D01*
X-45943Y-52494D01*
X-42007Y-53806D02*
X-39383D01*
X-38072Y-49870D02*
X-37416Y-49214D01*
X-36104D01*
X-35448Y-49870D01*
Y-52494D01*
X-36104Y-53150D01*
X-37416D01*
X-38072Y-52494D01*
Y-49870D01*
X-34136D02*
X-33480Y-49214D01*
X-32168D01*
X-31512Y-49870D01*
Y-52494D01*
X-32168Y-53150D01*
X-33480D01*
X-34136Y-52494D01*
Y-49870D01*
X-283465Y-263779D02*
X1370079D01*
X-283465D02*
Y905512D01*
X1370079Y-263779D02*
Y905512D01*
X-283465D02*
X1370079D01*
X1094488Y-263779D02*
Y-106299D01*
X897638Y-263779D02*
Y-106299D01*
X1370079D01*
X897638Y-224410D02*
X1370079D01*
X1094488Y-185039D02*
X1370079D01*
X1094488Y-145669D02*
X1370079D01*
X1251968Y-224410D02*
Y-185039D01*
X1104331Y-250002D02*
Y-254922D01*
X1105315Y-255906D01*
X1107283D01*
X1108266Y-254922D01*
Y-250002D01*
X1114170Y-250986D02*
X1113186Y-250002D01*
X1111218D01*
X1110234Y-250986D01*
Y-251970D01*
X1111218Y-252954D01*
X1113186D01*
X1114170Y-253938D01*
Y-254922D01*
X1113186Y-255906D01*
X1111218D01*
X1110234Y-254922D01*
X1116138Y-250002D02*
Y-255906D01*
X1119090D01*
X1120074Y-254922D01*
Y-253938D01*
X1119090Y-252954D01*
X1116138D01*
X1119090D01*
X1120074Y-251970D01*
Y-250986D01*
X1119090Y-250002D01*
X1116138D01*
X1122042Y-256889D02*
X1125977D01*
X1127945Y-250002D02*
X1129913D01*
X1128929D01*
Y-255906D01*
X1127945D01*
X1129913D01*
X1136800Y-250986D02*
X1135817Y-250002D01*
X1133849D01*
X1132865Y-250986D01*
Y-251970D01*
X1133849Y-252954D01*
X1135817D01*
X1136800Y-253938D01*
Y-254922D01*
X1135817Y-255906D01*
X1133849D01*
X1132865Y-254922D01*
X1141720Y-250002D02*
X1139752D01*
X1138768Y-250986D01*
Y-254922D01*
X1139752Y-255906D01*
X1141720D01*
X1142704Y-254922D01*
Y-250986D01*
X1141720Y-250002D01*
X1144672Y-256889D02*
X1148608D01*
X1154511Y-250002D02*
X1150576D01*
Y-252954D01*
X1152543D01*
X1150576D01*
Y-255906D01*
X1160415Y-250986D02*
X1159431Y-250002D01*
X1157463D01*
X1156479Y-250986D01*
Y-251970D01*
X1157463Y-252954D01*
X1159431D01*
X1160415Y-253938D01*
Y-254922D01*
X1159431Y-255906D01*
X1157463D01*
X1156479Y-254922D01*
X1162383Y-256889D02*
X1166319D01*
X1168286Y-250986D02*
X1169270Y-250002D01*
X1171238D01*
X1172222Y-250986D01*
Y-254922D01*
X1171238Y-255906D01*
X1169270D01*
X1168286Y-254922D01*
Y-250986D01*
X1174190D02*
X1175174Y-250002D01*
X1177142D01*
X1178126Y-250986D01*
Y-254922D01*
X1177142Y-255906D01*
X1175174D01*
X1174190Y-254922D01*
Y-250986D01*
X1180094Y-255906D02*
Y-254922D01*
X1181077D01*
Y-255906D01*
X1180094D01*
X1185013D02*
Y-250002D01*
X1187965D01*
X1188949Y-250986D01*
Y-252954D01*
X1187965Y-253938D01*
X1185013D01*
X1194853Y-251970D02*
X1191901D01*
X1190917Y-252954D01*
Y-254922D01*
X1191901Y-255906D01*
X1194853D01*
X1196820Y-250002D02*
Y-255906D01*
X1199772D01*
X1200756Y-254922D01*
Y-253938D01*
Y-252954D01*
X1199772Y-251970D01*
X1196820D01*
X1202724Y-250002D02*
Y-255906D01*
X1205676D01*
X1206660Y-254922D01*
Y-250986D01*
X1205676Y-250002D01*
X1202724D01*
X1209612Y-255906D02*
X1211579D01*
X1212563Y-254922D01*
Y-252954D01*
X1211579Y-251970D01*
X1209612D01*
X1208628Y-252954D01*
Y-254922D01*
X1209612Y-255906D01*
X1218467Y-251970D02*
X1215515D01*
X1214531Y-252954D01*
Y-254922D01*
X1215515Y-255906D01*
X1218467D01*
D20*
X1116142Y-163390D02*
X1125325D01*
X1120733D01*
Y-177165D01*
X1132213D02*
X1136804D01*
X1139100Y-174870D01*
Y-170278D01*
X1136804Y-167982D01*
X1132213D01*
X1129917Y-170278D01*
Y-174870D01*
X1132213Y-177165D01*
X1143692Y-181757D02*
Y-167982D01*
X1150579D01*
X1152875Y-170278D01*
Y-174870D01*
X1150579Y-177165D01*
X1143692D01*
X1178130Y-163390D02*
X1173538D01*
X1171242Y-165686D01*
Y-174870D01*
X1173538Y-177165D01*
X1178130D01*
X1180425Y-174870D01*
Y-165686D01*
X1178130Y-163390D01*
X1185017Y-167982D02*
X1189609Y-177165D01*
X1194201Y-167982D01*
X1205680Y-177165D02*
X1201088D01*
X1198792Y-174870D01*
Y-170278D01*
X1201088Y-167982D01*
X1205680D01*
X1207976Y-170278D01*
Y-172574D01*
X1198792D01*
X1212567Y-167982D02*
Y-177165D01*
Y-172574D01*
X1214863Y-170278D01*
X1217159Y-167982D01*
X1219455D01*
X1226342Y-177165D02*
X1230934D01*
X1228638D01*
Y-163390D01*
X1226342D01*
X1240117Y-167982D02*
X1244709D01*
X1247005Y-170278D01*
Y-177165D01*
X1240117D01*
X1237822Y-174870D01*
X1240117Y-172574D01*
X1247005D01*
X1251597Y-167982D02*
Y-174870D01*
X1253893Y-177165D01*
X1260780D01*
Y-179461D01*
X1258484Y-181757D01*
X1256188D01*
X1260780Y-177165D02*
Y-167982D01*
X1104331Y-124021D02*
Y-137140D01*
X1106954Y-139764D01*
X1112202D01*
X1114826Y-137140D01*
Y-124021D01*
X1130569Y-126645D02*
X1127945Y-124021D01*
X1122698D01*
X1120074Y-126645D01*
Y-129269D01*
X1122698Y-131892D01*
X1127945D01*
X1130569Y-134516D01*
Y-137140D01*
X1127945Y-139764D01*
X1122698D01*
X1120074Y-137140D01*
X1135817Y-124021D02*
Y-139764D01*
X1143688D01*
X1146312Y-137140D01*
Y-134516D01*
X1143688Y-131892D01*
X1135817D01*
X1143688D01*
X1146312Y-129269D01*
Y-126645D01*
X1143688Y-124021D01*
X1135817D01*
X1151560Y-142388D02*
X1162055D01*
X1167303Y-124021D02*
X1172550D01*
X1169926D01*
Y-139764D01*
X1167303D01*
X1172550D01*
X1190917Y-126645D02*
X1188293Y-124021D01*
X1183045D01*
X1180422Y-126645D01*
Y-129269D01*
X1183045Y-131892D01*
X1188293D01*
X1190917Y-134516D01*
Y-137140D01*
X1188293Y-139764D01*
X1183045D01*
X1180422Y-137140D01*
X1204036Y-124021D02*
X1198788D01*
X1196165Y-126645D01*
Y-137140D01*
X1198788Y-139764D01*
X1204036D01*
X1206660Y-137140D01*
Y-126645D01*
X1204036Y-124021D01*
X1211907Y-142388D02*
X1222403D01*
X1238146Y-124021D02*
X1227650D01*
Y-131892D01*
X1232898D01*
X1227650D01*
Y-139764D01*
X1253889Y-126645D02*
X1251265Y-124021D01*
X1246017D01*
X1243393Y-126645D01*
Y-129269D01*
X1246017Y-131892D01*
X1251265D01*
X1253889Y-134516D01*
Y-137140D01*
X1251265Y-139764D01*
X1246017D01*
X1243393Y-137140D01*
X1110236Y-218504D02*
X1114828D01*
X1112532D01*
Y-204729D01*
X1110236Y-207025D01*
X1121715Y-218504D02*
X1126307D01*
X1124011D01*
Y-204729D01*
X1121715Y-207025D01*
X1133195Y-218504D02*
X1142378Y-209321D01*
X1146970Y-207025D02*
X1149266Y-204729D01*
X1153857D01*
X1156153Y-207025D01*
Y-216208D01*
X1153857Y-218504D01*
X1149266D01*
X1146970Y-216208D01*
Y-207025D01*
X1160745Y-218504D02*
X1165337D01*
X1163041D01*
Y-204729D01*
X1160745Y-207025D01*
X1172224Y-218504D02*
X1181407Y-209321D01*
X1195183Y-218504D02*
X1185999D01*
X1195183Y-209321D01*
Y-207025D01*
X1192887Y-204729D01*
X1188295D01*
X1185999Y-207025D01*
X1199774D02*
X1202070Y-204729D01*
X1206662D01*
X1208958Y-207025D01*
Y-216208D01*
X1206662Y-218504D01*
X1202070D01*
X1199774Y-216208D01*
Y-207025D01*
X1213549Y-218504D02*
X1218141D01*
X1215845D01*
Y-204729D01*
X1213549Y-207025D01*
X1225029Y-204729D02*
X1234212D01*
Y-207025D01*
X1225029Y-216208D01*
Y-218504D01*
X1273622Y-205385D02*
X1276246Y-202761D01*
X1281493D01*
X1284117Y-205385D01*
Y-215880D01*
X1281493Y-218504D01*
X1276246D01*
X1273622Y-215880D01*
Y-205385D01*
X1289365D02*
X1291989Y-202761D01*
X1297236D01*
X1299860Y-205385D01*
Y-215880D01*
X1297236Y-218504D01*
X1291989D01*
X1289365Y-215880D01*
Y-205385D01*
X919291Y-242131D02*
Y-257874D01*
X924539Y-252626D01*
X929787Y-257874D01*
Y-242131D01*
X935034Y-257874D02*
X940282D01*
X937658D01*
Y-247379D01*
X935034D01*
X948153Y-257874D02*
Y-247379D01*
X950777D01*
X953401Y-250003D01*
Y-257874D01*
Y-250003D01*
X956025Y-247379D01*
X958649Y-250003D01*
Y-257874D01*
X963896Y-242131D02*
Y-252626D01*
X969144Y-257874D01*
X974392Y-252626D01*
Y-242131D01*
X990135Y-244755D02*
X987511Y-242131D01*
X982263D01*
X979639Y-244755D01*
Y-255250D01*
X982263Y-257874D01*
X987511D01*
X990135Y-255250D01*
Y-250003D01*
X984887D01*
D21*
X-75590Y50000D02*
Y52362D01*
X-81890Y50000D02*
Y52362D01*
X-76772D02*
X-75590D01*
X-81890D02*
X-80709D01*
X81890Y50000D02*
Y52362D01*
X75590Y50000D02*
Y52362D01*
X80709D02*
X81890D01*
X75590D02*
X76772D01*
X74016Y41339D02*
X75590D01*
X74016Y37402D02*
X75590D01*
X54134Y37598D02*
Y39173D01*
X58071Y37598D02*
Y39173D01*
X44291Y37598D02*
Y39173D01*
X48228Y37598D02*
Y39173D01*
X31102Y26378D02*
X31890D01*
X31102Y32677D02*
X31890D01*
X30118Y21654D02*
X30906D01*
X30118Y17717D02*
X30906D01*
X-30906D02*
X-30118D01*
X-30906Y21654D02*
X-30118D01*
X-31890Y32677D02*
X-31102D01*
X-31890Y26378D02*
X-31102D01*
X-42323Y37598D02*
Y39173D01*
X-46260Y37598D02*
Y39173D01*
X-52165Y37598D02*
Y39173D01*
X-56102Y37598D02*
Y39173D01*
X-75590Y37402D02*
X-74016D01*
X-75590Y41339D02*
X-74016D01*
X-49606Y53150D02*
X-48031D01*
X-49606Y49213D02*
X-48031D01*
X50000Y53150D02*
X51575D01*
X50000Y49213D02*
X51575D01*
X-32283Y7874D02*
X-30709D01*
X-32283Y3937D02*
X-30709D01*
X-32283Y0D02*
X-30709D01*
X-32283Y-3937D02*
X-30709D01*
X31102Y39370D02*
X31890D01*
X31102Y35433D02*
X31890D01*
X-31890D02*
X-31102D01*
X-31890Y39370D02*
X-31102D01*
X-47244Y12991D02*
Y9843D01*
X-45670D01*
X-45145Y10367D01*
Y12466D01*
X-45670Y12991D01*
X-47244D01*
X-44096Y9843D02*
X-43046D01*
X-43571D01*
Y12991D01*
X-44096Y12466D01*
X51312Y-27363D02*
X50262D01*
X50787D01*
Y-29987D01*
X50262Y-30512D01*
X49737D01*
X49213Y-29987D01*
X52361Y-30512D02*
X53411D01*
X52886D01*
Y-27363D01*
X52361Y-27888D01*
X-70736Y22834D02*
X-71785D01*
X-71260D01*
Y20210D01*
X-71785Y19685D01*
X-72310D01*
X-72835Y20210D01*
X-67587Y19685D02*
X-69686D01*
X-67587Y21784D01*
Y22309D01*
X-68112Y22834D01*
X-69161D01*
X-69686Y22309D01*
X-46260Y27559D02*
Y30708D01*
X-44686D01*
X-44161Y30183D01*
Y29133D01*
X-44686Y28609D01*
X-46260D01*
X-45210D02*
X-44161Y27559D01*
X-43111D02*
X-42062D01*
X-42586D01*
Y30708D01*
X-43111Y30183D01*
X35433Y11023D02*
Y7874D01*
X37007D01*
X37532Y8399D01*
Y10498D01*
X37007Y11023D01*
X35433D01*
X40681Y7874D02*
X38582D01*
X40681Y9973D01*
Y10498D01*
X40156Y11023D01*
X39106D01*
X38582Y10498D01*
X-34449Y9843D02*
Y12991D01*
X-32875D01*
X-32350Y12466D01*
Y11417D01*
X-32875Y10892D01*
X-34449D01*
X-33399D02*
X-32350Y9843D01*
X-29201D02*
X-31300D01*
X-29201Y11942D01*
Y12466D01*
X-29726Y12991D01*
X-30775D01*
X-31300Y12466D01*
X-34449Y-8858D02*
Y-5710D01*
X-32875D01*
X-32350Y-6234D01*
Y-7284D01*
X-32875Y-7809D01*
X-34449D01*
X-33399D02*
X-32350Y-8858D01*
X-31300Y-6234D02*
X-30775Y-5710D01*
X-29726D01*
X-29201Y-6234D01*
Y-6759D01*
X-29726Y-7284D01*
X-30251D01*
X-29726D01*
X-29201Y-7809D01*
Y-8333D01*
X-29726Y-8858D01*
X-30775D01*
X-31300Y-8333D01*
X-1969Y38582D02*
Y35958D01*
X-1444Y35433D01*
X-394D01*
X131Y35958D01*
Y38582D01*
X1180Y35433D02*
X2230D01*
X1705D01*
Y38582D01*
X1180Y38057D01*
X59186Y-32285D02*
X58136D01*
X58661D01*
Y-34908D01*
X58136Y-35433D01*
X57611D01*
X57087Y-34908D01*
X60235Y-32809D02*
X60760Y-32285D01*
X61809D01*
X62334Y-32809D01*
Y-33334D01*
X61809Y-33859D01*
X61285D01*
X61809D01*
X62334Y-34383D01*
Y-34908D01*
X61809Y-35433D01*
X60760D01*
X60235Y-34908D01*
X-2953Y-16536D02*
Y-19160D01*
X-2428Y-19685D01*
X-1378D01*
X-854Y-19160D01*
Y-16536D01*
X2295Y-19685D02*
X196D01*
X2295Y-17586D01*
Y-17061D01*
X1770Y-16536D01*
X721D01*
X196Y-17061D01*
X-42192Y21325D02*
X-42717Y21849D01*
X-43767D01*
X-44291Y21325D01*
Y19226D01*
X-43767Y18701D01*
X-42717D01*
X-42192Y19226D01*
X-41143Y18701D02*
X-40093D01*
X-40618D01*
Y21849D01*
X-41143Y21325D01*
X30642Y15419D02*
X30118Y15944D01*
X29068D01*
X28543Y15419D01*
Y13320D01*
X29068Y12795D01*
X30118D01*
X30642Y13320D01*
X33791Y12795D02*
X31692D01*
X33791Y14894D01*
Y15419D01*
X33266Y15944D01*
X32217D01*
X31692Y15419D01*
X53150Y27559D02*
Y30708D01*
X54724D01*
X55249Y30183D01*
Y29133D01*
X54724Y28609D01*
X53150D01*
X54199D02*
X55249Y27559D01*
X57872D02*
Y30708D01*
X56298Y29133D01*
X58397D01*
X-57087Y27559D02*
Y30708D01*
X-55512D01*
X-54988Y30183D01*
Y29133D01*
X-55512Y28609D01*
X-57087D01*
X-56037D02*
X-54988Y27559D01*
X-51839Y30708D02*
X-53938D01*
Y29133D01*
X-52889Y29658D01*
X-52364D01*
X-51839Y29133D01*
Y28084D01*
X-52364Y27559D01*
X-53413D01*
X-53938Y28084D01*
X43307Y27559D02*
Y30708D01*
X44881D01*
X45406Y30183D01*
Y29133D01*
X44881Y28609D01*
X43307D01*
X44357D02*
X45406Y27559D01*
X48555Y30708D02*
X47505Y30183D01*
X46456Y29133D01*
Y28084D01*
X46981Y27559D01*
X48030D01*
X48555Y28084D01*
Y28609D01*
X48030Y29133D01*
X46456D01*
X-21523Y36876D02*
X-22048Y37401D01*
X-23097D01*
X-23622Y36876D01*
Y34777D01*
X-23097Y34252D01*
X-22048D01*
X-21523Y34777D01*
X-20473Y36876D02*
X-19949Y37401D01*
X-18899D01*
X-18374Y36876D01*
Y36351D01*
X-18899Y35826D01*
X-19424D01*
X-18899D01*
X-18374Y35302D01*
Y34777D01*
X-18899Y34252D01*
X-19949D01*
X-20473Y34777D01*
X20209Y35695D02*
X19684Y36219D01*
X18635D01*
X18110Y35695D01*
Y33596D01*
X18635Y33071D01*
X19684D01*
X20209Y33596D01*
X22833Y33071D02*
Y36219D01*
X21259Y34645D01*
X23358D01*
X-63976Y41339D02*
Y44487D01*
X-62402D01*
X-61877Y43962D01*
Y42913D01*
X-62402Y42388D01*
X-63976D01*
X-60828Y41339D02*
X-59778D01*
X-60303D01*
Y44487D01*
X-60828Y43962D01*
X37795Y41339D02*
Y44487D01*
X39370D01*
X39894Y43962D01*
Y42913D01*
X39370Y42388D01*
X37795D01*
X43043Y41339D02*
X40944D01*
X43043Y43438D01*
Y43962D01*
X42518Y44487D01*
X41469D01*
X40944Y43962D01*
X-37402Y49213D02*
Y52361D01*
X-35827D01*
X-35302Y51836D01*
Y50787D01*
X-35827Y50262D01*
X-37402D01*
X-36352D02*
X-35302Y49213D01*
X-34253Y52361D02*
X-32154D01*
Y51836D01*
X-34253Y49737D01*
Y49213D01*
X62008D02*
Y52361D01*
X63582D01*
X64107Y51836D01*
Y50787D01*
X63582Y50262D01*
X62008D01*
X63057D02*
X64107Y49213D01*
X65157Y51836D02*
X65681Y52361D01*
X66731D01*
X67256Y51836D01*
Y51312D01*
X66731Y50787D01*
X67256Y50262D01*
Y49737D01*
X66731Y49213D01*
X65681D01*
X65157Y49737D01*
Y50262D01*
X65681Y50787D01*
X65157Y51312D01*
Y51836D01*
X65681Y50787D02*
X66731D01*
X-80709Y62204D02*
Y59055D01*
X-79134D01*
X-78610Y59580D01*
Y61679D01*
X-79134Y62204D01*
X-80709D01*
X-77560Y61679D02*
X-77035Y62204D01*
X-75986D01*
X-75461Y61679D01*
Y61154D01*
X-75986Y60629D01*
X-76511D01*
X-75986D01*
X-75461Y60105D01*
Y59580D01*
X-75986Y59055D01*
X-77035D01*
X-77560Y59580D01*
X68898Y48424D02*
Y45276D01*
X70472D01*
X70997Y45800D01*
Y47899D01*
X70472Y48424D01*
X68898D01*
X73620Y45276D02*
Y48424D01*
X72046Y46850D01*
X74145D01*
X-77756Y32480D02*
Y35629D01*
X-76182D01*
X-75657Y35104D01*
Y34055D01*
X-76182Y33530D01*
X-77756D01*
X-76706D02*
X-75657Y32480D01*
X-74607Y33005D02*
X-74083Y32480D01*
X-73033D01*
X-72508Y33005D01*
Y35104D01*
X-73033Y35629D01*
X-74083D01*
X-74607Y35104D01*
Y34579D01*
X-74083Y34055D01*
X-72508D01*
X74803Y31496D02*
Y34645D01*
X76377D01*
X76902Y34120D01*
Y33070D01*
X76377Y32546D01*
X74803D01*
X75853D02*
X76902Y31496D01*
X77952D02*
X79001D01*
X78477D01*
Y34645D01*
X77952Y34120D01*
X80576D02*
X81100Y34645D01*
X82150D01*
X82675Y34120D01*
Y32021D01*
X82150Y31496D01*
X81100D01*
X80576Y32021D01*
Y34120D01*
X-30184Y43569D02*
X-30709Y44093D01*
X-31759D01*
X-32283Y43569D01*
Y41470D01*
X-31759Y40945D01*
X-30709D01*
X-30184Y41470D01*
X-27036Y44093D02*
X-29135D01*
Y42519D01*
X-28085Y43044D01*
X-27561D01*
X-27036Y42519D01*
Y41470D01*
X-27561Y40945D01*
X-28610D01*
X-29135Y41470D01*
X28477Y43569D02*
X27952Y44093D01*
X26903D01*
X26378Y43569D01*
Y41470D01*
X26903Y40945D01*
X27952D01*
X28477Y41470D01*
X31626Y44093D02*
X30576Y43569D01*
X29526Y42519D01*
Y41470D01*
X30051Y40945D01*
X31101D01*
X31626Y41470D01*
Y41994D01*
X31101Y42519D01*
X29526D01*
X-62008Y-73819D02*
G03*
X-73819Y-62008I-11811J0D01*
G01*
X62008Y73819D02*
G03*
X73819Y62008I11811J0D01*
G01*
X-82677Y86614D02*
G03*
X-86614Y82677I0J-3937D01*
G01*
X82677Y-86614D02*
G03*
X86614Y-82677I0J3937D01*
G01*
X-86614Y-62008D02*
X-73819D01*
X-62008Y-86614D02*
Y-73819D01*
X62008Y73819D02*
Y86614D01*
X73819Y62008D02*
X86614D01*
X-86614Y-62008D02*
Y82677D01*
X-82677Y86614D02*
X62008D01*
X-62008Y-86614D02*
X82677D01*
X86614Y-82677D02*
Y62008D01*
D22*
X-18209Y32658D02*
G03*
X-18209Y32658I-492J0D01*
G01*
X-19193Y-66929D02*
G03*
X-19193Y-66929I-492J0D01*
G01*
X32283Y64171D02*
Y58268D01*
X36219D01*
X42123Y63187D02*
X41139Y64171D01*
X39171D01*
X38187Y63187D01*
Y62203D01*
X39171Y61220D01*
X41139D01*
X42123Y60236D01*
Y59252D01*
X41139Y58268D01*
X39171D01*
X38187Y59252D01*
X44091Y61220D02*
X48026D01*
X53930Y64171D02*
X49994D01*
Y61220D01*
X51962D01*
X49994D01*
Y58268D01*
X59834Y63187D02*
X58850Y64171D01*
X56882D01*
X55898Y63187D01*
Y62203D01*
X56882Y61220D01*
X58850D01*
X59834Y60236D01*
Y59252D01*
X58850Y58268D01*
X56882D01*
X55898Y59252D01*
X-67402Y64171D02*
Y58268D01*
X-63466D01*
X-57562Y63187D02*
X-58546Y64171D01*
X-60514D01*
X-61498Y63187D01*
Y62203D01*
X-60514Y61220D01*
X-58546D01*
X-57562Y60236D01*
Y59252D01*
X-58546Y58268D01*
X-60514D01*
X-61498Y59252D01*
X-55594Y61220D02*
X-51659D01*
X-45755Y64171D02*
X-49691D01*
Y61220D01*
X-47723D01*
X-49691D01*
Y58268D01*
X-39851Y63187D02*
X-40835Y64171D01*
X-42803D01*
X-43787Y63187D01*
Y62203D01*
X-42803Y61220D01*
X-40835D01*
X-39851Y60236D01*
Y59252D01*
X-40835Y58268D01*
X-42803D01*
X-43787Y59252D01*
X1098425Y-228349D02*
Y-236221D01*
X1102361D01*
X1103673Y-234909D01*
Y-229661D01*
X1102361Y-228349D01*
X1098425D01*
X1107609Y-236221D02*
X1110232D01*
X1111544Y-234909D01*
Y-232285D01*
X1110232Y-230973D01*
X1107609D01*
X1106297Y-232285D01*
Y-234909D01*
X1107609Y-236221D01*
X1119416Y-230973D02*
X1115480D01*
X1114168Y-232285D01*
Y-234909D01*
X1115480Y-236221D01*
X1119416D01*
X1122040Y-230973D02*
Y-234909D01*
X1123351Y-236221D01*
X1127287D01*
Y-230973D01*
X1129911Y-236221D02*
Y-230973D01*
X1131223D01*
X1132535Y-232285D01*
Y-236221D01*
Y-232285D01*
X1133847Y-230973D01*
X1135159Y-232285D01*
Y-236221D01*
X1141718D02*
X1139095D01*
X1137783Y-234909D01*
Y-232285D01*
X1139095Y-230973D01*
X1141718D01*
X1143030Y-232285D01*
Y-233597D01*
X1137783D01*
X1145654Y-236221D02*
Y-230973D01*
X1149590D01*
X1150902Y-232285D01*
Y-236221D01*
X1154838Y-229661D02*
Y-230973D01*
X1153526D01*
X1156149D01*
X1154838D01*
Y-234909D01*
X1156149Y-236221D01*
X1098425Y-188979D02*
Y-196850D01*
X1102361D01*
X1103673Y-195538D01*
Y-190291D01*
X1102361Y-188979D01*
X1098425D01*
X1107609Y-191603D02*
X1110232D01*
X1111544Y-192915D01*
Y-196850D01*
X1107609D01*
X1106297Y-195538D01*
X1107609Y-194227D01*
X1111544D01*
X1115480Y-190291D02*
Y-191603D01*
X1114168D01*
X1116792D01*
X1115480D01*
Y-195538D01*
X1116792Y-196850D01*
X1124664D02*
X1122040D01*
X1120728Y-195538D01*
Y-192915D01*
X1122040Y-191603D01*
X1124664D01*
X1125975Y-192915D01*
Y-194227D01*
X1120728D01*
X1098425Y-149609D02*
Y-157480D01*
X1103673D01*
X1107609Y-152233D02*
X1110232D01*
X1111544Y-153545D01*
Y-157480D01*
X1107609D01*
X1106297Y-156168D01*
X1107609Y-154857D01*
X1111544D01*
X1114168Y-152233D02*
Y-156168D01*
X1115480Y-157480D01*
X1119416D01*
Y-158792D01*
X1118104Y-160104D01*
X1116792D01*
X1119416Y-157480D02*
Y-152233D01*
X1125975Y-157480D02*
X1123351D01*
X1122040Y-156168D01*
Y-153545D01*
X1123351Y-152233D01*
X1125975D01*
X1127287Y-153545D01*
Y-154857D01*
X1122040D01*
X1129911Y-152233D02*
Y-157480D01*
Y-154857D01*
X1131223Y-153545D01*
X1132535Y-152233D01*
X1133847D01*
X1145654Y-157480D02*
Y-149609D01*
X1150902Y-157480D01*
Y-149609D01*
X1154838Y-152233D02*
X1157461D01*
X1158773Y-153545D01*
Y-157480D01*
X1154838D01*
X1153526Y-156168D01*
X1154838Y-154857D01*
X1158773D01*
X1161397Y-157480D02*
Y-152233D01*
X1162709D01*
X1164021Y-153545D01*
Y-157480D01*
Y-153545D01*
X1165333Y-152233D01*
X1166645Y-153545D01*
Y-157480D01*
X1173204D02*
X1170580D01*
X1169269Y-156168D01*
Y-153545D01*
X1170580Y-152233D01*
X1173204D01*
X1174516Y-153545D01*
Y-154857D01*
X1169269D01*
X1098425Y-110239D02*
Y-118110D01*
X1102361D01*
X1103673Y-116798D01*
Y-111551D01*
X1102361Y-110239D01*
X1098425D01*
X1107609Y-118110D02*
X1110232D01*
X1111544Y-116798D01*
Y-114174D01*
X1110232Y-112863D01*
X1107609D01*
X1106297Y-114174D01*
Y-116798D01*
X1107609Y-118110D01*
X1119416Y-112863D02*
X1115480D01*
X1114168Y-114174D01*
Y-116798D01*
X1115480Y-118110D01*
X1119416D01*
X1122040Y-112863D02*
Y-116798D01*
X1123351Y-118110D01*
X1127287D01*
Y-112863D01*
X1129911Y-118110D02*
Y-112863D01*
X1131223D01*
X1132535Y-114174D01*
Y-118110D01*
Y-114174D01*
X1133847Y-112863D01*
X1135159Y-114174D01*
Y-118110D01*
X1141718D02*
X1139095D01*
X1137783Y-116798D01*
Y-114174D01*
X1139095Y-112863D01*
X1141718D01*
X1143030Y-114174D01*
Y-115486D01*
X1137783D01*
X1145654Y-118110D02*
Y-112863D01*
X1149590D01*
X1150902Y-114174D01*
Y-118110D01*
X1154838Y-111551D02*
Y-112863D01*
X1153526D01*
X1156149D01*
X1154838D01*
Y-116798D01*
X1156149Y-118110D01*
X901575Y-228349D02*
Y-236221D01*
X905511D01*
X906822Y-234909D01*
Y-229661D01*
X905511Y-228349D01*
X901575D01*
X913382Y-236221D02*
X910758D01*
X909446Y-234909D01*
Y-232285D01*
X910758Y-230973D01*
X913382D01*
X914694Y-232285D01*
Y-233597D01*
X909446D01*
X917318Y-236221D02*
X921253D01*
X922565Y-234909D01*
X921253Y-233597D01*
X918630D01*
X917318Y-232285D01*
X918630Y-230973D01*
X922565D01*
X927813Y-238844D02*
X929125D01*
X930437Y-237532D01*
Y-230973D01*
X926501D01*
X925189Y-232285D01*
Y-234909D01*
X926501Y-236221D01*
X930437D01*
X933061D02*
X935684D01*
X934373D01*
Y-230973D01*
X933061D01*
X939620Y-236221D02*
Y-230973D01*
X943556D01*
X944868Y-232285D01*
Y-236221D01*
X951427D02*
X948804D01*
X947492Y-234909D01*
Y-232285D01*
X948804Y-230973D01*
X951427D01*
X952739Y-232285D01*
Y-233597D01*
X947492D01*
X955363Y-230973D02*
Y-236221D01*
Y-233597D01*
X956675Y-232285D01*
X957987Y-230973D01*
X959299D01*
X1255906Y-196850D02*
Y-188979D01*
X1259841D01*
X1261153Y-190291D01*
Y-192915D01*
X1259841Y-194227D01*
X1255906D01*
X1258529D02*
X1261153Y-196850D01*
X1267713D02*
X1265089D01*
X1263777Y-195538D01*
Y-192915D01*
X1265089Y-191603D01*
X1267713D01*
X1269025Y-192915D01*
Y-194227D01*
X1263777D01*
X1271649Y-191603D02*
X1274272Y-196850D01*
X1276896Y-191603D01*
D34*
X-8268Y28543D02*
G03*
X-8268Y28543I-1181J0D01*
G01*
M02*
