G04 Layer_Color=2752767*
%FSLAX25Y25*%
%MOIN*%
G70*
G01*
G75*
%ADD18C,0.00787*%
%ADD20C,0.01575*%
%ADD21C,0.00591*%
%ADD22C,0.00984*%
%ADD54C,0.01000*%
%ADD55C,0.00600*%
%ADD57C,0.00200*%
%ADD58C,0.00267*%
%ADD59C,0.01260*%
%ADD60C,0.01102*%
G36*
X1034465Y-150646D02*
Y-150933D01*
Y-151219D01*
Y-151505D01*
Y-151791D01*
Y-152078D01*
Y-152364D01*
Y-152650D01*
Y-152937D01*
Y-153223D01*
Y-153509D01*
Y-153796D01*
Y-154082D01*
Y-154368D01*
Y-154655D01*
Y-154941D01*
Y-155227D01*
Y-155514D01*
Y-155800D01*
Y-156086D01*
Y-156372D01*
X1034179D01*
Y-156659D01*
Y-156945D01*
Y-157231D01*
Y-157518D01*
Y-157804D01*
X1033893D01*
Y-158090D01*
Y-158377D01*
Y-158663D01*
Y-158949D01*
X1033607D01*
Y-159236D01*
Y-159522D01*
Y-159808D01*
Y-160094D01*
X1033320D01*
Y-160381D01*
Y-160667D01*
Y-160953D01*
X1033034D01*
Y-161240D01*
Y-161526D01*
Y-161812D01*
X1032747D01*
Y-162099D01*
Y-162385D01*
Y-162671D01*
X1032461D01*
Y-162958D01*
Y-163244D01*
Y-163530D01*
X1032175D01*
Y-163816D01*
Y-164103D01*
X1031889D01*
Y-164389D01*
Y-164675D01*
X1031602D01*
Y-164962D01*
Y-165248D01*
Y-165534D01*
X1031316D01*
Y-165821D01*
Y-166107D01*
X1031030D01*
Y-166393D01*
Y-166680D01*
Y-166966D01*
X1030743D01*
Y-167252D01*
Y-167539D01*
X1030457D01*
Y-167825D01*
Y-168111D01*
Y-168398D01*
X1030171D01*
Y-168684D01*
Y-168970D01*
X1029884D01*
Y-169256D01*
Y-169543D01*
Y-169829D01*
X1029598D01*
Y-170115D01*
Y-170402D01*
X1029312D01*
Y-170688D01*
Y-170974D01*
Y-171261D01*
X1029025D01*
Y-171547D01*
Y-171833D01*
X1028739D01*
Y-172120D01*
Y-172406D01*
Y-172692D01*
X1028453D01*
Y-172978D01*
Y-173265D01*
X1028166D01*
Y-173551D01*
Y-173837D01*
Y-174124D01*
X1027880D01*
Y-174410D01*
Y-174696D01*
X1027594D01*
Y-174983D01*
Y-175269D01*
Y-175555D01*
X1027308D01*
Y-175842D01*
Y-176128D01*
X1027021D01*
Y-176414D01*
Y-176701D01*
Y-176987D01*
X1026735D01*
Y-177273D01*
Y-177560D01*
X1026449D01*
Y-177846D01*
Y-178132D01*
Y-178419D01*
X1026162D01*
Y-178705D01*
Y-178991D01*
X1025876D01*
Y-179277D01*
Y-179564D01*
Y-179850D01*
X1025590D01*
Y-180136D01*
Y-180423D01*
X1025303D01*
Y-180709D01*
Y-180995D01*
Y-181282D01*
X1025017D01*
Y-181568D01*
Y-181854D01*
X1024731D01*
Y-182141D01*
Y-182427D01*
Y-182713D01*
X1024444D01*
Y-183000D01*
Y-183286D01*
X1024158D01*
Y-183572D01*
Y-183858D01*
Y-184145D01*
X1023872D01*
Y-184431D01*
Y-184717D01*
X1023586D01*
Y-185004D01*
Y-185290D01*
Y-185576D01*
X1023299D01*
Y-185863D01*
Y-186149D01*
X1023013D01*
Y-186435D01*
Y-186722D01*
Y-187008D01*
X1022727D01*
Y-187294D01*
Y-187581D01*
X1022440D01*
Y-187867D01*
Y-188153D01*
X1022154D01*
Y-188439D01*
Y-188726D01*
X1021868D01*
Y-189012D01*
Y-189298D01*
Y-189585D01*
X1021581D01*
Y-189871D01*
X1021295D01*
Y-190157D01*
Y-190444D01*
Y-190730D01*
X1021009D01*
Y-191016D01*
X1020722D01*
Y-191303D01*
Y-191589D01*
X1020436D01*
Y-191875D01*
Y-192162D01*
X1020150D01*
Y-192448D01*
Y-192734D01*
X1019864D01*
Y-193020D01*
Y-193307D01*
X1019577D01*
Y-193593D01*
X1019291D01*
Y-193879D01*
Y-194166D01*
X1019005D01*
Y-194452D01*
Y-194738D01*
X1018718D01*
Y-195025D01*
X1018432D01*
Y-195311D01*
X1018146D01*
Y-195597D01*
Y-195884D01*
X1017859D01*
Y-196170D01*
X1017573D01*
Y-196456D01*
Y-196742D01*
X1017287D01*
Y-197029D01*
X1017000D01*
Y-197315D01*
X1016714D01*
Y-197601D01*
Y-197888D01*
X1016428D01*
Y-198174D01*
X1016141D01*
Y-198460D01*
X1015855D01*
Y-198747D01*
X1015569D01*
Y-199033D01*
X1015283D01*
Y-199319D01*
Y-199606D01*
X1014996D01*
Y-199892D01*
X1014710D01*
Y-200178D01*
X1014423D01*
Y-200465D01*
X1014137D01*
Y-200751D01*
X1013851D01*
Y-201037D01*
X1013565D01*
Y-201324D01*
X1013278D01*
Y-201610D01*
X1012706D01*
Y-201896D01*
X1012419D01*
Y-202183D01*
X1012133D01*
Y-202469D01*
X1011847D01*
Y-202755D01*
X1011560D01*
Y-203041D01*
X1010988D01*
Y-203328D01*
X1010701D01*
Y-203614D01*
X1010129D01*
Y-203900D01*
X1009842D01*
Y-204187D01*
X1009270D01*
Y-204473D01*
X1008984D01*
Y-204759D01*
X1008411D01*
Y-205046D01*
X1007838D01*
Y-205332D01*
X1007266D01*
Y-205618D01*
X1006693D01*
Y-205905D01*
X1006120D01*
Y-206191D01*
X1005262D01*
Y-206477D01*
X1004689D01*
Y-206764D01*
X1003830D01*
Y-207050D01*
X1002685D01*
Y-207336D01*
X1001539D01*
Y-207622D01*
X999822D01*
Y-207909D01*
X997817D01*
Y-208195D01*
X997531D01*
Y-207909D01*
Y-207622D01*
Y-207336D01*
Y-207050D01*
Y-206764D01*
Y-206477D01*
Y-206191D01*
Y-205905D01*
Y-205618D01*
Y-205332D01*
Y-205046D01*
Y-204759D01*
Y-204473D01*
Y-204187D01*
Y-203900D01*
Y-203614D01*
Y-203328D01*
Y-203041D01*
Y-202755D01*
Y-202469D01*
Y-202183D01*
Y-201896D01*
Y-201610D01*
Y-201324D01*
Y-201037D01*
Y-200751D01*
Y-200465D01*
Y-200178D01*
Y-199892D01*
Y-199606D01*
Y-199319D01*
Y-199033D01*
Y-198747D01*
X998104D01*
Y-198460D01*
X998676D01*
Y-198174D01*
X999249D01*
Y-197888D01*
X999822D01*
Y-197601D01*
X1000394D01*
Y-197315D01*
X1000967D01*
Y-197029D01*
X1001253D01*
Y-196742D01*
X1001826D01*
Y-196456D01*
X1002112D01*
Y-196170D01*
X1002685D01*
Y-195884D01*
X1002971D01*
Y-195597D01*
X1003257D01*
Y-195311D01*
X1003830D01*
Y-195025D01*
X1004116D01*
Y-194738D01*
X1004403D01*
Y-194452D01*
X1004689D01*
Y-194166D01*
X1004975D01*
Y-193879D01*
X1005262D01*
Y-193593D01*
X1005548D01*
Y-193307D01*
X1005834D01*
Y-193020D01*
X1006120D01*
Y-192734D01*
X1006407D01*
Y-192448D01*
X1006693D01*
Y-192162D01*
X1006979D01*
Y-191875D01*
Y-191589D01*
X1007266D01*
Y-191303D01*
X1007552D01*
Y-191016D01*
X1007838D01*
Y-190730D01*
Y-190444D01*
X1008125D01*
Y-190157D01*
X1008411D01*
Y-189871D01*
Y-189585D01*
X1008697D01*
Y-189298D01*
Y-189012D01*
X1008984D01*
Y-188726D01*
X1009270D01*
Y-188439D01*
Y-188153D01*
X1009556D01*
Y-187867D01*
Y-187581D01*
X1009842D01*
Y-187294D01*
Y-187008D01*
X1008125D01*
Y-186722D01*
X1006120D01*
Y-186435D01*
X1004975D01*
Y-186149D01*
X1004403D01*
Y-185863D01*
X1003544D01*
Y-185576D01*
X1002971D01*
Y-185290D01*
X1002685D01*
Y-185004D01*
X1002112D01*
Y-184717D01*
X1001826D01*
Y-184431D01*
X1001539D01*
Y-184145D01*
X1001253D01*
Y-183858D01*
X1000967D01*
Y-183572D01*
X1000681D01*
Y-183286D01*
Y-183000D01*
X1000394D01*
Y-182713D01*
X1000108D01*
Y-182427D01*
Y-182141D01*
X999822D01*
Y-181854D01*
Y-181568D01*
X999535D01*
Y-181282D01*
Y-180995D01*
X999249D01*
Y-180709D01*
Y-180423D01*
Y-180136D01*
X998963D01*
Y-179850D01*
Y-179564D01*
Y-179277D01*
Y-178991D01*
X998676D01*
Y-178705D01*
Y-178419D01*
Y-178132D01*
Y-177846D01*
Y-177560D01*
Y-177273D01*
Y-176987D01*
X998390D01*
Y-176701D01*
Y-176414D01*
Y-176128D01*
Y-175842D01*
Y-175555D01*
Y-175269D01*
Y-174983D01*
Y-174696D01*
Y-174410D01*
Y-174124D01*
Y-173837D01*
Y-173551D01*
Y-173265D01*
Y-172978D01*
Y-172692D01*
X998104D01*
Y-172406D01*
Y-172120D01*
Y-171833D01*
Y-171547D01*
Y-171261D01*
Y-170974D01*
Y-170688D01*
Y-170402D01*
Y-170115D01*
Y-169829D01*
Y-169543D01*
Y-169256D01*
Y-168970D01*
Y-168684D01*
Y-168398D01*
X997817D01*
Y-168111D01*
Y-167825D01*
Y-167539D01*
Y-167252D01*
Y-166966D01*
Y-166680D01*
Y-166393D01*
Y-166107D01*
Y-165821D01*
Y-165534D01*
Y-165248D01*
Y-164962D01*
Y-164675D01*
Y-164389D01*
Y-164103D01*
Y-163816D01*
X997531D01*
Y-163530D01*
Y-163244D01*
Y-162958D01*
Y-162671D01*
Y-162385D01*
Y-162099D01*
Y-161812D01*
Y-161526D01*
Y-161240D01*
Y-160953D01*
Y-160667D01*
Y-160381D01*
Y-160094D01*
Y-159808D01*
Y-159522D01*
Y-159236D01*
X997245D01*
Y-158949D01*
Y-158663D01*
Y-158377D01*
Y-158090D01*
Y-157804D01*
Y-157518D01*
Y-157231D01*
Y-156945D01*
Y-156659D01*
Y-156372D01*
Y-156086D01*
Y-155800D01*
Y-155514D01*
Y-155227D01*
X996958D01*
Y-154941D01*
Y-154655D01*
Y-154368D01*
Y-154082D01*
Y-153796D01*
Y-153509D01*
Y-153223D01*
Y-152937D01*
Y-152650D01*
Y-152364D01*
Y-152078D01*
Y-151791D01*
Y-151505D01*
Y-151219D01*
Y-150933D01*
Y-150646D01*
X996672D01*
Y-150360D01*
X1010415D01*
Y-150646D01*
Y-150933D01*
Y-151219D01*
Y-151505D01*
Y-151791D01*
Y-152078D01*
Y-152364D01*
Y-152650D01*
Y-152937D01*
Y-153223D01*
Y-153509D01*
Y-153796D01*
Y-154082D01*
Y-154368D01*
X1010701D01*
Y-154655D01*
Y-154941D01*
Y-155227D01*
Y-155514D01*
Y-155800D01*
Y-156086D01*
Y-156372D01*
Y-156659D01*
Y-156945D01*
Y-157231D01*
Y-157518D01*
Y-157804D01*
Y-158090D01*
Y-158377D01*
Y-158663D01*
Y-158949D01*
Y-159236D01*
Y-159522D01*
Y-159808D01*
Y-160094D01*
Y-160381D01*
Y-160667D01*
Y-160953D01*
Y-161240D01*
Y-161526D01*
Y-161812D01*
Y-162099D01*
Y-162385D01*
Y-162671D01*
Y-162958D01*
Y-163244D01*
Y-163530D01*
Y-163816D01*
Y-164103D01*
Y-164389D01*
Y-164675D01*
Y-164962D01*
Y-165248D01*
Y-165534D01*
Y-165821D01*
Y-166107D01*
X1010988D01*
Y-166393D01*
X1010701D01*
Y-166680D01*
Y-166966D01*
X1010988D01*
Y-167252D01*
Y-167539D01*
Y-167825D01*
Y-168111D01*
Y-168398D01*
Y-168684D01*
Y-168970D01*
Y-169256D01*
Y-169543D01*
Y-169829D01*
Y-170115D01*
Y-170402D01*
Y-170688D01*
Y-170974D01*
Y-171261D01*
Y-171547D01*
Y-171833D01*
Y-172120D01*
Y-172406D01*
Y-172692D01*
Y-172978D01*
Y-173265D01*
Y-173551D01*
Y-173837D01*
Y-174124D01*
Y-174410D01*
X1011274D01*
Y-174696D01*
Y-174983D01*
Y-175269D01*
X1011560D01*
Y-175555D01*
X1011847D01*
Y-175842D01*
X1012133D01*
Y-176128D01*
X1012992D01*
Y-176414D01*
X1013851D01*
Y-176128D01*
X1014137D01*
Y-175842D01*
Y-175555D01*
Y-175269D01*
X1014423D01*
Y-174983D01*
Y-174696D01*
X1014710D01*
Y-174410D01*
Y-174124D01*
Y-173837D01*
X1014996D01*
Y-173551D01*
Y-173265D01*
Y-172978D01*
X1015283D01*
Y-172692D01*
Y-172406D01*
Y-172120D01*
X1015569D01*
Y-171833D01*
Y-171547D01*
Y-171261D01*
X1015855D01*
Y-170974D01*
Y-170688D01*
X1016141D01*
Y-170402D01*
Y-170115D01*
Y-169829D01*
X1016428D01*
Y-169543D01*
Y-169256D01*
Y-168970D01*
X1016714D01*
Y-168684D01*
Y-168398D01*
Y-168111D01*
X1017000D01*
Y-167825D01*
Y-167539D01*
X1017287D01*
Y-167252D01*
Y-166966D01*
Y-166680D01*
X1017573D01*
Y-166393D01*
Y-166107D01*
Y-165821D01*
X1017859D01*
Y-165534D01*
Y-165248D01*
Y-164962D01*
X1018146D01*
Y-164675D01*
Y-164389D01*
X1018432D01*
Y-164103D01*
Y-163816D01*
Y-163530D01*
X1018718D01*
Y-163244D01*
Y-162958D01*
Y-162671D01*
X1019005D01*
Y-162385D01*
Y-162099D01*
Y-161812D01*
X1019291D01*
Y-161526D01*
Y-161240D01*
X1019577D01*
Y-160953D01*
Y-160667D01*
Y-160381D01*
X1019864D01*
Y-160094D01*
Y-159808D01*
Y-159522D01*
X1020150D01*
Y-159236D01*
Y-158949D01*
Y-158663D01*
X1020436D01*
Y-158377D01*
Y-158090D01*
Y-157804D01*
Y-157518D01*
X1020722D01*
Y-157231D01*
Y-156945D01*
Y-156659D01*
Y-156372D01*
X1021009D01*
Y-156086D01*
Y-155800D01*
Y-155514D01*
Y-155227D01*
Y-154941D01*
X1021295D01*
Y-154655D01*
Y-154368D01*
Y-154082D01*
Y-153796D01*
Y-153509D01*
Y-153223D01*
X1021581D01*
Y-152937D01*
Y-152650D01*
Y-152364D01*
Y-152078D01*
Y-151791D01*
Y-151505D01*
Y-151219D01*
Y-150933D01*
Y-150646D01*
Y-150360D01*
X1034465D01*
Y-150646D01*
D02*
G37*
G36*
X976630Y-133181D02*
Y-133467D01*
X976344D01*
Y-133754D01*
Y-134040D01*
Y-134326D01*
Y-134613D01*
Y-134899D01*
Y-135185D01*
X976058D01*
Y-135472D01*
Y-135758D01*
Y-136044D01*
Y-136330D01*
Y-136617D01*
Y-136903D01*
X975771D01*
Y-137189D01*
Y-137476D01*
Y-137762D01*
Y-138048D01*
Y-138335D01*
Y-138621D01*
Y-138907D01*
X975485D01*
Y-139194D01*
Y-139480D01*
Y-139766D01*
Y-140053D01*
Y-140339D01*
Y-140625D01*
X975199D01*
Y-140911D01*
Y-141198D01*
Y-141484D01*
Y-141771D01*
Y-142057D01*
Y-142343D01*
X974912D01*
Y-142629D01*
Y-142916D01*
Y-143202D01*
Y-143488D01*
Y-143775D01*
Y-144061D01*
Y-144347D01*
X974626D01*
Y-144634D01*
Y-144920D01*
Y-145206D01*
Y-145492D01*
Y-145779D01*
Y-146065D01*
X974340D01*
Y-146352D01*
Y-146638D01*
Y-146924D01*
Y-147210D01*
Y-147497D01*
Y-147783D01*
X974053D01*
Y-148069D01*
Y-148356D01*
Y-148642D01*
Y-148928D01*
Y-149215D01*
Y-149501D01*
X973767D01*
Y-149787D01*
Y-150074D01*
Y-150360D01*
Y-150646D01*
Y-150933D01*
Y-151219D01*
Y-151505D01*
X973481D01*
Y-151791D01*
Y-152078D01*
Y-152364D01*
Y-152650D01*
Y-152937D01*
Y-153223D01*
X973195D01*
Y-153509D01*
Y-153796D01*
X973767D01*
Y-153509D01*
X974053D01*
Y-153223D01*
X974340D01*
Y-152937D01*
X974912D01*
Y-152650D01*
X975199D01*
Y-152364D01*
X975485D01*
Y-152078D01*
X976058D01*
Y-151791D01*
X976630D01*
Y-151505D01*
X976917D01*
Y-151219D01*
X977489D01*
Y-150933D01*
X978348D01*
Y-150646D01*
X978921D01*
Y-150360D01*
X979780D01*
Y-150074D01*
X981211D01*
Y-149787D01*
X987510D01*
Y-150074D01*
X988655D01*
Y-150360D01*
X989514D01*
Y-150646D01*
X990087D01*
Y-150933D01*
X990373D01*
Y-151219D01*
X990946D01*
Y-151505D01*
X991232D01*
Y-151791D01*
X991518D01*
Y-152078D01*
X991805D01*
Y-152364D01*
X992091D01*
Y-152650D01*
Y-152937D01*
X992377D01*
Y-153223D01*
Y-153509D01*
X992664D01*
Y-153796D01*
Y-154082D01*
Y-154368D01*
X992950D01*
Y-154655D01*
Y-154941D01*
Y-155227D01*
Y-155514D01*
X993236D01*
Y-155800D01*
Y-156086D01*
Y-156372D01*
Y-156659D01*
Y-156945D01*
Y-157231D01*
Y-157518D01*
Y-157804D01*
Y-158090D01*
Y-158377D01*
Y-158663D01*
Y-158949D01*
Y-159236D01*
Y-159522D01*
Y-159808D01*
Y-160094D01*
Y-160381D01*
Y-160667D01*
X992950D01*
Y-160953D01*
Y-161240D01*
Y-161526D01*
Y-161812D01*
Y-162099D01*
Y-162385D01*
Y-162671D01*
X992664D01*
Y-162958D01*
Y-163244D01*
Y-163530D01*
Y-163816D01*
Y-164103D01*
Y-164389D01*
Y-164675D01*
X992377D01*
Y-164962D01*
Y-165248D01*
Y-165534D01*
Y-165821D01*
Y-166107D01*
Y-166393D01*
X992091D01*
Y-166680D01*
Y-166966D01*
Y-167252D01*
Y-167539D01*
Y-167825D01*
Y-168111D01*
X991805D01*
Y-168398D01*
Y-168684D01*
Y-168970D01*
Y-169256D01*
Y-169543D01*
Y-169829D01*
X991518D01*
Y-170115D01*
Y-170402D01*
Y-170688D01*
Y-170974D01*
Y-171261D01*
Y-171547D01*
Y-171833D01*
X991232D01*
Y-172120D01*
Y-172406D01*
Y-172692D01*
Y-172978D01*
Y-173265D01*
Y-173551D01*
X990946D01*
Y-173837D01*
Y-174124D01*
Y-174410D01*
Y-174696D01*
Y-174983D01*
Y-175269D01*
X990660D01*
Y-175555D01*
Y-175842D01*
Y-176128D01*
Y-176414D01*
Y-176701D01*
Y-176987D01*
Y-177273D01*
X990373D01*
Y-177560D01*
Y-177846D01*
Y-178132D01*
Y-178419D01*
Y-178705D01*
Y-178991D01*
X990087D01*
Y-179277D01*
Y-179564D01*
Y-179850D01*
Y-180136D01*
Y-180423D01*
Y-180709D01*
X989801D01*
Y-180995D01*
Y-181282D01*
Y-181568D01*
Y-181854D01*
Y-182141D01*
Y-182427D01*
X989514D01*
Y-182713D01*
Y-183000D01*
Y-183286D01*
Y-183572D01*
Y-183858D01*
Y-184145D01*
Y-184431D01*
X989228D01*
Y-184717D01*
Y-185004D01*
Y-185290D01*
Y-185576D01*
Y-185863D01*
Y-186149D01*
X988942D01*
Y-186435D01*
Y-186722D01*
X975771D01*
Y-186435D01*
Y-186149D01*
X976058D01*
Y-185863D01*
Y-185576D01*
Y-185290D01*
Y-185004D01*
Y-184717D01*
Y-184431D01*
X976344D01*
Y-184145D01*
Y-183858D01*
Y-183572D01*
Y-183286D01*
Y-183000D01*
Y-182713D01*
Y-182427D01*
X976630D01*
Y-182141D01*
Y-181854D01*
Y-181568D01*
Y-181282D01*
Y-180995D01*
Y-180709D01*
X976917D01*
Y-180423D01*
Y-180136D01*
Y-179850D01*
Y-179564D01*
Y-179277D01*
Y-178991D01*
X977203D01*
Y-178705D01*
Y-178419D01*
Y-178132D01*
Y-177846D01*
Y-177560D01*
Y-177273D01*
Y-176987D01*
X977489D01*
Y-176701D01*
Y-176414D01*
Y-176128D01*
Y-175842D01*
Y-175555D01*
Y-175269D01*
X977775D01*
Y-174983D01*
Y-174696D01*
Y-174410D01*
Y-174124D01*
Y-173837D01*
Y-173551D01*
Y-173265D01*
X978062D01*
Y-172978D01*
Y-172692D01*
Y-172406D01*
Y-172120D01*
Y-171833D01*
Y-171547D01*
X978348D01*
Y-171261D01*
Y-170974D01*
Y-170688D01*
Y-170402D01*
Y-170115D01*
Y-169829D01*
X978634D01*
Y-169543D01*
Y-169256D01*
Y-168970D01*
Y-168684D01*
Y-168398D01*
Y-168111D01*
X978921D01*
Y-167825D01*
Y-167539D01*
Y-167252D01*
Y-166966D01*
Y-166680D01*
Y-166393D01*
Y-166107D01*
X979207D01*
Y-165821D01*
Y-165534D01*
Y-165248D01*
Y-164962D01*
Y-164675D01*
Y-164389D01*
X979493D01*
Y-164103D01*
Y-163816D01*
Y-163530D01*
Y-163244D01*
Y-162958D01*
Y-162671D01*
Y-162385D01*
X979780D01*
Y-162099D01*
Y-161812D01*
Y-161526D01*
Y-161240D01*
Y-160953D01*
Y-160667D01*
X979493D01*
Y-160381D01*
Y-160094D01*
X979207D01*
Y-159808D01*
X978921D01*
Y-159522D01*
X978348D01*
Y-159236D01*
X976630D01*
Y-159522D01*
X975199D01*
Y-159808D01*
X974340D01*
Y-160094D01*
X973767D01*
Y-160381D01*
X973481D01*
Y-160667D01*
X972908D01*
Y-160953D01*
X972622D01*
Y-161240D01*
X972336D01*
Y-161526D01*
Y-161812D01*
X972049D01*
Y-162099D01*
Y-162385D01*
Y-162671D01*
X971763D01*
Y-162958D01*
Y-163244D01*
Y-163530D01*
Y-163816D01*
Y-164103D01*
Y-164389D01*
X971477D01*
Y-164675D01*
Y-164962D01*
Y-165248D01*
Y-165534D01*
Y-165821D01*
Y-166107D01*
Y-166393D01*
X971190D01*
Y-166680D01*
Y-166966D01*
Y-167252D01*
Y-167539D01*
Y-167825D01*
Y-168111D01*
X970904D01*
Y-168398D01*
Y-168684D01*
Y-168970D01*
Y-169256D01*
Y-169543D01*
Y-169829D01*
X970618D01*
Y-170115D01*
Y-170402D01*
Y-170688D01*
Y-170974D01*
Y-171261D01*
Y-171547D01*
X970331D01*
Y-171833D01*
Y-172120D01*
Y-172406D01*
Y-172692D01*
Y-172978D01*
Y-173265D01*
Y-173551D01*
X970045D01*
Y-173837D01*
Y-174124D01*
Y-174410D01*
Y-174696D01*
Y-174983D01*
Y-175269D01*
X969759D01*
Y-175555D01*
Y-175842D01*
Y-176128D01*
Y-176414D01*
Y-176701D01*
Y-176987D01*
X969472D01*
Y-177273D01*
Y-177560D01*
Y-177846D01*
Y-178132D01*
Y-178419D01*
Y-178705D01*
Y-178991D01*
X969186D01*
Y-179277D01*
Y-179564D01*
Y-179850D01*
Y-180136D01*
Y-180423D01*
Y-180709D01*
X968900D01*
Y-180995D01*
Y-181282D01*
Y-181568D01*
Y-181854D01*
Y-182141D01*
Y-182427D01*
X968614D01*
Y-182713D01*
Y-183000D01*
Y-183286D01*
Y-183572D01*
Y-183858D01*
Y-184145D01*
X968327D01*
Y-184431D01*
Y-184717D01*
Y-185004D01*
Y-185290D01*
Y-185576D01*
Y-185863D01*
Y-186149D01*
X968041D01*
Y-186435D01*
Y-186722D01*
X954870D01*
Y-186435D01*
Y-186149D01*
X955157D01*
Y-185863D01*
Y-185576D01*
Y-185290D01*
Y-185004D01*
Y-184717D01*
Y-184431D01*
Y-184145D01*
X955443D01*
Y-183858D01*
Y-183572D01*
Y-183286D01*
Y-183000D01*
Y-182713D01*
Y-182427D01*
X955729D01*
Y-182141D01*
Y-181854D01*
Y-181568D01*
Y-181282D01*
Y-180995D01*
Y-180709D01*
X956016D01*
Y-180423D01*
Y-180136D01*
Y-179850D01*
Y-179564D01*
Y-179277D01*
Y-178991D01*
Y-178705D01*
X956302D01*
Y-178419D01*
Y-178132D01*
Y-177846D01*
Y-177560D01*
Y-177273D01*
Y-176987D01*
X956588D01*
Y-176701D01*
Y-176414D01*
Y-176128D01*
Y-175842D01*
Y-175555D01*
Y-175269D01*
X956875D01*
Y-174983D01*
Y-174696D01*
Y-174410D01*
Y-174124D01*
Y-173837D01*
Y-173551D01*
X957161D01*
Y-173265D01*
Y-172978D01*
Y-172692D01*
Y-172406D01*
Y-172120D01*
Y-171833D01*
Y-171547D01*
X957447D01*
Y-171261D01*
Y-170974D01*
Y-170688D01*
Y-170402D01*
Y-170115D01*
Y-169829D01*
X957734D01*
Y-169543D01*
Y-169256D01*
Y-168970D01*
Y-168684D01*
Y-168398D01*
Y-168111D01*
X958020D01*
Y-167825D01*
Y-167539D01*
Y-167252D01*
Y-166966D01*
Y-166680D01*
Y-166393D01*
Y-166107D01*
X958306D01*
Y-165821D01*
Y-165534D01*
Y-165248D01*
Y-164962D01*
Y-164675D01*
Y-164389D01*
X958593D01*
Y-164103D01*
Y-163816D01*
Y-163530D01*
Y-163244D01*
Y-162958D01*
Y-162671D01*
X958879D01*
Y-162385D01*
Y-162099D01*
Y-161812D01*
Y-161526D01*
Y-161240D01*
Y-160953D01*
X959165D01*
Y-160667D01*
Y-160381D01*
Y-160094D01*
Y-159808D01*
Y-159522D01*
Y-159236D01*
Y-158949D01*
X959451D01*
Y-158663D01*
Y-158377D01*
Y-158090D01*
Y-157804D01*
Y-157518D01*
Y-157231D01*
X959738D01*
Y-156945D01*
Y-156659D01*
Y-156372D01*
Y-156086D01*
Y-155800D01*
Y-155514D01*
X960024D01*
Y-155227D01*
Y-154941D01*
Y-154655D01*
Y-154368D01*
Y-154082D01*
Y-153796D01*
X960310D01*
Y-153509D01*
Y-153223D01*
Y-152937D01*
Y-152650D01*
Y-152364D01*
Y-152078D01*
Y-151791D01*
X960597D01*
Y-151505D01*
Y-151219D01*
Y-150933D01*
Y-150646D01*
Y-150360D01*
Y-150074D01*
X960883D01*
Y-149787D01*
Y-149501D01*
Y-149215D01*
Y-148928D01*
Y-148642D01*
Y-148356D01*
X961169D01*
Y-148069D01*
Y-147783D01*
Y-147497D01*
Y-147210D01*
Y-146924D01*
Y-146638D01*
Y-146352D01*
X961456D01*
Y-146065D01*
Y-145779D01*
Y-145492D01*
Y-145206D01*
Y-144920D01*
Y-144634D01*
X961742D01*
Y-144347D01*
Y-144061D01*
Y-143775D01*
Y-143488D01*
Y-143202D01*
Y-142916D01*
X962028D01*
Y-142629D01*
Y-142343D01*
Y-142057D01*
Y-141771D01*
Y-141484D01*
Y-141198D01*
X962315D01*
Y-140911D01*
Y-140625D01*
Y-140339D01*
Y-140053D01*
Y-139766D01*
Y-139480D01*
Y-139194D01*
X962601D01*
Y-138907D01*
Y-138621D01*
Y-138335D01*
Y-138048D01*
Y-137762D01*
Y-137476D01*
X962887D01*
Y-137189D01*
Y-136903D01*
Y-136617D01*
Y-136330D01*
Y-136044D01*
Y-135758D01*
X963173D01*
Y-135472D01*
Y-135185D01*
Y-134899D01*
Y-134613D01*
Y-134326D01*
Y-134040D01*
Y-133754D01*
X963460D01*
Y-133467D01*
Y-133181D01*
Y-132895D01*
X976630D01*
Y-133181D01*
D02*
G37*
G36*
X945422Y-136617D02*
X947140D01*
Y-136903D01*
X947999D01*
Y-137189D01*
X948858D01*
Y-137476D01*
X949717D01*
Y-137762D01*
X950289D01*
Y-138048D01*
X950576D01*
Y-138335D01*
X951148D01*
Y-138621D01*
X951435D01*
Y-138907D01*
X952007D01*
Y-139194D01*
X952294D01*
Y-139480D01*
X952580D01*
Y-139766D01*
X952866D01*
Y-140053D01*
X953153D01*
Y-140339D01*
X953439D01*
Y-140625D01*
X953725D01*
Y-140911D01*
Y-141198D01*
X954012D01*
Y-141484D01*
X954298D01*
Y-141771D01*
Y-142057D01*
X954584D01*
Y-142343D01*
X954870D01*
Y-142629D01*
Y-142916D01*
X955157D01*
Y-143202D01*
Y-143488D01*
Y-143775D01*
X955443D01*
Y-144061D01*
Y-144347D01*
Y-144634D01*
X955729D01*
Y-144920D01*
Y-145206D01*
Y-145492D01*
Y-145779D01*
X956016D01*
Y-146065D01*
Y-146352D01*
Y-146638D01*
Y-146924D01*
Y-147210D01*
X956302D01*
Y-147497D01*
Y-147783D01*
Y-148069D01*
Y-148356D01*
Y-148642D01*
Y-148928D01*
Y-149215D01*
Y-149501D01*
Y-149787D01*
Y-150074D01*
Y-150360D01*
Y-150646D01*
Y-150933D01*
Y-151219D01*
Y-151505D01*
Y-151791D01*
Y-152078D01*
Y-152364D01*
Y-152650D01*
Y-152937D01*
X956016D01*
Y-153223D01*
Y-153509D01*
Y-153796D01*
Y-154082D01*
Y-154368D01*
Y-154655D01*
Y-154941D01*
X955729D01*
Y-155227D01*
Y-155514D01*
Y-155800D01*
Y-156086D01*
Y-156372D01*
X955443D01*
Y-156659D01*
Y-156945D01*
Y-157231D01*
Y-157518D01*
Y-157804D01*
X955157D01*
Y-158090D01*
Y-158377D01*
Y-158663D01*
X954870D01*
Y-158949D01*
Y-159236D01*
Y-159522D01*
Y-159808D01*
X954584D01*
Y-160094D01*
Y-160381D01*
Y-160667D01*
X954298D01*
Y-160953D01*
Y-161240D01*
X954012D01*
Y-161526D01*
Y-161812D01*
Y-162099D01*
X953725D01*
Y-162385D01*
Y-162671D01*
X953439D01*
Y-162958D01*
Y-163244D01*
X953153D01*
Y-163530D01*
Y-163816D01*
X952866D01*
Y-164103D01*
X952580D01*
Y-164389D01*
Y-164675D01*
X952294D01*
Y-164962D01*
X952007D01*
Y-165248D01*
X951721D01*
Y-165534D01*
Y-165821D01*
X951435D01*
Y-166107D01*
X951148D01*
Y-166393D01*
X950862D01*
Y-166680D01*
X950576D01*
Y-166966D01*
X950289D01*
Y-167252D01*
X949717D01*
Y-167539D01*
X949430D01*
Y-167825D01*
X948858D01*
Y-168111D01*
X948572D01*
Y-168398D01*
X947999D01*
Y-168684D01*
X947140D01*
Y-168970D01*
X946281D01*
Y-169256D01*
X945422D01*
Y-169543D01*
X943704D01*
Y-169829D01*
X938551D01*
Y-169543D01*
X935974D01*
Y-169256D01*
X933970D01*
Y-168970D01*
X932538D01*
Y-168684D01*
X931106D01*
Y-168398D01*
X929675D01*
Y-168684D01*
Y-168970D01*
Y-169256D01*
Y-169543D01*
Y-169829D01*
Y-170115D01*
Y-170402D01*
X929389D01*
Y-170688D01*
Y-170974D01*
Y-171261D01*
Y-171547D01*
Y-171833D01*
Y-172120D01*
X929102D01*
Y-172406D01*
Y-172692D01*
Y-172978D01*
Y-173265D01*
Y-173551D01*
Y-173837D01*
X928816D01*
Y-174124D01*
Y-174410D01*
Y-174696D01*
Y-174983D01*
Y-175269D01*
Y-175555D01*
Y-175842D01*
X928530D01*
Y-176128D01*
Y-176414D01*
Y-176701D01*
Y-176987D01*
Y-177273D01*
Y-177560D01*
X928243D01*
Y-177846D01*
Y-178132D01*
Y-178419D01*
Y-178705D01*
Y-178991D01*
Y-179277D01*
X927957D01*
Y-179564D01*
Y-179850D01*
Y-180136D01*
Y-180423D01*
Y-180709D01*
Y-180995D01*
Y-181282D01*
X927671D01*
Y-181568D01*
Y-181854D01*
Y-182141D01*
Y-182427D01*
Y-182713D01*
Y-183000D01*
X927384D01*
Y-183286D01*
Y-183572D01*
Y-183858D01*
Y-184145D01*
Y-184431D01*
Y-184717D01*
X927098D01*
Y-185004D01*
Y-185290D01*
Y-185576D01*
Y-185863D01*
Y-186149D01*
Y-186435D01*
Y-186722D01*
X913641D01*
Y-186435D01*
X913928D01*
Y-186149D01*
Y-185863D01*
Y-185576D01*
Y-185290D01*
Y-185004D01*
X914214D01*
Y-184717D01*
Y-184431D01*
Y-184145D01*
Y-183858D01*
Y-183572D01*
Y-183286D01*
Y-183000D01*
X914500D01*
Y-182713D01*
Y-182427D01*
Y-182141D01*
Y-181854D01*
Y-181568D01*
Y-181282D01*
X914787D01*
Y-180995D01*
Y-180709D01*
Y-180423D01*
Y-180136D01*
Y-179850D01*
Y-179564D01*
X915073D01*
Y-179277D01*
Y-178991D01*
Y-178705D01*
Y-178419D01*
Y-178132D01*
Y-177846D01*
Y-177560D01*
X915359D01*
Y-177273D01*
Y-176987D01*
Y-176701D01*
Y-176414D01*
Y-176128D01*
Y-175842D01*
X915646D01*
Y-175555D01*
Y-175269D01*
Y-174983D01*
Y-174696D01*
Y-174410D01*
Y-174124D01*
X915932D01*
Y-173837D01*
Y-173551D01*
Y-173265D01*
Y-172978D01*
Y-172692D01*
Y-172406D01*
X916218D01*
Y-172120D01*
Y-171833D01*
Y-171547D01*
Y-171261D01*
Y-170974D01*
Y-170688D01*
Y-170402D01*
X916504D01*
Y-170115D01*
Y-169829D01*
Y-169543D01*
Y-169256D01*
Y-168970D01*
Y-168684D01*
X916791D01*
Y-168398D01*
Y-168111D01*
Y-167825D01*
Y-167539D01*
Y-167252D01*
Y-166966D01*
X917077D01*
Y-166680D01*
Y-166393D01*
Y-166107D01*
Y-165821D01*
Y-165534D01*
Y-165248D01*
X917363D01*
Y-164962D01*
Y-164675D01*
Y-164389D01*
Y-164103D01*
Y-163816D01*
Y-163530D01*
Y-163244D01*
X917650D01*
Y-162958D01*
Y-162671D01*
Y-162385D01*
Y-162099D01*
Y-161812D01*
Y-161526D01*
X917936D01*
Y-161240D01*
Y-160953D01*
Y-160667D01*
Y-160381D01*
Y-160094D01*
Y-159808D01*
X918222D01*
Y-159522D01*
Y-159236D01*
Y-158949D01*
Y-158663D01*
Y-158377D01*
Y-158090D01*
Y-157804D01*
X918509D01*
Y-157518D01*
Y-157231D01*
Y-156945D01*
Y-156659D01*
Y-156372D01*
Y-156086D01*
X918795D01*
Y-155800D01*
Y-155514D01*
Y-155227D01*
Y-154941D01*
Y-154655D01*
Y-154368D01*
X919081D01*
Y-154082D01*
Y-153796D01*
Y-153509D01*
Y-153223D01*
Y-152937D01*
Y-152650D01*
X919368D01*
Y-152364D01*
Y-152078D01*
Y-151791D01*
Y-151505D01*
Y-151219D01*
Y-150933D01*
Y-150646D01*
X919654D01*
Y-150360D01*
Y-150074D01*
Y-149787D01*
Y-149501D01*
Y-149215D01*
Y-148928D01*
X919940D01*
Y-148642D01*
Y-148356D01*
Y-148069D01*
Y-147783D01*
Y-147497D01*
Y-147210D01*
X920227D01*
Y-146924D01*
Y-146638D01*
Y-146352D01*
Y-146065D01*
Y-145779D01*
Y-145492D01*
Y-145206D01*
X920513D01*
Y-144920D01*
Y-144634D01*
Y-144347D01*
Y-144061D01*
Y-143775D01*
Y-143488D01*
X920799D01*
Y-143202D01*
Y-142916D01*
Y-142629D01*
Y-142343D01*
Y-142057D01*
Y-141771D01*
X921085D01*
Y-141484D01*
Y-141198D01*
Y-140911D01*
Y-140625D01*
Y-140339D01*
Y-140053D01*
Y-139766D01*
X921372D01*
Y-139480D01*
Y-139194D01*
Y-138907D01*
Y-138621D01*
Y-138335D01*
Y-138048D01*
X921658D01*
Y-137762D01*
Y-137476D01*
Y-137189D01*
Y-136903D01*
Y-136617D01*
Y-136330D01*
X945422D01*
Y-136617D01*
D02*
G37*
G36*
X1078558Y-150646D02*
X1078271D01*
Y-150933D01*
X1077985D01*
Y-151219D01*
Y-151505D01*
X1077699D01*
Y-151791D01*
X1077412D01*
Y-152078D01*
X1077126D01*
Y-152364D01*
Y-152650D01*
X1076840D01*
Y-152937D01*
X1076553D01*
Y-153223D01*
X1076267D01*
Y-153509D01*
X1075981D01*
Y-153796D01*
Y-154082D01*
X1075694D01*
Y-154368D01*
X1075408D01*
Y-154655D01*
X1075122D01*
Y-154941D01*
Y-155227D01*
X1074835D01*
Y-155514D01*
X1074549D01*
Y-155800D01*
X1074263D01*
Y-156086D01*
X1073977D01*
Y-156372D01*
Y-156659D01*
X1073690D01*
Y-156945D01*
X1073404D01*
Y-157231D01*
X1073118D01*
Y-157518D01*
Y-157804D01*
X1072831D01*
Y-158090D01*
X1072545D01*
Y-158377D01*
X1072259D01*
Y-158663D01*
Y-158949D01*
X1071972D01*
Y-159236D01*
X1071686D01*
Y-159522D01*
X1071400D01*
Y-159808D01*
X1071113D01*
Y-160094D01*
Y-160381D01*
X1070827D01*
Y-160667D01*
X1070541D01*
Y-160953D01*
X1070255D01*
Y-161240D01*
Y-161526D01*
X1069968D01*
Y-161812D01*
X1069682D01*
Y-162099D01*
X1069396D01*
Y-162385D01*
Y-162671D01*
X1069109D01*
Y-162958D01*
X1068823D01*
Y-163244D01*
X1068537D01*
Y-163530D01*
X1068250D01*
Y-163816D01*
Y-164103D01*
X1067964D01*
Y-164389D01*
X1067678D01*
Y-164675D01*
X1067391D01*
Y-164962D01*
Y-165248D01*
X1067105D01*
Y-165534D01*
X1066819D01*
Y-165821D01*
X1066533D01*
Y-166107D01*
Y-166393D01*
X1066246D01*
Y-166680D01*
X1065960D01*
Y-166966D01*
X1065674D01*
Y-167252D01*
X1065387D01*
Y-167539D01*
Y-167825D01*
X1065101D01*
Y-168111D01*
X1064815D01*
Y-168398D01*
X1064528D01*
Y-168684D01*
Y-168970D01*
X1064242D01*
Y-169256D01*
X1063956D01*
Y-169543D01*
X1063669D01*
Y-169829D01*
X1063383D01*
Y-170115D01*
Y-170402D01*
X1063669D01*
Y-170688D01*
Y-170974D01*
X1063956D01*
Y-171261D01*
Y-171547D01*
X1064242D01*
Y-171833D01*
X1064528D01*
Y-172120D01*
Y-172406D01*
X1064815D01*
Y-172692D01*
Y-172978D01*
X1065101D01*
Y-173265D01*
Y-173551D01*
X1065387D01*
Y-173837D01*
Y-174124D01*
X1065674D01*
Y-174410D01*
Y-174696D01*
X1065960D01*
Y-174983D01*
Y-175269D01*
X1066246D01*
Y-175555D01*
Y-175842D01*
X1066533D01*
Y-176128D01*
Y-176414D01*
X1066819D01*
Y-176701D01*
X1067105D01*
Y-176987D01*
Y-177273D01*
X1067391D01*
Y-177560D01*
Y-177846D01*
X1067678D01*
Y-178132D01*
Y-178419D01*
X1067964D01*
Y-178705D01*
Y-178991D01*
X1068250D01*
Y-179277D01*
Y-179564D01*
X1068537D01*
Y-179850D01*
Y-180136D01*
X1068823D01*
Y-180423D01*
Y-180709D01*
X1069109D01*
Y-180995D01*
X1069396D01*
Y-181282D01*
Y-181568D01*
X1069682D01*
Y-181854D01*
Y-182141D01*
X1069968D01*
Y-182427D01*
Y-182713D01*
X1070255D01*
Y-183000D01*
Y-183286D01*
X1070541D01*
Y-183572D01*
Y-183858D01*
X1070827D01*
Y-184145D01*
Y-184431D01*
X1071113D01*
Y-184717D01*
Y-185004D01*
X1071400D01*
Y-185290D01*
X1071686D01*
Y-185576D01*
Y-185863D01*
X1071972D01*
Y-186149D01*
Y-186435D01*
X1072259D01*
Y-186722D01*
X1057084D01*
Y-186435D01*
X1056798D01*
Y-186149D01*
Y-185863D01*
Y-185576D01*
X1056511D01*
Y-185290D01*
Y-185004D01*
Y-184717D01*
X1056225D01*
Y-184431D01*
Y-184145D01*
X1055939D01*
Y-183858D01*
Y-183572D01*
Y-183286D01*
X1055653D01*
Y-183000D01*
Y-182713D01*
Y-182427D01*
X1055366D01*
Y-182141D01*
Y-181854D01*
X1055080D01*
Y-181568D01*
Y-181282D01*
Y-180995D01*
X1054794D01*
Y-180709D01*
Y-180423D01*
Y-180136D01*
X1054507D01*
Y-179850D01*
Y-179564D01*
Y-179277D01*
X1054221D01*
Y-178991D01*
X1053648D01*
Y-179277D01*
Y-179564D01*
X1053362D01*
Y-179850D01*
X1053076D01*
Y-180136D01*
Y-180423D01*
X1052789D01*
Y-180709D01*
X1052503D01*
Y-180995D01*
Y-181282D01*
X1052217D01*
Y-181568D01*
X1051931D01*
Y-181854D01*
Y-182141D01*
X1051644D01*
Y-182427D01*
X1051358D01*
Y-182713D01*
X1051072D01*
Y-183000D01*
Y-183286D01*
X1050785D01*
Y-183572D01*
X1050499D01*
Y-183858D01*
Y-184145D01*
X1050213D01*
Y-184431D01*
X1049926D01*
Y-184717D01*
Y-185004D01*
X1049640D01*
Y-185290D01*
X1049354D01*
Y-185576D01*
Y-185863D01*
X1049067D01*
Y-186149D01*
X1048781D01*
Y-186435D01*
Y-186722D01*
X1032747D01*
Y-186435D01*
X1033034D01*
Y-186149D01*
X1033320D01*
Y-185863D01*
X1033607D01*
Y-185576D01*
X1033893D01*
Y-185290D01*
Y-185004D01*
X1034179D01*
Y-184717D01*
X1034465D01*
Y-184431D01*
X1034752D01*
Y-184145D01*
X1035038D01*
Y-183858D01*
Y-183572D01*
X1035324D01*
Y-183286D01*
X1035611D01*
Y-183000D01*
X1035897D01*
Y-182713D01*
Y-182427D01*
X1036183D01*
Y-182141D01*
X1036470D01*
Y-181854D01*
X1036756D01*
Y-181568D01*
X1037042D01*
Y-181282D01*
Y-180995D01*
X1037329D01*
Y-180709D01*
X1037615D01*
Y-180423D01*
X1037901D01*
Y-180136D01*
X1038188D01*
Y-179850D01*
Y-179564D01*
X1038474D01*
Y-179277D01*
X1038760D01*
Y-178991D01*
X1039046D01*
Y-178705D01*
Y-178419D01*
X1039333D01*
Y-178132D01*
X1039619D01*
Y-177846D01*
X1039905D01*
Y-177560D01*
X1040192D01*
Y-177273D01*
Y-176987D01*
X1040478D01*
Y-176701D01*
X1040764D01*
Y-176414D01*
X1041051D01*
Y-176128D01*
Y-175842D01*
X1041337D01*
Y-175555D01*
X1041623D01*
Y-175269D01*
X1041910D01*
Y-174983D01*
X1042196D01*
Y-174696D01*
Y-174410D01*
X1042482D01*
Y-174124D01*
X1042768D01*
Y-173837D01*
X1043055D01*
Y-173551D01*
Y-173265D01*
X1043341D01*
Y-172978D01*
X1043627D01*
Y-172692D01*
X1043914D01*
Y-172406D01*
X1044200D01*
Y-172120D01*
Y-171833D01*
X1044486D01*
Y-171547D01*
X1044773D01*
Y-171261D01*
X1045059D01*
Y-170974D01*
X1045345D01*
Y-170688D01*
Y-170402D01*
X1045632D01*
Y-170115D01*
X1045918D01*
Y-169829D01*
X1046204D01*
Y-169543D01*
Y-169256D01*
X1046491D01*
Y-168970D01*
X1046777D01*
Y-168684D01*
X1047063D01*
Y-168398D01*
X1047349D01*
Y-168111D01*
Y-167825D01*
X1047636D01*
Y-167539D01*
Y-167252D01*
Y-166966D01*
X1047349D01*
Y-166680D01*
X1047063D01*
Y-166393D01*
Y-166107D01*
X1046777D01*
Y-165821D01*
Y-165534D01*
X1046491D01*
Y-165248D01*
Y-164962D01*
X1046204D01*
Y-164675D01*
Y-164389D01*
X1045918D01*
Y-164103D01*
Y-163816D01*
X1045632D01*
Y-163530D01*
Y-163244D01*
X1045345D01*
Y-162958D01*
X1045059D01*
Y-162671D01*
Y-162385D01*
X1044773D01*
Y-162099D01*
Y-161812D01*
X1044486D01*
Y-161526D01*
Y-161240D01*
X1044200D01*
Y-160953D01*
Y-160667D01*
X1043914D01*
Y-160381D01*
Y-160094D01*
X1043627D01*
Y-159808D01*
Y-159522D01*
X1043341D01*
Y-159236D01*
X1043055D01*
Y-158949D01*
Y-158663D01*
X1042768D01*
Y-158377D01*
Y-158090D01*
X1042482D01*
Y-157804D01*
Y-157518D01*
X1042196D01*
Y-157231D01*
Y-156945D01*
X1041910D01*
Y-156659D01*
Y-156372D01*
X1041623D01*
Y-156086D01*
Y-155800D01*
X1041337D01*
Y-155514D01*
Y-155227D01*
X1041051D01*
Y-154941D01*
X1040764D01*
Y-154655D01*
Y-154368D01*
X1040478D01*
Y-154082D01*
Y-153796D01*
X1040192D01*
Y-153509D01*
Y-153223D01*
X1039905D01*
Y-152937D01*
Y-152650D01*
X1039619D01*
Y-152364D01*
Y-152078D01*
X1039333D01*
Y-151791D01*
Y-151505D01*
X1039046D01*
Y-151219D01*
X1038760D01*
Y-150933D01*
Y-150646D01*
X1038474D01*
Y-150360D01*
X1054221D01*
Y-150646D01*
X1054507D01*
Y-150933D01*
Y-151219D01*
Y-151505D01*
X1054794D01*
Y-151791D01*
Y-152078D01*
Y-152364D01*
X1055080D01*
Y-152650D01*
Y-152937D01*
Y-153223D01*
X1055366D01*
Y-153509D01*
Y-153796D01*
Y-154082D01*
X1055653D01*
Y-154368D01*
Y-154655D01*
Y-154941D01*
X1055939D01*
Y-155227D01*
Y-155514D01*
Y-155800D01*
X1056225D01*
Y-156086D01*
Y-156372D01*
Y-156659D01*
X1056511D01*
Y-156945D01*
Y-157231D01*
Y-157518D01*
X1056798D01*
Y-157804D01*
Y-158090D01*
Y-158377D01*
Y-158663D01*
X1057370D01*
Y-158377D01*
X1057657D01*
Y-158090D01*
X1057943D01*
Y-157804D01*
Y-157518D01*
X1058229D01*
Y-157231D01*
X1058516D01*
Y-156945D01*
Y-156659D01*
X1058802D01*
Y-156372D01*
X1059088D01*
Y-156086D01*
Y-155800D01*
X1059375D01*
Y-155514D01*
X1059661D01*
Y-155227D01*
Y-154941D01*
X1059947D01*
Y-154655D01*
X1060234D01*
Y-154368D01*
Y-154082D01*
X1060520D01*
Y-153796D01*
X1060806D01*
Y-153509D01*
Y-153223D01*
X1061092D01*
Y-152937D01*
X1061379D01*
Y-152650D01*
Y-152364D01*
X1061665D01*
Y-152078D01*
X1061951D01*
Y-151791D01*
Y-151505D01*
X1062238D01*
Y-151219D01*
X1062524D01*
Y-150933D01*
Y-150646D01*
X1062810D01*
Y-150360D01*
X1078558D01*
Y-150646D01*
D02*
G37*
%LPC*%
G36*
X941127Y-147497D02*
X933111D01*
Y-147783D01*
Y-148069D01*
Y-148356D01*
Y-148642D01*
Y-148928D01*
X932824D01*
Y-149215D01*
Y-149501D01*
Y-149787D01*
Y-150074D01*
Y-150360D01*
Y-150646D01*
X932538D01*
Y-150933D01*
Y-151219D01*
Y-151505D01*
Y-151791D01*
Y-152078D01*
Y-152364D01*
X932252D01*
Y-152650D01*
Y-152937D01*
Y-153223D01*
Y-153509D01*
Y-153796D01*
Y-154082D01*
X931965D01*
Y-154368D01*
Y-154655D01*
Y-154941D01*
Y-155227D01*
Y-155514D01*
Y-155800D01*
Y-156086D01*
X931679D01*
Y-156372D01*
Y-156659D01*
Y-156945D01*
Y-157231D01*
Y-157518D01*
Y-157804D01*
X931393D01*
Y-158090D01*
Y-158377D01*
Y-158663D01*
X938551D01*
Y-158377D01*
X939696D01*
Y-158090D01*
X940269D01*
Y-157804D01*
X940555D01*
Y-157518D01*
X940841D01*
Y-157231D01*
X941127D01*
Y-156945D01*
X941414D01*
Y-156659D01*
Y-156372D01*
X941700D01*
Y-156086D01*
Y-155800D01*
X941986D01*
Y-155514D01*
Y-155227D01*
X942273D01*
Y-154941D01*
Y-154655D01*
Y-154368D01*
Y-154082D01*
X942559D01*
Y-153796D01*
Y-153509D01*
Y-153223D01*
Y-152937D01*
Y-152650D01*
X942845D01*
Y-152364D01*
Y-152078D01*
Y-151791D01*
Y-151505D01*
Y-151219D01*
Y-150933D01*
Y-150646D01*
Y-150360D01*
Y-150074D01*
Y-149787D01*
Y-149501D01*
X942559D01*
Y-149215D01*
Y-148928D01*
X942273D01*
Y-148642D01*
Y-148356D01*
X941986D01*
Y-148069D01*
X941700D01*
Y-147783D01*
X941127D01*
Y-147497D01*
D02*
G37*
%LPD*%
D18*
X-283465Y-263779D02*
X1370079D01*
X-283465D02*
Y905512D01*
X1370079Y-263779D02*
Y905512D01*
X-283465D02*
X1370079D01*
X1094488Y-263779D02*
Y-106299D01*
X897638Y-263779D02*
Y-106299D01*
X1370079D01*
X897638Y-224410D02*
X1370079D01*
X1094488Y-185039D02*
X1370079D01*
X1094488Y-145669D02*
X1370079D01*
X1251968Y-224410D02*
Y-185039D01*
X1104331Y-250002D02*
Y-254922D01*
X1105315Y-255906D01*
X1107283D01*
X1108266Y-254922D01*
Y-250002D01*
X1114170Y-250986D02*
X1113186Y-250002D01*
X1111218D01*
X1110234Y-250986D01*
Y-251970D01*
X1111218Y-252954D01*
X1113186D01*
X1114170Y-253938D01*
Y-254922D01*
X1113186Y-255906D01*
X1111218D01*
X1110234Y-254922D01*
X1116138Y-250002D02*
Y-255906D01*
X1119090D01*
X1120074Y-254922D01*
Y-253938D01*
X1119090Y-252954D01*
X1116138D01*
X1119090D01*
X1120074Y-251970D01*
Y-250986D01*
X1119090Y-250002D01*
X1116138D01*
X1122042Y-256889D02*
X1125977D01*
X1127945Y-250002D02*
X1129913D01*
X1128929D01*
Y-255906D01*
X1127945D01*
X1129913D01*
X1136800Y-250986D02*
X1135817Y-250002D01*
X1133849D01*
X1132865Y-250986D01*
Y-251970D01*
X1133849Y-252954D01*
X1135817D01*
X1136800Y-253938D01*
Y-254922D01*
X1135817Y-255906D01*
X1133849D01*
X1132865Y-254922D01*
X1141720Y-250002D02*
X1139752D01*
X1138768Y-250986D01*
Y-254922D01*
X1139752Y-255906D01*
X1141720D01*
X1142704Y-254922D01*
Y-250986D01*
X1141720Y-250002D01*
X1144672Y-256889D02*
X1148608D01*
X1154511Y-250002D02*
X1150576D01*
Y-252954D01*
X1152543D01*
X1150576D01*
Y-255906D01*
X1160415Y-250986D02*
X1159431Y-250002D01*
X1157463D01*
X1156479Y-250986D01*
Y-251970D01*
X1157463Y-252954D01*
X1159431D01*
X1160415Y-253938D01*
Y-254922D01*
X1159431Y-255906D01*
X1157463D01*
X1156479Y-254922D01*
X1162383Y-256889D02*
X1166319D01*
X1168286Y-250986D02*
X1169270Y-250002D01*
X1171238D01*
X1172222Y-250986D01*
Y-254922D01*
X1171238Y-255906D01*
X1169270D01*
X1168286Y-254922D01*
Y-250986D01*
X1174190D02*
X1175174Y-250002D01*
X1177142D01*
X1178126Y-250986D01*
Y-254922D01*
X1177142Y-255906D01*
X1175174D01*
X1174190Y-254922D01*
Y-250986D01*
X1180094Y-255906D02*
Y-254922D01*
X1181077D01*
Y-255906D01*
X1180094D01*
X1185013D02*
Y-250002D01*
X1187965D01*
X1188949Y-250986D01*
Y-252954D01*
X1187965Y-253938D01*
X1185013D01*
X1194853Y-251970D02*
X1191901D01*
X1190917Y-252954D01*
Y-254922D01*
X1191901Y-255906D01*
X1194853D01*
X1196820Y-250002D02*
Y-255906D01*
X1199772D01*
X1200756Y-254922D01*
Y-253938D01*
Y-252954D01*
X1199772Y-251970D01*
X1196820D01*
X1202724Y-250002D02*
Y-255906D01*
X1205676D01*
X1206660Y-254922D01*
Y-250986D01*
X1205676Y-250002D01*
X1202724D01*
X1209612Y-255906D02*
X1211579D01*
X1212563Y-254922D01*
Y-252954D01*
X1211579Y-251970D01*
X1209612D01*
X1208628Y-252954D01*
Y-254922D01*
X1209612Y-255906D01*
X1218467Y-251970D02*
X1215515D01*
X1214531Y-252954D01*
Y-254922D01*
X1215515Y-255906D01*
X1218467D01*
X230929Y136811D02*
X233552D01*
X232241D01*
Y144683D01*
X230929Y143371D01*
X242736Y144683D02*
X240112Y143371D01*
X237488Y140747D01*
Y138123D01*
X238800Y136811D01*
X241424D01*
X242736Y138123D01*
Y139435D01*
X241424Y140747D01*
X237488D01*
X319723Y136811D02*
X322347D01*
X321035D01*
Y144683D01*
X319723Y143371D01*
X326283Y136811D02*
X328906D01*
X327595D01*
Y144683D01*
X326283Y143371D01*
X332842Y136811D02*
Y138123D01*
X334154D01*
Y136811D01*
X332842D01*
X339402Y143371D02*
X340714Y144683D01*
X343337D01*
X344649Y143371D01*
Y142059D01*
X343337Y140747D01*
X344649Y139435D01*
Y138123D01*
X343337Y136811D01*
X340714D01*
X339402Y138123D01*
Y139435D01*
X340714Y140747D01*
X339402Y142059D01*
Y143371D01*
X340714Y140747D02*
X343337D01*
X347273Y136811D02*
X349897D01*
X348585D01*
Y144683D01*
X347273Y143371D01*
X353833Y136811D02*
X356457D01*
X355145D01*
Y144683D01*
X353833Y143371D01*
X360392Y136811D02*
Y142059D01*
X361704D01*
X363016Y140747D01*
Y136811D01*
Y140747D01*
X364328Y142059D01*
X365640Y140747D01*
Y136811D01*
X368264D02*
X370888D01*
X369576D01*
Y142059D01*
X368264D01*
X374823Y136811D02*
X377447D01*
X376135D01*
Y144683D01*
X374823D01*
X391878Y136811D02*
X389254Y139435D01*
Y142059D01*
X391878Y144683D01*
X395814Y143371D02*
X397126Y144683D01*
X399750D01*
X401062Y143371D01*
Y138123D01*
X399750Y136811D01*
X397126D01*
X395814Y138123D01*
Y143371D01*
X403686Y136811D02*
Y138123D01*
X404997D01*
Y136811D01*
X403686D01*
X410245Y143371D02*
X411557Y144683D01*
X414181D01*
X415493Y143371D01*
Y142059D01*
X414181Y140747D01*
X412869D01*
X414181D01*
X415493Y139435D01*
Y138123D01*
X414181Y136811D01*
X411557D01*
X410245Y138123D01*
X418117Y136811D02*
Y142059D01*
X419428D01*
X420740Y140747D01*
Y136811D01*
Y140747D01*
X422052Y142059D01*
X423364Y140747D01*
Y136811D01*
X425988D02*
Y142059D01*
X427300D01*
X428612Y140747D01*
Y136811D01*
Y140747D01*
X429924Y142059D01*
X431236Y140747D01*
Y136811D01*
X433859D02*
X436483Y139435D01*
Y142059D01*
X433859Y144683D01*
X797062Y136811D02*
Y144683D01*
X800998D01*
X802310Y143371D01*
Y140747D01*
X800998Y139435D01*
X797062D01*
X804934Y144683D02*
X810181D01*
X807557D01*
Y136811D01*
X812805Y144683D02*
Y136811D01*
Y140747D01*
X818053D01*
Y144683D01*
Y136811D01*
X860668D02*
Y144683D01*
X864604D01*
X865915Y143371D01*
Y140747D01*
X864604Y139435D01*
X860668D01*
X863292D02*
X865915Y136811D01*
X869851D02*
X872475D01*
X873787Y138123D01*
Y140747D01*
X872475Y142059D01*
X869851D01*
X868539Y140747D01*
Y138123D01*
X869851Y136811D01*
X876411Y142059D02*
Y138123D01*
X877723Y136811D01*
X881658D01*
Y142059D01*
X884282Y136811D02*
Y142059D01*
X888218D01*
X889530Y140747D01*
Y136811D01*
X897401Y144683D02*
Y136811D01*
X893466D01*
X892154Y138123D01*
Y140747D01*
X893466Y142059D01*
X897401D01*
X236176Y128935D02*
X230929D01*
Y124999D01*
X233552Y126311D01*
X234864D01*
X236176Y124999D01*
Y122375D01*
X234864Y121063D01*
X232241D01*
X230929Y122375D01*
X324971Y121063D02*
X319723D01*
X324971Y126311D01*
Y127623D01*
X323659Y128935D01*
X321035D01*
X319723Y127623D01*
X327595D02*
X328906Y128935D01*
X331530D01*
X332842Y127623D01*
Y126311D01*
X331530Y124999D01*
X330218D01*
X331530D01*
X332842Y123687D01*
Y122375D01*
X331530Y121063D01*
X328906D01*
X327595Y122375D01*
X335466Y121063D02*
Y122375D01*
X336778D01*
Y121063D01*
X335466D01*
X347273Y128935D02*
X344649Y127623D01*
X342026Y124999D01*
Y122375D01*
X343337Y121063D01*
X345961D01*
X347273Y122375D01*
Y123687D01*
X345961Y124999D01*
X342026D01*
X355145Y121063D02*
X349897D01*
X355145Y126311D01*
Y127623D01*
X353833Y128935D01*
X351209D01*
X349897Y127623D01*
X363016Y121063D02*
X357769D01*
X363016Y126311D01*
Y127623D01*
X361704Y128935D01*
X359081D01*
X357769Y127623D01*
X365640Y121063D02*
Y126311D01*
X366952D01*
X368264Y124999D01*
Y121063D01*
Y124999D01*
X369576Y126311D01*
X370888Y124999D01*
Y121063D01*
X373512D02*
X376135D01*
X374823D01*
Y126311D01*
X373512D01*
X380071Y121063D02*
X382695D01*
X381383D01*
Y128935D01*
X380071D01*
X397126Y121063D02*
X394502Y123687D01*
Y126311D01*
X397126Y128935D01*
X401062Y127623D02*
X402374Y128935D01*
X404997D01*
X406309Y127623D01*
Y122375D01*
X404997Y121063D01*
X402374D01*
X401062Y122375D01*
Y127623D01*
X408933Y121063D02*
Y122375D01*
X410245D01*
Y121063D01*
X408933D01*
X420740Y128935D02*
X418117Y127623D01*
X415493Y124999D01*
Y122375D01*
X416805Y121063D01*
X419428D01*
X420740Y122375D01*
Y123687D01*
X419428Y124999D01*
X415493D01*
X423364Y121063D02*
Y126311D01*
X424676D01*
X425988Y124999D01*
Y121063D01*
Y124999D01*
X427300Y126311D01*
X428612Y124999D01*
Y121063D01*
X431236D02*
Y126311D01*
X432548D01*
X433859Y124999D01*
Y121063D01*
Y124999D01*
X435171Y126311D01*
X436483Y124999D01*
Y121063D01*
X439107D02*
X441731Y123687D01*
Y126311D01*
X439107Y128935D01*
X797062Y121063D02*
Y128935D01*
X800998D01*
X802310Y127623D01*
Y124999D01*
X800998Y123687D01*
X797062D01*
X804934Y128935D02*
X810181D01*
X807557D01*
Y121063D01*
X812805Y128935D02*
Y121063D01*
Y124999D01*
X818053D01*
Y128935D01*
Y121063D01*
X860668D02*
Y128935D01*
X864604D01*
X865915Y127623D01*
Y124999D01*
X864604Y123687D01*
X860668D01*
X863292D02*
X865915Y121063D01*
X869851D02*
X872475D01*
X873787Y122375D01*
Y124999D01*
X872475Y126311D01*
X869851D01*
X868539Y124999D01*
Y122375D01*
X869851Y121063D01*
X876411Y126311D02*
Y122375D01*
X877723Y121063D01*
X881658D01*
Y126311D01*
X884282Y121063D02*
Y126311D01*
X888218D01*
X889530Y124999D01*
Y121063D01*
X897401Y128935D02*
Y121063D01*
X893466D01*
X892154Y122375D01*
Y124999D01*
X893466Y126311D01*
X897401D01*
X236176Y113187D02*
X233552Y111875D01*
X230929Y109251D01*
Y106627D01*
X232241Y105315D01*
X234864D01*
X236176Y106627D01*
Y107939D01*
X234864Y109251D01*
X230929D01*
X319723Y111875D02*
X321035Y113187D01*
X323659D01*
X324971Y111875D01*
Y110563D01*
X323659Y109251D01*
X322347D01*
X323659D01*
X324971Y107939D01*
Y106627D01*
X323659Y105315D01*
X321035D01*
X319723Y106627D01*
X332842Y113187D02*
X327595D01*
Y109251D01*
X330218Y110563D01*
X331530D01*
X332842Y109251D01*
Y106627D01*
X331530Y105315D01*
X328906D01*
X327595Y106627D01*
X335466Y105315D02*
Y106627D01*
X336778D01*
Y105315D01*
X335466D01*
X345961D02*
Y113187D01*
X342026Y109251D01*
X347273D01*
X349897Y111875D02*
X351209Y113187D01*
X353833D01*
X355145Y111875D01*
Y110563D01*
X353833Y109251D01*
X352521D01*
X353833D01*
X355145Y107939D01*
Y106627D01*
X353833Y105315D01*
X351209D01*
X349897Y106627D01*
X357769Y111875D02*
X359081Y113187D01*
X361704D01*
X363016Y111875D01*
Y110563D01*
X361704Y109251D01*
X360392D01*
X361704D01*
X363016Y107939D01*
Y106627D01*
X361704Y105315D01*
X359081D01*
X357769Y106627D01*
X365640Y105315D02*
Y110563D01*
X366952D01*
X368264Y109251D01*
Y105315D01*
Y109251D01*
X369576Y110563D01*
X370888Y109251D01*
Y105315D01*
X373512D02*
X376135D01*
X374823D01*
Y110563D01*
X373512D01*
X380071Y105315D02*
X382695D01*
X381383D01*
Y113187D01*
X380071D01*
X397126Y105315D02*
X394502Y107939D01*
Y110563D01*
X397126Y113187D01*
X401062Y111875D02*
X402374Y113187D01*
X404997D01*
X406309Y111875D01*
Y106627D01*
X404997Y105315D01*
X402374D01*
X401062Y106627D01*
Y111875D01*
X408933Y105315D02*
Y106627D01*
X410245D01*
Y105315D01*
X408933D01*
X415493Y106627D02*
X416805Y105315D01*
X419428D01*
X420740Y106627D01*
Y111875D01*
X419428Y113187D01*
X416805D01*
X415493Y111875D01*
Y110563D01*
X416805Y109251D01*
X420740D01*
X423364Y105315D02*
Y110563D01*
X424676D01*
X425988Y109251D01*
Y105315D01*
Y109251D01*
X427300Y110563D01*
X428612Y109251D01*
Y105315D01*
X431236D02*
Y110563D01*
X432548D01*
X433859Y109251D01*
Y105315D01*
Y109251D01*
X435171Y110563D01*
X436483Y109251D01*
Y105315D01*
X439107D02*
X441731Y107939D01*
Y110563D01*
X439107Y113187D01*
X797062Y105315D02*
Y113187D01*
X800998D01*
X802310Y111875D01*
Y109251D01*
X800998Y107939D01*
X797062D01*
X804934Y113187D02*
X810181D01*
X807557D01*
Y105315D01*
X812805Y113187D02*
Y105315D01*
Y109251D01*
X818053D01*
Y113187D01*
Y105315D01*
X860668D02*
Y113187D01*
X864604D01*
X865915Y111875D01*
Y109251D01*
X864604Y107939D01*
X860668D01*
X863292D02*
X865915Y105315D01*
X869851D02*
X872475D01*
X873787Y106627D01*
Y109251D01*
X872475Y110563D01*
X869851D01*
X868539Y109251D01*
Y106627D01*
X869851Y105315D01*
X876411Y110563D02*
Y106627D01*
X877723Y105315D01*
X881658D01*
Y110563D01*
X884282Y105315D02*
Y110563D01*
X888218D01*
X889530Y109251D01*
Y105315D01*
X897401Y113187D02*
Y105315D01*
X893466D01*
X892154Y106627D01*
Y109251D01*
X893466Y110563D01*
X897401D01*
X234864Y89567D02*
Y97439D01*
X230929Y93503D01*
X236176D01*
X319723Y96127D02*
X321035Y97439D01*
X323659D01*
X324971Y96127D01*
Y94815D01*
X323659Y93503D01*
X322347D01*
X323659D01*
X324971Y92191D01*
Y90879D01*
X323659Y89567D01*
X321035D01*
X319723Y90879D01*
X332842Y97439D02*
X330218Y96127D01*
X327595Y93503D01*
Y90879D01*
X328906Y89567D01*
X331530D01*
X332842Y90879D01*
Y92191D01*
X331530Y93503D01*
X327595D01*
X335466Y89567D02*
Y90879D01*
X336778D01*
Y89567D01*
X335466D01*
X347273D02*
X342026D01*
X347273Y94815D01*
Y96127D01*
X345961Y97439D01*
X343337D01*
X342026Y96127D01*
X355145Y89567D02*
X349897D01*
X355145Y94815D01*
Y96127D01*
X353833Y97439D01*
X351209D01*
X349897Y96127D01*
X357769Y89567D02*
X360392D01*
X359081D01*
Y97439D01*
X357769Y96127D01*
X364328Y89567D02*
Y94815D01*
X365640D01*
X366952Y93503D01*
Y89567D01*
Y93503D01*
X368264Y94815D01*
X369576Y93503D01*
Y89567D01*
X372200D02*
X374823D01*
X373512D01*
Y94815D01*
X372200D01*
X378759Y89567D02*
X381383D01*
X380071D01*
Y97439D01*
X378759D01*
X395814Y89567D02*
X393190Y92191D01*
Y94815D01*
X395814Y97439D01*
X399750Y96127D02*
X401062Y97439D01*
X403686D01*
X404997Y96127D01*
Y90879D01*
X403686Y89567D01*
X401062D01*
X399750Y90879D01*
Y96127D01*
X407621Y89567D02*
Y90879D01*
X408933D01*
Y89567D01*
X407621D01*
X414181Y90879D02*
X415493Y89567D01*
X418117D01*
X419428Y90879D01*
Y96127D01*
X418117Y97439D01*
X415493D01*
X414181Y96127D01*
Y94815D01*
X415493Y93503D01*
X419428D01*
X427300Y89567D02*
X422052D01*
X427300Y94815D01*
Y96127D01*
X425988Y97439D01*
X423364D01*
X422052Y96127D01*
X429924Y89567D02*
Y94815D01*
X431236D01*
X432548Y93503D01*
Y89567D01*
Y93503D01*
X433859Y94815D01*
X435171Y93503D01*
Y89567D01*
X437795D02*
Y94815D01*
X439107D01*
X440419Y93503D01*
Y89567D01*
Y93503D01*
X441731Y94815D01*
X443043Y93503D01*
Y89567D01*
X445667D02*
X448291Y92191D01*
Y94815D01*
X445667Y97439D01*
X797062Y89567D02*
Y97439D01*
X800998D01*
X802310Y96127D01*
Y93503D01*
X800998Y92191D01*
X797062D01*
X804934Y97439D02*
X810181D01*
X807557D01*
Y89567D01*
X812805Y97439D02*
Y89567D01*
Y93503D01*
X818053D01*
Y97439D01*
Y89567D01*
X860668D02*
Y97439D01*
X864604D01*
X865915Y96127D01*
Y93503D01*
X864604Y92191D01*
X860668D01*
X863292D02*
X865915Y89567D01*
X869851D02*
X872475D01*
X873787Y90879D01*
Y93503D01*
X872475Y94815D01*
X869851D01*
X868539Y93503D01*
Y90879D01*
X869851Y89567D01*
X876411Y94815D02*
Y90879D01*
X877723Y89567D01*
X881658D01*
Y94815D01*
X884282Y89567D02*
Y94815D01*
X888218D01*
X889530Y93503D01*
Y89567D01*
X897401Y97439D02*
Y89567D01*
X893466D01*
X892154Y90879D01*
Y93503D01*
X893466Y94815D01*
X897401D01*
X236176Y73819D02*
X230929D01*
X236176Y79067D01*
Y80379D01*
X234864Y81690D01*
X232241D01*
X230929Y80379D01*
X324971Y81690D02*
X319723D01*
Y77755D01*
X322347Y79067D01*
X323659D01*
X324971Y77755D01*
Y75131D01*
X323659Y73819D01*
X321035D01*
X319723Y75131D01*
X327595Y73819D02*
X330218D01*
X328906D01*
Y81690D01*
X327595Y80379D01*
X334154Y73819D02*
Y75131D01*
X335466D01*
Y73819D01*
X334154D01*
X340714D02*
X343337D01*
X342026D01*
Y81690D01*
X340714Y80379D01*
X347273D02*
X348585Y81690D01*
X351209D01*
X352521Y80379D01*
Y79067D01*
X351209Y77755D01*
X352521Y76443D01*
Y75131D01*
X351209Y73819D01*
X348585D01*
X347273Y75131D01*
Y76443D01*
X348585Y77755D01*
X347273Y79067D01*
Y80379D01*
X348585Y77755D02*
X351209D01*
X355145Y73819D02*
X357769D01*
X356457D01*
Y81690D01*
X355145Y80379D01*
X361704Y73819D02*
Y79067D01*
X363016D01*
X364328Y77755D01*
Y73819D01*
Y77755D01*
X365640Y79067D01*
X366952Y77755D01*
Y73819D01*
X369576D02*
X372200D01*
X370888D01*
Y79067D01*
X369576D01*
X376135Y73819D02*
X378759D01*
X377447D01*
Y81690D01*
X376135D01*
X393190Y73819D02*
X390566Y76443D01*
Y79067D01*
X393190Y81690D01*
X397126Y73819D02*
X399750D01*
X398438D01*
Y81690D01*
X397126Y80379D01*
X403686Y73819D02*
Y75131D01*
X404997D01*
Y73819D01*
X403686D01*
X410245Y80379D02*
X411557Y81690D01*
X414181D01*
X415493Y80379D01*
Y79067D01*
X414181Y77755D01*
X412869D01*
X414181D01*
X415493Y76443D01*
Y75131D01*
X414181Y73819D01*
X411557D01*
X410245Y75131D01*
X418117Y73819D02*
Y79067D01*
X419428D01*
X420740Y77755D01*
Y73819D01*
Y77755D01*
X422052Y79067D01*
X423364Y77755D01*
Y73819D01*
X425988D02*
Y79067D01*
X427300D01*
X428612Y77755D01*
Y73819D01*
Y77755D01*
X429924Y79067D01*
X431236Y77755D01*
Y73819D01*
X433859D02*
X436483Y76443D01*
Y79067D01*
X433859Y81690D01*
X797062Y73819D02*
Y81690D01*
X802310Y73819D01*
Y81690D01*
X804934Y73819D02*
Y81690D01*
X808869D01*
X810181Y80379D01*
Y77755D01*
X808869Y76443D01*
X804934D01*
X812805Y81690D02*
X818053D01*
X815429D01*
Y73819D01*
X820677Y81690D02*
Y73819D01*
Y77755D01*
X825924D01*
Y81690D01*
Y73819D01*
X860668D02*
Y81690D01*
X864604D01*
X865915Y80379D01*
Y77755D01*
X864604Y76443D01*
X860668D01*
X863292D02*
X865915Y73819D01*
X869851D02*
X872475D01*
X873787Y75131D01*
Y77755D01*
X872475Y79067D01*
X869851D01*
X868539Y77755D01*
Y75131D01*
X869851Y73819D01*
X876411Y79067D02*
Y75131D01*
X877723Y73819D01*
X881658D01*
Y79067D01*
X884282Y73819D02*
Y79067D01*
X888218D01*
X889530Y77755D01*
Y73819D01*
X897401Y81690D02*
Y73819D01*
X893466D01*
X892154Y75131D01*
Y77755D01*
X893466Y79067D01*
X897401D01*
X236176Y58071D02*
X230929D01*
X236176Y63319D01*
Y64631D01*
X234864Y65942D01*
X232241D01*
X230929Y64631D01*
X319723Y59383D02*
X321035Y58071D01*
X323659D01*
X324971Y59383D01*
Y64631D01*
X323659Y65942D01*
X321035D01*
X319723Y64631D01*
Y63319D01*
X321035Y62007D01*
X324971D01*
X327595Y64631D02*
X328906Y65942D01*
X331530D01*
X332842Y64631D01*
Y63319D01*
X331530Y62007D01*
X332842Y60695D01*
Y59383D01*
X331530Y58071D01*
X328906D01*
X327595Y59383D01*
Y60695D01*
X328906Y62007D01*
X327595Y63319D01*
Y64631D01*
X328906Y62007D02*
X331530D01*
X335466Y58071D02*
Y59383D01*
X336778D01*
Y58071D01*
X335466D01*
X345961D02*
Y65942D01*
X342026Y62007D01*
X347273D01*
X355145Y58071D02*
X349897D01*
X355145Y63319D01*
Y64631D01*
X353833Y65942D01*
X351209D01*
X349897Y64631D01*
X363016Y65942D02*
X357769D01*
Y62007D01*
X360392Y63319D01*
X361704D01*
X363016Y62007D01*
Y59383D01*
X361704Y58071D01*
X359081D01*
X357769Y59383D01*
X365640Y58071D02*
Y63319D01*
X366952D01*
X368264Y62007D01*
Y58071D01*
Y62007D01*
X369576Y63319D01*
X370888Y62007D01*
Y58071D01*
X373512D02*
X376135D01*
X374823D01*
Y63319D01*
X373512D01*
X380071Y58071D02*
X382695D01*
X381383D01*
Y65942D01*
X380071D01*
X397126Y58071D02*
X394502Y60695D01*
Y63319D01*
X397126Y65942D01*
X406309Y58071D02*
X401062D01*
X406309Y63319D01*
Y64631D01*
X404997Y65942D01*
X402374D01*
X401062Y64631D01*
X408933Y58071D02*
Y59383D01*
X410245D01*
Y58071D01*
X408933D01*
X420740Y65942D02*
X415493D01*
Y62007D01*
X418117Y63319D01*
X419428D01*
X420740Y62007D01*
Y59383D01*
X419428Y58071D01*
X416805D01*
X415493Y59383D01*
X423364Y58071D02*
Y63319D01*
X424676D01*
X425988Y62007D01*
Y58071D01*
Y62007D01*
X427300Y63319D01*
X428612Y62007D01*
Y58071D01*
X431236D02*
Y63319D01*
X432548D01*
X433859Y62007D01*
Y58071D01*
Y62007D01*
X435171Y63319D01*
X436483Y62007D01*
Y58071D01*
X439107D02*
X441731Y60695D01*
Y63319D01*
X439107Y65942D01*
X797062Y58071D02*
Y65942D01*
X802310Y58071D01*
Y65942D01*
X804934Y58071D02*
Y65942D01*
X808869D01*
X810181Y64631D01*
Y62007D01*
X808869Y60695D01*
X804934D01*
X812805Y65942D02*
X818053D01*
X815429D01*
Y58071D01*
X820677Y65942D02*
Y58071D01*
Y62007D01*
X825924D01*
Y65942D01*
Y58071D01*
X860668D02*
Y65942D01*
X864604D01*
X865915Y64631D01*
Y62007D01*
X864604Y60695D01*
X860668D01*
X863292D02*
X865915Y58071D01*
X869851D02*
X872475D01*
X873787Y59383D01*
Y62007D01*
X872475Y63319D01*
X869851D01*
X868539Y62007D01*
Y59383D01*
X869851Y58071D01*
X876411Y63319D02*
Y59383D01*
X877723Y58071D01*
X881658D01*
Y63319D01*
X884282Y58071D02*
Y63319D01*
X888218D01*
X889530Y62007D01*
Y58071D01*
X897401Y65942D02*
Y58071D01*
X893466D01*
X892154Y59383D01*
Y62007D01*
X893466Y63319D01*
X897401D01*
X236176Y42323D02*
X230929D01*
X236176Y47570D01*
Y48882D01*
X234864Y50194D01*
X232241D01*
X230929Y48882D01*
X324971Y42323D02*
X319723D01*
X324971Y47570D01*
Y48882D01*
X323659Y50194D01*
X321035D01*
X319723Y48882D01*
X327595D02*
X328906Y50194D01*
X331530D01*
X332842Y48882D01*
Y47570D01*
X331530Y46259D01*
X330218D01*
X331530D01*
X332842Y44947D01*
Y43635D01*
X331530Y42323D01*
X328906D01*
X327595Y43635D01*
X335466Y42323D02*
Y43635D01*
X336778D01*
Y42323D01*
X335466D01*
X347273Y50194D02*
X344649Y48882D01*
X342026Y46259D01*
Y43635D01*
X343337Y42323D01*
X345961D01*
X347273Y43635D01*
Y44947D01*
X345961Y46259D01*
X342026D01*
X355145Y42323D02*
X349897D01*
X355145Y47570D01*
Y48882D01*
X353833Y50194D01*
X351209D01*
X349897Y48882D01*
X363016Y42323D02*
X357769D01*
X363016Y47570D01*
Y48882D01*
X361704Y50194D01*
X359081D01*
X357769Y48882D01*
X365640Y42323D02*
Y47570D01*
X366952D01*
X368264Y46259D01*
Y42323D01*
Y46259D01*
X369576Y47570D01*
X370888Y46259D01*
Y42323D01*
X373512D02*
X376135D01*
X374823D01*
Y47570D01*
X373512D01*
X380071Y42323D02*
X382695D01*
X381383D01*
Y50194D01*
X380071D01*
X397126Y42323D02*
X394502Y44947D01*
Y47570D01*
X397126Y50194D01*
X401062Y48882D02*
X402374Y50194D01*
X404997D01*
X406309Y48882D01*
Y43635D01*
X404997Y42323D01*
X402374D01*
X401062Y43635D01*
Y48882D01*
X408933Y42323D02*
Y43635D01*
X410245D01*
Y42323D01*
X408933D01*
X420740Y50194D02*
X418117Y48882D01*
X415493Y46259D01*
Y43635D01*
X416805Y42323D01*
X419428D01*
X420740Y43635D01*
Y44947D01*
X419428Y46259D01*
X415493D01*
X423364Y42323D02*
Y47570D01*
X424676D01*
X425988Y46259D01*
Y42323D01*
Y46259D01*
X427300Y47570D01*
X428612Y46259D01*
Y42323D01*
X431236D02*
Y47570D01*
X432548D01*
X433859Y46259D01*
Y42323D01*
Y46259D01*
X435171Y47570D01*
X436483Y46259D01*
Y42323D01*
X439107D02*
X441731Y44947D01*
Y47570D01*
X439107Y50194D01*
X493530D02*
X498777D01*
Y48882D01*
X493530Y43635D01*
Y42323D01*
X501401Y48882D02*
X502713Y50194D01*
X505337D01*
X506649Y48882D01*
Y47570D01*
X505337Y46259D01*
X506649Y44947D01*
Y43635D01*
X505337Y42323D01*
X502713D01*
X501401Y43635D01*
Y44947D01*
X502713Y46259D01*
X501401Y47570D01*
Y48882D01*
X502713Y46259D02*
X505337D01*
X509272Y42323D02*
Y43635D01*
X510584D01*
Y42323D01*
X509272D01*
X515832Y50194D02*
X521080D01*
Y48882D01*
X515832Y43635D01*
Y42323D01*
X527639D02*
Y50194D01*
X523703Y46259D01*
X528951D01*
X531575Y42323D02*
Y47570D01*
X532887D01*
X534199Y46259D01*
Y42323D01*
Y46259D01*
X535511Y47570D01*
X536823Y46259D01*
Y42323D01*
X539446D02*
X542070D01*
X540758D01*
Y47570D01*
X539446D01*
X546006Y42323D02*
X548630D01*
X547318D01*
Y50194D01*
X546006D01*
X563061Y42323D02*
X560437Y44947D01*
Y47570D01*
X563061Y50194D01*
X572244Y42323D02*
X566997D01*
X572244Y47570D01*
Y48882D01*
X570932Y50194D01*
X568308D01*
X566997Y48882D01*
X574868Y42323D02*
Y47570D01*
X576180D01*
X577492Y46259D01*
Y42323D01*
Y46259D01*
X578804Y47570D01*
X580116Y46259D01*
Y42323D01*
X582740D02*
Y47570D01*
X584052D01*
X585363Y46259D01*
Y42323D01*
Y46259D01*
X586675Y47570D01*
X587987Y46259D01*
Y42323D01*
X590611D02*
X593235Y44947D01*
Y47570D01*
X590611Y50194D01*
X645821D02*
X640573D01*
Y46259D01*
X643197Y47570D01*
X644509D01*
X645821Y46259D01*
Y43635D01*
X644509Y42323D01*
X641885D01*
X640573Y43635D01*
X653692Y50194D02*
X648444D01*
Y46259D01*
X651068Y47570D01*
X652380D01*
X653692Y46259D01*
Y43635D01*
X652380Y42323D01*
X649756D01*
X648444Y43635D01*
X656316Y42323D02*
Y43635D01*
X657628D01*
Y42323D01*
X656316D01*
X662875D02*
X665499D01*
X664187D01*
Y50194D01*
X662875Y48882D01*
X669435Y42323D02*
X672059D01*
X670747D01*
Y50194D01*
X669435Y48882D01*
X675994D02*
X677307Y50194D01*
X679930D01*
X681242Y48882D01*
Y47570D01*
X679930Y46259D01*
X681242Y44947D01*
Y43635D01*
X679930Y42323D01*
X677307D01*
X675994Y43635D01*
Y44947D01*
X677307Y46259D01*
X675994Y47570D01*
Y48882D01*
X677307Y46259D02*
X679930D01*
X683866Y42323D02*
Y47570D01*
X685178D01*
X686490Y46259D01*
Y42323D01*
Y46259D01*
X687802Y47570D01*
X689114Y46259D01*
Y42323D01*
X691738D02*
X694361D01*
X693049D01*
Y47570D01*
X691738D01*
X698297Y42323D02*
X700921D01*
X699609D01*
Y50194D01*
X698297D01*
X715352Y42323D02*
X712728Y44947D01*
Y47570D01*
X715352Y50194D01*
X719288Y42323D02*
X721911D01*
X720600D01*
Y50194D01*
X719288Y48882D01*
X725847Y42323D02*
Y43635D01*
X727159D01*
Y42323D01*
X725847D01*
X736342D02*
Y50194D01*
X732407Y46259D01*
X737654D01*
X740278Y42323D02*
Y47570D01*
X741590D01*
X742902Y46259D01*
Y42323D01*
Y46259D01*
X744214Y47570D01*
X745526Y46259D01*
Y42323D01*
X748150D02*
Y47570D01*
X749462D01*
X750774Y46259D01*
Y42323D01*
Y46259D01*
X752085Y47570D01*
X753397Y46259D01*
Y42323D01*
X756021D02*
X758645Y44947D01*
Y47570D01*
X756021Y50194D01*
X797062Y42323D02*
Y50194D01*
X800998D01*
X802310Y48882D01*
Y46259D01*
X800998Y44947D01*
X797062D01*
X804934Y50194D02*
X810181D01*
X807557D01*
Y42323D01*
X812805Y50194D02*
Y42323D01*
Y46259D01*
X818053D01*
Y50194D01*
Y42323D01*
X865915Y48882D02*
X864604Y50194D01*
X861980D01*
X860668Y48882D01*
Y47570D01*
X861980Y46259D01*
X864604D01*
X865915Y44947D01*
Y43635D01*
X864604Y42323D01*
X861980D01*
X860668Y43635D01*
X868539Y42323D02*
X871163D01*
X869851D01*
Y50194D01*
X868539D01*
X876411Y42323D02*
X879035D01*
X880346Y43635D01*
Y46259D01*
X879035Y47570D01*
X876411D01*
X875099Y46259D01*
Y43635D01*
X876411Y42323D01*
X884282Y48882D02*
Y47570D01*
X882970D01*
X885594D01*
X884282D01*
Y43635D01*
X885594Y42323D01*
X230929Y33134D02*
X232241Y34446D01*
X234864D01*
X236176Y33134D01*
Y31822D01*
X234864Y30511D01*
X233552D01*
X234864D01*
X236176Y29199D01*
Y27887D01*
X234864Y26575D01*
X232241D01*
X230929Y27887D01*
X319723Y33134D02*
X321035Y34446D01*
X323659D01*
X324971Y33134D01*
Y31822D01*
X323659Y30511D01*
X322347D01*
X323659D01*
X324971Y29199D01*
Y27887D01*
X323659Y26575D01*
X321035D01*
X319723Y27887D01*
X327595Y26575D02*
X330218D01*
X328906D01*
Y34446D01*
X327595Y33134D01*
X334154Y26575D02*
Y27887D01*
X335466D01*
Y26575D01*
X334154D01*
X344649D02*
Y34446D01*
X340714Y30511D01*
X345961D01*
X348585Y27887D02*
X349897Y26575D01*
X352521D01*
X353833Y27887D01*
Y33134D01*
X352521Y34446D01*
X349897D01*
X348585Y33134D01*
Y31822D01*
X349897Y30511D01*
X353833D01*
X361704Y34446D02*
X359081Y33134D01*
X356457Y30511D01*
Y27887D01*
X357769Y26575D01*
X360392D01*
X361704Y27887D01*
Y29199D01*
X360392Y30511D01*
X356457D01*
X364328Y26575D02*
Y31822D01*
X365640D01*
X366952Y30511D01*
Y26575D01*
Y30511D01*
X368264Y31822D01*
X369576Y30511D01*
Y26575D01*
X372200D02*
X374823D01*
X373512D01*
Y31822D01*
X372200D01*
X378759Y26575D02*
X381383D01*
X380071D01*
Y34446D01*
X378759D01*
X395814Y26575D02*
X393190Y29199D01*
Y31822D01*
X395814Y34446D01*
X399750Y33134D02*
X401062Y34446D01*
X403686D01*
X404997Y33134D01*
Y27887D01*
X403686Y26575D01*
X401062D01*
X399750Y27887D01*
Y33134D01*
X407621Y26575D02*
Y27887D01*
X408933D01*
Y26575D01*
X407621D01*
X414181Y33134D02*
X415493Y34446D01*
X418117D01*
X419428Y33134D01*
Y31822D01*
X418117Y30511D01*
X419428Y29199D01*
Y27887D01*
X418117Y26575D01*
X415493D01*
X414181Y27887D01*
Y29199D01*
X415493Y30511D01*
X414181Y31822D01*
Y33134D01*
X415493Y30511D02*
X418117D01*
X422052Y26575D02*
Y31822D01*
X423364D01*
X424676Y30511D01*
Y26575D01*
Y30511D01*
X425988Y31822D01*
X427300Y30511D01*
Y26575D01*
X429924D02*
Y31822D01*
X431236D01*
X432548Y30511D01*
Y26575D01*
Y30511D01*
X433859Y31822D01*
X435171Y30511D01*
Y26575D01*
X437795D02*
X440419Y29199D01*
Y31822D01*
X437795Y34446D01*
X497465Y26575D02*
Y34446D01*
X493530Y30511D01*
X498777D01*
X501401Y34446D02*
X506649D01*
Y33134D01*
X501401Y27887D01*
Y26575D01*
X509272D02*
Y27887D01*
X510584D01*
Y26575D01*
X509272D01*
X521080D02*
X515832D01*
X521080Y31822D01*
Y33134D01*
X519768Y34446D01*
X517144D01*
X515832Y33134D01*
X527639Y26575D02*
Y34446D01*
X523703Y30511D01*
X528951D01*
X535511Y26575D02*
Y34446D01*
X531575Y30511D01*
X536823D01*
X539446Y26575D02*
Y31822D01*
X540758D01*
X542070Y30511D01*
Y26575D01*
Y30511D01*
X543382Y31822D01*
X544694Y30511D01*
Y26575D01*
X547318D02*
X549942D01*
X548630D01*
Y31822D01*
X547318D01*
X553877Y26575D02*
X556501D01*
X555189D01*
Y34446D01*
X553877D01*
X570932Y26575D02*
X568309Y29199D01*
Y31822D01*
X570932Y34446D01*
X574868Y26575D02*
X577492D01*
X576180D01*
Y34446D01*
X574868Y33134D01*
X581428Y26575D02*
Y27887D01*
X582740D01*
Y26575D01*
X581428D01*
X593235D02*
X587987D01*
X593235Y31822D01*
Y33134D01*
X591923Y34446D01*
X589299D01*
X587987Y33134D01*
X595859Y26575D02*
Y31822D01*
X597171D01*
X598483Y30511D01*
Y26575D01*
Y30511D01*
X599794Y31822D01*
X601106Y30511D01*
Y26575D01*
X603730D02*
Y31822D01*
X605042D01*
X606354Y30511D01*
Y26575D01*
Y30511D01*
X607666Y31822D01*
X608978Y30511D01*
Y26575D01*
X611602D02*
X614225Y29199D01*
Y31822D01*
X611602Y34446D01*
X640573Y26575D02*
X643197D01*
X641885D01*
Y34446D01*
X640573Y33134D01*
X652380Y34446D02*
X647132D01*
Y30511D01*
X649756Y31822D01*
X651068D01*
X652380Y30511D01*
Y27887D01*
X651068Y26575D01*
X648444D01*
X647132Y27887D01*
X655004Y26575D02*
Y27887D01*
X656316D01*
Y26575D01*
X655004D01*
X661563Y34446D02*
X666811D01*
Y33134D01*
X661563Y27887D01*
Y26575D01*
X673371D02*
Y34446D01*
X669435Y30511D01*
X674683D01*
X677307Y33134D02*
X678618Y34446D01*
X681242D01*
X682554Y33134D01*
Y31822D01*
X681242Y30511D01*
X682554Y29199D01*
Y27887D01*
X681242Y26575D01*
X678618D01*
X677307Y27887D01*
Y29199D01*
X678618Y30511D01*
X677307Y31822D01*
Y33134D01*
X678618Y30511D02*
X681242D01*
X685178Y26575D02*
Y31822D01*
X686490D01*
X687802Y30511D01*
Y26575D01*
Y30511D01*
X689114Y31822D01*
X690426Y30511D01*
Y26575D01*
X693049D02*
X695673D01*
X694361D01*
Y31822D01*
X693049D01*
X699609Y26575D02*
X702233D01*
X700921D01*
Y34446D01*
X699609D01*
X716664Y26575D02*
X714040Y29199D01*
Y31822D01*
X716664Y34446D01*
X720600Y33134D02*
X721911Y34446D01*
X724535D01*
X725847Y33134D01*
Y27887D01*
X724535Y26575D01*
X721911D01*
X720600Y27887D01*
Y33134D01*
X728471Y26575D02*
Y27887D01*
X729783D01*
Y26575D01*
X728471D01*
X738966D02*
Y34446D01*
X735031Y30511D01*
X740278D01*
X742902Y26575D02*
Y31822D01*
X744214D01*
X745526Y30511D01*
Y26575D01*
Y30511D01*
X746838Y31822D01*
X748150Y30511D01*
Y26575D01*
X750774D02*
Y31822D01*
X752085D01*
X753397Y30511D01*
Y26575D01*
Y30511D01*
X754709Y31822D01*
X756021Y30511D01*
Y26575D01*
X758645D02*
X761269Y29199D01*
Y31822D01*
X758645Y34446D01*
X797062Y26575D02*
Y34446D01*
X800998D01*
X802310Y33134D01*
Y30511D01*
X800998Y29199D01*
X797062D01*
X804934Y34446D02*
X810181D01*
X807557D01*
Y26575D01*
X812805Y34446D02*
Y26575D01*
Y30511D01*
X818053D01*
Y34446D01*
Y26575D01*
X865915Y33134D02*
X864604Y34446D01*
X861980D01*
X860668Y33134D01*
Y31822D01*
X861980Y30511D01*
X864604D01*
X865915Y29199D01*
Y27887D01*
X864604Y26575D01*
X861980D01*
X860668Y27887D01*
X868539Y26575D02*
X871163D01*
X869851D01*
Y34446D01*
X868539D01*
X876411Y26575D02*
X879035D01*
X880346Y27887D01*
Y30511D01*
X879035Y31822D01*
X876411D01*
X875099Y30511D01*
Y27887D01*
X876411Y26575D01*
X884282Y33134D02*
Y31822D01*
X882970D01*
X885594D01*
X884282D01*
Y27887D01*
X885594Y26575D01*
X234864Y10827D02*
Y18698D01*
X230929Y14762D01*
X236176D01*
X319723Y17386D02*
X321035Y18698D01*
X323659D01*
X324971Y17386D01*
Y16074D01*
X323659Y14762D01*
X322347D01*
X323659D01*
X324971Y13451D01*
Y12139D01*
X323659Y10827D01*
X321035D01*
X319723Y12139D01*
X327595D02*
X328906Y10827D01*
X331530D01*
X332842Y12139D01*
Y17386D01*
X331530Y18698D01*
X328906D01*
X327595Y17386D01*
Y16074D01*
X328906Y14762D01*
X332842D01*
X335466Y10827D02*
Y12139D01*
X336778D01*
Y10827D01*
X335466D01*
X342026Y17386D02*
X343337Y18698D01*
X345961D01*
X347273Y17386D01*
Y16074D01*
X345961Y14762D01*
X344649D01*
X345961D01*
X347273Y13451D01*
Y12139D01*
X345961Y10827D01*
X343337D01*
X342026Y12139D01*
X349897Y18698D02*
X355145D01*
Y17386D01*
X349897Y12139D01*
Y10827D01*
X357769D02*
Y16074D01*
X359081D01*
X360392Y14762D01*
Y10827D01*
Y14762D01*
X361704Y16074D01*
X363016Y14762D01*
Y10827D01*
X365640D02*
X368264D01*
X366952D01*
Y16074D01*
X365640D01*
X372200Y10827D02*
X374823D01*
X373512D01*
Y18698D01*
X372200D01*
X389254Y10827D02*
X386631Y13451D01*
Y16074D01*
X389254Y18698D01*
X393190Y10827D02*
X395814D01*
X394502D01*
Y18698D01*
X393190Y17386D01*
X399750Y10827D02*
Y16074D01*
X401062D01*
X402374Y14762D01*
Y10827D01*
Y14762D01*
X403686Y16074D01*
X404997Y14762D01*
Y10827D01*
X407621D02*
Y16074D01*
X408933D01*
X410245Y14762D01*
Y10827D01*
Y14762D01*
X411557Y16074D01*
X412869Y14762D01*
Y10827D01*
X415493D02*
X418117Y13451D01*
Y16074D01*
X415493Y18698D01*
X498777D02*
X493530D01*
Y14762D01*
X496153Y16074D01*
X497465D01*
X498777Y14762D01*
Y12139D01*
X497465Y10827D01*
X494841D01*
X493530Y12139D01*
X501401D02*
X502713Y10827D01*
X505337D01*
X506649Y12139D01*
Y17386D01*
X505337Y18698D01*
X502713D01*
X501401Y17386D01*
Y16074D01*
X502713Y14762D01*
X506649D01*
X509272Y10827D02*
Y12139D01*
X510584D01*
Y10827D01*
X509272D01*
X515832Y17386D02*
X517144Y18698D01*
X519768D01*
X521080Y17386D01*
Y12139D01*
X519768Y10827D01*
X517144D01*
X515832Y12139D01*
Y17386D01*
X528951Y18698D02*
X523703D01*
Y14762D01*
X526327Y16074D01*
X527639D01*
X528951Y14762D01*
Y12139D01*
X527639Y10827D01*
X525015D01*
X523703Y12139D01*
X536823Y18698D02*
X531575D01*
Y14762D01*
X534199Y16074D01*
X535511D01*
X536823Y14762D01*
Y12139D01*
X535511Y10827D01*
X532887D01*
X531575Y12139D01*
X539446Y10827D02*
Y16074D01*
X540758D01*
X542070Y14762D01*
Y10827D01*
Y14762D01*
X543382Y16074D01*
X544694Y14762D01*
Y10827D01*
X547318D02*
X549942D01*
X548630D01*
Y16074D01*
X547318D01*
X553877Y10827D02*
X556501D01*
X555189D01*
Y18698D01*
X553877D01*
X570932Y10827D02*
X568309Y13451D01*
Y16074D01*
X570932Y18698D01*
X574868Y10827D02*
X577492D01*
X576180D01*
Y18698D01*
X574868Y17386D01*
X581428Y10827D02*
Y12139D01*
X582740D01*
Y10827D01*
X581428D01*
X593235Y18698D02*
X587987D01*
Y14762D01*
X590611Y16074D01*
X591923D01*
X593235Y14762D01*
Y12139D01*
X591923Y10827D01*
X589299D01*
X587987Y12139D01*
X595859Y10827D02*
Y16074D01*
X597171D01*
X598483Y14762D01*
Y10827D01*
Y14762D01*
X599794Y16074D01*
X601106Y14762D01*
Y10827D01*
X603730D02*
Y16074D01*
X605042D01*
X606354Y14762D01*
Y10827D01*
Y14762D01*
X607666Y16074D01*
X608978Y14762D01*
Y10827D01*
X611602D02*
X614225Y13451D01*
Y16074D01*
X611602Y18698D01*
X640573Y10827D02*
X643197D01*
X641885D01*
Y18698D01*
X640573Y17386D01*
X647132Y12139D02*
X648444Y10827D01*
X651068D01*
X652380Y12139D01*
Y17386D01*
X651068Y18698D01*
X648444D01*
X647132Y17386D01*
Y16074D01*
X648444Y14762D01*
X652380D01*
X655004Y10827D02*
Y12139D01*
X656316D01*
Y10827D01*
X655004D01*
X666811Y18698D02*
X664187Y17386D01*
X661563Y14762D01*
Y12139D01*
X662875Y10827D01*
X665499D01*
X666811Y12139D01*
Y13451D01*
X665499Y14762D01*
X661563D01*
X669435Y17386D02*
X670747Y18698D01*
X673371D01*
X674683Y17386D01*
Y16074D01*
X673371Y14762D01*
X674683Y13451D01*
Y12139D01*
X673371Y10827D01*
X670747D01*
X669435Y12139D01*
Y13451D01*
X670747Y14762D01*
X669435Y16074D01*
Y17386D01*
X670747Y14762D02*
X673371D01*
X682554Y18698D02*
X677307D01*
Y14762D01*
X679930Y16074D01*
X681242D01*
X682554Y14762D01*
Y12139D01*
X681242Y10827D01*
X678618D01*
X677307Y12139D01*
X685178Y10827D02*
Y16074D01*
X686490D01*
X687802Y14762D01*
Y10827D01*
Y14762D01*
X689114Y16074D01*
X690426Y14762D01*
Y10827D01*
X693049D02*
X695673D01*
X694361D01*
Y16074D01*
X693049D01*
X699609Y10827D02*
X702233D01*
X700921D01*
Y18698D01*
X699609D01*
X716664Y10827D02*
X714040Y13451D01*
Y16074D01*
X716664Y18698D01*
X720600Y17386D02*
X721911Y18698D01*
X724535D01*
X725847Y17386D01*
Y12139D01*
X724535Y10827D01*
X721911D01*
X720600Y12139D01*
Y17386D01*
X728471Y10827D02*
Y12139D01*
X729783D01*
Y10827D01*
X728471D01*
X740278Y18698D02*
X735031D01*
Y14762D01*
X737654Y16074D01*
X738966D01*
X740278Y14762D01*
Y12139D01*
X738966Y10827D01*
X736342D01*
X735031Y12139D01*
X742902Y10827D02*
Y16074D01*
X744214D01*
X745526Y14762D01*
Y10827D01*
Y14762D01*
X746838Y16074D01*
X748150Y14762D01*
Y10827D01*
X750774D02*
Y16074D01*
X752085D01*
X753397Y14762D01*
Y10827D01*
Y14762D01*
X754709Y16074D01*
X756021Y14762D01*
Y10827D01*
X758645D02*
X761269Y13451D01*
Y16074D01*
X758645Y18698D01*
X797062Y10827D02*
Y18698D01*
X800998D01*
X802310Y17386D01*
Y14762D01*
X800998Y13451D01*
X797062D01*
X804934Y18698D02*
X810181D01*
X807557D01*
Y10827D01*
X812805Y18698D02*
Y10827D01*
Y14762D01*
X818053D01*
Y18698D01*
Y10827D01*
X865915Y17386D02*
X864604Y18698D01*
X861980D01*
X860668Y17386D01*
Y16074D01*
X861980Y14762D01*
X864604D01*
X865915Y13451D01*
Y12139D01*
X864604Y10827D01*
X861980D01*
X860668Y12139D01*
X868539Y10827D02*
X871163D01*
X869851D01*
Y18698D01*
X868539D01*
X876411Y10827D02*
X879035D01*
X880346Y12139D01*
Y14762D01*
X879035Y16074D01*
X876411D01*
X875099Y14762D01*
Y12139D01*
X876411Y10827D01*
X884282Y17386D02*
Y16074D01*
X882970D01*
X885594D01*
X884282D01*
Y12139D01*
X885594Y10827D01*
X234864Y-4921D02*
Y2950D01*
X230929Y-986D01*
X236176D01*
X242736Y-4921D02*
Y2950D01*
X238800Y-986D01*
X244048D01*
X256331Y2950D02*
X261579D01*
X258955D01*
Y-4921D01*
X265515D02*
X268138D01*
X269450Y-3609D01*
Y-986D01*
X268138Y326D01*
X265515D01*
X264203Y-986D01*
Y-3609D01*
X265515Y-4921D01*
X273386Y1638D02*
Y326D01*
X272074D01*
X274698D01*
X273386D01*
Y-3609D01*
X274698Y-4921D01*
X279946Y326D02*
X282570D01*
X283881Y-986D01*
Y-4921D01*
X279946D01*
X278634Y-3609D01*
X279946Y-2297D01*
X283881D01*
X286505Y-4921D02*
X289129D01*
X287817D01*
Y2950D01*
X286505D01*
X435640Y-18045D02*
X440888D01*
X435640Y-15422D02*
X440888D01*
X456631Y-14110D02*
X455319Y-12798D01*
X452695D01*
X451383Y-14110D01*
Y-19357D01*
X452695Y-20669D01*
X455319D01*
X456631Y-19357D01*
X460567Y-15422D02*
X463190D01*
X464502Y-16734D01*
Y-20669D01*
X460567D01*
X459255Y-19357D01*
X460567Y-18045D01*
X464502D01*
X467126Y-20669D02*
X469750D01*
X468438D01*
Y-12798D01*
X467126D01*
X478933Y-15422D02*
X474998D01*
X473686Y-16734D01*
Y-19357D01*
X474998Y-20669D01*
X478933D01*
X481557Y-15422D02*
Y-19357D01*
X482869Y-20669D01*
X486805D01*
Y-15422D01*
X489429Y-20669D02*
X492052D01*
X490740D01*
Y-12798D01*
X489429D01*
X497300Y-15422D02*
X499924D01*
X501236Y-16734D01*
Y-20669D01*
X497300D01*
X495988Y-19357D01*
X497300Y-18045D01*
X501236D01*
X505171Y-14110D02*
Y-15422D01*
X503860D01*
X506483D01*
X505171D01*
Y-19357D01*
X506483Y-20669D01*
X514355D02*
X511731D01*
X510419Y-19357D01*
Y-16734D01*
X511731Y-15422D01*
X514355D01*
X515667Y-16734D01*
Y-18045D01*
X510419D01*
X523538Y-12798D02*
Y-20669D01*
X519603D01*
X518291Y-19357D01*
Y-16734D01*
X519603Y-15422D01*
X523538D01*
X535346Y-20669D02*
Y-14110D01*
Y-16734D01*
X534034D01*
X536657D01*
X535346D01*
Y-14110D01*
X536657Y-12798D01*
X540593Y-15422D02*
Y-20669D01*
Y-18045D01*
X541905Y-16734D01*
X543217Y-15422D01*
X544529D01*
X549777Y-20669D02*
X552400D01*
X553712Y-19357D01*
Y-16734D01*
X552400Y-15422D01*
X549777D01*
X548465Y-16734D01*
Y-19357D01*
X549777Y-20669D01*
X556336D02*
Y-15422D01*
X557648D01*
X558960Y-16734D01*
Y-20669D01*
Y-16734D01*
X560272Y-15422D01*
X561584Y-16734D01*
Y-20669D01*
X573391Y-14110D02*
Y-15422D01*
X572079D01*
X574703D01*
X573391D01*
Y-19357D01*
X574703Y-20669D01*
X579951D02*
X582574D01*
X583886Y-19357D01*
Y-16734D01*
X582574Y-15422D01*
X579951D01*
X578639Y-16734D01*
Y-19357D01*
X579951Y-20669D01*
X587822D02*
X590446D01*
X591758Y-19357D01*
Y-16734D01*
X590446Y-15422D01*
X587822D01*
X586510Y-16734D01*
Y-19357D01*
X587822Y-20669D01*
X594382D02*
X597005D01*
X595693D01*
Y-12798D01*
X594382D01*
X608813Y-20669D02*
X612748D01*
X614060Y-19357D01*
X612748Y-18045D01*
X610125D01*
X608813Y-16734D01*
X610125Y-15422D01*
X614060D01*
X617996Y-14110D02*
Y-15422D01*
X616684D01*
X619308D01*
X617996D01*
Y-19357D01*
X619308Y-20669D01*
X624556Y-15422D02*
X627179D01*
X628491Y-16734D01*
Y-20669D01*
X624556D01*
X623244Y-19357D01*
X624556Y-18045D01*
X628491D01*
X631115Y-15422D02*
Y-20669D01*
Y-18045D01*
X632427Y-16734D01*
X633739Y-15422D01*
X635051D01*
X640299Y-14110D02*
Y-15422D01*
X638987D01*
X641610D01*
X640299D01*
Y-19357D01*
X641610Y-20669D01*
X658665Y-15422D02*
X654730D01*
X653418Y-16734D01*
Y-19357D01*
X654730Y-20669D01*
X658665D01*
X665225D02*
X662601D01*
X661289Y-19357D01*
Y-16734D01*
X662601Y-15422D01*
X665225D01*
X666537Y-16734D01*
Y-18045D01*
X661289D01*
X669161Y-20669D02*
Y-15422D01*
X673096D01*
X674408Y-16734D01*
Y-20669D01*
X678344Y-14110D02*
Y-15422D01*
X677032D01*
X679656D01*
X678344D01*
Y-19357D01*
X679656Y-20669D01*
X683592Y-15422D02*
Y-20669D01*
Y-18045D01*
X684904Y-16734D01*
X686215Y-15422D01*
X687527D01*
X695399Y-20669D02*
X692775D01*
X691463Y-19357D01*
Y-16734D01*
X692775Y-15422D01*
X695399D01*
X696711Y-16734D01*
Y-18045D01*
X691463D01*
X707206Y-23293D02*
Y-15422D01*
X711142D01*
X712454Y-16734D01*
Y-19357D01*
X711142Y-20669D01*
X707206D01*
X716390D02*
X719013D01*
X720325Y-19357D01*
Y-16734D01*
X719013Y-15422D01*
X716390D01*
X715078Y-16734D01*
Y-19357D01*
X716390Y-20669D01*
X722949D02*
X726885D01*
X728197Y-19357D01*
X726885Y-18045D01*
X724261D01*
X722949Y-16734D01*
X724261Y-15422D01*
X728197D01*
X730821Y-20669D02*
X733444D01*
X732132D01*
Y-15422D01*
X730821D01*
X738692Y-14110D02*
Y-15422D01*
X737380D01*
X740004D01*
X738692D01*
Y-19357D01*
X740004Y-20669D01*
X743940D02*
X746563D01*
X745252D01*
Y-15422D01*
X743940D01*
X751811Y-20669D02*
X754435D01*
X755747Y-19357D01*
Y-16734D01*
X754435Y-15422D01*
X751811D01*
X750499Y-16734D01*
Y-19357D01*
X751811Y-20669D01*
X758371D02*
Y-15422D01*
X762306D01*
X763618Y-16734D01*
Y-20669D01*
X775426Y-14110D02*
Y-15422D01*
X774114D01*
X776737D01*
X775426D01*
Y-19357D01*
X776737Y-20669D01*
X781985D02*
X784609D01*
X785921Y-19357D01*
Y-16734D01*
X784609Y-15422D01*
X781985D01*
X780673Y-16734D01*
Y-19357D01*
X781985Y-20669D01*
X797728Y-14110D02*
Y-15422D01*
X796416D01*
X799040D01*
X797728D01*
Y-19357D01*
X799040Y-20669D01*
X804288D02*
X806911D01*
X808223Y-19357D01*
Y-16734D01*
X806911Y-15422D01*
X804288D01*
X802976Y-16734D01*
Y-19357D01*
X804288Y-20669D01*
X812159D02*
X814783D01*
X816095Y-19357D01*
Y-16734D01*
X814783Y-15422D01*
X812159D01*
X810847Y-16734D01*
Y-19357D01*
X812159Y-20669D01*
X818719D02*
X821342D01*
X820031D01*
Y-12798D01*
X818719D01*
X837086Y-20669D02*
X834462D01*
X833150Y-19357D01*
Y-16734D01*
X834462Y-15422D01*
X837086D01*
X838397Y-16734D01*
Y-18045D01*
X833150D01*
X841021Y-20669D02*
Y-15422D01*
X844957D01*
X846269Y-16734D01*
Y-20669D01*
X854140Y-12798D02*
Y-20669D01*
X850205D01*
X848893Y-19357D01*
Y-16734D01*
X850205Y-15422D01*
X854140D01*
X869883D02*
X865948D01*
X864636Y-16734D01*
Y-19357D01*
X865948Y-20669D01*
X869883D01*
X876443D02*
X873819D01*
X872507Y-19357D01*
Y-16734D01*
X873819Y-15422D01*
X876443D01*
X877755Y-16734D01*
Y-18045D01*
X872507D01*
X880379Y-20669D02*
Y-15422D01*
X884314D01*
X885626Y-16734D01*
Y-20669D01*
X889562Y-14110D02*
Y-15422D01*
X888250D01*
X890874D01*
X889562D01*
Y-19357D01*
X890874Y-20669D01*
X894810Y-15422D02*
Y-20669D01*
Y-18045D01*
X896122Y-16734D01*
X897433Y-15422D01*
X898745D01*
X906617Y-20669D02*
X903993D01*
X902681Y-19357D01*
Y-16734D01*
X903993Y-15422D01*
X906617D01*
X907929Y-16734D01*
Y-18045D01*
X902681D01*
X918424Y-23293D02*
Y-15422D01*
X922360D01*
X923672Y-16734D01*
Y-19357D01*
X922360Y-20669D01*
X918424D01*
X927608D02*
X930231D01*
X931543Y-19357D01*
Y-16734D01*
X930231Y-15422D01*
X927608D01*
X926296Y-16734D01*
Y-19357D01*
X927608Y-20669D01*
X934167D02*
X938103D01*
X939415Y-19357D01*
X938103Y-18045D01*
X935479D01*
X934167Y-16734D01*
X935479Y-15422D01*
X939415D01*
X942039Y-20669D02*
X944662D01*
X943351D01*
Y-15422D01*
X942039D01*
X949910Y-14110D02*
Y-15422D01*
X948598D01*
X951222D01*
X949910D01*
Y-19357D01*
X951222Y-20669D01*
X955158D02*
X957782D01*
X956470D01*
Y-15422D01*
X955158D01*
X963029Y-20669D02*
X965653D01*
X966965Y-19357D01*
Y-16734D01*
X965653Y-15422D01*
X963029D01*
X961717Y-16734D01*
Y-19357D01*
X963029Y-20669D01*
X969589D02*
Y-15422D01*
X973524D01*
X974836Y-16734D01*
Y-20669D01*
X977460D02*
Y-19357D01*
X978772D01*
Y-20669D01*
X977460D01*
X435640Y-33794D02*
X440888D01*
X435640Y-31170D02*
X440888D01*
X451383Y-36417D02*
Y-28546D01*
X455319D01*
X456631Y-29858D01*
Y-32482D01*
X455319Y-33794D01*
X451383D01*
X454007D02*
X456631Y-36417D01*
X460567D02*
X463190D01*
X464502Y-35105D01*
Y-32482D01*
X463190Y-31170D01*
X460567D01*
X459255Y-32482D01*
Y-35105D01*
X460567Y-36417D01*
X467126Y-31170D02*
Y-35105D01*
X468438Y-36417D01*
X472374D01*
Y-31170D01*
X476309Y-29858D02*
Y-31170D01*
X474998D01*
X477621D01*
X476309D01*
Y-35105D01*
X477621Y-36417D01*
X489429D02*
Y-28546D01*
X493364D01*
X494676Y-29858D01*
Y-32482D01*
X493364Y-33794D01*
X489429D01*
X498612Y-31170D02*
X501236D01*
X502548Y-32482D01*
Y-36417D01*
X498612D01*
X497300Y-35105D01*
X498612Y-33794D01*
X502548D01*
X506483Y-29858D02*
Y-31170D01*
X505171D01*
X507795D01*
X506483D01*
Y-35105D01*
X507795Y-36417D01*
X511731Y-28546D02*
Y-36417D01*
Y-32482D01*
X513043Y-31170D01*
X515667D01*
X516979Y-32482D01*
Y-36417D01*
X527474Y-28546D02*
Y-36417D01*
X532722D01*
X539281D02*
X536657D01*
X535346Y-35105D01*
Y-32482D01*
X536657Y-31170D01*
X539281D01*
X540593Y-32482D01*
Y-33794D01*
X535346D01*
X543217Y-36417D02*
Y-31170D01*
X547153D01*
X548465Y-32482D01*
Y-36417D01*
X553712Y-39041D02*
X555024D01*
X556336Y-37729D01*
Y-31170D01*
X552400D01*
X551088Y-32482D01*
Y-35105D01*
X552400Y-36417D01*
X556336D01*
X560272Y-29858D02*
Y-31170D01*
X558960D01*
X561584D01*
X560272D01*
Y-35105D01*
X561584Y-36417D01*
X565520Y-28546D02*
Y-36417D01*
Y-32482D01*
X566831Y-31170D01*
X569455D01*
X570767Y-32482D01*
Y-36417D01*
X581262Y-32482D02*
X586510D01*
X583886Y-29858D02*
Y-35105D01*
X597006Y-28546D02*
X602253D01*
X599629D01*
Y-36417D01*
X606189D02*
X608813D01*
X610125Y-35105D01*
Y-32482D01*
X608813Y-31170D01*
X606189D01*
X604877Y-32482D01*
Y-35105D01*
X606189Y-36417D01*
X614060D02*
X616684D01*
X617996Y-35105D01*
Y-32482D01*
X616684Y-31170D01*
X614060D01*
X612748Y-32482D01*
Y-35105D01*
X614060Y-36417D01*
X620620D02*
X623244D01*
X621932D01*
Y-28546D01*
X620620D01*
X640299Y-29858D02*
X638987Y-28546D01*
X636363D01*
X635051Y-29858D01*
Y-31170D01*
X636363Y-32482D01*
X638987D01*
X640299Y-33794D01*
Y-35105D01*
X638987Y-36417D01*
X636363D01*
X635051Y-35105D01*
X642922Y-36417D02*
X645546D01*
X644234D01*
Y-31170D01*
X642922D01*
X649482D02*
X654730D01*
X649482Y-36417D01*
X654730D01*
X661289D02*
X658665D01*
X657353Y-35105D01*
Y-32482D01*
X658665Y-31170D01*
X661289D01*
X662601Y-32482D01*
Y-33794D01*
X657353D01*
X673096D02*
X678344D01*
X673096Y-31170D02*
X678344D01*
X694087Y-29858D02*
X692775Y-28546D01*
X690151D01*
X688839Y-29858D01*
Y-31170D01*
X690151Y-32482D01*
X692775D01*
X694087Y-33794D01*
Y-35105D01*
X692775Y-36417D01*
X690151D01*
X688839Y-35105D01*
X696711Y-36417D02*
X699335D01*
X698023D01*
Y-28546D01*
X696711D01*
X704582Y-36417D02*
X707206D01*
X708518Y-35105D01*
Y-32482D01*
X707206Y-31170D01*
X704582D01*
X703270Y-32482D01*
Y-35105D01*
X704582Y-36417D01*
X712454Y-29858D02*
Y-31170D01*
X711142D01*
X713766D01*
X712454D01*
Y-35105D01*
X713766Y-36417D01*
X725573D02*
X728197D01*
X726885D01*
Y-28546D01*
X725573D01*
X736068Y-36417D02*
X733444D01*
X732132Y-35105D01*
Y-32482D01*
X733444Y-31170D01*
X736068D01*
X737380Y-32482D01*
Y-33794D01*
X732132D01*
X740004Y-36417D02*
Y-31170D01*
X743940D01*
X745252Y-32482D01*
Y-36417D01*
X750499Y-39041D02*
X751811D01*
X753123Y-37729D01*
Y-31170D01*
X749187D01*
X747875Y-32482D01*
Y-35105D01*
X749187Y-36417D01*
X753123D01*
X757059Y-29858D02*
Y-31170D01*
X755747D01*
X758371D01*
X757059D01*
Y-35105D01*
X758371Y-36417D01*
X762306Y-28546D02*
Y-36417D01*
Y-32482D01*
X763618Y-31170D01*
X766242D01*
X767554Y-32482D01*
Y-36417D01*
X779361Y-31170D02*
X781985D01*
X783297Y-32482D01*
Y-36417D01*
X779361D01*
X778049Y-35105D01*
X779361Y-33794D01*
X783297D01*
X785921Y-36417D02*
X789857D01*
X791169Y-35105D01*
X789857Y-33794D01*
X787233D01*
X785921Y-32482D01*
X787233Y-31170D01*
X791169D01*
X806911Y-28546D02*
Y-36417D01*
X802976D01*
X801664Y-35105D01*
Y-32482D01*
X802976Y-31170D01*
X806911D01*
X813471Y-36417D02*
X810847D01*
X809535Y-35105D01*
Y-32482D01*
X810847Y-31170D01*
X813471D01*
X814783Y-32482D01*
Y-33794D01*
X809535D01*
X818719Y-36417D02*
Y-29858D01*
Y-32482D01*
X817407D01*
X820031D01*
X818719D01*
Y-29858D01*
X820031Y-28546D01*
X823966Y-36417D02*
X826590D01*
X825278D01*
Y-31170D01*
X823966D01*
X830526Y-36417D02*
Y-31170D01*
X834462D01*
X835774Y-32482D01*
Y-36417D01*
X842333D02*
X839709D01*
X838398Y-35105D01*
Y-32482D01*
X839709Y-31170D01*
X842333D01*
X843645Y-32482D01*
Y-33794D01*
X838398D01*
X851517Y-28546D02*
Y-36417D01*
X847581D01*
X846269Y-35105D01*
Y-32482D01*
X847581Y-31170D01*
X851517D01*
X862012Y-36417D02*
X864636D01*
X863324D01*
Y-31170D01*
X862012D01*
X868571Y-36417D02*
Y-31170D01*
X872507D01*
X873819Y-32482D01*
Y-36417D01*
X885626Y-29858D02*
Y-31170D01*
X884314D01*
X886938D01*
X885626D01*
Y-35105D01*
X886938Y-36417D01*
X890874Y-28546D02*
Y-36417D01*
Y-32482D01*
X892186Y-31170D01*
X894810D01*
X896122Y-32482D01*
Y-36417D01*
X902681D02*
X900057D01*
X898745Y-35105D01*
Y-32482D01*
X900057Y-31170D01*
X902681D01*
X903993Y-32482D01*
Y-33794D01*
X898745D01*
X914488Y-36417D02*
Y-28546D01*
X918424D01*
X919736Y-29858D01*
Y-32482D01*
X918424Y-33794D01*
X914488D01*
X927608Y-29858D02*
X926296Y-28546D01*
X923672D01*
X922360Y-29858D01*
Y-35105D01*
X923672Y-36417D01*
X926296D01*
X927608Y-35105D01*
X930231Y-28546D02*
Y-36417D01*
X934167D01*
X935479Y-35105D01*
Y-33794D01*
X934167Y-32482D01*
X930231D01*
X934167D01*
X935479Y-31170D01*
Y-29858D01*
X934167Y-28546D01*
X930231D01*
X945974Y-36417D02*
X948598D01*
X947286D01*
Y-28546D01*
X945974D01*
X953846Y-31170D02*
X956470D01*
X957782Y-32482D01*
Y-36417D01*
X953846D01*
X952534Y-35105D01*
X953846Y-33794D01*
X957782D01*
X960405Y-31170D02*
Y-35105D01*
X961717Y-36417D01*
X965653D01*
Y-37729D01*
X964341Y-39041D01*
X963029D01*
X965653Y-36417D02*
Y-31170D01*
X969589Y-36417D02*
X972213D01*
X973524Y-35105D01*
Y-32482D01*
X972213Y-31170D01*
X969589D01*
X968277Y-32482D01*
Y-35105D01*
X969589Y-36417D01*
X976148Y-31170D02*
Y-35105D01*
X977460Y-36417D01*
X981396D01*
Y-31170D01*
X985332Y-29858D02*
Y-31170D01*
X984020D01*
X986644D01*
X985332D01*
Y-35105D01*
X986644Y-36417D01*
D20*
X1104331Y-124021D02*
Y-137140D01*
X1106954Y-139764D01*
X1112202D01*
X1114826Y-137140D01*
Y-124021D01*
X1130569Y-126645D02*
X1127945Y-124021D01*
X1122698D01*
X1120074Y-126645D01*
Y-129269D01*
X1122698Y-131892D01*
X1127945D01*
X1130569Y-134516D01*
Y-137140D01*
X1127945Y-139764D01*
X1122698D01*
X1120074Y-137140D01*
X1135817Y-124021D02*
Y-139764D01*
X1143688D01*
X1146312Y-137140D01*
Y-134516D01*
X1143688Y-131892D01*
X1135817D01*
X1143688D01*
X1146312Y-129269D01*
Y-126645D01*
X1143688Y-124021D01*
X1135817D01*
X1151560Y-142388D02*
X1162055D01*
X1167303Y-124021D02*
X1172550D01*
X1169926D01*
Y-139764D01*
X1167303D01*
X1172550D01*
X1190917Y-126645D02*
X1188293Y-124021D01*
X1183045D01*
X1180422Y-126645D01*
Y-129269D01*
X1183045Y-131892D01*
X1188293D01*
X1190917Y-134516D01*
Y-137140D01*
X1188293Y-139764D01*
X1183045D01*
X1180422Y-137140D01*
X1204036Y-124021D02*
X1198788D01*
X1196165Y-126645D01*
Y-137140D01*
X1198788Y-139764D01*
X1204036D01*
X1206660Y-137140D01*
Y-126645D01*
X1204036Y-124021D01*
X1211907Y-142388D02*
X1222403D01*
X1238146Y-124021D02*
X1227650D01*
Y-131892D01*
X1232898D01*
X1227650D01*
Y-139764D01*
X1253889Y-126645D02*
X1251265Y-124021D01*
X1246017D01*
X1243393Y-126645D01*
Y-129269D01*
X1246017Y-131892D01*
X1251265D01*
X1253889Y-134516D01*
Y-137140D01*
X1251265Y-139764D01*
X1246017D01*
X1243393Y-137140D01*
X1110236Y-218504D02*
X1114828D01*
X1112532D01*
Y-204729D01*
X1110236Y-207025D01*
X1121715Y-218504D02*
X1126307D01*
X1124011D01*
Y-204729D01*
X1121715Y-207025D01*
X1133195Y-218504D02*
X1142378Y-209321D01*
X1146970Y-207025D02*
X1149266Y-204729D01*
X1153857D01*
X1156153Y-207025D01*
Y-216208D01*
X1153857Y-218504D01*
X1149266D01*
X1146970Y-216208D01*
Y-207025D01*
X1160745Y-218504D02*
X1165337D01*
X1163041D01*
Y-204729D01*
X1160745Y-207025D01*
X1172224Y-218504D02*
X1181407Y-209321D01*
X1195183Y-218504D02*
X1185999D01*
X1195183Y-209321D01*
Y-207025D01*
X1192887Y-204729D01*
X1188295D01*
X1185999Y-207025D01*
X1199774D02*
X1202070Y-204729D01*
X1206662D01*
X1208958Y-207025D01*
Y-216208D01*
X1206662Y-218504D01*
X1202070D01*
X1199774Y-216208D01*
Y-207025D01*
X1213549Y-218504D02*
X1218141D01*
X1215845D01*
Y-204729D01*
X1213549Y-207025D01*
X1225029Y-204729D02*
X1234212D01*
Y-207025D01*
X1225029Y-216208D01*
Y-218504D01*
X1273622Y-205385D02*
X1276246Y-202761D01*
X1281493D01*
X1284117Y-205385D01*
Y-215880D01*
X1281493Y-218504D01*
X1276246D01*
X1273622Y-215880D01*
Y-205385D01*
X1289365D02*
X1291989Y-202761D01*
X1297236D01*
X1299860Y-205385D01*
Y-215880D01*
X1297236Y-218504D01*
X1291989D01*
X1289365Y-215880D01*
Y-205385D01*
X919291Y-242131D02*
Y-257874D01*
X924539Y-252626D01*
X929787Y-257874D01*
Y-242131D01*
X935034Y-257874D02*
X940282D01*
X937658D01*
Y-247379D01*
X935034D01*
X948153Y-257874D02*
Y-247379D01*
X950777D01*
X953401Y-250003D01*
Y-257874D01*
Y-250003D01*
X956025Y-247379D01*
X958649Y-250003D01*
Y-257874D01*
X963896Y-242131D02*
Y-252626D01*
X969144Y-257874D01*
X974392Y-252626D01*
Y-242131D01*
X990135Y-244755D02*
X987511Y-242131D01*
X982263D01*
X979639Y-244755D01*
Y-255250D01*
X982263Y-257874D01*
X987511D01*
X990135Y-255250D01*
Y-250003D01*
X984887D01*
D21*
X-62008Y-73819D02*
G03*
X-73819Y-62008I-11811J0D01*
G01*
X62008Y73819D02*
G03*
X73819Y62008I11811J0D01*
G01*
X-82677Y86614D02*
G03*
X-86614Y82677I0J-3937D01*
G01*
X82677Y-86614D02*
G03*
X86614Y-82677I0J3937D01*
G01*
X-86614Y-62008D02*
X-73819D01*
X-62008Y-86614D02*
Y-73819D01*
X62008Y73819D02*
Y86614D01*
X73819Y62008D02*
X86614D01*
X-86614Y-62008D02*
Y82677D01*
X-82677Y86614D02*
X62008D01*
X-62008Y-86614D02*
X82677D01*
X86614Y-82677D02*
Y62008D01*
D22*
X1098425Y-228349D02*
Y-236221D01*
X1102361D01*
X1103673Y-234909D01*
Y-229661D01*
X1102361Y-228349D01*
X1098425D01*
X1107609Y-236221D02*
X1110232D01*
X1111544Y-234909D01*
Y-232285D01*
X1110232Y-230973D01*
X1107609D01*
X1106297Y-232285D01*
Y-234909D01*
X1107609Y-236221D01*
X1119416Y-230973D02*
X1115480D01*
X1114168Y-232285D01*
Y-234909D01*
X1115480Y-236221D01*
X1119416D01*
X1122040Y-230973D02*
Y-234909D01*
X1123351Y-236221D01*
X1127287D01*
Y-230973D01*
X1129911Y-236221D02*
Y-230973D01*
X1131223D01*
X1132535Y-232285D01*
Y-236221D01*
Y-232285D01*
X1133847Y-230973D01*
X1135159Y-232285D01*
Y-236221D01*
X1141718D02*
X1139095D01*
X1137783Y-234909D01*
Y-232285D01*
X1139095Y-230973D01*
X1141718D01*
X1143030Y-232285D01*
Y-233597D01*
X1137783D01*
X1145654Y-236221D02*
Y-230973D01*
X1149590D01*
X1150902Y-232285D01*
Y-236221D01*
X1154838Y-229661D02*
Y-230973D01*
X1153526D01*
X1156149D01*
X1154838D01*
Y-234909D01*
X1156149Y-236221D01*
X1098425Y-188979D02*
Y-196850D01*
X1102361D01*
X1103673Y-195538D01*
Y-190291D01*
X1102361Y-188979D01*
X1098425D01*
X1107609Y-191603D02*
X1110232D01*
X1111544Y-192915D01*
Y-196850D01*
X1107609D01*
X1106297Y-195538D01*
X1107609Y-194227D01*
X1111544D01*
X1115480Y-190291D02*
Y-191603D01*
X1114168D01*
X1116792D01*
X1115480D01*
Y-195538D01*
X1116792Y-196850D01*
X1124664D02*
X1122040D01*
X1120728Y-195538D01*
Y-192915D01*
X1122040Y-191603D01*
X1124664D01*
X1125975Y-192915D01*
Y-194227D01*
X1120728D01*
X1098425Y-149609D02*
Y-157480D01*
X1103673D01*
X1107609Y-152233D02*
X1110232D01*
X1111544Y-153545D01*
Y-157480D01*
X1107609D01*
X1106297Y-156168D01*
X1107609Y-154857D01*
X1111544D01*
X1114168Y-152233D02*
Y-156168D01*
X1115480Y-157480D01*
X1119416D01*
Y-158792D01*
X1118104Y-160104D01*
X1116792D01*
X1119416Y-157480D02*
Y-152233D01*
X1125975Y-157480D02*
X1123351D01*
X1122040Y-156168D01*
Y-153545D01*
X1123351Y-152233D01*
X1125975D01*
X1127287Y-153545D01*
Y-154857D01*
X1122040D01*
X1129911Y-152233D02*
Y-157480D01*
Y-154857D01*
X1131223Y-153545D01*
X1132535Y-152233D01*
X1133847D01*
X1145654Y-157480D02*
Y-149609D01*
X1150902Y-157480D01*
Y-149609D01*
X1154838Y-152233D02*
X1157461D01*
X1158773Y-153545D01*
Y-157480D01*
X1154838D01*
X1153526Y-156168D01*
X1154838Y-154857D01*
X1158773D01*
X1161397Y-157480D02*
Y-152233D01*
X1162709D01*
X1164021Y-153545D01*
Y-157480D01*
Y-153545D01*
X1165333Y-152233D01*
X1166645Y-153545D01*
Y-157480D01*
X1173204D02*
X1170580D01*
X1169269Y-156168D01*
Y-153545D01*
X1170580Y-152233D01*
X1173204D01*
X1174516Y-153545D01*
Y-154857D01*
X1169269D01*
X1098425Y-110239D02*
Y-118110D01*
X1102361D01*
X1103673Y-116798D01*
Y-111551D01*
X1102361Y-110239D01*
X1098425D01*
X1107609Y-118110D02*
X1110232D01*
X1111544Y-116798D01*
Y-114174D01*
X1110232Y-112863D01*
X1107609D01*
X1106297Y-114174D01*
Y-116798D01*
X1107609Y-118110D01*
X1119416Y-112863D02*
X1115480D01*
X1114168Y-114174D01*
Y-116798D01*
X1115480Y-118110D01*
X1119416D01*
X1122040Y-112863D02*
Y-116798D01*
X1123351Y-118110D01*
X1127287D01*
Y-112863D01*
X1129911Y-118110D02*
Y-112863D01*
X1131223D01*
X1132535Y-114174D01*
Y-118110D01*
Y-114174D01*
X1133847Y-112863D01*
X1135159Y-114174D01*
Y-118110D01*
X1141718D02*
X1139095D01*
X1137783Y-116798D01*
Y-114174D01*
X1139095Y-112863D01*
X1141718D01*
X1143030Y-114174D01*
Y-115486D01*
X1137783D01*
X1145654Y-118110D02*
Y-112863D01*
X1149590D01*
X1150902Y-114174D01*
Y-118110D01*
X1154838Y-111551D02*
Y-112863D01*
X1153526D01*
X1156149D01*
X1154838D01*
Y-116798D01*
X1156149Y-118110D01*
X901575Y-228349D02*
Y-236221D01*
X905511D01*
X906822Y-234909D01*
Y-229661D01*
X905511Y-228349D01*
X901575D01*
X913382Y-236221D02*
X910758D01*
X909446Y-234909D01*
Y-232285D01*
X910758Y-230973D01*
X913382D01*
X914694Y-232285D01*
Y-233597D01*
X909446D01*
X917318Y-236221D02*
X921253D01*
X922565Y-234909D01*
X921253Y-233597D01*
X918630D01*
X917318Y-232285D01*
X918630Y-230973D01*
X922565D01*
X927813Y-238844D02*
X929125D01*
X930437Y-237532D01*
Y-230973D01*
X926501D01*
X925189Y-232285D01*
Y-234909D01*
X926501Y-236221D01*
X930437D01*
X933061D02*
X935684D01*
X934373D01*
Y-230973D01*
X933061D01*
X939620Y-236221D02*
Y-230973D01*
X943556D01*
X944868Y-232285D01*
Y-236221D01*
X951427D02*
X948804D01*
X947492Y-234909D01*
Y-232285D01*
X948804Y-230973D01*
X951427D01*
X952739Y-232285D01*
Y-233597D01*
X947492D01*
X955363Y-230973D02*
Y-236221D01*
Y-233597D01*
X956675Y-232285D01*
X957987Y-230973D01*
X959299D01*
X1255906Y-196850D02*
Y-188979D01*
X1259841D01*
X1261153Y-190291D01*
Y-192915D01*
X1259841Y-194227D01*
X1255906D01*
X1258529D02*
X1261153Y-196850D01*
X1267713D02*
X1265089D01*
X1263777Y-195538D01*
Y-192915D01*
X1265089Y-191603D01*
X1267713D01*
X1269025Y-192915D01*
Y-194227D01*
X1263777D01*
X1271649Y-191603D02*
X1274272Y-196850D01*
X1276896Y-191603D01*
D54*
X-93126Y-86614D02*
X-63303D01*
X-93126Y-75787D02*
X38370D01*
X-92126D02*
Y-65787D01*
Y-96614D02*
Y-86614D01*
Y-75787D02*
X-90126Y-69787D01*
X-94126D02*
X-92126Y-75787D01*
X-94126Y-92614D02*
X-92126Y-86614D01*
X-90126Y-92614D01*
X49213Y-95882D02*
Y-86630D01*
X-86614Y-95882D02*
Y-63303D01*
X-4705Y-94882D02*
X49213D01*
X-86614D02*
X-35896D01*
X43213Y-92882D02*
X49213Y-94882D01*
X43213Y-96882D02*
X49213Y-94882D01*
X-86614D02*
X-80614Y-96882D01*
X-86614Y-94882D02*
X-80614Y-92882D01*
X173323Y109252D02*
G03*
X173323Y109252I-3000J0D01*
G01*
D55*
X-101323Y-89798D02*
Y-93797D01*
X-105322Y-89798D01*
X-106322D01*
X-107322Y-90798D01*
Y-92798D01*
X-106322Y-93797D01*
X-100324Y-86800D02*
X-101323Y-85800D01*
X-102323D01*
Y-86800D01*
X-101323D01*
Y-85800D01*
X-100324Y-86800D01*
X-99324Y-87799D01*
X-107322Y-81801D02*
Y-77802D01*
X-106322D01*
X-102323Y-81801D01*
X-101323D01*
X-107322Y-71804D02*
Y-75803D01*
X-104322D01*
X-105322Y-73804D01*
Y-72804D01*
X-104322Y-71804D01*
X-102323D01*
X-101323Y-72804D01*
Y-74803D01*
X-102323Y-75803D01*
X-34296Y-94482D02*
X-33297Y-93483D01*
X-31297D01*
X-30298Y-94482D01*
Y-95482D01*
X-31297Y-96482D01*
X-32297D01*
X-31297D01*
X-30298Y-97481D01*
Y-98481D01*
X-31297Y-99481D01*
X-33297D01*
X-34296Y-98481D01*
X-25299Y-99481D02*
Y-93483D01*
X-28298Y-96482D01*
X-24299D01*
X-21301Y-100480D02*
X-20301Y-99481D01*
Y-98481D01*
X-21301D01*
Y-99481D01*
X-20301D01*
X-21301Y-100480D01*
X-22300Y-101480D01*
X-12303Y-93483D02*
X-16302D01*
Y-96482D01*
X-14303Y-95482D01*
X-13303D01*
X-12303Y-96482D01*
Y-98481D01*
X-13303Y-99481D01*
X-15302D01*
X-16302Y-98481D01*
X-10304Y-94482D02*
X-9304Y-93483D01*
X-7305D01*
X-6305Y-94482D01*
Y-98481D01*
X-7305Y-99481D01*
X-9304D01*
X-10304Y-98481D01*
Y-94482D01*
D57*
X-50013Y74987D02*
Y76587D01*
X-48413D01*
Y74987D01*
X-50013D01*
X48413Y-76587D02*
Y-74987D01*
X50013D01*
Y-76587D01*
X48413D01*
X-62598Y2350D02*
X-63398Y3950D01*
X-61798D01*
X-62598Y2350D01*
Y-3950D02*
X-63398Y-2350D01*
X-61798D01*
X-62598Y-3950D01*
X-57874Y5499D02*
X-58674Y7099D01*
X-57074D01*
X-57874Y5499D01*
Y-800D02*
X-58674Y800D01*
X-57074D01*
X-57874Y-800D01*
Y-7099D02*
X-58674Y-5499D01*
X-57074D01*
X-57874Y-7099D01*
X-79724Y-15170D02*
X-79324Y-14770D01*
X-78924D01*
X-79324Y-14370D01*
X-78924Y-13970D01*
X-79324D01*
X-79724Y-13570D01*
X-80124Y-13970D01*
X-80524D01*
X-80124Y-14370D01*
X-80524Y-14770D01*
X-80124D01*
X-79724Y-15170D01*
Y13570D02*
X-79324Y13970D01*
X-78924D01*
X-79324Y14370D01*
X-78924Y14770D01*
X-79324D01*
X-79724Y15170D01*
X-80124Y14770D01*
X-80524D01*
X-80124Y14370D01*
X-80524Y13970D01*
X-80124D01*
X-79724Y13570D01*
X-61417D02*
X-61017Y13970D01*
X-60617D01*
X-61017Y14370D01*
X-60617Y14770D01*
X-61017D01*
X-61417Y15170D01*
X-61817Y14770D01*
X-62217D01*
X-61817Y14370D01*
X-62217Y13970D01*
X-61817D01*
X-61417Y13570D01*
Y-15170D02*
X-61017Y-14770D01*
X-60617D01*
X-61017Y-14370D01*
X-60617Y-13970D01*
X-61017D01*
X-61417Y-13570D01*
X-61817Y-13970D01*
X-62217D01*
X-61817Y-14370D01*
X-62217Y-14770D01*
X-61817D01*
X-61417Y-15170D01*
X76661Y24397D02*
X77061Y25197D01*
X76661Y25997D01*
X77461Y25597D01*
X78261Y25997D01*
X77861Y25197D01*
X78261Y24397D01*
X77461Y24797D01*
X76661Y24397D01*
X48124Y3537D02*
Y3137D01*
X48924D01*
Y3537D01*
X49324D01*
Y4337D01*
X48924D01*
Y4737D01*
X48124D01*
Y4337D01*
X47724D01*
Y3537D01*
X48124D01*
Y13379D02*
Y12979D01*
X48924D01*
Y13379D01*
X49324D01*
Y14179D01*
X48924D01*
Y14579D01*
X48124D01*
Y14179D01*
X47724D01*
Y13379D01*
X48124D01*
Y-4337D02*
Y-4737D01*
X48924D01*
Y-4337D01*
X49324D01*
Y-3537D01*
X48924D01*
Y-3137D01*
X48124D01*
Y-3537D01*
X47724D01*
Y-4337D01*
X48124D01*
Y-14180D02*
Y-14580D01*
X48924D01*
Y-14180D01*
X49324D01*
Y-13380D01*
X48924D01*
Y-12980D01*
X48124D01*
Y-13380D01*
X47724D01*
Y-14180D01*
X48124D01*
X76661Y-25997D02*
X77061Y-25197D01*
X76661Y-24397D01*
X77461Y-24797D01*
X78261Y-24397D01*
X77861Y-25197D01*
X78261Y-25997D01*
X77461Y-25597D01*
X76661Y-25997D01*
X77940Y-57887D02*
X78340D01*
X78740Y-57487D01*
X79140Y-57887D01*
X79540D01*
Y-57487D01*
X79140Y-57087D01*
X79540Y-56687D01*
Y-56287D01*
X79140D01*
X78740Y-56687D01*
X78340Y-56287D01*
X77940D01*
Y-56687D01*
X78340Y-57087D01*
X77940Y-57487D01*
Y-57887D01*
Y-42139D02*
X78340D01*
X78740Y-41739D01*
X79140Y-42139D01*
X79540D01*
Y-41739D01*
X79140Y-41339D01*
X79540Y-40939D01*
Y-40539D01*
X79140D01*
X78740Y-40939D01*
X78340Y-40539D01*
X77940D01*
Y-40939D01*
X78340Y-41339D01*
X77940Y-41739D01*
Y-42139D01*
X54318Y-57087D02*
X55118Y-56287D01*
X55918Y-57087D01*
X55118Y-57887D01*
X54318Y-57087D01*
Y-41339D02*
X55118Y-40539D01*
X55918Y-41339D01*
X55118Y-42139D01*
X54318Y-41339D01*
Y-49213D02*
X55118Y-48413D01*
X55918Y-49213D01*
X55118Y-50013D01*
X54318Y-49213D01*
X23413Y23511D02*
Y25111D01*
X25013D01*
Y23511D01*
X23413D01*
X23813Y23911D02*
Y24711D01*
X24613D01*
Y23911D01*
X23813D01*
X36995Y18885D02*
Y20485D01*
X38595D01*
Y18885D01*
X36995D01*
X37395Y19285D02*
Y20085D01*
X38195D01*
Y19285D01*
X37395D01*
X34436Y41326D02*
Y42926D01*
X36036D01*
Y41326D01*
X34436D01*
X34836Y41726D02*
Y42526D01*
X35636D01*
Y41726D01*
X34836D01*
X34633Y23609D02*
Y25210D01*
X36233D01*
Y23609D01*
X34633D01*
X35033Y24010D02*
Y24810D01*
X35833D01*
Y24010D01*
X35033D01*
X-36036Y24003D02*
Y25603D01*
X-34436D01*
Y24003D01*
X-36036D01*
X-35636Y24403D02*
Y25203D01*
X-34836D01*
Y24403D01*
X-35636D01*
X-36036Y41326D02*
Y42926D01*
X-34436D01*
Y41326D01*
X-36036D01*
X-35636Y41726D02*
Y42526D01*
X-34836D01*
Y41726D01*
X-35636D01*
X-38595Y18885D02*
Y20485D01*
X-36995D01*
Y18885D01*
X-38595D01*
X-38195Y19285D02*
Y20085D01*
X-37395D01*
Y19285D01*
X-38195D01*
X-25013Y23511D02*
Y25111D01*
X-23413D01*
Y23511D01*
X-25013D01*
X-24613Y23911D02*
Y24711D01*
X-23813D01*
Y23911D01*
X-24613D01*
X-67925Y38571D02*
Y40171D01*
X-66325D01*
Y38571D01*
X-67925D01*
X-67525Y38971D02*
Y39771D01*
X-66725D01*
Y38971D01*
X-67525D01*
X70656Y34239D02*
Y35839D01*
X72256D01*
Y34239D01*
X70656D01*
X71056Y34639D02*
Y35439D01*
X71856D01*
Y34639D01*
X71056D01*
X23413Y-6489D02*
Y-4889D01*
X25013D01*
Y-6489D01*
X23413D01*
X23813Y-6089D02*
Y-5289D01*
X24613D01*
Y-6089D01*
X23813D01*
X-25013Y-6489D02*
Y-4889D01*
X-23413D01*
Y-6489D01*
X-25013D01*
X-24613Y-6089D02*
Y-5289D01*
X-23813D01*
Y-6089D01*
X-24613D01*
X14200Y-58595D02*
Y-56995D01*
X15800D01*
Y-58595D01*
X14200D01*
X14600Y-58195D02*
Y-57395D01*
X15400D01*
Y-58195D01*
X14600D01*
X14200Y-69619D02*
Y-68019D01*
X15800D01*
Y-69619D01*
X14200D01*
X14600Y-69219D02*
Y-68419D01*
X15400D01*
Y-69219D01*
X14600D01*
X-15800Y-69619D02*
Y-68019D01*
X-14200D01*
Y-69619D01*
X-15800D01*
X-15400Y-69219D02*
Y-68419D01*
X-14600D01*
Y-69219D01*
X-15400D01*
X-15800Y-58595D02*
Y-56995D01*
X-14200D01*
Y-58595D01*
X-15800D01*
X-15400Y-58195D02*
Y-57395D01*
X-14600D01*
Y-58195D01*
X-15400D01*
X167323Y137748D02*
Y143748D01*
X173323D01*
Y137748D01*
X167323D01*
X168523Y138948D02*
Y142548D01*
X172123D01*
Y138948D01*
X168523D01*
X170323Y122000D02*
X167323Y128000D01*
X173323D01*
X170323Y122000D01*
X168823Y92004D02*
Y90504D01*
X171823D01*
Y92004D01*
X173323D01*
Y95004D01*
X171823D01*
Y96504D01*
X168823D01*
Y95004D01*
X167323D01*
Y92004D01*
X168823D01*
X167323Y74756D02*
X168823D01*
X170323Y76256D01*
X171823Y74756D01*
X173323D01*
Y76256D01*
X171823Y77756D01*
X173323Y79256D01*
Y80756D01*
X171823D01*
X170323Y79256D01*
X168823Y80756D01*
X167323D01*
Y79256D01*
X168823Y77756D01*
X167323Y76256D01*
Y74756D01*
Y59008D02*
Y65008D01*
X173323D01*
Y59008D01*
X167323D01*
Y43260D02*
X168823Y46260D01*
X167323Y49260D01*
X170323Y47760D01*
X173323Y49260D01*
X171823Y46260D01*
X173323Y43260D01*
X170323Y44760D01*
X167323Y43260D01*
Y30512D02*
X170323Y33512D01*
X173323Y30512D01*
X170323Y27512D01*
X167323Y30512D01*
X170323Y11764D02*
X171823Y13264D01*
X173323D01*
X171823Y14764D01*
X173323Y16264D01*
X171823D01*
X170323Y17764D01*
X168823Y16264D01*
X167323D01*
X168823Y14764D01*
X167323Y13264D01*
X168823D01*
X170323Y11764D01*
D58*
X-62980Y51181D02*
G03*
X-62980Y51181I-800J0D01*
G01*
X-52980D02*
G03*
X-52980Y51181I-800J0D01*
G01*
X-42980D02*
G03*
X-42980Y51181I-800J0D01*
G01*
X36705D02*
G03*
X36705Y51181I-800J0D01*
G01*
X46705D02*
G03*
X46705Y51181I-800J0D01*
G01*
X56706D02*
G03*
X56706Y51181I-800J0D01*
G01*
D59*
X173620Y163580D02*
X172046Y165155D01*
X168897D01*
X167323Y163580D01*
Y162006D01*
X168897Y160432D01*
X172046D01*
X173620Y158857D01*
Y157283D01*
X172046Y155709D01*
X168897D01*
X167323Y157283D01*
X176769Y162006D02*
Y157283D01*
X178343Y155709D01*
X183066D01*
Y154135D01*
X181491Y152560D01*
X179917D01*
X183066Y155709D02*
Y162006D01*
X186214Y155709D02*
Y162006D01*
X187789D01*
X189363Y160432D01*
Y155709D01*
Y160432D01*
X190937Y162006D01*
X192512Y160432D01*
Y155709D01*
X195660Y165155D02*
Y155709D01*
X200383D01*
X201957Y157283D01*
Y158857D01*
Y160432D01*
X200383Y162006D01*
X195660D01*
X206680Y155709D02*
X209829D01*
X211403Y157283D01*
Y160432D01*
X209829Y162006D01*
X206680D01*
X205106Y160432D01*
Y157283D01*
X206680Y155709D01*
X214552D02*
X217700D01*
X216126D01*
Y165155D01*
X214552D01*
X230929D02*
Y155709D01*
Y160432D01*
X237226D01*
Y165155D01*
Y155709D01*
X240374D02*
X243523D01*
X241949D01*
Y162006D01*
X240374D01*
X249820Y163580D02*
Y162006D01*
X248246D01*
X251394D01*
X249820D01*
Y157283D01*
X251394Y155709D01*
X271860Y163580D02*
X270286Y165155D01*
X267137D01*
X265563Y163580D01*
Y157283D01*
X267137Y155709D01*
X270286D01*
X271860Y157283D01*
X276583Y155709D02*
X279732D01*
X281306Y157283D01*
Y160432D01*
X279732Y162006D01*
X276583D01*
X275009Y160432D01*
Y157283D01*
X276583Y155709D01*
X284455Y162006D02*
Y157283D01*
X286029Y155709D01*
X290752D01*
Y162006D01*
X293900Y155709D02*
Y162006D01*
X298623D01*
X300198Y160432D01*
Y155709D01*
X304921Y163580D02*
Y162006D01*
X303346D01*
X306495D01*
X304921D01*
Y157283D01*
X306495Y155709D01*
X326020Y165155D02*
X319723D01*
Y160432D01*
X322872D01*
X319723D01*
Y155709D01*
X329169D02*
X332317D01*
X330743D01*
Y162006D01*
X329169D01*
X337040Y155709D02*
Y162006D01*
X341763D01*
X343337Y160432D01*
Y155709D01*
X346486D02*
X349635D01*
X348060D01*
Y162006D01*
X346486D01*
X354358Y155709D02*
X359081D01*
X360655Y157283D01*
X359081Y158857D01*
X355932D01*
X354358Y160432D01*
X355932Y162006D01*
X360655D01*
X363803Y165155D02*
Y155709D01*
Y160432D01*
X365378Y162006D01*
X368526D01*
X370100Y160432D01*
Y155709D01*
X377972D02*
X374823D01*
X373249Y157283D01*
Y160432D01*
X374823Y162006D01*
X377972D01*
X379546Y160432D01*
Y158857D01*
X373249D01*
X388992Y165155D02*
Y155709D01*
X384269D01*
X382695Y157283D01*
Y160432D01*
X384269Y162006D01*
X388992D01*
X401586Y165155D02*
Y155709D01*
Y160432D01*
X407884D01*
Y165155D01*
Y155709D01*
X412606D02*
X415755D01*
X417329Y157283D01*
Y160432D01*
X415755Y162006D01*
X412606D01*
X411032Y160432D01*
Y157283D01*
X412606Y155709D01*
X420478D02*
X423627D01*
X422052D01*
Y165155D01*
X420478D01*
X433072Y155709D02*
X429924D01*
X428349Y157283D01*
Y160432D01*
X429924Y162006D01*
X433072D01*
X434647Y160432D01*
Y158857D01*
X428349D01*
X453538Y163580D02*
X451964Y165155D01*
X448815D01*
X447241Y163580D01*
Y162006D01*
X448815Y160432D01*
X451964D01*
X453538Y158857D01*
Y157283D01*
X451964Y155709D01*
X448815D01*
X447241Y157283D01*
X456687Y155709D02*
X459835D01*
X458261D01*
Y162006D01*
X456687D01*
X464558D02*
X470855D01*
X464558Y155709D01*
X470855D01*
X478727D02*
X475578D01*
X474004Y157283D01*
Y160432D01*
X475578Y162006D01*
X478727D01*
X480301Y160432D01*
Y158857D01*
X474004D01*
X493530Y155709D02*
Y165155D01*
X498252D01*
X499827Y163580D01*
Y160432D01*
X498252Y158857D01*
X493530D01*
X502975Y165155D02*
Y155709D01*
Y160432D01*
X504550Y162006D01*
X507698D01*
X509272Y160432D01*
Y155709D01*
X512421Y162006D02*
Y157283D01*
X513995Y155709D01*
X518718D01*
Y154135D01*
X517144Y152560D01*
X515570D01*
X518718Y155709D02*
Y162006D01*
X521867Y155709D02*
X526590D01*
X528164Y157283D01*
X526590Y158857D01*
X523441D01*
X521867Y160432D01*
X523441Y162006D01*
X528164D01*
X531313Y155709D02*
X534461D01*
X532887D01*
Y162006D01*
X531313D01*
X545481D02*
X540758D01*
X539184Y160432D01*
Y157283D01*
X540758Y155709D01*
X545481D01*
X550204Y162006D02*
X553353D01*
X554927Y160432D01*
Y155709D01*
X550204D01*
X548630Y157283D01*
X550204Y158857D01*
X554927D01*
X558076Y155709D02*
X561224D01*
X559650D01*
Y165155D01*
X558076D01*
X575393D02*
Y155709D01*
X581690D01*
X589562D02*
X586413D01*
X584839Y157283D01*
Y160432D01*
X586413Y162006D01*
X589562D01*
X591136Y160432D01*
Y158857D01*
X584839D01*
X594284Y155709D02*
Y162006D01*
X599007D01*
X600582Y160432D01*
Y155709D01*
X606879Y152560D02*
X608453D01*
X610027Y154135D01*
Y162006D01*
X605304D01*
X603730Y160432D01*
Y157283D01*
X605304Y155709D01*
X610027D01*
X614750Y163580D02*
Y162006D01*
X613176D01*
X616325D01*
X614750D01*
Y157283D01*
X616325Y155709D01*
X621047Y165155D02*
Y155709D01*
Y160432D01*
X622622Y162006D01*
X625770D01*
X627345Y160432D01*
Y155709D01*
X640573D02*
Y165155D01*
X645296D01*
X646870Y163580D01*
Y160432D01*
X645296Y158857D01*
X640573D01*
X643721D02*
X646870Y155709D01*
X651593D02*
X654742D01*
X656316Y157283D01*
Y160432D01*
X654742Y162006D01*
X651593D01*
X650019Y160432D01*
Y157283D01*
X651593Y155709D01*
X659465Y162006D02*
Y157283D01*
X661039Y155709D01*
X665762D01*
Y162006D01*
X670484Y163580D02*
Y162006D01*
X668910D01*
X672059D01*
X670484D01*
Y157283D01*
X672059Y155709D01*
X686228D02*
Y165155D01*
X690950D01*
X692525Y163580D01*
Y160432D01*
X690950Y158857D01*
X686228D01*
X697248Y162006D02*
X700396D01*
X701970Y160432D01*
Y155709D01*
X697248D01*
X695673Y157283D01*
X697248Y158857D01*
X701970D01*
X706693Y163580D02*
Y162006D01*
X705119D01*
X708268D01*
X706693D01*
Y157283D01*
X708268Y155709D01*
X712991Y165155D02*
Y155709D01*
Y160432D01*
X714565Y162006D01*
X717713D01*
X719288Y160432D01*
Y155709D01*
X731882Y165155D02*
Y155709D01*
X738179D01*
X746051D02*
X742902D01*
X741328Y157283D01*
Y160432D01*
X742902Y162006D01*
X746051D01*
X747625Y160432D01*
Y158857D01*
X741328D01*
X750773Y155709D02*
Y162006D01*
X755496D01*
X757071Y160432D01*
Y155709D01*
X763368Y152560D02*
X764942D01*
X766516Y154135D01*
Y162006D01*
X761794D01*
X760219Y160432D01*
Y157283D01*
X761794Y155709D01*
X766516D01*
X771239Y163580D02*
Y162006D01*
X769665D01*
X772814D01*
X771239D01*
Y157283D01*
X772814Y155709D01*
X777537Y165155D02*
Y155709D01*
Y160432D01*
X779111Y162006D01*
X782259D01*
X783834Y160432D01*
Y155709D01*
X797062D02*
Y165155D01*
X801785D01*
X803359Y163580D01*
Y160432D01*
X801785Y158857D01*
X797062D01*
X806508Y155709D02*
X809656D01*
X808082D01*
Y165155D01*
X806508D01*
X815954Y162006D02*
X819102D01*
X820677Y160432D01*
Y155709D01*
X815954D01*
X814379Y157283D01*
X815954Y158857D01*
X820677D01*
X825399Y163580D02*
Y162006D01*
X823825D01*
X826974D01*
X825399D01*
Y157283D01*
X826974Y155709D01*
X836419D02*
X833271D01*
X831697Y157283D01*
Y160432D01*
X833271Y162006D01*
X836419D01*
X837994Y160432D01*
Y158857D01*
X831697D01*
X847439Y165155D02*
Y155709D01*
X842717D01*
X841142Y157283D01*
Y160432D01*
X842717Y162006D01*
X847439D01*
X860668Y165155D02*
Y155709D01*
Y160432D01*
X866965D01*
Y165155D01*
Y155709D01*
X871688D02*
X874837D01*
X876411Y157283D01*
Y160432D01*
X874837Y162006D01*
X871688D01*
X870114Y160432D01*
Y157283D01*
X871688Y155709D01*
X879559D02*
X882708D01*
X881134D01*
Y165155D01*
X879559D01*
X892154Y155709D02*
X889005D01*
X887431Y157283D01*
Y160432D01*
X889005Y162006D01*
X892154D01*
X893728Y160432D01*
Y158857D01*
X887431D01*
X906322Y165155D02*
X912620D01*
X909471D01*
Y155709D01*
X915768Y162006D02*
Y157283D01*
X917342Y155709D01*
X922065D01*
Y154135D01*
X920491Y152560D01*
X918917D01*
X922065Y155709D02*
Y162006D01*
X925214Y152560D02*
Y162006D01*
X929937D01*
X931511Y160432D01*
Y157283D01*
X929937Y155709D01*
X925214D01*
X939383D02*
X936234D01*
X934660Y157283D01*
Y160432D01*
X936234Y162006D01*
X939383D01*
X940957Y160432D01*
Y158857D01*
X934660D01*
X156614Y169882D02*
X954185D01*
X156614Y148622D02*
X954185D01*
X156614Y169882D02*
Y-8858D01*
X954185Y169882D02*
Y-8858D01*
X225574Y169882D02*
Y-8858D01*
X314369Y169882D02*
Y-8858D01*
X488175Y169882D02*
Y-8858D01*
X635219Y169882D02*
Y-8858D01*
X791708Y169882D02*
Y-8858D01*
X855313Y169882D02*
Y-8858D01*
X156614Y6890D02*
X954185D01*
X156614Y-8858D02*
X954185D01*
D60*
X172571Y-14110D02*
X171259Y-12798D01*
X168635D01*
X167323Y-14110D01*
Y-15422D01*
X168635Y-16734D01*
X171259D01*
X172571Y-18045D01*
Y-19357D01*
X171259Y-20669D01*
X168635D01*
X167323Y-19357D01*
X175194Y-20669D02*
X177818D01*
X176506D01*
Y-12798D01*
X175194D01*
X183066Y-20669D02*
X185690D01*
X187002Y-19357D01*
Y-16734D01*
X185690Y-15422D01*
X183066D01*
X181754Y-16734D01*
Y-19357D01*
X183066Y-20669D01*
X190937Y-14110D02*
Y-15422D01*
X189625D01*
X192249D01*
X190937D01*
Y-19357D01*
X192249Y-20669D01*
X209304Y-12798D02*
Y-20669D01*
X205368D01*
X204056Y-19357D01*
Y-16734D01*
X205368Y-15422D01*
X209304D01*
X215864Y-20669D02*
X213240D01*
X211928Y-19357D01*
Y-16734D01*
X213240Y-15422D01*
X215864D01*
X217176Y-16734D01*
Y-18045D01*
X211928D01*
X221111Y-20669D02*
Y-14110D01*
Y-16734D01*
X219799D01*
X222423D01*
X221111D01*
Y-14110D01*
X222423Y-12798D01*
X226359Y-20669D02*
X228983D01*
X227671D01*
Y-15422D01*
X226359D01*
X232919Y-20669D02*
Y-15422D01*
X236854D01*
X238166Y-16734D01*
Y-20669D01*
X240790D02*
X243414D01*
X242102D01*
Y-15422D01*
X240790D01*
X248661Y-14110D02*
Y-15422D01*
X247350D01*
X249973D01*
X248661D01*
Y-19357D01*
X249973Y-20669D01*
X253909D02*
X256533D01*
X255221D01*
Y-15422D01*
X253909D01*
X261781Y-20669D02*
X264404D01*
X265716Y-19357D01*
Y-16734D01*
X264404Y-15422D01*
X261781D01*
X260469Y-16734D01*
Y-19357D01*
X261781Y-20669D01*
X268340D02*
Y-15422D01*
X272276D01*
X273588Y-16734D01*
Y-20669D01*
X276212D02*
X280147D01*
X281459Y-19357D01*
X280147Y-18045D01*
X277523D01*
X276212Y-16734D01*
X277523Y-15422D01*
X281459D01*
X291955D02*
X293267D01*
Y-16734D01*
X291955D01*
Y-15422D01*
Y-19357D02*
X293267D01*
Y-20669D01*
X291955D01*
Y-19357D01*
X306180Y-20669D02*
Y-12798D01*
X310116D01*
X311427Y-14110D01*
Y-16734D01*
X310116Y-18045D01*
X306180D01*
X308804D02*
X311427Y-20669D01*
X315363D02*
X317987D01*
X319299Y-19357D01*
Y-16734D01*
X317987Y-15422D01*
X315363D01*
X314051Y-16734D01*
Y-19357D01*
X315363Y-20669D01*
X321923Y-15422D02*
Y-19357D01*
X323235Y-20669D01*
X327170D01*
Y-15422D01*
X331106Y-14110D02*
Y-15422D01*
X329794D01*
X332418D01*
X331106D01*
Y-19357D01*
X332418Y-20669D01*
X344225D02*
Y-12798D01*
X348161D01*
X349473Y-14110D01*
Y-16734D01*
X348161Y-18045D01*
X344225D01*
X353409Y-15422D02*
X356032D01*
X357345Y-16734D01*
Y-20669D01*
X353409D01*
X352097Y-19357D01*
X353409Y-18045D01*
X357345D01*
X361280Y-14110D02*
Y-15422D01*
X359968D01*
X362592D01*
X361280D01*
Y-19357D01*
X362592Y-20669D01*
X366528Y-12798D02*
Y-20669D01*
Y-16734D01*
X367840Y-15422D01*
X370464D01*
X371776Y-16734D01*
Y-20669D01*
X382271Y-12798D02*
Y-20669D01*
X387518D01*
X394078D02*
X391454D01*
X390142Y-19357D01*
Y-16734D01*
X391454Y-15422D01*
X394078D01*
X395390Y-16734D01*
Y-18045D01*
X390142D01*
X398014Y-20669D02*
Y-15422D01*
X401950D01*
X403261Y-16734D01*
Y-20669D01*
X408509Y-23293D02*
X409821D01*
X411133Y-21981D01*
Y-15422D01*
X407197D01*
X405885Y-16734D01*
Y-19357D01*
X407197Y-20669D01*
X411133D01*
X415069Y-14110D02*
Y-15422D01*
X413757D01*
X416381D01*
X415069D01*
Y-19357D01*
X416381Y-20669D01*
X420316Y-12798D02*
Y-20669D01*
Y-16734D01*
X421628Y-15422D01*
X424252D01*
X425564Y-16734D01*
Y-20669D01*
X306180Y-36417D02*
Y-28546D01*
X310116D01*
X311427Y-29858D01*
Y-32482D01*
X310116Y-33794D01*
X306180D01*
X314051Y-28546D02*
Y-36417D01*
Y-32482D01*
X315363Y-31170D01*
X317987D01*
X319299Y-32482D01*
Y-36417D01*
X321923Y-31170D02*
Y-35105D01*
X323235Y-36417D01*
X327170D01*
Y-37729D01*
X325858Y-39041D01*
X324547D01*
X327170Y-36417D02*
Y-31170D01*
X329794Y-36417D02*
X333730D01*
X335042Y-35105D01*
X333730Y-33794D01*
X331106D01*
X329794Y-32482D01*
X331106Y-31170D01*
X335042D01*
X337666Y-36417D02*
X340290D01*
X338978D01*
Y-31170D01*
X337666D01*
X349473D02*
X345537D01*
X344225Y-32482D01*
Y-35105D01*
X345537Y-36417D01*
X349473D01*
X353409Y-31170D02*
X356032D01*
X357345Y-32482D01*
Y-36417D01*
X353409D01*
X352097Y-35105D01*
X353409Y-33794D01*
X357345D01*
X359968Y-36417D02*
X362592D01*
X361280D01*
Y-28546D01*
X359968D01*
X374399D02*
Y-36417D01*
X379647D01*
X386207D02*
X383583D01*
X382271Y-35105D01*
Y-32482D01*
X383583Y-31170D01*
X386207D01*
X387518Y-32482D01*
Y-33794D01*
X382271D01*
X390142Y-36417D02*
Y-31170D01*
X394078D01*
X395390Y-32482D01*
Y-36417D01*
X400638Y-39041D02*
X401950D01*
X403261Y-37729D01*
Y-31170D01*
X399326D01*
X398014Y-32482D01*
Y-35105D01*
X399326Y-36417D01*
X403261D01*
X407197Y-29858D02*
Y-31170D01*
X405885D01*
X408509D01*
X407197D01*
Y-35105D01*
X408509Y-36417D01*
X412445Y-28546D02*
Y-36417D01*
Y-32482D01*
X413757Y-31170D01*
X416381D01*
X417693Y-32482D01*
Y-36417D01*
M02*
