M48
;Layer_Color=9474304
;FILE_FORMAT=2:5
INCH,LZ
;TYPE=PLATED
T1F00S00C0.01181
T2F00S00C0.02362
T5F00S00C0.03543
T6F00S00C0.03622
;TYPE=NON_PLATED
T8F00S00C0.05118
T9F00S00C0.09843
%
T01
X0071456Y0035039
X0035236Y0042126
X0035433Y0024409
X0037795Y0019685
X0024213Y0024311
Y-0005689
X-0024213
Y0024311
X-0035236Y0024803
X-0037795Y0019685
X-0035236Y0042126
X-0067125Y0039371
X-0015Y-0057795
Y-0068819
X0015
Y-0057795
T02
X-0062598Y-000315
Y000315
X-0057874Y0006299
Y0
Y-0006299
T05
X0055906Y0051181
X0045906
X0035906
X-004378
X-005378
X-006378
T06
X0048524Y-001378
Y-0003937
Y0003937
Y0013779
T08
X007874Y-0057087
Y-0041339
T09
X0049213Y-0075787
X-0049213Y0075787
M30
